G04 DipTrace 4.0.0.3*
G04 1 - Top.gbr*
%MOIN*%
G04 #@! TF.FileFunction,Copper,L1,Top*
G04 #@! TF.Part,Single*
%AMOUTLINE0*
4,1,8,
0.03,0.012427,
0.012427,0.03,
-0.012427,0.03,
-0.03,0.012427,
-0.03,-0.012427,
-0.012427,-0.03,
0.012427,-0.03,
0.03,-0.012427,
0.03,0.012427,
0*%
%AMOUTLINE3*
4,1,8,
0.011888,-0.028701,
0.028701,-0.011888,
0.028701,0.011888,
0.011888,0.028701,
-0.011888,0.028701,
-0.028701,0.011888,
-0.028701,-0.011888,
-0.011888,-0.028701,
0.011888,-0.028701,
0*%
G04 #@! TA.AperFunction,Conductor*
%ADD15C,0.019685*%
%ADD16C,0.007874*%
G04 #@! TA.AperFunction,CopperBalancing*
%ADD17C,0.025*%
%ADD18R,0.062992X0.070866*%
%ADD21R,0.094488X0.094488*%
G04 #@! TA.AperFunction,ComponentPad*
%ADD22R,0.074803X0.098425*%
%ADD23O,0.074803X0.098425*%
%ADD25R,0.059055X0.015748*%
%ADD27R,0.047244X0.047244*%
G04 #@! TA.AperFunction,ComponentPad*
%ADD28R,0.098425X0.074803*%
%ADD29O,0.098425X0.074803*%
%ADD31O,0.088X0.044*%
%ADD32R,0.070866X0.062992*%
G04 #@! TA.AperFunction,ComponentPad*
%ADD33R,0.062992X0.062992*%
%ADD34C,0.062992*%
%ADD35R,0.074803X0.074803*%
%ADD36C,0.074803*%
%ADD37C,0.244094*%
%ADD39C,0.126614*%
%ADD40C,0.05*%
%ADD41O,0.104X0.052*%
G04 #@! TA.AperFunction,ViaPad*
%ADD42C,0.04*%
G04 #@! TA.AperFunction,ComponentPad*
%ADD95OUTLINE0*%
%ADD98OUTLINE3*%
%FSLAX26Y26*%
G04*
G70*
G90*
G75*
G01*
G04 Top*
%LPD*%
X1218062Y4106841D2*
D15*
X1435156Y3889747D1*
X2591404D1*
X3030560Y3450591D1*
X3136811D1*
X1837765Y1676428D2*
X1405560D1*
Y1619341D1*
X1218060Y4267396D2*
X1174311Y4311146D1*
Y4500591D1*
X1718060Y5006841D2*
D16*
X1788136D1*
X1810731Y5029436D1*
X2090450D1*
X2197694Y4922192D1*
X2785875D1*
X2805560Y4941877D1*
Y5006841D1*
X1918060Y1575591D2*
D15*
Y2016361D1*
X1886564Y2047857D1*
X658466D1*
X626970Y2079353D1*
Y2597310D1*
X646655Y2616995D1*
X626970Y2636680D1*
Y2864652D1*
X631659Y2869341D1*
Y3598814D1*
X651344Y3618499D1*
X631659Y3638184D1*
Y3791831D1*
X663155Y3823327D1*
X774311D1*
X1205562Y3838091D2*
X1164911D1*
Y3864983D1*
X1068899D1*
Y4089617D1*
X936810D1*
Y4156841D1*
X2757371Y4129038D2*
X2816425Y4188092D1*
X3136812D1*
X646655Y2616995D2*
X784293D1*
X836639Y2669341D1*
X1036811D1*
X1249310Y3556841D2*
X1184068D1*
X1164064Y3576845D1*
X1122411D1*
X1972046Y4294341D2*
Y4113092D1*
X1122411Y3823329D2*
X1068903D1*
X1068899Y3823327D1*
X1011811D1*
X631659Y2869341D2*
X736811D1*
X1618060Y5006841D2*
Y5077707D1*
X1649556Y5109203D1*
X2674064D1*
X2705560Y5077707D1*
Y5006841D1*
X1122411Y3576845D2*
X1080757Y3618499D1*
X651344D1*
X1972046Y4113092D2*
Y4006252D1*
X1940549Y3974755D1*
X1550148D1*
X1418062Y4106841D1*
X855560Y1444341D2*
D16*
Y1319688D1*
X835873Y1300000D1*
X768060D1*
X1405562Y3838091D2*
X1467375D1*
Y3687601D1*
X1359546Y3556841D2*
Y3330772D1*
X1339864Y3311089D1*
X969060D1*
X949375Y3291404D1*
Y2869341D1*
X849375Y2769341D1*
X736811D1*
X1518060Y5006841D2*
Y4939322D1*
X1498375Y4919636D1*
X1037105D1*
X899310Y4781841D1*
X1359546Y3330772D2*
X1712945D1*
X1732627Y3311089D1*
Y3077362D1*
X1793060Y3016929D1*
X1053493Y1248819D2*
X1008218D1*
X988533Y1229134D1*
Y1224566D1*
X920584Y1156617D1*
X905154Y1172047D1*
X768060D1*
X920584Y1156617D2*
X900899Y1136932D1*
Y1089373D1*
X920587Y1069685D1*
X1053493D1*
X1624310Y4031844D2*
X1561001D1*
Y4226971D1*
X1504619D1*
X1469927Y4192278D1*
X1318060D1*
X1298375Y4211963D1*
X1047046D1*
Y4156841D1*
X2029627Y4941877D2*
X1756875Y4669125D1*
X1714911D1*
X1053493Y1069685D2*
X1098770D1*
X1118458Y1089373D1*
Y1126770D1*
X1489860D1*
X1509546Y1146457D1*
Y1213092D1*
Y1356841D1*
X1318060Y4192278D2*
Y4159999D1*
X1318062Y4159997D1*
Y4106841D1*
X949375Y2869341D2*
X1036811D1*
X1467375Y3687601D2*
Y3576526D1*
X1447690Y3556841D1*
X1359546D1*
X768060Y1172047D2*
X558564D1*
X538877Y1191735D1*
Y1451084D1*
X2022046Y1313092D2*
Y1450591D1*
X1509546Y1213092D2*
X2002360D1*
X2022046Y1232778D1*
Y1313092D1*
X1118458Y1126770D2*
X1098772Y1146457D1*
X1053493D1*
X1561001Y4226971D2*
X1596749Y4262719D1*
X1781793D1*
X1801478Y4243034D1*
Y4113092D1*
X1861810D1*
X1714911Y4669125D2*
X1755778D1*
X1874311Y4550592D1*
X1509546Y1494341D2*
X1515797D1*
Y1619341D1*
X1509546Y1356841D2*
Y1494341D1*
X829745Y4049282D2*
X834546Y4054083D1*
Y4156841D1*
X884836Y1682542D2*
X939861D1*
X959546Y1662857D1*
Y1588092D1*
X1036811Y2469341D2*
X2138545D1*
X2251045Y2581841D1*
X3136811D1*
X1249340Y3624085D2*
X1205562Y3667864D1*
Y3738091D1*
X768060Y1325591D2*
X637619D1*
X617934Y1345276D1*
Y1484865D1*
X459820Y1642979D1*
Y4137156D1*
X479505Y4156841D1*
X724310D1*
X768060Y1223228D2*
X883119D1*
X902804Y1242913D1*
Y1588092D1*
X849311D1*
X1120623Y3069341D2*
X1104560Y3053278D1*
Y2898652D1*
X1124245Y2878967D1*
X3249332D1*
X1925115Y4977625D2*
X1767387Y4819896D1*
X1056793D1*
X1037108Y4800211D1*
Y4303318D1*
X1001186Y4267396D1*
X1976927Y4978514D2*
X1771546Y4773134D1*
X1098743D1*
X1079056Y4753448D1*
Y4267396D1*
X736811Y2269341D2*
X846080D1*
X865766Y2249655D1*
Y2136172D1*
X885451Y2116487D1*
X3301143D1*
X3320828Y2136172D1*
Y3630904D1*
X3301142Y3650591D1*
X3136811D1*
X2940175Y2423495D2*
X992013D1*
X937860Y2369341D1*
X736811D1*
X3136811Y2781841D2*
X1745108D1*
X1574356Y2611089D1*
X977804D1*
X836056Y2469341D1*
X736811D1*
X1036811Y3269341D2*
X1673396D1*
X1693083Y3249655D1*
Y2986211D1*
X1712768Y2966526D1*
X2765920D1*
X2785606Y2986213D1*
Y3330906D1*
X2805291Y3350591D1*
X3136811D1*
X1910706Y4045845D2*
X1801478D1*
X1781793Y4065530D1*
Y4200591D1*
X1734546D1*
X2028297Y4412483D2*
X1929743D1*
X1874311Y4467915D1*
X2028297Y1642837D2*
Y1575591D1*
X1011811Y3713091D2*
X942722D1*
Y3892575D1*
X1011811Y3961664D1*
X774311Y3713091D2*
X825493D1*
X845178Y3732776D1*
Y3903297D1*
X774311Y3974164D1*
X1253808Y4495621D2*
X1258778Y4500591D1*
X1347539D1*
X946115Y4231648D2*
X1261119D1*
X1374993Y4345522D1*
X2541131D1*
X2583701Y4388092D1*
X3136812D1*
X1624310Y4200591D2*
Y4136190D1*
X1643995Y4116505D1*
X1714860D1*
X1734546Y4096819D1*
Y4031844D1*
X1140308Y2930778D2*
X3285080D1*
X1158159Y3511089D2*
X970249D1*
X928501Y3469341D1*
X736811D1*
X1523025Y4294341D2*
X1861810D1*
X965797Y1511585D2*
Y1444341D1*
X1011811Y4044341D2*
X968155D1*
X937348Y4013534D1*
X621064D1*
X601379Y3993849D1*
Y2041951D1*
X621064Y2022266D1*
X1098773D1*
X1118458Y2002581D1*
Y1172047D1*
X1053493D1*
X1036811Y2569341D2*
X1912556D1*
X2025056Y2681841D1*
X3136811D1*
X774311Y4056841D2*
X581694D1*
X562009Y4037156D1*
Y2022266D1*
X581694Y2002581D1*
X1079088D1*
X1098773Y1982896D1*
Y1197638D1*
X1053493D1*
X897533Y1028664D2*
X907693Y1018504D1*
X1053493D1*
Y992913D2*
X829403Y992916D1*
X768060Y1248819D2*
X706722Y1248822D1*
X1053493Y1120866D2*
X992155Y1120865D1*
X1399310Y1213092D2*
X1154206Y1213089D1*
X1399310Y1356841D2*
Y1213092D1*
X1399311Y1494341D2*
X1399310Y1356841D1*
X1488627Y2646837D2*
X1424375Y2711089D1*
X736811D1*
Y2669341D1*
X1572856Y1524412D2*
X1646676Y1450591D1*
X1911811D1*
X1647497Y1383349D2*
X1911811D1*
Y1313092D1*
X1647497Y2511089D2*
X932647D1*
X832647Y2411089D1*
X672245D1*
X652560Y2430774D1*
Y2569341D1*
X736811D1*
D42*
X1837765Y1676428D3*
X1218060Y4267396D3*
X2757371Y4129038D3*
X1122411Y3576845D3*
Y3823329D3*
X2029627Y4941877D3*
X1714911Y4669125D3*
X1467375Y3687601D3*
X1561001Y4226971D3*
X829745Y4049282D3*
X884836Y1682542D3*
X1249340Y3624085D3*
X3249332Y2878967D3*
X1120623Y3069341D3*
X1001186Y4267396D3*
X1925115Y4977625D3*
X1079056Y4267396D3*
X1976927Y4978514D3*
X2940175Y2423495D3*
X1910706Y4045845D3*
X2028297Y4412483D3*
Y1642837D3*
X1253808Y4495621D3*
X946115Y4231648D3*
X3285080Y2930778D3*
X1140308D3*
X1158159Y3511089D3*
X1523025Y4294341D3*
X965797Y1511585D3*
X897533Y1028664D3*
X829403Y992916D3*
X1154206Y1213089D3*
X992155Y1120865D3*
X706722Y1248822D3*
X1488627Y2646837D3*
X1572856Y1524412D3*
X1647497Y1383349D3*
Y2511089D3*
X644949Y5172867D2*
D17*
X3176350D1*
X658261Y5147999D2*
X3163037D1*
X665510Y5123130D2*
X1609612D1*
X2714030D2*
X3155753D1*
X667770Y5098261D2*
X1585605D1*
X2738037D2*
X3153528D1*
X665223Y5073392D2*
X1151657D1*
X1353517D2*
X1382608D1*
X1453526D2*
X1579217D1*
X2744388D2*
X2770105D1*
X2841025D2*
X3156076D1*
X657580Y5048524D2*
X1151657D1*
X1477031D2*
X1559087D1*
X2116882D2*
X2239163D1*
X2564537D2*
X2646592D1*
X2864529D2*
X3163684D1*
X643836Y5023655D2*
X1151657D1*
X1484244D2*
X1551873D1*
X2141749D2*
X2239163D1*
X2571749D2*
X2639379D1*
X2871741D2*
X3177463D1*
X434703Y4998786D2*
X448112D1*
X620906D2*
X1151657D1*
X1484459D2*
X1551657D1*
X1825610D2*
X1881218D1*
X2021251D2*
X2075567D1*
X2166617D2*
X2239163D1*
X2571965D2*
X2639164D1*
X2871957D2*
X3200357D1*
X3373151D2*
X3384227D1*
X434703Y4973917D2*
X494186D1*
X574866D2*
X1151657D1*
X1480870D2*
X1555247D1*
X1780862D2*
X1875871D1*
X2025701D2*
X2100434D1*
X2191486D2*
X2239163D1*
X2568377D2*
X2642752D1*
X2868369D2*
X3246432D1*
X3327076D2*
X3384227D1*
X434703Y4949049D2*
X1151657D1*
X1464938D2*
X1571215D1*
X1764929D2*
X1851004D1*
X2015402D2*
X2125303D1*
X2852436D2*
X3384227D1*
X434703Y4924180D2*
X1826136D1*
X1968142D2*
X2150171D1*
X2832807D2*
X3384227D1*
X434703Y4899311D2*
X1801268D1*
X1943274D2*
X2175146D1*
X2808442D2*
X3384227D1*
X434703Y4874442D2*
X1776400D1*
X1918370D2*
X3384227D1*
X434703Y4849573D2*
X1047556D1*
X1893503D2*
X3384227D1*
X434703Y4824705D2*
X1016051D1*
X1868635D2*
X3384227D1*
X434703Y4799836D2*
X1004173D1*
X1843768D2*
X3384227D1*
X434703Y4774967D2*
X1004173D1*
X1818899D2*
X3384227D1*
X434703Y4750098D2*
X1004173D1*
X1793924D2*
X3384227D1*
X434703Y4725230D2*
X1004173D1*
X1111982D2*
X3384227D1*
X434703Y4700361D2*
X1004173D1*
X1111982D2*
X3384227D1*
X434703Y4675492D2*
X1004173D1*
X1111982D2*
X3384227D1*
X434703Y4650623D2*
X1004173D1*
X1111982D2*
X3058614D1*
X3215009D2*
X3384227D1*
X434703Y4625755D2*
X825182D1*
X973432D2*
X1004173D1*
X1111982D2*
X3058614D1*
X3215009D2*
X3384227D1*
X434703Y4600886D2*
X792026D1*
X1111982D2*
X3058614D1*
X3215009D2*
X3384227D1*
X434703Y4576017D2*
X771895D1*
X1111982D2*
X3058614D1*
X3215009D2*
X3384227D1*
X434703Y4551148D2*
X759049D1*
X1250530D2*
X1271295D1*
X1423778D2*
X1457570D1*
X1578547D2*
X3058614D1*
X3215009D2*
X3384227D1*
X434703Y4526280D2*
X751476D1*
X1423778D2*
X1457570D1*
X1578547D2*
X3058614D1*
X3215009D2*
X3384227D1*
X434703Y4501411D2*
X748391D1*
X1423778D2*
X1457570D1*
X1578547D2*
X1821686D1*
X1926911D2*
X3060014D1*
X3213610D2*
X3384227D1*
X434703Y4476542D2*
X749503D1*
X1423778D2*
X1457570D1*
X1578547D2*
X1821686D1*
X1926911D2*
X3059655D1*
X3213969D2*
X3384227D1*
X434703Y4451673D2*
X754921D1*
X1423778D2*
X1457570D1*
X1578547D2*
X1821686D1*
X1936097D2*
X2000785D1*
X2055807D2*
X3069990D1*
X3203634D2*
X3384227D1*
X434703Y4426804D2*
X765184D1*
X1111982D2*
X1135474D1*
X1213139D2*
X1821686D1*
X2075041D2*
X3071676D1*
X3201948D2*
X3384227D1*
X434703Y4401936D2*
X781547D1*
X1111982D2*
X1135474D1*
X1213139D2*
X1894747D1*
X2076081D2*
X2552001D1*
X3213503D2*
X3384227D1*
X434703Y4377067D2*
X807312D1*
X991303D2*
X1004173D1*
X1111982D2*
X1135474D1*
X1213139D2*
X1995689D1*
X2060903D2*
X2527134D1*
X3214041D2*
X3384227D1*
X434703Y4352198D2*
X858160D1*
X940454D2*
X1004173D1*
X1111982D2*
X1135474D1*
X1213139D2*
X1336138D1*
X2593352D2*
X3069631D1*
X3203993D2*
X3384227D1*
X434703Y4327329D2*
X1004173D1*
X1111982D2*
X1135474D1*
X1213139D2*
X1311270D1*
X2568484D2*
X3102752D1*
X3170873D2*
X3384227D1*
X434703Y4302461D2*
X968146D1*
X1112089D2*
X1136514D1*
X1251104D2*
X1286402D1*
X1377453D2*
X1474759D1*
X2032518D2*
X3384227D1*
X434703Y4277592D2*
X936495D1*
X1126909D2*
X1153990D1*
X1352584D2*
X1477163D1*
X2032518D2*
X3384227D1*
X434703Y4252723D2*
X902190D1*
X1327717D2*
X1499806D1*
X1546252D2*
X1563823D1*
X2032518D2*
X3384227D1*
X434703Y4227854D2*
X897274D1*
X1302849D2*
X1563823D1*
X1797799D2*
X1933214D1*
X2010881D2*
X3072501D1*
X3201122D2*
X3384227D1*
X434703Y4202986D2*
X663811D1*
X1273819D2*
X1563823D1*
X1814630D2*
X1933214D1*
X2010881D2*
X2777427D1*
X3213252D2*
X3384227D1*
X434703Y4178117D2*
X455252D1*
X997295D2*
X1563823D1*
X1814738D2*
X1933214D1*
X2010881D2*
X2752558D1*
X3214220D2*
X3384227D1*
X997295Y4153248D2*
X1151657D1*
X1284441D2*
X1371627D1*
X1464471D2*
X1563823D1*
X1814738D2*
X1911541D1*
X2032518D2*
X2715167D1*
X3204675D2*
X3384227D1*
X997295Y4128379D2*
X1151657D1*
X1284441D2*
X1355407D1*
X1480727D2*
X1592387D1*
X1814738D2*
X1911541D1*
X2032518D2*
X2708385D1*
X2810594D2*
X3072896D1*
X3200728D2*
X3384227D1*
X492764Y4103510D2*
X663811D1*
X1104984D2*
X1151657D1*
X1284441D2*
X1351747D1*
X1484352D2*
X1611441D1*
X1814738D2*
X1911541D1*
X2032518D2*
X2716028D1*
X2798718D2*
X3060480D1*
X3213144D2*
X3384227D1*
X492764Y4078642D2*
X557953D1*
X868291D2*
X899678D1*
X1107747D2*
X1151657D1*
X1300157D2*
X1358243D1*
X1500140D2*
X1674059D1*
X1814738D2*
X1875261D1*
X2032518D2*
X3059297D1*
X3214328D2*
X3384227D1*
X492764Y4053773D2*
X534018D1*
X878518D2*
X928349D1*
X1107747D2*
X1151657D1*
X1325025D2*
X1379988D1*
X1525008D2*
X1674059D1*
X2032518D2*
X3068591D1*
X3205034D2*
X3384227D1*
X492764Y4028904D2*
X529067D1*
X1107747D2*
X1242121D1*
X1349894D2*
X1442104D1*
X1549875D2*
X1674059D1*
X2010881D2*
X3098446D1*
X3175178D2*
X3384227D1*
X492764Y4004035D2*
X529067D1*
X1107747D2*
X1266988D1*
X1374761D2*
X1466971D1*
X2010808D2*
X3384227D1*
X492764Y3979167D2*
X529067D1*
X634291D2*
X721693D1*
X826917D2*
X959210D1*
X1107747D2*
X1291857D1*
X1399629D2*
X1491839D1*
X1998858D2*
X3384227D1*
X492764Y3954298D2*
X529067D1*
X634291D2*
X721693D1*
X839728D2*
X958923D1*
X1107747D2*
X1316724D1*
X1424496D2*
X1516707D1*
X1973991D2*
X3384227D1*
X492764Y3929429D2*
X529067D1*
X634291D2*
X721693D1*
X864596D2*
X934055D1*
X1107747D2*
X1341592D1*
X1449365D2*
X3384227D1*
X492764Y3904560D2*
X529067D1*
X634291D2*
X798377D1*
X878088D2*
X912238D1*
X1000238D2*
X1030081D1*
X1107747D2*
X1366459D1*
X2630492D2*
X3384227D1*
X492764Y3879692D2*
X529067D1*
X634291D2*
X709887D1*
X878123D2*
X909798D1*
X1246367D2*
X1264764D1*
X1346341D2*
X1391327D1*
X2655360D2*
X3384227D1*
X492764Y3854823D2*
X529067D1*
X634291D2*
X642531D1*
X878123D2*
X909798D1*
X1364211D2*
X1422618D1*
X2680228D2*
X3384227D1*
X492764Y3829954D2*
X529067D1*
X878123D2*
X909798D1*
X1364570D2*
X2597323D1*
X2705096D2*
X3384227D1*
X492764Y3805085D2*
X529067D1*
X878123D2*
X909798D1*
X1354953D2*
X2622190D1*
X2729963D2*
X3058614D1*
X3215009D2*
X3384227D1*
X492764Y3780217D2*
X529067D1*
X673942D2*
X709887D1*
X878123D2*
X909798D1*
X1076240D2*
X1102496D1*
X1142303D2*
X1165293D1*
X1245829D2*
X1265302D1*
X1345839D2*
X1365311D1*
X1445812D2*
X2647059D1*
X2754831D2*
X3058614D1*
X3215009D2*
X3384227D1*
X492764Y3755348D2*
X529067D1*
X670497D2*
X709887D1*
X878123D2*
X909798D1*
X1076240D2*
X1147028D1*
X1464113D2*
X1748555D1*
X1837596D2*
X2614692D1*
X2779698D2*
X3058614D1*
X3215009D2*
X3384227D1*
X492764Y3730479D2*
X529067D1*
X670497D2*
X709887D1*
X878016D2*
X909798D1*
X1076240D2*
X1146562D1*
X1464543D2*
X1739297D1*
X1846818D2*
X2605433D1*
X2804567D2*
X3058614D1*
X3215009D2*
X3384227D1*
X492764Y3705610D2*
X529067D1*
X670497D2*
X709887D1*
X863555D2*
X910731D1*
X1076240D2*
X1155640D1*
X1455465D2*
X1743100D1*
X1843013D2*
X2609236D1*
X2709151D2*
X2721661D1*
X2829434D2*
X3058614D1*
X3215009D2*
X3384227D1*
X492764Y3680741D2*
X529067D1*
X670497D2*
X709887D1*
X838723D2*
X947369D1*
X1076240D2*
X1172650D1*
X1238509D2*
X1751783D1*
X1834329D2*
X2617921D1*
X2700466D2*
X2746530D1*
X2854302D2*
X3066150D1*
X3307735D2*
X3384227D1*
X492764Y3655873D2*
X529067D1*
X670497D2*
X709887D1*
X838723D2*
X947369D1*
X1076240D2*
X1175089D1*
X1285768D2*
X1739870D1*
X1846243D2*
X2606007D1*
X2712381D2*
X2771398D1*
X2879169D2*
X3058829D1*
X3341394D2*
X3384227D1*
X492764Y3631004D2*
X529067D1*
X1122136D2*
X1196871D1*
X1297825D2*
X1741556D1*
X1844556D2*
X2607694D1*
X2710693D2*
X2796265D1*
X2904037D2*
X3061701D1*
X3353774D2*
X3384227D1*
X492764Y3606135D2*
X529067D1*
X1309811D2*
X1755839D1*
X1830274D2*
X2621975D1*
X2696412D2*
X2821133D1*
X2928906D2*
X3076592D1*
X3197031D2*
X3287915D1*
X3353774D2*
X3384227D1*
X492764Y3581266D2*
X529067D1*
X670497D2*
X1064100D1*
X1309811D2*
X1740768D1*
X1845346D2*
X2606904D1*
X2711483D2*
X2846000D1*
X2953773D2*
X3287915D1*
X3353774D2*
X3384227D1*
X492764Y3556398D2*
X529067D1*
X670497D2*
X1078167D1*
X1309811D2*
X1740408D1*
X1845705D2*
X2606546D1*
X2711841D2*
X2870869D1*
X2978640D2*
X3287915D1*
X3353774D2*
X3384227D1*
X492764Y3531529D2*
X529067D1*
X670497D2*
X945143D1*
X1309811D2*
X1754332D1*
X1831782D2*
X2620469D1*
X2697954D2*
X2895736D1*
X3003508D2*
X3287915D1*
X3353774D2*
X3384227D1*
X492764Y3506660D2*
X529067D1*
X802228D2*
X920276D1*
X1309811D2*
X1742059D1*
X1844054D2*
X2608196D1*
X2710192D2*
X2920604D1*
X3028377D2*
X3091879D1*
X3181745D2*
X3287915D1*
X3353774D2*
X3384227D1*
X492764Y3481791D2*
X529067D1*
X1196776D2*
X1739619D1*
X1846495D2*
X2605756D1*
X2712631D2*
X2945471D1*
X3206864D2*
X3287915D1*
X3353774D2*
X3384227D1*
X492764Y3456923D2*
X529067D1*
X1116323D2*
X1750564D1*
X1835550D2*
X2616736D1*
X2701686D2*
X2970340D1*
X3214686D2*
X3287915D1*
X3353774D2*
X3384227D1*
X492764Y3432054D2*
X529067D1*
X802265D2*
X971375D1*
X1102256D2*
X1743745D1*
X1842367D2*
X2609883D1*
X2708541D2*
X2995207D1*
X3212282D2*
X3287915D1*
X3353774D2*
X3384227D1*
X492764Y3407185D2*
X529067D1*
X801690D2*
X971949D1*
X1101682D2*
X1739189D1*
X1846925D2*
X2605325D1*
X2713062D2*
X3075623D1*
X3198000D2*
X3287915D1*
X3353774D2*
X3384227D1*
X492764Y3382316D2*
X529067D1*
X816188D2*
X957451D1*
X1116180D2*
X1747550D1*
X1838564D2*
X2613686D1*
X2704701D2*
X3067047D1*
X3206577D2*
X3287915D1*
X3353774D2*
X3384227D1*
X492764Y3357448D2*
X529067D1*
X816438D2*
X957201D1*
X1116430D2*
X1745864D1*
X1840251D2*
X2612000D1*
X2706387D2*
X2766625D1*
X3214651D2*
X3287915D1*
X3353774D2*
X3384227D1*
X492764Y3332579D2*
X529067D1*
X802768D2*
X970836D1*
X1102795D2*
X1739081D1*
X1847033D2*
X2605218D1*
X2713205D2*
X2752738D1*
X3212427D2*
X3287915D1*
X3353774D2*
X3384227D1*
X492764Y3307710D2*
X529067D1*
X801117D2*
X972487D1*
X1101144D2*
X1745110D1*
X1841041D2*
X2611247D1*
X2707177D2*
X2752665D1*
X2818525D2*
X3075121D1*
X3198503D2*
X3287915D1*
X3353774D2*
X3384227D1*
X492764Y3282841D2*
X529067D1*
X816045D2*
X957596D1*
X1705434D2*
X1748483D1*
X1837631D2*
X2614619D1*
X2703768D2*
X2752665D1*
X2818525D2*
X3287915D1*
X3353774D2*
X3384227D1*
X492764Y3257972D2*
X529067D1*
X816547D2*
X957056D1*
X1724848D2*
X1739297D1*
X1846818D2*
X2605433D1*
X2712954D2*
X2752665D1*
X2818525D2*
X3287915D1*
X3353774D2*
X3384227D1*
X492764Y3233104D2*
X529067D1*
X803306D2*
X970335D1*
X1103297D2*
X1495643D1*
X1640483D2*
X1660136D1*
X1725996D2*
X1743136D1*
X1842978D2*
X2609273D1*
X2709114D2*
X2752665D1*
X2818525D2*
X3287915D1*
X3353774D2*
X3384227D1*
X492764Y3208235D2*
X529067D1*
X800579D2*
X973062D1*
X1100570D2*
X1498298D1*
X1637828D2*
X1660136D1*
X1725996D2*
X1751748D1*
X1834402D2*
X2617885D1*
X2700538D2*
X2752665D1*
X2818525D2*
X3094929D1*
X3178696D2*
X3287915D1*
X3353774D2*
X3384227D1*
X492764Y3183366D2*
X529067D1*
X815900D2*
X957739D1*
X1115892D2*
X1519720D1*
X1616406D2*
X1660136D1*
X1725996D2*
X1739870D1*
X1846280D2*
X2606007D1*
X2712416D2*
X2752665D1*
X2818525D2*
X3067657D1*
X3205967D2*
X3287915D1*
X3353774D2*
X3384227D1*
X492764Y3158497D2*
X529067D1*
X816655D2*
X956949D1*
X1116682D2*
X1660136D1*
X1725996D2*
X1741593D1*
X1844521D2*
X2607730D1*
X2710657D2*
X2752665D1*
X2818525D2*
X3059081D1*
X3214508D2*
X3287915D1*
X3353774D2*
X3384227D1*
X492764Y3133629D2*
X529067D1*
X803772D2*
X969832D1*
X1103799D2*
X1660136D1*
X1725996D2*
X1755768D1*
X1830346D2*
X2621904D1*
X2696483D2*
X2752665D1*
X2818525D2*
X3060911D1*
X3212713D2*
X3287915D1*
X3353774D2*
X3384227D1*
X492764Y3108760D2*
X529067D1*
X799969D2*
X973635D1*
X1147757D2*
X1660136D1*
X1725996D2*
X1740768D1*
X1845346D2*
X2606904D1*
X2711518D2*
X2752665D1*
X2818525D2*
X3074188D1*
X3199436D2*
X3287915D1*
X3353774D2*
X3384227D1*
X492764Y3083891D2*
X529067D1*
X815757D2*
X957882D1*
X1167278D2*
X1660136D1*
X1725996D2*
X1740445D1*
X1845705D2*
X2606581D1*
X2711841D2*
X2752665D1*
X2818525D2*
X3287915D1*
X3353774D2*
X3384227D1*
X492764Y3059022D2*
X529067D1*
X816762D2*
X956841D1*
X1168463D2*
X1508453D1*
X1627673D2*
X1660136D1*
X1725996D2*
X1754404D1*
X1831747D2*
X2620541D1*
X2697883D2*
X2752665D1*
X2818525D2*
X3287915D1*
X3353774D2*
X3384227D1*
X492764Y3034154D2*
X529067D1*
X804274D2*
X969365D1*
X1153499D2*
X1495822D1*
X1640304D2*
X1660136D1*
X1725996D2*
X2608160D1*
X2710227D2*
X2752665D1*
X2818525D2*
X3287915D1*
X3353774D2*
X3384227D1*
X492764Y3009285D2*
X529067D1*
X799358D2*
X974245D1*
X1137495D2*
X1497903D1*
X1638223D2*
X1660136D1*
X1725996D2*
X2605791D1*
X2712631D2*
X2752665D1*
X2818525D2*
X3287915D1*
X3353774D2*
X3384227D1*
X492764Y2984416D2*
X529067D1*
X815577D2*
X958026D1*
X1137495D2*
X1517963D1*
X1618164D2*
X1660207D1*
X2818490D2*
X3287915D1*
X3353774D2*
X3384227D1*
X492764Y2959547D2*
X529067D1*
X816870D2*
X956734D1*
X3353774D2*
X3384227D1*
X492764Y2934678D2*
X529067D1*
X804740D2*
X968899D1*
X3353774D2*
X3384227D1*
X492764Y2909810D2*
X529067D1*
X798748D2*
X1071635D1*
X3353774D2*
X3384227D1*
X492764Y2884941D2*
X529067D1*
X815434D2*
X1074900D1*
X3353774D2*
X3384227D1*
X492764Y2860072D2*
X529067D1*
X816978D2*
X1097615D1*
X3353774D2*
X3384227D1*
X492764Y2835203D2*
X529067D1*
X805172D2*
X3058614D1*
X3215009D2*
X3231146D1*
X3267508D2*
X3287915D1*
X3353774D2*
X3384227D1*
X492764Y2810335D2*
X529067D1*
X665797D2*
X975537D1*
X1098094D2*
X1731940D1*
X3215009D2*
X3287915D1*
X3353774D2*
X3384227D1*
X492764Y2785466D2*
X529067D1*
X665797D2*
X958349D1*
X1115282D2*
X1703197D1*
X3215009D2*
X3287915D1*
X3353774D2*
X3384227D1*
X492764Y2760597D2*
X529067D1*
X665797D2*
X956555D1*
X1117076D2*
X1678329D1*
X3215009D2*
X3287915D1*
X3353774D2*
X3384227D1*
X492764Y2735728D2*
X529067D1*
X665797D2*
X716454D1*
X1444735D2*
X1653462D1*
X1744512D2*
X3058614D1*
X3215009D2*
X3287915D1*
X3353774D2*
X3384227D1*
X492764Y2710860D2*
X529067D1*
X665797D2*
X676163D1*
X1470142D2*
X1628593D1*
X1719644D2*
X2013416D1*
X3208049D2*
X3287915D1*
X3353774D2*
X3384227D1*
X492764Y2685991D2*
X529067D1*
X1516181D2*
X1603726D1*
X1694776D2*
X1983668D1*
X3214866D2*
X3287915D1*
X3353774D2*
X3384227D1*
X492764Y2661122D2*
X529067D1*
X1117148D2*
X1428827D1*
X1535379D2*
X1578858D1*
X1669908D2*
X1958801D1*
X3211564D2*
X3287915D1*
X3353774D2*
X3384227D1*
X492764Y2636253D2*
X529067D1*
X1645041D2*
X1933932D1*
X2025018D2*
X3077740D1*
X3195883D2*
X3287915D1*
X3353774D2*
X3384227D1*
X492764Y2611385D2*
X529067D1*
X832551D2*
X932584D1*
X1620173D2*
X1909064D1*
X2000151D2*
X2241244D1*
X3207761D2*
X3287915D1*
X3353774D2*
X3384227D1*
X492764Y2586516D2*
X529067D1*
X814932D2*
X907680D1*
X1975247D2*
X2210169D1*
X3214831D2*
X3287915D1*
X3353774D2*
X3384227D1*
X492764Y2561647D2*
X529067D1*
X817228D2*
X882812D1*
X1950379D2*
X2185301D1*
X3211744D2*
X3287915D1*
X3353774D2*
X3384227D1*
X492764Y2536778D2*
X529067D1*
X806499D2*
X857945D1*
X1688748D2*
X2160433D1*
X2251520D2*
X3077202D1*
X3196421D2*
X3287915D1*
X3353774D2*
X3384227D1*
X492764Y2511909D2*
X529067D1*
X796021D2*
X833077D1*
X1696499D2*
X2135566D1*
X2226652D2*
X3287915D1*
X3353774D2*
X3384227D1*
X492764Y2487041D2*
X529067D1*
X2201783D2*
X3287915D1*
X3353774D2*
X3384227D1*
X492764Y2462172D2*
X529067D1*
X929259D2*
X956303D1*
X2176916D2*
X2911885D1*
X2968486D2*
X3287915D1*
X3353774D2*
X3384227D1*
X492764Y2437303D2*
X529067D1*
X904391D2*
X960286D1*
X2987073D2*
X3090766D1*
X3182857D2*
X3287915D1*
X3353774D2*
X3384227D1*
X492764Y2412434D2*
X529067D1*
X879524D2*
X935419D1*
X2987827D2*
X3066402D1*
X3207223D2*
X3287915D1*
X3353774D2*
X3384227D1*
X492764Y2387566D2*
X529067D1*
X1114529D2*
X2908152D1*
X2972181D2*
X3058866D1*
X3214759D2*
X3287915D1*
X3353774D2*
X3384227D1*
X492764Y2362697D2*
X529067D1*
X1117364D2*
X3061556D1*
X3212067D2*
X3287915D1*
X3353774D2*
X3384227D1*
X492764Y2337828D2*
X529067D1*
X807289D2*
X966315D1*
X1107281D2*
X1244633D1*
X1307908D2*
X2750549D1*
X2813824D2*
X3076198D1*
X3197427D2*
X3287915D1*
X3353774D2*
X3384227D1*
X492764Y2312959D2*
X529067D1*
X665797D2*
X679098D1*
X794513D2*
X979089D1*
X1094505D2*
X1199203D1*
X1353339D2*
X2705119D1*
X2859253D2*
X3066688D1*
X3206936D2*
X3287915D1*
X3353774D2*
X3384227D1*
X492764Y2288091D2*
X529067D1*
X872849D2*
X959282D1*
X1114349D2*
X1178714D1*
X1373828D2*
X2684630D1*
X2879744D2*
X3058902D1*
X3214723D2*
X3287915D1*
X3353774D2*
X3384227D1*
X492764Y2263222D2*
X529067D1*
X895492D2*
X956160D1*
X1117436D2*
X1167589D1*
X1384953D2*
X2673505D1*
X2890867D2*
X3061378D1*
X3212247D2*
X3287915D1*
X3353774D2*
X3384227D1*
X492764Y2238353D2*
X529067D1*
X807684D2*
X831534D1*
X898685D2*
X965957D1*
X1107675D2*
X1162996D1*
X1389581D2*
X2668877D1*
X2895461D2*
X3075696D1*
X3197929D2*
X3287915D1*
X3353774D2*
X3384227D1*
X492764Y2213484D2*
X529067D1*
X665797D2*
X679924D1*
X793724D2*
X832825D1*
X898685D2*
X979915D1*
X1093717D2*
X1164073D1*
X1388505D2*
X2669953D1*
X2894420D2*
X3287915D1*
X3353774D2*
X3384227D1*
X492764Y2188615D2*
X529067D1*
X814142D2*
X832825D1*
X898685D2*
X959497D1*
X1114134D2*
X1170999D1*
X1381579D2*
X2676878D1*
X2887459D2*
X3287915D1*
X3353774D2*
X3384227D1*
X492764Y2163747D2*
X529067D1*
X817516D2*
X832825D1*
X898685D2*
X956123D1*
X1117508D2*
X1185136D1*
X1367404D2*
X2691052D1*
X2873320D2*
X3287915D1*
X3353774D2*
X3384227D1*
X492764Y2138878D2*
X529067D1*
X808042D2*
X832825D1*
X3353774D2*
X3384227D1*
X492764Y2114009D2*
X529067D1*
X665797D2*
X842407D1*
X3344193D2*
X3384227D1*
X492764Y2089140D2*
X529067D1*
X671072D2*
X869608D1*
X3316992D2*
X3384227D1*
X492764Y2064272D2*
X529067D1*
X1924041D2*
X3384227D1*
X492764Y2039403D2*
X529067D1*
X1948656D2*
X3384227D1*
X492764Y2014534D2*
X530071D1*
X1956911D2*
X3384227D1*
X492764Y1989665D2*
X549089D1*
X1151382D2*
X1879209D1*
X1956911D2*
X3384227D1*
X492764Y1964797D2*
X1065858D1*
X1151382D2*
X1879209D1*
X1956911D2*
X3384227D1*
X492764Y1939928D2*
X1065858D1*
X1151382D2*
X1879209D1*
X1956911D2*
X3384227D1*
X492764Y1915059D2*
X1065858D1*
X1151382D2*
X1879209D1*
X1956911D2*
X3384227D1*
X492764Y1890190D2*
X1065858D1*
X1151382D2*
X1879209D1*
X1956911D2*
X3384227D1*
X492764Y1865322D2*
X1065858D1*
X1151382D2*
X1879209D1*
X1956911D2*
X3384227D1*
X492764Y1840453D2*
X1065858D1*
X1151382D2*
X1879209D1*
X1956911D2*
X3384227D1*
X492764Y1815584D2*
X1065858D1*
X1151382D2*
X1879209D1*
X1956911D2*
X3384227D1*
X492764Y1790715D2*
X623980D1*
X667160D2*
X702745D1*
X745891D2*
X1065858D1*
X1151382D2*
X1879209D1*
X1956911D2*
X3384227D1*
X492764Y1765846D2*
X594411D1*
X775459D2*
X1065858D1*
X1151382D2*
X1879209D1*
X1956911D2*
X3384227D1*
X492764Y1740978D2*
X587881D1*
X781990D2*
X1065858D1*
X1151382D2*
X1879209D1*
X1956911D2*
X3384227D1*
X492764Y1716109D2*
X589280D1*
X780591D2*
X850157D1*
X919499D2*
X1065858D1*
X1151382D2*
X1811029D1*
X1864508D2*
X1879209D1*
X1956911D2*
X3384227D1*
X492764Y1691240D2*
X610308D1*
X680832D2*
X689038D1*
X759598D2*
X836665D1*
X976698D2*
X1065858D1*
X1151382D2*
X1369869D1*
X1956911D2*
X3384227D1*
X492764Y1666371D2*
X672280D1*
X776320D2*
X838747D1*
X992272D2*
X1065858D1*
X1151382D2*
X1345072D1*
X1956911D2*
X1985713D1*
X2070878D2*
X3384227D1*
X506831Y1641503D2*
X666610D1*
X1020046D2*
X1065858D1*
X1151382D2*
X1345072D1*
X1870967D2*
X1879203D1*
X1956911D2*
X1979325D1*
X2077265D2*
X3384227D1*
X531698Y1616634D2*
X668404D1*
X780232D2*
X788832D1*
X1020046D2*
X1065858D1*
X1151382D2*
X1345072D1*
X1466050D2*
X1857571D1*
X2088785D2*
X3384227D1*
X434703Y1591765D2*
X465516D1*
X556566D2*
X690079D1*
X758522D2*
X788832D1*
X1020046D2*
X1065858D1*
X1151382D2*
X1345072D1*
X1466050D2*
X1857571D1*
X2088785D2*
X3384227D1*
X434703Y1566896D2*
X490383D1*
X581433D2*
X788832D1*
X1020046D2*
X1065858D1*
X1151382D2*
X1345072D1*
X1466050D2*
X1551479D1*
X1594228D2*
X1857571D1*
X2088785D2*
X3384227D1*
X434703Y1542028D2*
X515251D1*
X606301D2*
X788832D1*
X1020046D2*
X1065858D1*
X1151382D2*
X1338829D1*
X1459807D2*
X1527328D1*
X1618379D2*
X1857571D1*
X2088785D2*
X3384227D1*
X434703Y1517159D2*
X540118D1*
X631169D2*
X869858D1*
X1014448D2*
X1065858D1*
X1151382D2*
X1338829D1*
X1459807D2*
X1524421D1*
X1625627D2*
X1857571D1*
X2088785D2*
X3384227D1*
X434703Y1492290D2*
X564987D1*
X649936D2*
X795076D1*
X1026290D2*
X1065858D1*
X1151382D2*
X1338829D1*
X1459807D2*
X1536730D1*
X1650495D2*
X1851327D1*
X1972304D2*
X3384227D1*
X434703Y1467421D2*
X585009D1*
X650869D2*
X795076D1*
X1026290D2*
X1065858D1*
X1151382D2*
X1338829D1*
X1459807D2*
X1584312D1*
X1972304D2*
X3384227D1*
X434703Y1442552D2*
X585009D1*
X650869D2*
X795076D1*
X1026290D2*
X1065858D1*
X1151382D2*
X1338829D1*
X1459807D2*
X1609180D1*
X1972304D2*
X3384227D1*
X434703Y1417684D2*
X585009D1*
X650869D2*
X795076D1*
X1026290D2*
X1065858D1*
X1151382D2*
X1338829D1*
X1459807D2*
X1613665D1*
X1681356D2*
X1851327D1*
X1972304D2*
X3384227D1*
X434703Y1392815D2*
X585009D1*
X650869D2*
X795076D1*
X1026290D2*
X1065858D1*
X1151382D2*
X1338829D1*
X1459807D2*
X1599492D1*
X1972304D2*
X3384227D1*
X434703Y1367946D2*
X585009D1*
X650869D2*
X822635D1*
X935718D2*
X1065858D1*
X1151382D2*
X1338829D1*
X1459807D2*
X1601142D1*
X1972304D2*
X3384227D1*
X434703Y1343077D2*
X585081D1*
X935718D2*
X994987D1*
X1151382D2*
X1338829D1*
X1459807D2*
X1621776D1*
X1673245D2*
X1851327D1*
X1972304D2*
X3384227D1*
X434703Y1318209D2*
X599471D1*
X935718D2*
X994987D1*
X1151382D2*
X1338829D1*
X1459807D2*
X1851327D1*
X1972304D2*
X3384227D1*
X434703Y1293340D2*
X690832D1*
X935718D2*
X994987D1*
X1151382D2*
X1366388D1*
X1432248D2*
X1851327D1*
X1972304D2*
X3384227D1*
X434703Y1268471D2*
X662089D1*
X826594D2*
X869858D1*
X935718D2*
X994987D1*
X1151382D2*
X1338829D1*
X1459807D2*
X1851327D1*
X1972304D2*
X3384227D1*
X434703Y1243602D2*
X658034D1*
X935718D2*
X994987D1*
X1191787D2*
X1338829D1*
X1459807D2*
X3384227D1*
X434703Y1218734D2*
X668764D1*
X924163D2*
X994987D1*
X1459807D2*
X3384227D1*
X434703Y1193865D2*
X709528D1*
X893591D2*
X994987D1*
X1459807D2*
X3384227D1*
X434703Y1168996D2*
X709528D1*
X826594D2*
X994987D1*
X1171441D2*
X1338829D1*
X1459807D2*
X3384227D1*
X434703Y1144127D2*
X709528D1*
X826594D2*
X949413D1*
X1133045D2*
X3384227D1*
X434703Y1119259D2*
X709528D1*
X826594D2*
X943206D1*
X1112017D2*
X3384227D1*
X434703Y1094390D2*
X709528D1*
X826594D2*
X951423D1*
X1112017D2*
X3384227D1*
X434703Y1069521D2*
X709528D1*
X826594D2*
X872837D1*
X922226D2*
X994987D1*
X1112017D2*
X3384227D1*
X434703Y1044652D2*
X709528D1*
X826594D2*
X851378D1*
X1112017D2*
X3384227D1*
X434703Y1019783D2*
X709528D1*
X1112017D2*
X3384227D1*
X434703Y994915D2*
X709528D1*
X1112017D2*
X3384227D1*
X434703Y970046D2*
X709528D1*
X1112017D2*
X3384227D1*
X434703Y945177D2*
X3384227D1*
X434703Y920308D2*
X3384227D1*
X434703Y895440D2*
X3384227D1*
X434703Y870571D2*
X3384227D1*
X434703Y845702D2*
X3384227D1*
X434703Y820833D2*
X1218079D1*
X1334463D2*
X2723995D1*
X2840379D2*
X3384227D1*
X434703Y795965D2*
X1188546D1*
X1363996D2*
X2694462D1*
X2869912D2*
X3384227D1*
X434703Y771096D2*
X1172865D1*
X1379713D2*
X2678744D1*
X2885593D2*
X3384227D1*
X434703Y746227D2*
X1164827D1*
X1387751D2*
X2670706D1*
X2893631D2*
X3384227D1*
X434703Y721358D2*
X1162781D1*
X1389797D2*
X2668697D1*
X2895676D2*
X3384227D1*
X434703Y696490D2*
X1166370D1*
X1386172D2*
X2672285D1*
X2892088D2*
X3384227D1*
X434703Y671621D2*
X1176273D1*
X1376304D2*
X2682154D1*
X2882219D2*
X3384227D1*
X434703Y646752D2*
X465444D1*
X596253D2*
X1194718D1*
X1357824D2*
X2700634D1*
X2863739D2*
X3221349D1*
X3352159D2*
X3384227D1*
X628442Y621883D2*
X1231930D1*
X1320612D2*
X2737845D1*
X2826528D2*
X3189197D1*
X646850Y597014D2*
X3170752D1*
X657831Y572146D2*
X3159808D1*
X663214Y547277D2*
X3154390D1*
X663752Y522408D2*
X3153887D1*
X659446Y497539D2*
X3158193D1*
X649793Y472671D2*
X3167810D1*
X633251Y447802D2*
X3184353D1*
X3070294Y4651986D2*
X3212517D1*
Y4524198D1*
X3201357D1*
X3205552Y4517098D1*
X3209390Y4507836D1*
X3211731Y4498087D1*
X3212517Y4488092D1*
X3211731Y4478097D1*
X3209390Y4468348D1*
X3205552Y4459085D1*
X3200315Y4450535D1*
X3193803Y4442912D1*
X3188349Y4438112D1*
X3193803Y4433272D1*
X3200315Y4425648D1*
X3205552Y4417098D1*
X3209390Y4407836D1*
X3211731Y4398087D1*
X3212517Y4388092D1*
X3211731Y4378097D1*
X3209390Y4368348D1*
X3205552Y4359085D1*
X3200315Y4350535D1*
X3193803Y4342912D1*
X3186180Y4336400D1*
X3177630Y4331163D1*
X3168367Y4327325D1*
X3158618Y4324984D1*
X3148623Y4324198D1*
X3125001D1*
X3115007Y4324984D1*
X3105257Y4327325D1*
X3095995Y4331163D1*
X3087445Y4336400D1*
X3079822Y4342912D1*
X3073310Y4350535D1*
X3068866Y4357665D1*
X2596289Y4357663D1*
X2560894Y4322383D1*
X2557030Y4319577D1*
X2552776Y4317409D1*
X2548235Y4315934D1*
X2543518Y4315186D1*
X2467640Y4315093D1*
X2030033D1*
X2030034Y4232416D1*
X2008396D1*
X2008381Y4175026D1*
X2030034Y4175017D1*
Y4051167D1*
X2008396D1*
X2008269Y4003402D1*
X2007377Y3997770D1*
X2005614Y3992348D1*
X2003026Y3987268D1*
X1999675Y3982655D1*
X1966241Y3949062D1*
X1961906Y3945360D1*
X1957045Y3942381D1*
X1951777Y3940198D1*
X1946232Y3938867D1*
X1940549Y3938420D1*
X1547298Y3938531D1*
X1541667Y3939424D1*
X1536244Y3941186D1*
X1531164Y3943774D1*
X1526551Y3947126D1*
X1491978Y3981541D1*
X1429531Y4043986D1*
X1423075Y4043144D1*
X1413049D1*
X1403146Y4044713D1*
X1393610Y4047811D1*
X1384677Y4052364D1*
X1376566Y4058256D1*
X1369476Y4065345D1*
X1363584Y4073457D1*
X1359031Y4082390D1*
X1355933Y4091925D1*
X1354365Y4101828D1*
Y4111854D1*
X1355933Y4121757D1*
X1359031Y4131293D1*
X1363584Y4140226D1*
X1369476Y4148337D1*
X1376566Y4155427D1*
X1384677Y4161319D1*
X1393610Y4165871D1*
X1403146Y4168970D1*
X1413049Y4170538D1*
X1423075D1*
X1432978Y4168970D1*
X1442513Y4165871D1*
X1451446Y4161319D1*
X1459558Y4155427D1*
X1466647Y4148337D1*
X1472539Y4140226D1*
X1477092Y4131293D1*
X1480190Y4121757D1*
X1481759Y4111854D1*
Y4101828D1*
X1480882Y4095404D1*
X1565219Y4011068D1*
X1676568Y4011089D1*
X1676558Y4086076D1*
X1641608Y4086169D1*
X1636891Y4086917D1*
X1632350Y4088392D1*
X1628096Y4090560D1*
X1624232Y4093366D1*
X1602793Y4114673D1*
X1599692Y4118304D1*
X1597197Y4122375D1*
X1595370Y4126787D1*
X1594255Y4131430D1*
X1593881Y4136199D1*
X1590434Y4138665D1*
X1566322D1*
Y4262516D1*
X1792534D1*
Y4229035D1*
X1797692Y4226535D1*
X1801555Y4223730D1*
X1804932Y4220353D1*
X1807738Y4216490D1*
X1809906Y4212235D1*
X1811381Y4207694D1*
X1812129Y4202978D1*
X1812222Y4127100D1*
Y4078118D1*
X1819850Y4076274D1*
X1875579D1*
X1880512Y4081198D1*
X1886413Y4085486D1*
X1892915Y4088798D1*
X1899853Y4091052D1*
X1907058Y4092194D1*
X1914055Y4092206D1*
X1914058Y4175017D1*
X1935696D1*
X1935711Y4232407D1*
X1803822Y4232416D1*
Y4263886D1*
X1558194Y4263912D1*
X1553219Y4258988D1*
X1547318Y4254701D1*
X1540816Y4251388D1*
X1533878Y4249134D1*
X1526673Y4247992D1*
X1519377D1*
X1512172Y4249134D1*
X1505234Y4251388D1*
X1498732Y4254701D1*
X1492831Y4258988D1*
X1487672Y4264147D1*
X1483385Y4270049D1*
X1480072Y4276550D1*
X1477818Y4283488D1*
X1476676Y4290693D1*
Y4297990D1*
X1477818Y4305194D1*
X1480072Y4312133D1*
X1481438Y4315098D1*
X1387562Y4315093D1*
X1280882Y4208509D1*
X1277018Y4205703D1*
X1272764Y4203535D1*
X1268223Y4202060D1*
X1263507Y4201312D1*
X1187629Y4201219D1*
X994823D1*
X994798Y4125934D1*
X1071749Y4125840D1*
X1077381Y4124948D1*
X1082803Y4123185D1*
X1087883Y4120597D1*
X1092496Y4117245D1*
X1096528Y4113214D1*
X1099879Y4108601D1*
X1102467Y4103521D1*
X1104230Y4098098D1*
X1105122Y4092467D1*
X1105234Y4043685D1*
Y3901332D1*
X1167761Y3901206D1*
X1173392Y3900314D1*
X1178815Y3898551D1*
X1183895Y3895963D1*
X1186277Y3894371D1*
X1193143Y3894583D1*
X1220067Y3894501D1*
X1224173Y3893850D1*
X1228126Y3892566D1*
X1231831Y3890678D1*
X1235193Y3888235D1*
X1254301Y3869244D1*
X1256835Y3869256D1*
X1275930Y3888235D1*
X1279293Y3890678D1*
X1282997Y3892566D1*
X1286950Y3893850D1*
X1291056Y3894501D1*
X1320067D1*
X1324173Y3893850D1*
X1328126Y3892566D1*
X1331831Y3890678D1*
X1335193Y3888235D1*
X1355706Y3867722D1*
X1358150Y3864360D1*
X1360037Y3860655D1*
X1361322Y3856702D1*
X1361972Y3852596D1*
Y3823585D1*
X1361322Y3819479D1*
X1360037Y3815526D1*
X1358150Y3811822D1*
X1355706Y3808459D1*
X1336715Y3789352D1*
X1336727Y3786818D1*
X1354301Y3769244D1*
X1356835Y3769256D1*
X1375930Y3788235D1*
X1379293Y3790678D1*
X1382997Y3792566D1*
X1386950Y3793850D1*
X1391056Y3794501D1*
X1420067D1*
X1424173Y3793850D1*
X1428126Y3792566D1*
X1431831Y3790678D1*
X1435193Y3788235D1*
X1455706Y3767722D1*
X1458150Y3764360D1*
X1460037Y3760655D1*
X1461322Y3756702D1*
X1461972Y3752596D1*
Y3723585D1*
X1461322Y3719479D1*
X1460037Y3715526D1*
X1458150Y3711822D1*
X1455706Y3708459D1*
X1435193Y3687946D1*
X1431831Y3685503D1*
X1428126Y3683615D1*
X1424173Y3682331D1*
X1420067Y3681680D1*
X1391056D1*
X1386950Y3682331D1*
X1382997Y3683615D1*
X1379293Y3685503D1*
X1375930Y3687946D1*
X1356823Y3706937D1*
X1354289Y3706925D1*
X1335193Y3687946D1*
X1331831Y3685503D1*
X1328126Y3683615D1*
X1324173Y3682331D1*
X1320067Y3681680D1*
X1291056D1*
X1286950Y3682331D1*
X1282997Y3683615D1*
X1279293Y3685503D1*
X1275930Y3687946D1*
X1256823Y3706937D1*
X1254289Y3706925D1*
X1236715Y3689352D1*
X1235991Y3680496D1*
X1245982Y3670476D1*
X1252988Y3670434D1*
X1260193Y3669293D1*
X1267131Y3667038D1*
X1273633Y3663726D1*
X1279534Y3659438D1*
X1284693Y3654280D1*
X1288980Y3648378D1*
X1292293Y3641877D1*
X1294547Y3634938D1*
X1295689Y3627734D1*
Y3620437D1*
X1295490Y3618752D1*
X1307298Y3618766D1*
Y3494916D1*
X1201762D1*
X1199584Y3489982D1*
X1195772Y3483762D1*
X1191034Y3478214D1*
X1185486Y3473476D1*
X1179266Y3469664D1*
X1172526Y3466873D1*
X1165432Y3465169D1*
X1158159Y3464597D1*
X1150886Y3465169D1*
X1143791Y3466873D1*
X1137051Y3469664D1*
X1130832Y3473476D1*
X1125283Y3478214D1*
X1123029Y3480654D1*
X1114058Y3480660D1*
X1115142Y3473459D1*
Y3465223D1*
X1113853Y3457087D1*
X1111307Y3449253D1*
X1107568Y3441915D1*
X1102726Y3435251D1*
X1096902Y3429427D1*
X1090238Y3424584D1*
X1082899Y3420845D1*
X1079031Y3419264D1*
X1086642Y3416112D1*
X1093665Y3411808D1*
X1099929Y3406459D1*
X1105278Y3400196D1*
X1109581Y3393172D1*
X1112734Y3385562D1*
X1114657Y3377552D1*
X1115303Y3369341D1*
X1114657Y3361130D1*
X1112734Y3353121D1*
X1109581Y3345510D1*
X1105278Y3338487D1*
X1099929Y3332223D1*
X1093665Y3326874D1*
X1086642Y3322571D1*
X1078769Y3319344D1*
X1086642Y3316112D1*
X1093665Y3311808D1*
X1099929Y3306459D1*
X1105555Y3299781D1*
X1675783Y3299677D1*
X1680500Y3298929D1*
X1685041Y3297454D1*
X1689295Y3295286D1*
X1693159Y3292480D1*
X1714600Y3271172D1*
X1717701Y3267541D1*
X1720196Y3263470D1*
X1722022Y3259058D1*
X1723138Y3254415D1*
X1723512Y3249655D1*
Y2998789D1*
X1731140Y2996955D1*
X2611774D1*
X2609133Y3004908D1*
X2607869Y3012890D1*
Y3020969D1*
X2609133Y3028950D1*
X2611630Y3036634D1*
X2615298Y3043833D1*
X2620047Y3050370D1*
X2626021Y3056290D1*
X2620047Y3062228D1*
X2615298Y3068765D1*
X2611630Y3075965D1*
X2609133Y3083648D1*
X2607869Y3091630D1*
Y3099709D1*
X2609133Y3107690D1*
X2611630Y3115374D1*
X2615298Y3122573D1*
X2620047Y3129110D1*
X2626021Y3135030D1*
X2620047Y3140969D1*
X2615298Y3147505D1*
X2611630Y3154705D1*
X2609133Y3162388D1*
X2607869Y3170370D1*
Y3178449D1*
X2609133Y3186430D1*
X2611630Y3194114D1*
X2615298Y3201314D1*
X2620047Y3207850D1*
X2626021Y3213770D1*
X2620047Y3219709D1*
X2615298Y3226245D1*
X2611630Y3233445D1*
X2609133Y3241129D1*
X2607869Y3249110D1*
Y3257189D1*
X2609133Y3265171D1*
X2611630Y3272854D1*
X2615298Y3280054D1*
X2620047Y3286591D1*
X2626021Y3292510D1*
X2620047Y3298449D1*
X2615298Y3304986D1*
X2611630Y3312185D1*
X2609133Y3319869D1*
X2607869Y3327850D1*
Y3335929D1*
X2609133Y3343911D1*
X2611630Y3351594D1*
X2615298Y3358794D1*
X2620047Y3365331D1*
X2626021Y3371251D1*
X2620047Y3377189D1*
X2615298Y3383726D1*
X2611630Y3390925D1*
X2609133Y3398609D1*
X2607869Y3406591D1*
Y3414669D1*
X2609133Y3422651D1*
X2611630Y3430335D1*
X2615298Y3437534D1*
X2620047Y3444071D1*
X2626021Y3449991D1*
X2620047Y3455929D1*
X2615298Y3462466D1*
X2611630Y3469665D1*
X2609133Y3477349D1*
X2607869Y3485331D1*
Y3493409D1*
X2609133Y3501391D1*
X2611630Y3509075D1*
X2615298Y3516274D1*
X2620047Y3522811D1*
X2626021Y3528731D1*
X2620047Y3534669D1*
X2615298Y3541206D1*
X2611630Y3548406D1*
X2609133Y3556089D1*
X2607869Y3564071D1*
Y3572150D1*
X2609133Y3580131D1*
X2611630Y3587815D1*
X2615298Y3595014D1*
X2620047Y3601551D1*
X2626021Y3607471D1*
X2620047Y3613409D1*
X2615298Y3619946D1*
X2611630Y3627146D1*
X2609133Y3634829D1*
X2607869Y3642811D1*
Y3650890D1*
X2609133Y3658871D1*
X2611630Y3666555D1*
X2615298Y3673755D1*
X2620047Y3680291D1*
X2626021Y3686211D1*
X2620047Y3692150D1*
X2615298Y3698686D1*
X2611630Y3705886D1*
X2609133Y3713570D1*
X2607869Y3721551D1*
Y3729630D1*
X2609133Y3737612D1*
X2611630Y3745295D1*
X2615298Y3752495D1*
X2620047Y3759031D1*
X2625761Y3764745D1*
X2632298Y3769495D1*
X2639497Y3773163D1*
X2647181Y3775660D1*
X2653076Y3776677D1*
X2576378Y3853388D1*
X1435156Y3853412D1*
X1429472Y3853860D1*
X1423928Y3855190D1*
X1418660Y3857373D1*
X1413799Y3860352D1*
X1409457Y3864063D1*
X1230552Y4042966D1*
X1154168Y4042948D1*
Y4170735D1*
X1281955D1*
Y4094337D1*
X1450222Y3926066D1*
X2594256Y3925970D1*
X2599887Y3925077D1*
X2605310Y3923316D1*
X2610390Y3920727D1*
X2615003Y3917375D1*
X2649576Y3882961D1*
X3045588Y3486949D1*
X3072438Y3486925D1*
X3076415Y3492087D1*
X3083504Y3499176D1*
X3091615Y3505068D1*
X3100549Y3509621D1*
X3110084Y3512719D1*
X3119987Y3514287D1*
X3143373Y3514484D1*
X3153635Y3514287D1*
X3163538Y3512719D1*
X3173073Y3509621D1*
X3182007Y3505068D1*
X3190118Y3499176D1*
X3197207Y3492087D1*
X3203100Y3483975D1*
X3207652Y3475042D1*
X3210751Y3465507D1*
X3212319Y3455604D1*
Y3445577D1*
X3210751Y3435675D1*
X3207652Y3426139D1*
X3203100Y3417206D1*
X3197207Y3409094D1*
X3190118Y3402005D1*
X3188348Y3400610D1*
X3193802Y3395770D1*
X3200314Y3388147D1*
X3205551Y3379597D1*
X3209388Y3370335D1*
X3211730Y3360585D1*
X3212516Y3350591D1*
X3211730Y3340596D1*
X3209388Y3330846D1*
X3205551Y3321584D1*
X3200314Y3313034D1*
X3193802Y3305411D1*
X3186178Y3298899D1*
X3177629Y3293661D1*
X3168366Y3289824D1*
X3158617Y3287483D1*
X3148622Y3286697D1*
X3125000D1*
X3115005Y3287483D1*
X3105256Y3289824D1*
X3095993Y3293661D1*
X3087444Y3298899D1*
X3079820Y3305411D1*
X3073308Y3313034D1*
X3068865Y3320164D1*
X2817908Y3320161D1*
X2816035Y3312533D1*
X2815942Y2983825D1*
X2815194Y2979109D1*
X2813719Y2974568D1*
X2811551Y2970314D1*
X2808745Y2966450D1*
X2807115Y2964689D1*
X2812224Y2961207D1*
X3249904D1*
X3254886Y2966131D1*
X3260787Y2970419D1*
X3267289Y2973731D1*
X3274227Y2975986D1*
X3281432Y2977127D1*
X3288728D1*
X3290413Y2976928D1*
X3290399Y3618297D1*
X3282769Y3620161D1*
X3204793D1*
X3200314Y3613034D1*
X3193802Y3605411D1*
X3186178Y3598899D1*
X3177629Y3593661D1*
X3168366Y3589824D1*
X3158617Y3587483D1*
X3148622Y3586697D1*
X3125000D1*
X3115005Y3587483D1*
X3105256Y3589824D1*
X3095993Y3593661D1*
X3087444Y3598899D1*
X3079820Y3605411D1*
X3073308Y3613034D1*
X3068071Y3621584D1*
X3064234Y3630846D1*
X3061892Y3640596D1*
X3061106Y3650591D1*
X3061892Y3660585D1*
X3064234Y3670335D1*
X3068071Y3679597D1*
X3072340Y3686696D1*
X3061106Y3686697D1*
Y3814484D1*
X3212516D1*
Y3686697D1*
X3201356D1*
X3204757Y3681017D1*
X3303529Y3680927D1*
X3308245Y3680178D1*
X3312786Y3678703D1*
X3317041Y3676535D1*
X3320904Y3673730D1*
X3342345Y3652421D1*
X3345446Y3648790D1*
X3347941Y3644719D1*
X3349768Y3640307D1*
X3350883Y3635664D1*
X3351257Y3630895D1*
X3351164Y2133785D1*
X3350416Y2129068D1*
X3348941Y2124528D1*
X3346773Y2120273D1*
X3343967Y2116409D1*
X3322660Y2094970D1*
X3319029Y2091869D1*
X3314958Y2089374D1*
X3310546Y2087547D1*
X3305903Y2086432D1*
X3301134Y2086058D1*
X883064Y2086151D1*
X878348Y2086899D1*
X873807Y2088374D1*
X869552Y2090542D1*
X865689Y2093348D1*
X844249Y2114655D1*
X841148Y2118286D1*
X838654Y2122357D1*
X836827Y2126769D1*
X835711Y2131412D1*
X835337Y2136181D1*
Y2237042D1*
X827707Y2238912D1*
X805567D1*
X799929Y2232223D1*
X793665Y2226874D1*
X786642Y2222571D1*
X778769Y2219344D1*
X786642Y2216112D1*
X793665Y2211808D1*
X799929Y2206459D1*
X805278Y2200196D1*
X809581Y2193172D1*
X812734Y2185562D1*
X814657Y2177552D1*
X815303Y2169341D1*
X814657Y2161130D1*
X812734Y2153121D1*
X809581Y2145510D1*
X805278Y2138487D1*
X799929Y2132223D1*
X793665Y2126874D1*
X786642Y2122571D1*
X779031Y2119419D1*
X771022Y2117495D1*
X762811Y2116849D1*
X706693Y2117010D1*
X698556Y2118299D1*
X690723Y2120845D1*
X683385Y2124584D1*
X676720Y2129427D1*
X670896Y2135251D1*
X666054Y2141915D1*
X663306Y2147104D1*
X663304Y2094392D1*
X673495Y2084214D1*
X1889415Y2084080D1*
X1895046Y2083188D1*
X1900469Y2081425D1*
X1905549Y2078837D1*
X1910161Y2075486D1*
X1943753Y2042054D1*
X1947455Y2037718D1*
X1950434Y2032857D1*
X1952617Y2027589D1*
X1953948Y2022045D1*
X1954395Y2016350D1*
Y1637531D1*
X1982114Y1637516D1*
X1981804Y1642837D1*
X1982377Y1650110D1*
X1984080Y1657205D1*
X1986871Y1663945D1*
X1990684Y1670164D1*
X1995421Y1675713D1*
X2000970Y1680450D1*
X2007189Y1684262D1*
X2013929Y1687054D1*
X2021024Y1688757D1*
X2028297Y1689329D1*
X2035570Y1688757D1*
X2042664Y1687054D1*
X2049404Y1684262D1*
X2055623Y1680450D1*
X2061172Y1675713D1*
X2065909Y1670164D1*
X2069722Y1663945D1*
X2072513Y1657205D1*
X2074217Y1650110D1*
X2074789Y1642837D1*
X2074446Y1637504D1*
X2086285Y1637516D1*
Y1513665D1*
X1860072D1*
Y1635630D1*
X1855556Y1633475D1*
X1848618Y1631220D1*
X1841413Y1630079D1*
X1834117D1*
X1826912Y1631220D1*
X1819974Y1633475D1*
X1813472Y1636787D1*
X1808814Y1640094D1*
X1463529Y1640093D1*
X1463549Y1557416D1*
X1347572D1*
Y1681266D1*
X1369570D1*
X1371004Y1687656D1*
X1373186Y1692924D1*
X1376165Y1697785D1*
X1379867Y1702121D1*
X1384203Y1705823D1*
X1389064Y1708802D1*
X1394332Y1710984D1*
X1399877Y1712315D1*
X1405571Y1712762D1*
X1808791D1*
X1813472Y1716068D1*
X1819974Y1719381D1*
X1826912Y1721635D1*
X1834117Y1722777D1*
X1841413D1*
X1848618Y1721635D1*
X1855556Y1719381D1*
X1862058Y1716068D1*
X1867959Y1711781D1*
X1873118Y1706622D1*
X1877406Y1700720D1*
X1880718Y1694219D1*
X1881730Y1691476D1*
X1881726Y2001285D1*
X1871535Y2011500D1*
X1147529Y2011522D1*
X1148513Y2007341D1*
X1148887Y2002581D1*
Y1259240D1*
X1154206Y1259581D1*
X1161479Y1259009D1*
X1168573Y1257306D1*
X1175314Y1254514D1*
X1181533Y1250702D1*
X1187081Y1245965D1*
X1189336Y1243525D1*
X1341341Y1243521D1*
X1341322Y1275017D1*
X1368845D1*
X1368881Y1294944D1*
X1341322Y1294916D1*
Y1418766D1*
X1368916D1*
X1368882Y1432450D1*
X1341322Y1432416D1*
Y1556266D1*
X1457298D1*
Y1432416D1*
X1429774D1*
X1429739Y1418732D1*
X1457298Y1418766D1*
Y1294916D1*
X1429703D1*
X1429739Y1274990D1*
X1457298Y1275017D1*
Y1151167D1*
X1341322D1*
Y1182636D1*
X1189352Y1182660D1*
X1184400Y1177736D1*
X1178499Y1173449D1*
X1171997Y1170136D1*
X1165059Y1167882D1*
X1157854Y1166740D1*
X1150558D1*
X1148476Y1166987D1*
X1147398Y1162644D1*
X1145571Y1158232D1*
X1143076Y1154161D1*
X1139975Y1150530D1*
X1136344Y1147429D1*
X1132273Y1144934D1*
X1127861Y1143108D1*
X1123218Y1141992D1*
X1118458Y1141618D1*
X1109522D1*
X1109478Y1060909D1*
Y984138D1*
X1109513Y958547D1*
X997474D1*
Y962458D1*
X864563Y962487D1*
X859597Y957563D1*
X853696Y953276D1*
X847194Y949963D1*
X840256Y947709D1*
X833051Y946567D1*
X825755D1*
X818550Y947709D1*
X811612Y949963D1*
X805110Y953276D1*
X799209Y957563D1*
X798151Y958541D1*
X712041Y958547D1*
Y1202606D1*
X706722Y1202329D1*
X699449Y1202902D1*
X692354Y1204605D1*
X685614Y1207396D1*
X679395Y1211209D1*
X673846Y1215946D1*
X669109Y1221495D1*
X665297Y1227714D1*
X662505Y1234454D1*
X660802Y1241549D1*
X660230Y1248822D1*
X660802Y1256094D1*
X662505Y1263189D1*
X665297Y1269929D1*
X669109Y1276148D1*
X673846Y1281697D1*
X679395Y1286434D1*
X685614Y1290247D1*
X692354Y1293038D1*
X699449Y1294741D1*
X703003Y1295161D1*
X635232Y1295255D1*
X630516Y1296003D1*
X625975Y1297478D1*
X621720Y1299646D1*
X617857Y1302451D1*
X596417Y1323759D1*
X593316Y1327390D1*
X590822Y1331461D1*
X588995Y1335873D1*
X587879Y1340516D1*
X587505Y1345276D1*
Y1472270D1*
X436681Y1623217D1*
X433875Y1627080D1*
X432703Y1629173D1*
X432185Y1625593D1*
Y617929D1*
X439129Y625299D1*
X445895Y631509D1*
X453081Y637230D1*
X460651Y642430D1*
X468568Y647087D1*
X476791Y651176D1*
X485282Y654678D1*
X493997Y657575D1*
X502895Y659853D1*
X511930Y661501D1*
X521059Y662510D1*
X530236Y662877D1*
X539417Y662597D1*
X548555Y661675D1*
X557605Y660112D1*
X566524Y657919D1*
X575266Y655104D1*
X583790Y651682D1*
X592052Y647672D1*
X600012Y643091D1*
X607631Y637961D1*
X614871Y632310D1*
X621697Y626164D1*
X628073Y619555D1*
X633971Y612513D1*
X639360Y605076D1*
X644213Y597278D1*
X648507Y589159D1*
X652219Y580759D1*
X655333Y572118D1*
X657833Y563281D1*
X659706Y554290D1*
X660944Y545189D1*
X661597Y532136D1*
X661274Y522958D1*
X660308Y513824D1*
X658703Y504781D1*
X656467Y495873D1*
X653612Y487144D1*
X650150Y478636D1*
X646100Y470394D1*
X641480Y462455D1*
X636315Y454861D1*
X630630Y447647D1*
X624453Y440852D1*
X615024Y432192D1*
X3202495Y432185D1*
X3191335Y442766D1*
X3185295Y449686D1*
X3179757Y457013D1*
X3174747Y464711D1*
X3170290Y472741D1*
X3166407Y481064D1*
X3163119Y489640D1*
X3160441Y498425D1*
X3158386Y507377D1*
X3156965Y516451D1*
X3156184Y525602D1*
X3156046Y534786D1*
X3156555Y543957D1*
X3157706Y553068D1*
X3159493Y562077D1*
X3161909Y570938D1*
X3164942Y579608D1*
X3168576Y588042D1*
X3172793Y596202D1*
X3177571Y604045D1*
X3182888Y611534D1*
X3188719Y618630D1*
X3195034Y625299D1*
X3201801Y631509D1*
X3208987Y637230D1*
X3216556Y642430D1*
X3224474Y647087D1*
X3232697Y651176D1*
X3241188Y654678D1*
X3249903Y657575D1*
X3258801Y659853D1*
X3267836Y661501D1*
X3276965Y662510D1*
X3286142Y662877D1*
X3295323Y662597D1*
X3304461Y661675D1*
X3313510Y660112D1*
X3322429Y657919D1*
X3331172Y655104D1*
X3339696Y651682D1*
X3347958Y647672D1*
X3355917Y643091D1*
X3363537Y637961D1*
X3370777Y632310D1*
X3377602Y626164D1*
X3386720Y616282D1*
X3386535Y5014576D1*
X3380358Y5007781D1*
X3373718Y5001434D1*
X3366650Y4995571D1*
X3359186Y4990218D1*
X3351366Y4985402D1*
X3343226Y4981146D1*
X3334808Y4977472D1*
X3326154Y4974400D1*
X3317304Y4971942D1*
X3308303Y4970112D1*
X3299197Y4968917D1*
X3290029Y4968365D1*
X3280845Y4968458D1*
X3271690Y4969196D1*
X3262610Y4970573D1*
X3253648Y4972587D1*
X3244850Y4975223D1*
X3236260Y4978471D1*
X3227919Y4982315D1*
X3219867Y4986734D1*
X3212146Y4991707D1*
X3204793Y4997210D1*
X3197844Y5003217D1*
X3191335Y5009696D1*
X3185295Y5016615D1*
X3179757Y5023942D1*
X3174747Y5031640D1*
X3170290Y5039671D1*
X3166407Y5047993D1*
X3163119Y5056570D1*
X3160441Y5065354D1*
X3158386Y5074306D1*
X3156965Y5083381D1*
X3156184Y5092531D1*
X3156046Y5101715D1*
X3156555Y5110886D1*
X3157706Y5119997D1*
X3159493Y5129007D1*
X3161909Y5137867D1*
X3164942Y5146537D1*
X3168576Y5154971D1*
X3172793Y5163131D1*
X3177571Y5170974D1*
X3182888Y5178463D1*
X3188719Y5185559D1*
X3195034Y5192228D1*
X3201034Y5197735D1*
X620280Y5197736D1*
X625358Y5193093D1*
X631735Y5186484D1*
X637633Y5179442D1*
X643021Y5172005D1*
X647874Y5164207D1*
X652168Y5156088D1*
X655881Y5147688D1*
X658995Y5139047D1*
X661495Y5130210D1*
X663367Y5121219D1*
X664605Y5112118D1*
X665259Y5099066D1*
X664936Y5089887D1*
X663970Y5080753D1*
X662365Y5071710D1*
X660129Y5062802D1*
X657273Y5054073D1*
X653811Y5045566D1*
X649761Y5037323D1*
X645142Y5029385D1*
X639976Y5021790D1*
X634291Y5014576D1*
X628114Y5007781D1*
X621474Y5001434D1*
X614406Y4995571D1*
X606942Y4990218D1*
X599122Y4985402D1*
X590982Y4981146D1*
X582564Y4977472D1*
X573909Y4974400D1*
X565060Y4971942D1*
X556059Y4970112D1*
X546953Y4968917D1*
X537785Y4968365D1*
X528601Y4968458D1*
X519446Y4969196D1*
X510366Y4970573D1*
X501404Y4972587D1*
X492606Y4975223D1*
X484016Y4978471D1*
X475675Y4982315D1*
X467623Y4986734D1*
X459902Y4991707D1*
X452549Y4997210D1*
X445600Y5003217D1*
X439091Y5009696D1*
X432207Y5017732D1*
X432186Y4149866D1*
X435202Y4155042D1*
X438303Y4158673D1*
X459743Y4179980D1*
X463606Y4182786D1*
X467861Y4184954D1*
X472402Y4186429D1*
X477118Y4187177D1*
X552996Y4187270D1*
X666354D1*
X666322Y4218766D1*
X901465D1*
X900196Y4224375D1*
X899623Y4231648D1*
X900196Y4238921D1*
X901899Y4246016D1*
X904690Y4252756D1*
X908503Y4258975D1*
X913240Y4264524D1*
X918789Y4269261D1*
X925008Y4273073D1*
X931748Y4275865D1*
X938843Y4277568D1*
X946115Y4278140D1*
X953388Y4277568D1*
X955724Y4277104D1*
X956970Y4281764D1*
X959761Y4288504D1*
X963573Y4294723D1*
X968311Y4300272D1*
X973860Y4305009D1*
X980079Y4308822D1*
X986819Y4311613D1*
X993913Y4313316D1*
X1001186Y4313888D1*
X1004507Y4313759D1*
X1006693Y4315936D1*
X1006678Y4392992D1*
X995566Y4382488D1*
X988388Y4376756D1*
X980873Y4371478D1*
X973043Y4366675D1*
X964933Y4362364D1*
X956572Y4358562D1*
X947991Y4355285D1*
X939224Y4352545D1*
X930306Y4350352D1*
X921268Y4348714D1*
X912147Y4347636D1*
X902975Y4347126D1*
X893791Y4347184D1*
X884627Y4347808D1*
X875520Y4348999D1*
X866504Y4350749D1*
X857613Y4353054D1*
X848881Y4355904D1*
X840341Y4359287D1*
X832029Y4363193D1*
X823972Y4367604D1*
X816205Y4372505D1*
X808755Y4377877D1*
X801650Y4383698D1*
X794920Y4389949D1*
X788588Y4396602D1*
X782680Y4403635D1*
X777218Y4411020D1*
X772222Y4418727D1*
X767713Y4426728D1*
X763706Y4434993D1*
X760218Y4443491D1*
X757262Y4452186D1*
X754849Y4461049D1*
X752990Y4470043D1*
X751688Y4479135D1*
X750951Y4488291D1*
X750782Y4497475D1*
X751180Y4506651D1*
X752146Y4515785D1*
X753673Y4524841D1*
X755757Y4533787D1*
X758391Y4542587D1*
X761563Y4551206D1*
X765261Y4559613D1*
X769472Y4567776D1*
X774181Y4575663D1*
X779367Y4583243D1*
X785012Y4590488D1*
X791093Y4597371D1*
X797589Y4603865D1*
X804474Y4609945D1*
X811720Y4615588D1*
X819303Y4620772D1*
X827190Y4625478D1*
X835354Y4629686D1*
X843762Y4633383D1*
X852383Y4636552D1*
X861184Y4639184D1*
X870129Y4641265D1*
X879186Y4642791D1*
X888320Y4643753D1*
X897497Y4644150D1*
X906681Y4643978D1*
X915836Y4643238D1*
X924928Y4641934D1*
X933921Y4640071D1*
X942783Y4637656D1*
X951479Y4634698D1*
X959974Y4631207D1*
X968239Y4627198D1*
X976239Y4622688D1*
X983945Y4617689D1*
X991328Y4612226D1*
X998358Y4606315D1*
X1006694Y4598167D1*
X1006772Y4802598D1*
X1007520Y4807315D1*
X1008995Y4811856D1*
X1011163Y4816110D1*
X1013969Y4819974D1*
X1035276Y4841413D1*
X1038907Y4844514D1*
X1042978Y4847009D1*
X1047390Y4848836D1*
X1052033Y4849951D1*
X1056802Y4850325D1*
X1754776D1*
X1878753Y4974297D1*
X1878766Y4981273D1*
X1879908Y4988478D1*
X1882163Y4995416D1*
X1883850Y4999018D1*
X1823364Y4999007D1*
X1807899Y4983702D1*
X1804035Y4980896D1*
X1799781Y4978728D1*
X1795240Y4977253D1*
X1790524Y4976505D1*
X1779201Y4976412D1*
X1777091Y4970579D1*
X1772538Y4961646D1*
X1766646Y4953534D1*
X1759556Y4946445D1*
X1751445Y4940552D1*
X1742512Y4936000D1*
X1732976Y4932902D1*
X1723073Y4931333D1*
X1713047D1*
X1703144Y4932902D1*
X1693609Y4936000D1*
X1684676Y4940552D1*
X1676564Y4946445D1*
X1669475Y4953534D1*
X1668080Y4955304D1*
X1663240Y4949850D1*
X1655617Y4943339D1*
X1647067Y4938101D1*
X1637804Y4934264D1*
X1628055Y4931923D1*
X1618060Y4931136D1*
X1608066Y4931923D1*
X1598316Y4934264D1*
X1589054Y4938101D1*
X1580504Y4943339D1*
X1572881Y4949850D1*
X1566369Y4957474D1*
X1561131Y4966024D1*
X1557294Y4975286D1*
X1554953Y4985035D1*
X1554167Y4995030D1*
Y5018652D1*
X1554953Y5028647D1*
X1557294Y5038396D1*
X1561131Y5047659D1*
X1566369Y5056209D1*
X1572881Y5063832D1*
X1580504Y5070344D1*
X1581727Y5071160D1*
X1581837Y5080558D1*
X1582730Y5086189D1*
X1584491Y5091612D1*
X1587080Y5096692D1*
X1590432Y5101304D1*
X1623864Y5134896D1*
X1628199Y5138598D1*
X1633060Y5141577D1*
X1638328Y5143760D1*
X1643873Y5145091D1*
X1649556Y5145538D1*
X2676915Y5145427D1*
X2682546Y5144534D1*
X2687969Y5142773D1*
X2693049Y5140184D1*
X2697661Y5136832D1*
X2731253Y5103400D1*
X2734955Y5099064D1*
X2737934Y5094203D1*
X2740117Y5088936D1*
X2741448Y5083391D1*
X2741895Y5077707D1*
Y5071213D1*
X2747056Y5067238D1*
X2754146Y5060148D1*
X2755541Y5058378D1*
X2760381Y5063832D1*
X2768004Y5070344D1*
X2776554Y5075581D1*
X2785816Y5079419D1*
X2795566Y5081760D1*
X2805560Y5082546D1*
X2815555Y5081760D1*
X2825304Y5079419D1*
X2834567Y5075581D1*
X2843117Y5070344D1*
X2850740Y5063832D1*
X2857252Y5056209D1*
X2862490Y5047659D1*
X2866327Y5038396D1*
X2868668Y5028647D1*
X2869454Y5018652D1*
X2869257Y4990017D1*
X2867689Y4980114D1*
X2864591Y4970579D1*
X2860038Y4961646D1*
X2854146Y4953534D1*
X2847056Y4946445D1*
X2838945Y4940552D1*
X2835850Y4938819D1*
X2834500Y4932474D1*
X2832673Y4928062D1*
X2830178Y4923991D1*
X2827070Y4920353D1*
X2805638Y4899052D1*
X2801774Y4896247D1*
X2797520Y4894079D1*
X2792979Y4892604D1*
X2788262Y4891856D1*
X2712385Y4891762D1*
X2195307Y4891856D1*
X2190591Y4892604D1*
X2186050Y4894079D1*
X2181795Y4896247D1*
X2177932Y4899052D1*
X2124211Y4952640D1*
X2077853Y4998999D1*
X2018646Y4999007D1*
X2021143Y4992882D1*
X2022846Y4985787D1*
X2023419Y4978514D1*
X2022846Y4971241D1*
X2021143Y4964147D1*
X2018352Y4957407D1*
X2014539Y4951188D1*
X2009802Y4945639D1*
X2004253Y4940902D1*
X1998034Y4937089D1*
X1991294Y4934298D1*
X1984199Y4932594D1*
X1976927Y4932022D1*
X1973606Y4932152D1*
X1791308Y4749995D1*
X1787445Y4747189D1*
X1783190Y4745021D1*
X1778650Y4743546D1*
X1773933Y4742798D1*
X1698055Y4742705D1*
X1111312D1*
X1109486Y4735075D1*
Y4574349D1*
X1248047Y4574327D1*
Y4541780D1*
X1253808Y4542113D1*
X1261081Y4541541D1*
X1268176Y4539837D1*
X1273815Y4537552D1*
X1273803Y4574327D1*
X1421276D1*
Y4426854D1*
X1273803D1*
Y4453660D1*
X1268176Y4451404D1*
X1261081Y4449701D1*
X1253808Y4449129D1*
X1248051Y4449522D1*
X1248047Y4426854D1*
X1210621D1*
X1210646Y4326230D1*
X1223220Y4313621D1*
X1228913Y4312604D1*
X1235852Y4310349D1*
X1242353Y4307037D1*
X1248255Y4302749D1*
X1253413Y4297591D1*
X1257701Y4291689D1*
X1261013Y4285188D1*
X1263268Y4278249D1*
X1263504Y4277060D1*
X1355231Y4368661D1*
X1359094Y4371467D1*
X1363349Y4373635D1*
X1367890Y4375110D1*
X1372606Y4375858D1*
X1448484Y4375951D1*
X1999558D1*
X1995421Y4379608D1*
X1993167Y4382047D1*
X1927356Y4382147D1*
X1922639Y4382895D1*
X1918098Y4384370D1*
X1913844Y4386538D1*
X1909980Y4389344D1*
X1881406Y4417786D1*
X1824197Y4417801D1*
Y4518029D1*
X1924425D1*
Y4460865D1*
X1942339Y4442921D1*
X1993150Y4442912D1*
X1998102Y4447836D1*
X2004004Y4452123D1*
X2010505Y4455436D1*
X2017444Y4457690D1*
X2024648Y4458832D1*
X2031945D1*
X2039150Y4457690D1*
X2046088Y4455436D1*
X2052589Y4452123D1*
X2058491Y4447836D1*
X2063650Y4442677D1*
X2067937Y4436776D1*
X2071249Y4430274D1*
X2073504Y4423336D1*
X2074646Y4416131D1*
Y4408835D1*
X2073504Y4401630D1*
X2071249Y4394692D1*
X2067937Y4388190D1*
X2063650Y4382289D1*
X2058491Y4377130D1*
X2057001Y4375955D1*
X2528563Y4375951D1*
X2563938Y4411231D1*
X2567802Y4414037D1*
X2572056Y4416205D1*
X2576597Y4417680D1*
X2581314Y4418428D1*
X2657192Y4418521D1*
X3068819D1*
X3073310Y4425648D1*
X3079822Y4433272D1*
X3085276Y4438072D1*
X3079822Y4442912D1*
X3073310Y4450535D1*
X3068072Y4459085D1*
X3064235Y4468348D1*
X3061894Y4478097D1*
X3061108Y4488092D1*
X3061894Y4498087D1*
X3064235Y4507836D1*
X3068072Y4517098D1*
X3072341Y4524197D1*
X3061108Y4524198D1*
Y4651986D1*
X3070294D1*
X3085276Y4138112D2*
X3079822Y4142912D1*
X3073310Y4150535D1*
X3072493Y4151759D1*
X2831474Y4151757D1*
X2803575Y4123857D1*
X2802579Y4118185D1*
X2800324Y4111247D1*
X2797012Y4104745D1*
X2792724Y4098844D1*
X2787566Y4093685D1*
X2781664Y4089398D1*
X2775163Y4086085D1*
X2768224Y4083831D1*
X2761020Y4082689D1*
X2753723D1*
X2746518Y4083831D1*
X2739580Y4086085D1*
X2733079Y4089398D1*
X2727177Y4093685D1*
X2722018Y4098844D1*
X2717731Y4104745D1*
X2714419Y4111247D1*
X2712164Y4118185D1*
X2711022Y4125390D1*
Y4132686D1*
X2712164Y4139891D1*
X2714419Y4146829D1*
X2717731Y4153331D1*
X2722018Y4159232D1*
X2727177Y4164391D1*
X2733079Y4168678D1*
X2739580Y4171991D1*
X2746518Y4174245D1*
X2752152Y4175201D1*
X2792828Y4215720D1*
X2797441Y4219072D1*
X2802521Y4221660D1*
X2807944Y4223423D1*
X2813575Y4224315D1*
X2862357Y4224427D1*
X3072459D1*
X3076416Y4229588D1*
X3083505Y4236677D1*
X3091617Y4242570D1*
X3100550Y4247122D1*
X3110085Y4250220D1*
X3119988Y4251789D1*
X3143374Y4251986D1*
X3153636Y4251789D1*
X3163539Y4250220D1*
X3173075Y4247122D1*
X3182008Y4242570D1*
X3190119Y4236677D1*
X3197209Y4229588D1*
X3203101Y4221476D1*
X3207654Y4212543D1*
X3210752Y4203008D1*
X3212320Y4193105D1*
Y4183079D1*
X3210752Y4173176D1*
X3207654Y4163640D1*
X3203101Y4154707D1*
X3197209Y4146596D1*
X3190119Y4139507D1*
X3188349Y4138112D1*
X3193803Y4133272D1*
X3200315Y4125648D1*
X3205552Y4117098D1*
X3209390Y4107836D1*
X3211731Y4098087D1*
X3212517Y4088092D1*
X3211731Y4078097D1*
X3209390Y4068348D1*
X3205552Y4059085D1*
X3200315Y4050535D1*
X3193803Y4042912D1*
X3186180Y4036400D1*
X3177630Y4031163D1*
X3168367Y4027325D1*
X3158618Y4024984D1*
X3148623Y4024198D1*
X3125001D1*
X3115007Y4024984D1*
X3105257Y4027325D1*
X3095995Y4031163D1*
X3087445Y4036400D1*
X3079822Y4042912D1*
X3073310Y4050535D1*
X3068072Y4059085D1*
X3064235Y4068348D1*
X3061894Y4078097D1*
X3061108Y4088092D1*
X3061894Y4098087D1*
X3064235Y4107836D1*
X3068072Y4117098D1*
X3073310Y4125648D1*
X3079822Y4133272D1*
X3085276Y4138072D1*
X806759Y1506266D2*
X872391D1*
X872375Y1526147D1*
X791322Y1526167D1*
Y1650017D1*
X851643D1*
X847223Y1655215D1*
X843411Y1661434D1*
X840619Y1668175D1*
X838916Y1675269D1*
X838344Y1682542D1*
X838916Y1689815D1*
X840619Y1696909D1*
X843411Y1703650D1*
X847223Y1709869D1*
X851961Y1715417D1*
X857509Y1720155D1*
X863728Y1723967D1*
X870469Y1726759D1*
X877563Y1728462D1*
X884836Y1729034D1*
X892109Y1728462D1*
X899203Y1726759D1*
X905944Y1723967D1*
X912163Y1720155D1*
X917711Y1715417D1*
X919966Y1712978D1*
X942248Y1712878D1*
X946965Y1712130D1*
X951505Y1710655D1*
X955760Y1708487D1*
X959623Y1705681D1*
X981063Y1684374D1*
X984164Y1680743D1*
X986659Y1676672D1*
X988486Y1672260D1*
X989601Y1667617D1*
X989975Y1662857D1*
Y1650046D1*
X1017534Y1650017D1*
Y1526167D1*
X1010013Y1525953D1*
X1011717Y1518858D1*
X1012289Y1511585D1*
X1011946Y1506252D1*
X1023785Y1506266D1*
Y1382416D1*
X933249D1*
X933140Y1240526D1*
X932392Y1235810D1*
X930917Y1231269D1*
X928749Y1227014D1*
X925944Y1223151D1*
X904636Y1201711D1*
X901005Y1198610D1*
X896934Y1196115D1*
X892522Y1194289D1*
X887879Y1193173D1*
X883110Y1192799D1*
X824091D1*
X824080Y1039126D1*
X829403Y1039408D1*
X836676Y1038836D1*
X843770Y1037133D1*
X850510Y1034341D1*
X851344Y1033874D1*
X852325Y1039517D1*
X854580Y1046455D1*
X857892Y1052957D1*
X862180Y1058858D1*
X867339Y1064017D1*
X873240Y1068304D1*
X879741Y1071617D1*
X886680Y1073871D1*
X893885Y1075013D1*
X901181D1*
X908386Y1073871D1*
X915324Y1071617D1*
X921825Y1068304D1*
X927727Y1064017D1*
X932886Y1058858D1*
X937173Y1052957D1*
X939345Y1048929D1*
X997440Y1048933D1*
X997474Y1074672D1*
X992155Y1074373D1*
X984882Y1074945D1*
X977787Y1076648D1*
X971047Y1079440D1*
X964828Y1083252D1*
X959280Y1087990D1*
X954542Y1093538D1*
X950730Y1099757D1*
X947938Y1106497D1*
X946235Y1113592D1*
X945663Y1120865D1*
X946235Y1128138D1*
X947938Y1135232D1*
X950730Y1141972D1*
X954542Y1148192D1*
X959280Y1153740D1*
X964828Y1158478D1*
X971047Y1162290D1*
X977787Y1165081D1*
X984882Y1166785D1*
X992155Y1167357D1*
X997488Y1167014D1*
X997509Y1308776D1*
X997474Y1359957D1*
X1068345D1*
X1068344Y1970260D1*
X1060715Y1972152D1*
X579307Y1972245D1*
X574591Y1972993D1*
X570050Y1974469D1*
X565795Y1976636D1*
X561932Y1979442D1*
X540492Y2000749D1*
X537391Y2004381D1*
X534896Y2008451D1*
X533070Y2012864D1*
X531954Y2017507D1*
X531580Y2022276D1*
X531673Y4039543D1*
X532421Y4044260D1*
X533896Y4048801D1*
X536064Y4053055D1*
X538870Y4056919D1*
X560177Y4078358D1*
X563808Y4081459D1*
X567879Y4083954D1*
X572291Y4085781D1*
X576934Y4086896D1*
X581703Y4087270D1*
X724190D1*
X724197Y4094895D1*
X666322Y4094916D1*
Y4126386D1*
X492104Y4126412D1*
X490249Y4118783D1*
Y1655585D1*
X641073Y1504627D1*
X643879Y1500764D1*
X646047Y1496509D1*
X647522Y1491969D1*
X648270Y1487252D1*
X648364Y1411374D1*
Y1357870D1*
X655992Y1356020D1*
X712008D1*
X712041Y1359957D1*
X824080D1*
Y1331244D1*
X825131Y1338060D1*
Y1382449D1*
X797572Y1382416D1*
Y1506266D1*
X806759D1*
X1200508Y3618766D2*
X1203127D1*
X1202848Y3624085D1*
X1202978Y3627406D1*
X1182423Y3648101D1*
X1179617Y3651965D1*
X1177449Y3656219D1*
X1175974Y3660760D1*
X1175226Y3665476D1*
X1175133Y3688640D1*
X1155417Y3708459D1*
X1152974Y3711822D1*
X1151087Y3715526D1*
X1149802Y3719479D1*
X1149151Y3723585D1*
Y3752596D1*
X1149802Y3756702D1*
X1151087Y3760655D1*
X1152974Y3764360D1*
X1155417Y3767722D1*
X1174408Y3786829D1*
X1174403Y3789358D1*
X1163060Y3800699D1*
X1160024Y3796003D1*
X1155286Y3790454D1*
X1149738Y3785717D1*
X1143518Y3781904D1*
X1136778Y3779113D1*
X1129684Y3777409D1*
X1122411Y3776837D1*
X1115138Y3777409D1*
X1108043Y3779113D1*
X1101303Y3781904D1*
X1095084Y3785717D1*
X1093459Y3786996D1*
X1073727Y3786995D1*
X1073736Y3655102D1*
X949886D1*
Y3682697D1*
X940335Y3682755D1*
X935618Y3683503D1*
X931077Y3684978D1*
X926823Y3687146D1*
X922959Y3689951D1*
X919583Y3693328D1*
X916777Y3697192D1*
X914609Y3701446D1*
X913134Y3705987D1*
X912386Y3710703D1*
X912293Y3786581D1*
X912386Y3894962D1*
X913134Y3899678D1*
X914609Y3904219D1*
X916777Y3908474D1*
X919583Y3912337D1*
X961676Y3954563D1*
X961697Y3994837D1*
X957110Y3990395D1*
X953247Y3987589D1*
X948992Y3985421D1*
X944451Y3983946D1*
X939735Y3983198D1*
X863857Y3983105D1*
X824420D1*
X824425Y3967114D1*
X868318Y3923059D1*
X871123Y3919196D1*
X873291Y3914941D1*
X874766Y3910400D1*
X875514Y3905684D1*
X875608Y3829806D1*
X875514Y3730388D1*
X874766Y3725672D1*
X873291Y3721131D1*
X871123Y3716877D1*
X868318Y3713013D1*
X847010Y3691573D1*
X843379Y3688472D1*
X839308Y3685978D1*
X837130Y3684974D1*
X836236Y3679215D1*
Y3655102D1*
X712386D1*
Y3786976D1*
X678177Y3786992D1*
X668016Y3776802D1*
X667993Y3654861D1*
X1083608Y3654722D1*
X1089239Y3653829D1*
X1094661Y3652067D1*
X1099741Y3649479D1*
X1104354Y3646127D1*
X1127587Y3623055D1*
X1133264Y3622052D1*
X1140202Y3619798D1*
X1146703Y3616486D1*
X1151362Y3613178D1*
X1166915Y3613068D1*
X1172546Y3612176D1*
X1177969Y3610415D1*
X1183049Y3607825D1*
X1187661Y3604474D1*
X1189764Y3602529D1*
X1191322Y3605152D1*
Y3618766D1*
X1200508D1*
X1863008Y1512516D2*
X1969798D1*
Y1388665D1*
X1941773D1*
X1942240Y1383349D1*
Y1374988D1*
X1969798Y1375017D1*
Y1251167D1*
X1853822D1*
Y1352898D1*
X1682618Y1352920D1*
X1677692Y1347996D1*
X1671790Y1343709D1*
X1665289Y1340396D1*
X1658350Y1338142D1*
X1651146Y1337000D1*
X1643849D1*
X1636644Y1338142D1*
X1629706Y1340396D1*
X1623205Y1343709D1*
X1617303Y1347996D1*
X1612144Y1353155D1*
X1607857Y1359056D1*
X1604545Y1365558D1*
X1602290Y1372496D1*
X1601148Y1379701D1*
Y1386997D1*
X1602290Y1394202D1*
X1604545Y1401140D1*
X1607857Y1407642D1*
X1612144Y1413543D1*
X1617303Y1418702D1*
X1623205Y1422990D1*
X1628790Y1425972D1*
X1625152Y1429080D1*
X1576213Y1478021D1*
X1569207Y1478063D1*
X1562003Y1479205D1*
X1555064Y1481459D1*
X1548563Y1484772D1*
X1542661Y1489059D1*
X1537503Y1494218D1*
X1533215Y1500119D1*
X1529903Y1506621D1*
X1527648Y1513559D1*
X1526507Y1520764D1*
Y1528060D1*
X1527648Y1535265D1*
X1529903Y1542203D1*
X1533215Y1548705D1*
X1537503Y1554606D1*
X1542661Y1559765D1*
X1548563Y1564052D1*
X1555064Y1567365D1*
X1562003Y1569619D1*
X1569207Y1570761D1*
X1576504D1*
X1583709Y1569619D1*
X1590647Y1567365D1*
X1597148Y1564052D1*
X1603050Y1559765D1*
X1608209Y1554606D1*
X1612496Y1548705D1*
X1615808Y1542203D1*
X1618063Y1535265D1*
X1619205Y1528060D1*
X1619218Y1521092D1*
X1659304Y1480996D1*
X1853835Y1481020D1*
X1853822Y1512516D1*
X1863008D1*
X1853822Y1413748D2*
Y1420135D1*
X1675873Y1420161D1*
X1680373Y1416224D1*
X1682627Y1413785D1*
X1853795Y1413778D1*
X1137991Y4426854D2*
X1109499D1*
X1109486Y4302563D1*
X1114409Y4297591D1*
X1118697Y4291689D1*
X1122009Y4285188D1*
X1124264Y4278249D1*
X1125406Y4271045D1*
Y4263748D1*
X1125206Y4262063D1*
X1171864Y4262077D1*
X1146682Y4287549D1*
X1143331Y4292161D1*
X1140741Y4297241D1*
X1138980Y4302664D1*
X1138088Y4308295D1*
X1137976Y4357077D1*
Y4426873D1*
X3070293Y2845735D2*
X3212516D1*
Y2717948D1*
X3201356D1*
X3205551Y2710848D1*
X3209388Y2701585D1*
X3211730Y2691836D1*
X3212516Y2681841D1*
X3211730Y2671846D1*
X3209388Y2662097D1*
X3205551Y2652835D1*
X3200314Y2644285D1*
X3193802Y2636661D1*
X3188348Y2631861D1*
X3193802Y2627021D1*
X3200314Y2619398D1*
X3205551Y2610848D1*
X3209388Y2601585D1*
X3211730Y2591836D1*
X3212516Y2581841D1*
X3211730Y2571846D1*
X3209388Y2562097D1*
X3205551Y2552835D1*
X3200314Y2544285D1*
X3193802Y2536661D1*
X3186178Y2530150D1*
X3177629Y2524912D1*
X3168366Y2521075D1*
X3158617Y2518734D1*
X3148622Y2517948D1*
X3125000D1*
X3115005Y2518734D1*
X3105256Y2521075D1*
X3095993Y2524912D1*
X3087444Y2530150D1*
X3079820Y2536661D1*
X3073308Y2544285D1*
X3068865Y2551415D1*
X2263642Y2551412D1*
X2166168Y2453932D1*
X2905035Y2453924D1*
X2909980Y2458848D1*
X2915882Y2463135D1*
X2922383Y2466448D1*
X2929322Y2468702D1*
X2936526Y2469844D1*
X2943823D1*
X2951028Y2468702D1*
X2957966Y2466448D1*
X2964467Y2463135D1*
X2970369Y2458848D1*
X2975528Y2453689D1*
X2979815Y2447787D1*
X2983127Y2441286D1*
X2985382Y2434348D1*
X2986524Y2427143D1*
Y2419846D1*
X2985382Y2412642D1*
X2983127Y2405703D1*
X2979815Y2399202D1*
X2975528Y2393301D1*
X2970369Y2388142D1*
X2964467Y2383854D1*
X2957966Y2380542D1*
X2951028Y2378287D1*
X2943823Y2377146D1*
X2936526D1*
X2929322Y2378287D1*
X2922383Y2380542D1*
X2915882Y2383854D1*
X2909980Y2388142D1*
X2905045Y2393059D1*
X1109614Y2393066D1*
X1112734Y2385562D1*
X1114657Y2377552D1*
X1115303Y2369341D1*
X1114657Y2361130D1*
X1112734Y2353121D1*
X1109581Y2345510D1*
X1105278Y2338487D1*
X1099929Y2332223D1*
X1093665Y2326874D1*
X1086642Y2322571D1*
X1078769Y2319344D1*
X1086642Y2316112D1*
X1093665Y2311808D1*
X1099929Y2306459D1*
X1105278Y2300196D1*
X1109581Y2293172D1*
X1112734Y2285562D1*
X1114657Y2277552D1*
X1115303Y2269341D1*
X1114657Y2261130D1*
X1112734Y2253121D1*
X1109581Y2245510D1*
X1105278Y2238487D1*
X1099929Y2232223D1*
X1093665Y2226874D1*
X1086642Y2222571D1*
X1078769Y2219344D1*
X1086642Y2216112D1*
X1093665Y2211808D1*
X1099929Y2206459D1*
X1105278Y2200196D1*
X1109581Y2193172D1*
X1112734Y2185562D1*
X1114657Y2177552D1*
X1115303Y2169341D1*
X1114657Y2161130D1*
X1112734Y2153121D1*
X1110236Y2146929D1*
X1203349Y2146916D1*
X1197749Y2152131D1*
X1191831Y2158534D1*
X1186432Y2165383D1*
X1181587Y2172634D1*
X1177327Y2180241D1*
X1173676Y2188160D1*
X1170657Y2196341D1*
X1168290Y2204735D1*
X1166589Y2213287D1*
X1165564Y2221946D1*
X1165222Y2230660D1*
X1165564Y2239374D1*
X1166589Y2248033D1*
X1168290Y2256585D1*
X1170657Y2264979D1*
X1173676Y2273160D1*
X1177327Y2281079D1*
X1181587Y2288686D1*
X1186432Y2295937D1*
X1191831Y2302786D1*
X1197749Y2309189D1*
X1204152Y2315108D1*
X1211001Y2320507D1*
X1218252Y2325352D1*
X1225860Y2329612D1*
X1233778Y2333262D1*
X1241959Y2336281D1*
X1250353Y2338648D1*
X1258906Y2340349D1*
X1267564Y2341374D1*
X1276278Y2341717D1*
X1284992Y2341374D1*
X1293651Y2340349D1*
X1302203Y2338648D1*
X1310597Y2336281D1*
X1318778Y2333262D1*
X1326697Y2329612D1*
X1334304Y2325352D1*
X1341555Y2320507D1*
X1348404Y2315108D1*
X1354807Y2309189D1*
X1360726Y2302786D1*
X1366125Y2295937D1*
X1370970Y2288686D1*
X1375230Y2281079D1*
X1378881Y2273160D1*
X1381899Y2264979D1*
X1384266Y2256585D1*
X1385967Y2248033D1*
X1386992Y2239374D1*
X1387335Y2230660D1*
X1386992Y2221946D1*
X1385967Y2213287D1*
X1384266Y2204735D1*
X1381899Y2196341D1*
X1378881Y2188160D1*
X1375230Y2180241D1*
X1370970Y2172634D1*
X1366125Y2165383D1*
X1360726Y2158534D1*
X1354807Y2152131D1*
X1349178Y2146929D1*
X2709265Y2146916D1*
X2703655Y2152131D1*
X2697736Y2158534D1*
X2692337Y2165383D1*
X2687492Y2172634D1*
X2683232Y2180241D1*
X2679581Y2188160D1*
X2676563Y2196341D1*
X2674196Y2204735D1*
X2672495Y2213287D1*
X2671470Y2221946D1*
X2671127Y2230660D1*
X2671470Y2239374D1*
X2672495Y2248033D1*
X2674196Y2256585D1*
X2676563Y2264979D1*
X2679581Y2273160D1*
X2683232Y2281079D1*
X2687492Y2288686D1*
X2692337Y2295937D1*
X2697736Y2302786D1*
X2703655Y2309189D1*
X2710058Y2315108D1*
X2716907Y2320507D1*
X2724157Y2325352D1*
X2731765Y2329612D1*
X2739684Y2333262D1*
X2747865Y2336281D1*
X2756259Y2338648D1*
X2764811Y2340349D1*
X2773470Y2341374D1*
X2782184Y2341717D1*
X2790898Y2341374D1*
X2799556Y2340349D1*
X2808109Y2338648D1*
X2816503Y2336281D1*
X2824684Y2333262D1*
X2832602Y2329612D1*
X2840210Y2325352D1*
X2847461Y2320507D1*
X2854310Y2315108D1*
X2860713Y2309189D1*
X2866631Y2302786D1*
X2872030Y2295937D1*
X2876875Y2288686D1*
X2881135Y2281079D1*
X2884786Y2273160D1*
X2887804Y2264979D1*
X2890172Y2256585D1*
X2891873Y2248033D1*
X2892898Y2239374D1*
X2893240Y2230660D1*
X2892898Y2221946D1*
X2891873Y2213287D1*
X2890172Y2204735D1*
X2887804Y2196341D1*
X2884786Y2188160D1*
X2881135Y2180241D1*
X2876875Y2172634D1*
X2872030Y2165383D1*
X2866631Y2158534D1*
X2860713Y2152131D1*
X2855084Y2146929D1*
X3288508Y2146916D1*
X3290399Y2154545D1*
Y2857193D1*
X3286945Y2851640D1*
X3282207Y2846092D1*
X3276659Y2841354D1*
X3270440Y2837542D1*
X3263699Y2834751D1*
X3256605Y2833047D1*
X3249332Y2832475D1*
X3242059Y2833047D1*
X3234965Y2834751D1*
X3228224Y2837542D1*
X3222005Y2841354D1*
X3216457Y2846092D1*
X3214202Y2848531D1*
X1121858Y2848631D1*
X1117142Y2849379D1*
X1112601Y2850854D1*
X1108346Y2853022D1*
X1104483Y2855828D1*
X1083043Y2877135D1*
X1079942Y2880766D1*
X1077448Y2884837D1*
X1075621Y2889249D1*
X1074505Y2893892D1*
X1074131Y2898661D1*
Y2918066D1*
X1066929Y2917010D1*
X1035252Y2916849D1*
X1006693Y2917010D1*
X998556Y2918299D1*
X990723Y2920845D1*
X983385Y2924584D1*
X976720Y2929427D1*
X970896Y2935251D1*
X966054Y2941915D1*
X962315Y2949253D1*
X959769Y2957087D1*
X958480Y2965223D1*
Y2973459D1*
X959769Y2981596D1*
X962315Y2989429D1*
X966054Y2996768D1*
X970896Y3003432D1*
X976720Y3009256D1*
X983385Y3014098D1*
X990723Y3017837D1*
X994591Y3019419D1*
X986980Y3022571D1*
X979957Y3026874D1*
X973693Y3032223D1*
X968344Y3038487D1*
X964041Y3045510D1*
X960888Y3053121D1*
X958965Y3061130D1*
X958319Y3069341D1*
X958965Y3077552D1*
X960888Y3085562D1*
X964041Y3093172D1*
X968344Y3100196D1*
X973693Y3106459D1*
X979957Y3111808D1*
X986980Y3116112D1*
X994853Y3119339D1*
X986980Y3122571D1*
X979957Y3126874D1*
X973693Y3132223D1*
X968344Y3138487D1*
X964041Y3145510D1*
X960888Y3153121D1*
X958965Y3161130D1*
X958319Y3169341D1*
X958965Y3177552D1*
X960888Y3185562D1*
X964041Y3193172D1*
X968344Y3200196D1*
X973693Y3206459D1*
X979957Y3211808D1*
X986980Y3216112D1*
X994853Y3219339D1*
X986980Y3222571D1*
X979957Y3226874D1*
X973693Y3232223D1*
X968344Y3238487D1*
X964041Y3245510D1*
X960888Y3253121D1*
X958965Y3261130D1*
X958319Y3269341D1*
X958965Y3277552D1*
X960888Y3285562D1*
X964041Y3293172D1*
X968344Y3300196D1*
X973693Y3306459D1*
X979957Y3311808D1*
X986980Y3316112D1*
X994853Y3319339D1*
X986980Y3322571D1*
X979957Y3326874D1*
X973693Y3332223D1*
X968344Y3338487D1*
X964041Y3345510D1*
X960888Y3353121D1*
X958965Y3361130D1*
X958319Y3369341D1*
X958965Y3377552D1*
X960888Y3385562D1*
X964041Y3393172D1*
X968344Y3400196D1*
X973693Y3406459D1*
X979957Y3411808D1*
X986980Y3416112D1*
X994853Y3419339D1*
X986980Y3422571D1*
X979957Y3426874D1*
X973693Y3432223D1*
X968344Y3438487D1*
X964041Y3445510D1*
X960888Y3453121D1*
X959690Y3457482D1*
X948264Y3446202D1*
X944400Y3443396D1*
X940146Y3441228D1*
X935605Y3439753D1*
X930888Y3439005D1*
X855010Y3438912D1*
X805598D1*
X799929Y3432223D1*
X793665Y3426874D1*
X786642Y3422571D1*
X778769Y3419344D1*
X786642Y3416112D1*
X793665Y3411808D1*
X799929Y3406459D1*
X805278Y3400196D1*
X809581Y3393172D1*
X812734Y3385562D1*
X814657Y3377552D1*
X815303Y3369341D1*
X814657Y3361130D1*
X812734Y3353121D1*
X809581Y3345510D1*
X805278Y3338487D1*
X799929Y3332223D1*
X793665Y3326874D1*
X786642Y3322571D1*
X778769Y3319344D1*
X786642Y3316112D1*
X793665Y3311808D1*
X799929Y3306459D1*
X805278Y3300196D1*
X809581Y3293172D1*
X812734Y3285562D1*
X814657Y3277552D1*
X815303Y3269341D1*
X814657Y3261130D1*
X812734Y3253121D1*
X809581Y3245510D1*
X805278Y3238487D1*
X799929Y3232223D1*
X793665Y3226874D1*
X786642Y3222571D1*
X778769Y3219344D1*
X786642Y3216112D1*
X793665Y3211808D1*
X799929Y3206459D1*
X805278Y3200196D1*
X809581Y3193172D1*
X812734Y3185562D1*
X814657Y3177552D1*
X815303Y3169341D1*
X814657Y3161130D1*
X812734Y3153121D1*
X809581Y3145510D1*
X805278Y3138487D1*
X799929Y3132223D1*
X793665Y3126874D1*
X786642Y3122571D1*
X778769Y3119344D1*
X786642Y3116112D1*
X793665Y3111808D1*
X799929Y3106459D1*
X805278Y3100196D1*
X809581Y3093172D1*
X812734Y3085562D1*
X814657Y3077552D1*
X815303Y3069341D1*
X814657Y3061130D1*
X812734Y3053121D1*
X809581Y3045510D1*
X805278Y3038487D1*
X799929Y3032223D1*
X793665Y3026874D1*
X786642Y3022571D1*
X778769Y3019344D1*
X786642Y3016112D1*
X793665Y3011808D1*
X799929Y3006459D1*
X805278Y3000196D1*
X809581Y2993172D1*
X812734Y2985562D1*
X814657Y2977552D1*
X815303Y2969341D1*
X814657Y2961130D1*
X812734Y2953121D1*
X809581Y2945510D1*
X805278Y2938487D1*
X799929Y2932223D1*
X793665Y2926874D1*
X786642Y2922571D1*
X778769Y2919344D1*
X786642Y2916112D1*
X793665Y2911808D1*
X799929Y2906459D1*
X805278Y2900196D1*
X809581Y2893172D1*
X812734Y2885562D1*
X814657Y2877552D1*
X815303Y2869341D1*
X814657Y2861130D1*
X812734Y2853121D1*
X809581Y2845510D1*
X805278Y2838487D1*
X799929Y2832223D1*
X793665Y2826874D1*
X786642Y2822571D1*
X779031Y2819419D1*
X771022Y2817495D1*
X762811Y2816849D1*
X706693Y2817010D1*
X698556Y2818299D1*
X690723Y2820845D1*
X683385Y2824584D1*
X676720Y2829427D1*
X672961Y2833016D1*
X663285Y2833007D1*
X663304Y2691655D1*
X666054Y2696768D1*
X670896Y2703432D1*
X676720Y2709256D1*
X683385Y2714098D1*
X690723Y2717837D1*
X698556Y2720383D1*
X706693Y2721672D1*
X708318Y2721735D1*
X710866Y2726988D1*
X713672Y2730852D1*
X717049Y2734228D1*
X720912Y2737034D1*
X725167Y2739202D1*
X729707Y2740677D1*
X734424Y2741425D1*
X810302Y2741518D1*
X966290D1*
X962315Y2749253D1*
X959769Y2757087D1*
X958480Y2765223D1*
Y2773459D1*
X959769Y2781596D1*
X962315Y2789429D1*
X966054Y2796768D1*
X970896Y2803432D1*
X976720Y2809256D1*
X983385Y2814098D1*
X990723Y2817837D1*
X998556Y2820383D1*
X1006693Y2821672D1*
X1038370Y2821833D1*
X1066929Y2821672D1*
X1075066Y2820383D1*
X1082899Y2817837D1*
X1090238Y2814098D1*
X1096902Y2809256D1*
X1102726Y2803432D1*
X1107568Y2796768D1*
X1111307Y2789429D1*
X1113853Y2781596D1*
X1115142Y2773459D1*
Y2765223D1*
X1113853Y2757087D1*
X1111307Y2749253D1*
X1107308Y2741526D1*
X1426762Y2741425D1*
X1431479Y2740677D1*
X1436020Y2739202D1*
X1440274Y2737034D1*
X1444138Y2734228D1*
X1485298Y2693201D1*
X1492276Y2693186D1*
X1499480Y2692045D1*
X1506419Y2689790D1*
X1512920Y2686478D1*
X1518822Y2682190D1*
X1523980Y2677031D1*
X1528268Y2671130D1*
X1531580Y2664629D1*
X1533835Y2657690D1*
X1534976Y2650486D1*
Y2643189D1*
X1534777Y2641504D1*
X1561748Y2641518D1*
X1725345Y2804980D1*
X1729209Y2807786D1*
X1733463Y2809954D1*
X1738004Y2811429D1*
X1742720Y2812177D1*
X1818598Y2812270D1*
X3061088D1*
X3061106Y2845735D1*
X3070293D1*
X3072316Y2717948D2*
X3061106D1*
Y2751428D1*
X1757745Y2751412D1*
X1606084Y2599783D1*
X1899933Y2599770D1*
X2005294Y2704980D1*
X2009157Y2707786D1*
X2013412Y2709954D1*
X2017953Y2711429D1*
X2022669Y2712177D1*
X2098547Y2712270D1*
X3068820D1*
X3072340Y2717946D1*
X3085274Y2631861D2*
X3079820Y2636661D1*
X3073308Y2644285D1*
X3068865Y2651415D1*
X2037643Y2651412D1*
X1932319Y2546202D1*
X1928455Y2543396D1*
X1924201Y2541228D1*
X1919660Y2539753D1*
X1914944Y2539005D1*
X1839066Y2538912D1*
X1684728D1*
X1688923Y2532197D1*
X1691714Y2525457D1*
X1693417Y2518362D1*
X1693990Y2511089D1*
X1693417Y2503816D1*
X1692577Y2499783D1*
X2125932Y2499770D1*
X2231282Y2604980D1*
X2235146Y2607786D1*
X2239400Y2609954D1*
X2243941Y2611429D1*
X2248657Y2612177D1*
X2324535Y2612270D1*
X3068810D1*
X3073308Y2619398D1*
X3079820Y2627021D1*
X3085274Y2631822D1*
Y2331861D2*
X3079820Y2336661D1*
X3073308Y2344285D1*
X3068071Y2352835D1*
X3064234Y2362097D1*
X3061892Y2371846D1*
X3061106Y2381841D1*
X3061892Y2391836D1*
X3064234Y2401585D1*
X3068071Y2410848D1*
X3073308Y2419398D1*
X3079820Y2427021D1*
X3087444Y2433533D1*
X3095993Y2438770D1*
X3105256Y2442608D1*
X3115005Y2444949D1*
X3125020Y2445734D1*
X3153635Y2445538D1*
X3163538Y2443970D1*
X3173073Y2440871D1*
X3182007Y2436319D1*
X3190118Y2430427D1*
X3197207Y2423337D1*
X3203100Y2415226D1*
X3207652Y2406293D1*
X3210751Y2396757D1*
X3212319Y2386854D1*
Y2376828D1*
X3210751Y2366925D1*
X3207652Y2357390D1*
X3203100Y2348457D1*
X3197207Y2340345D1*
X3190118Y2333256D1*
X3188348Y2331861D1*
X3193802Y2327021D1*
X3200314Y2319398D1*
X3205551Y2310848D1*
X3209388Y2301585D1*
X3211730Y2291836D1*
X3212516Y2281841D1*
X3211730Y2271846D1*
X3209388Y2262097D1*
X3205551Y2252835D1*
X3200314Y2244285D1*
X3193802Y2236661D1*
X3186178Y2230150D1*
X3177629Y2224912D1*
X3168366Y2221075D1*
X3158617Y2218734D1*
X3148622Y2217948D1*
X3125000D1*
X3115005Y2218734D1*
X3105256Y2221075D1*
X3095993Y2224912D1*
X3087444Y2230150D1*
X3079820Y2236661D1*
X3073308Y2244285D1*
X3068071Y2252835D1*
X3064234Y2262097D1*
X3061892Y2271846D1*
X3061106Y2281841D1*
X3061892Y2291836D1*
X3064234Y2301585D1*
X3068071Y2310848D1*
X3073308Y2319398D1*
X3079820Y2327021D1*
X3085274Y2331822D1*
X1469259Y4564829D2*
X1576049D1*
Y4448853D1*
X1460072D1*
Y4564829D1*
X1469259D1*
X824080Y1269585D2*
Y1253682D1*
X870509Y1253657D1*
X872375Y1261286D1*
Y1293474D1*
X855635Y1276861D1*
X851772Y1274055D1*
X847517Y1271887D1*
X842976Y1270412D1*
X838260Y1269664D1*
X824067Y1269571D1*
X1236747Y3786798D2*
X1254301Y3769244D1*
X1256835Y3769256D1*
X1274408Y3786829D1*
X1274396Y3789364D1*
X1256823Y3806937D1*
X1254289Y3806925D1*
X1236715Y3789352D1*
X1236727Y3786818D1*
X1163353Y5082546D2*
X1281954D1*
Y5071386D1*
X1289054Y5075581D1*
X1298316Y5079419D1*
X1308066Y5081760D1*
X1318060Y5082546D1*
X1328055Y5081760D1*
X1337804Y5079419D1*
X1347067Y5075581D1*
X1355617Y5070344D1*
X1363240Y5063832D1*
X1368041Y5058378D1*
X1372881Y5063832D1*
X1380504Y5070344D1*
X1389054Y5075581D1*
X1398316Y5079419D1*
X1408066Y5081760D1*
X1418060Y5082546D1*
X1428055Y5081760D1*
X1437804Y5079419D1*
X1447067Y5075581D1*
X1455617Y5070344D1*
X1463240Y5063832D1*
X1469752Y5056209D1*
X1474990Y5047659D1*
X1478827Y5038396D1*
X1481168Y5028647D1*
X1481954Y5018652D1*
X1481757Y4990017D1*
X1480189Y4980114D1*
X1477091Y4970579D1*
X1472538Y4961646D1*
X1466646Y4953534D1*
X1459556Y4946445D1*
X1451445Y4940552D1*
X1442512Y4936000D1*
X1432976Y4932902D1*
X1423073Y4931333D1*
X1413047D1*
X1403144Y4932902D1*
X1393609Y4936000D1*
X1384676Y4940552D1*
X1376564Y4946445D1*
X1369475Y4953534D1*
X1368080Y4955304D1*
X1363240Y4949850D1*
X1355617Y4943339D1*
X1347067Y4938101D1*
X1337804Y4934264D1*
X1328055Y4931923D1*
X1318060Y4931136D1*
X1308066Y4931923D1*
X1298316Y4934264D1*
X1289054Y4938101D1*
X1281955Y4942370D1*
X1281954Y4931136D1*
X1154167D1*
Y5082546D1*
X1163353D1*
X1751852Y5072858D2*
X1759556Y5067238D1*
X1766646Y5060148D1*
X1772538Y5052037D1*
X1777091Y5043104D1*
X1778236Y5039996D1*
X1790969Y5052575D1*
X1794832Y5055381D1*
X1799087Y5057549D1*
X1803627Y5059024D1*
X1808344Y5059772D1*
X1884222Y5059865D1*
X2092837Y5059772D1*
X2097554Y5059024D1*
X2102094Y5057549D1*
X2106349Y5055381D1*
X2110213Y5052575D1*
X2163933Y4998987D1*
X2210291Y4952629D1*
X2241652Y4952621D1*
X2241667Y5072843D1*
X1751877Y5072869D1*
X900458Y4094916D2*
X864940D1*
X865098Y4079476D1*
X869386Y4073575D1*
X872698Y4067073D1*
X874953Y4060135D1*
X876094Y4052930D1*
Y4045634D1*
X875895Y4043949D1*
X924752Y4043963D1*
X933959Y4053394D1*
X928328Y4054286D1*
X922906Y4056049D1*
X917825Y4058636D1*
X913213Y4061988D1*
X909181Y4066020D1*
X905829Y4070633D1*
X903241Y4075713D1*
X901479Y4081135D1*
X900587Y4086766D1*
X900475Y4094892D1*
X1546076Y2977098D2*
X1538476Y2977696D1*
X1531077Y2979472D1*
X1524047Y2982383D1*
X1517559Y2986360D1*
X1511773Y2991302D1*
X1506831Y2997088D1*
X1502854Y3003576D1*
X1499944Y3010606D1*
X1498167Y3018005D1*
X1497570Y3025591D1*
X1498167Y3033176D1*
X1499944Y3040575D1*
X1502854Y3047605D1*
X1506831Y3054093D1*
X1511773Y3059879D1*
X1517559Y3064822D1*
X1524047Y3068798D1*
X1531077Y3071709D1*
X1538476Y3073486D1*
X1546076Y3074083D1*
X1593866Y3073933D1*
X1601382Y3072743D1*
X1608619Y3070391D1*
X1615399Y3066937D1*
X1621555Y3062465D1*
X1626936Y3057084D1*
X1631408Y3050928D1*
X1634862Y3044148D1*
X1637214Y3036911D1*
X1638404Y3029395D1*
Y3021786D1*
X1637214Y3014270D1*
X1634862Y3007033D1*
X1631408Y3000253D1*
X1626936Y2994097D1*
X1621555Y2988717D1*
X1615399Y2984244D1*
X1608619Y2980790D1*
X1601382Y2978438D1*
X1593866Y2977248D1*
X1562503Y2977098D1*
X1546062Y2977134D1*
X1546076Y3177098D2*
X1538476Y3177696D1*
X1531077Y3179472D1*
X1524047Y3182383D1*
X1517559Y3186360D1*
X1511773Y3191302D1*
X1506831Y3197088D1*
X1502854Y3203576D1*
X1499944Y3210606D1*
X1498167Y3218005D1*
X1497570Y3225591D1*
X1498167Y3233176D1*
X1499471Y3238900D1*
X1105601Y3238912D1*
X1099929Y3232223D1*
X1093665Y3226874D1*
X1086642Y3222571D1*
X1078769Y3219344D1*
X1086642Y3216112D1*
X1093665Y3211808D1*
X1099929Y3206459D1*
X1105278Y3200196D1*
X1109581Y3193172D1*
X1112734Y3185562D1*
X1114657Y3177552D1*
X1115303Y3169341D1*
X1114657Y3161130D1*
X1112734Y3153121D1*
X1109581Y3145510D1*
X1105278Y3138487D1*
X1099929Y3132223D1*
X1093665Y3126874D1*
X1086642Y3122571D1*
X1078769Y3119344D1*
X1086642Y3116112D1*
X1093665Y3111808D1*
X1096864Y3109286D1*
X1102832Y3112294D1*
X1109770Y3114549D1*
X1116975Y3115690D1*
X1124272D1*
X1131476Y3114549D1*
X1138415Y3112294D1*
X1144916Y3108982D1*
X1150818Y3104694D1*
X1155976Y3099535D1*
X1160264Y3093634D1*
X1163576Y3087133D1*
X1165831Y3080194D1*
X1166972Y3072990D1*
Y3065693D1*
X1165831Y3058488D1*
X1163576Y3051550D1*
X1160264Y3045049D1*
X1155976Y3039147D1*
X1150818Y3033988D1*
X1144916Y3029701D1*
X1138415Y3026388D1*
X1134976Y3025121D1*
X1134990Y2976953D1*
X1140308Y2977270D1*
X1147581Y2976698D1*
X1154676Y2974995D1*
X1161416Y2972203D1*
X1167635Y2968391D1*
X1173184Y2963654D1*
X1175438Y2961214D1*
X1675018Y2961207D1*
X1669944Y2966449D1*
X1667138Y2970312D1*
X1664970Y2974567D1*
X1663495Y2979108D1*
X1662747Y2983824D1*
X1662654Y3059702D1*
Y3237077D1*
X1655024Y3238912D1*
X1636686D1*
X1637957Y3233176D1*
X1638554Y3225591D1*
X1637957Y3218005D1*
X1636180Y3210606D1*
X1633269Y3203576D1*
X1629293Y3197088D1*
X1624350Y3191302D1*
X1618564Y3186360D1*
X1612076Y3182383D1*
X1605046Y3179472D1*
X1597647Y3177696D1*
X1590062Y3177098D1*
X1546062Y3177134D1*
X721572Y3881315D2*
X814764D1*
X814749Y3890702D1*
X781415Y3924028D1*
X724197Y3924050D1*
Y3983079D1*
X633660Y3983105D1*
X631808Y3975476D1*
X631949Y3843507D1*
X639558Y3850955D1*
X644171Y3854307D1*
X649251Y3856896D1*
X654673Y3858657D1*
X660304Y3859550D1*
X712352Y3859661D1*
X712386Y3881315D1*
X721572D1*
X974467D2*
X1032600D1*
X1032564Y3911525D1*
X1004762Y3911550D1*
X974486Y3881304D1*
X1863194Y1637516D2*
X1881710D1*
X1881726Y1661318D1*
X1879190Y1655320D1*
X1875378Y1649101D1*
X1870640Y1643552D1*
X1865092Y1638815D1*
X1863136Y1637508D1*
X771718Y1607445D2*
X753403Y1589247D1*
X750041Y1586803D1*
X746336Y1584916D1*
X742383Y1583631D1*
X738277Y1582980D1*
X710343D1*
X706236Y1583631D1*
X702283Y1584916D1*
X698579Y1586803D1*
X695217Y1589247D1*
X675465Y1608999D1*
X673021Y1612361D1*
X671134Y1616066D1*
X669849Y1620018D1*
X669198Y1624125D1*
Y1652059D1*
X669849Y1656165D1*
X671134Y1660118D1*
X673021Y1663823D1*
X675465Y1667185D1*
X695222Y1686942D1*
X695217Y1687672D1*
X684934Y1697837D1*
X674663Y1687672D1*
X671301Y1685228D1*
X667596Y1683341D1*
X663643Y1682056D1*
X659537Y1681406D1*
X631602D1*
X627496Y1682056D1*
X623543Y1683341D1*
X619839Y1685228D1*
X616476Y1687672D1*
X596724Y1707424D1*
X594281Y1710786D1*
X592394Y1714491D1*
X591109Y1718444D1*
X590458Y1722550D1*
Y1750484D1*
X591109Y1754591D1*
X592394Y1758543D1*
X594281Y1762248D1*
X596724Y1765610D1*
X616476Y1785362D1*
X619839Y1787806D1*
X623543Y1789693D1*
X627496Y1790978D1*
X631602Y1791629D1*
X659537D1*
X663643Y1790978D1*
X667596Y1789693D1*
X671301Y1787806D1*
X674663Y1785362D1*
X684945Y1775197D1*
X695217Y1785362D1*
X698579Y1787806D1*
X702283Y1789693D1*
X706236Y1790978D1*
X710343Y1791629D1*
X738277D1*
X742383Y1790978D1*
X746336Y1789693D1*
X750041Y1787806D1*
X753403Y1785362D1*
X773155Y1765610D1*
X775598Y1762248D1*
X777486Y1758543D1*
X778770Y1754591D1*
X779421Y1750484D1*
Y1722550D1*
X778770Y1718444D1*
X777486Y1714491D1*
X775598Y1710786D1*
X773155Y1707424D1*
X753398Y1687667D1*
X753403Y1686937D1*
X773155Y1667185D1*
X775598Y1663823D1*
X777486Y1660118D1*
X778770Y1656165D1*
X779421Y1652059D1*
Y1624125D1*
X778770Y1620018D1*
X777486Y1616066D1*
X775598Y1612361D1*
X773155Y1608999D1*
X765083Y1600810D1*
X694853Y3419344D2*
X686980Y3422571D1*
X679957Y3426874D1*
X673693Y3432223D1*
X668344Y3438487D1*
X667995Y3439009D1*
X667993Y3399693D1*
X673693Y3406459D1*
X679957Y3411808D1*
X686980Y3416112D1*
X694853Y3419339D1*
X667995Y3499673D2*
X670896Y3503432D1*
X676720Y3509256D1*
X683385Y3514098D1*
X690723Y3517837D1*
X698556Y3520383D1*
X706693Y3521672D1*
X738370Y3521833D1*
X766929Y3521672D1*
X775066Y3520383D1*
X782899Y3517837D1*
X790238Y3514098D1*
X796902Y3509256D1*
X802726Y3503432D1*
X805555Y3499781D1*
X915909Y3499770D1*
X950487Y3534228D1*
X954350Y3537034D1*
X958605Y3539202D1*
X963146Y3540677D1*
X967862Y3541425D1*
X1043740Y3541518D1*
X1092219D1*
X1087058Y3546651D1*
X1082770Y3552552D1*
X1079458Y3559054D1*
X1077203Y3565992D1*
X1076248Y3571626D1*
X1065686Y3582185D1*
X667982Y3582164D1*
X667993Y3499738D1*
X694853Y3319344D2*
X686980Y3322571D1*
X679957Y3326874D1*
X673693Y3332223D1*
X668344Y3338487D1*
X667995Y3339009D1*
X667993Y3299719D1*
X673693Y3306459D1*
X679957Y3311808D1*
X686980Y3316112D1*
X694853Y3319339D1*
Y3219344D2*
X686980Y3222571D1*
X679957Y3226874D1*
X673693Y3232223D1*
X668344Y3238487D1*
X667995Y3239009D1*
X667993Y3199673D1*
X670896Y3203432D1*
X676720Y3209256D1*
X683385Y3214098D1*
X690723Y3217837D1*
X694853Y3219339D1*
Y3119344D2*
X686980Y3122571D1*
X679957Y3126874D1*
X673693Y3132223D1*
X668344Y3138487D1*
X667995Y3139009D1*
X667993Y3099701D1*
X673693Y3106459D1*
X679957Y3111808D1*
X686980Y3116112D1*
X694853Y3119339D1*
Y3019344D2*
X686980Y3022571D1*
X679957Y3026874D1*
X673693Y3032223D1*
X668344Y3038487D1*
X667995Y3039009D1*
X667993Y2999727D1*
X673693Y3006459D1*
X679957Y3011808D1*
X686980Y3016112D1*
X694853Y3019339D1*
Y2919344D2*
X686980Y2922571D1*
X679957Y2926874D1*
X673693Y2932223D1*
X668344Y2938487D1*
X667995Y2939009D1*
X667993Y2905710D1*
X672962Y2905676D1*
X676720Y2909256D1*
X683385Y2914098D1*
X690723Y2917837D1*
X694853Y2919339D1*
X815142Y2565223D2*
X813853Y2557087D1*
X811307Y2549253D1*
X807568Y2541915D1*
X802726Y2535251D1*
X796902Y2529427D1*
X790238Y2524584D1*
X782899Y2520845D1*
X779031Y2519264D1*
X786642Y2516112D1*
X793665Y2511808D1*
X799929Y2506459D1*
X805555Y2499781D1*
X823471Y2499770D1*
X956294Y2632613D1*
X954134Y2633007D1*
X851685D1*
X810328Y2591646D1*
X812734Y2585562D1*
X814657Y2577552D1*
X815303Y2569341D1*
X815142Y2565223D1*
X694853Y2319344D2*
X686980Y2322571D1*
X679957Y2326874D1*
X673693Y2332223D1*
X668344Y2338487D1*
X664041Y2345510D1*
X663306Y2347104D1*
X663304Y2291684D1*
X666054Y2296768D1*
X670896Y2303432D1*
X676720Y2309256D1*
X683385Y2314098D1*
X690723Y2317837D1*
X694853Y2319339D1*
X805555Y2338902D2*
X799929Y2332223D1*
X793665Y2326874D1*
X786642Y2322571D1*
X778769Y2319344D1*
X786642Y2316112D1*
X793665Y2311808D1*
X799929Y2306459D1*
X805555Y2299781D1*
X848467Y2299677D1*
X853184Y2298929D1*
X857724Y2297454D1*
X861979Y2295286D1*
X865843Y2292480D1*
X887283Y2271172D1*
X890385Y2267541D1*
X892879Y2263470D1*
X894706Y2259058D1*
X895822Y2254415D1*
X896196Y2249655D1*
Y2148785D1*
X903824Y2146916D1*
X963356D1*
X960888Y2153121D1*
X958965Y2161130D1*
X958319Y2169341D1*
X958965Y2177552D1*
X960888Y2185562D1*
X964041Y2193172D1*
X968344Y2200196D1*
X973693Y2206459D1*
X979957Y2211808D1*
X986980Y2216112D1*
X994853Y2219339D1*
X986980Y2222571D1*
X979957Y2226874D1*
X973693Y2232223D1*
X968344Y2238487D1*
X964041Y2245510D1*
X960888Y2253121D1*
X958965Y2261130D1*
X958319Y2269341D1*
X958965Y2277552D1*
X960888Y2285562D1*
X964041Y2293172D1*
X968344Y2300196D1*
X973693Y2306459D1*
X979957Y2311808D1*
X986980Y2316112D1*
X994853Y2319339D1*
X986980Y2322571D1*
X979957Y2326874D1*
X973693Y2332223D1*
X968344Y2338487D1*
X964041Y2345510D1*
X961908Y2350356D1*
X957622Y2346202D1*
X953759Y2343396D1*
X949504Y2341228D1*
X944963Y2339753D1*
X940247Y2339005D1*
X864369Y2338912D1*
X805555D1*
X694853Y2219344D2*
X686980Y2222571D1*
X679957Y2226874D1*
X673693Y2232223D1*
X668344Y2238487D1*
X664041Y2245510D1*
X663306Y2247104D1*
X663304Y2191639D1*
X666054Y2196768D1*
X670896Y2203432D1*
X676720Y2209256D1*
X683385Y2214098D1*
X690723Y2217837D1*
X694853Y2219339D1*
X966600Y2441097D2*
X964041Y2445510D1*
X960888Y2453121D1*
X958965Y2461130D1*
X958319Y2469341D1*
X958965Y2477552D1*
X959584Y2480664D1*
X945280Y2480660D1*
X864365Y2399774D1*
X925239Y2399770D1*
X966558Y2441073D1*
X1115142Y2665223D2*
X1113853Y2657087D1*
X1111307Y2649253D1*
X1107308Y2641526D1*
X1442469Y2641518D1*
X1442135Y2646837D1*
X1442265Y2650157D1*
X1411770Y2680661D1*
X1114085Y2680660D1*
X1115142Y2673459D1*
Y2665223D1*
X1844394Y3721551D2*
X1843130Y3713570D1*
X1840633Y3705886D1*
X1836965Y3698686D1*
X1832215Y3692150D1*
X1826241Y3686230D1*
X1832215Y3680291D1*
X1836965Y3673755D1*
X1840633Y3666555D1*
X1843130Y3658871D1*
X1844394Y3650890D1*
Y3642811D1*
X1843130Y3634829D1*
X1840633Y3627146D1*
X1836965Y3619946D1*
X1832215Y3613409D1*
X1826241Y3607490D1*
X1832215Y3601551D1*
X1836965Y3595014D1*
X1840633Y3587815D1*
X1843130Y3580131D1*
X1844394Y3572150D1*
Y3564071D1*
X1843130Y3556089D1*
X1840633Y3548406D1*
X1836965Y3541206D1*
X1832215Y3534669D1*
X1826241Y3528749D1*
X1832215Y3522811D1*
X1836965Y3516274D1*
X1840633Y3509075D1*
X1843130Y3501391D1*
X1844394Y3493409D1*
Y3485331D1*
X1843130Y3477349D1*
X1840633Y3469665D1*
X1836965Y3462466D1*
X1832215Y3455929D1*
X1826241Y3450009D1*
X1832215Y3444071D1*
X1836965Y3437534D1*
X1840633Y3430335D1*
X1843130Y3422651D1*
X1844394Y3414669D1*
Y3406591D1*
X1843130Y3398609D1*
X1840633Y3390925D1*
X1836965Y3383726D1*
X1832215Y3377189D1*
X1826241Y3371269D1*
X1832215Y3365331D1*
X1836965Y3358794D1*
X1840633Y3351594D1*
X1843130Y3343911D1*
X1844394Y3335929D1*
Y3327850D1*
X1843130Y3319869D1*
X1840633Y3312185D1*
X1836965Y3304986D1*
X1832215Y3298449D1*
X1826241Y3292529D1*
X1832215Y3286591D1*
X1836965Y3280054D1*
X1840633Y3272854D1*
X1843130Y3265171D1*
X1844394Y3257189D1*
Y3249110D1*
X1843130Y3241129D1*
X1840633Y3233445D1*
X1836965Y3226245D1*
X1832215Y3219709D1*
X1826241Y3213789D1*
X1832215Y3207850D1*
X1836965Y3201314D1*
X1840633Y3194114D1*
X1843130Y3186430D1*
X1844394Y3178449D1*
Y3170370D1*
X1843130Y3162388D1*
X1840633Y3154705D1*
X1836965Y3147505D1*
X1832215Y3140969D1*
X1826241Y3135049D1*
X1832215Y3129110D1*
X1836965Y3122573D1*
X1840633Y3115374D1*
X1843130Y3107690D1*
X1844394Y3099709D1*
Y3091630D1*
X1843130Y3083648D1*
X1840633Y3075965D1*
X1836965Y3068765D1*
X1832215Y3062228D1*
X1826501Y3056514D1*
X1819965Y3051765D1*
X1812765Y3048097D1*
X1805081Y3045600D1*
X1797100Y3044336D1*
X1789021D1*
X1781039Y3045600D1*
X1773356Y3048097D1*
X1766156Y3051765D1*
X1759619Y3056514D1*
X1753906Y3062228D1*
X1749156Y3068765D1*
X1745488Y3075965D1*
X1742991Y3083648D1*
X1741727Y3091630D1*
Y3099709D1*
X1742991Y3107690D1*
X1745488Y3115374D1*
X1749156Y3122573D1*
X1753906Y3129110D1*
X1759879Y3135030D1*
X1753906Y3140969D1*
X1749156Y3147505D1*
X1745488Y3154705D1*
X1742991Y3162388D1*
X1741727Y3170370D1*
Y3178449D1*
X1742991Y3186430D1*
X1745488Y3194114D1*
X1749156Y3201314D1*
X1753906Y3207850D1*
X1759879Y3213770D1*
X1753906Y3219709D1*
X1749156Y3226245D1*
X1745488Y3233445D1*
X1742991Y3241129D1*
X1741727Y3249110D1*
Y3257189D1*
X1742991Y3265171D1*
X1745488Y3272854D1*
X1749156Y3280054D1*
X1753906Y3286591D1*
X1759879Y3292510D1*
X1753906Y3298449D1*
X1749156Y3304986D1*
X1745488Y3312185D1*
X1742991Y3319869D1*
X1741727Y3327850D1*
Y3335929D1*
X1742991Y3343911D1*
X1745488Y3351594D1*
X1749156Y3358794D1*
X1753906Y3365331D1*
X1759879Y3371251D1*
X1753906Y3377189D1*
X1749156Y3383726D1*
X1745488Y3390925D1*
X1742991Y3398609D1*
X1741727Y3406591D1*
Y3414669D1*
X1742991Y3422651D1*
X1745488Y3430335D1*
X1749156Y3437534D1*
X1753906Y3444071D1*
X1759879Y3449991D1*
X1753906Y3455929D1*
X1749156Y3462466D1*
X1745488Y3469665D1*
X1742991Y3477349D1*
X1741727Y3485331D1*
Y3493409D1*
X1742991Y3501391D1*
X1745488Y3509075D1*
X1749156Y3516274D1*
X1753906Y3522811D1*
X1759879Y3528731D1*
X1753906Y3534669D1*
X1749156Y3541206D1*
X1745488Y3548406D1*
X1742991Y3556089D1*
X1741727Y3564071D1*
Y3572150D1*
X1742991Y3580131D1*
X1745488Y3587815D1*
X1749156Y3595014D1*
X1753906Y3601551D1*
X1759879Y3607471D1*
X1753906Y3613409D1*
X1749156Y3619946D1*
X1745488Y3627146D1*
X1742991Y3634829D1*
X1741727Y3642811D1*
Y3650890D1*
X1742991Y3658871D1*
X1745488Y3666555D1*
X1749156Y3673755D1*
X1753906Y3680291D1*
X1759879Y3686211D1*
X1753906Y3692150D1*
X1749156Y3698686D1*
X1745488Y3705886D1*
X1742991Y3713570D1*
X1741727Y3721551D1*
Y3729630D1*
X1742991Y3737612D1*
X1745488Y3745295D1*
X1749156Y3752495D1*
X1753906Y3759031D1*
X1759619Y3764745D1*
X1766156Y3769495D1*
X1773356Y3773163D1*
X1781039Y3775660D1*
X1789021Y3776924D1*
X1797100D1*
X1805081Y3775660D1*
X1812765Y3773163D1*
X1819965Y3769495D1*
X1826501Y3764745D1*
X1832215Y3759031D1*
X1836965Y3752495D1*
X1840633Y3745295D1*
X1843130Y3737612D1*
X1844394Y3729630D1*
Y3721551D1*
X2710535Y3012890D2*
X2709272Y3004908D1*
X2706650Y2996951D1*
X2753302Y2996955D1*
X2755177Y3004585D1*
X2755270Y3333293D1*
X2756018Y3338009D1*
X2757493Y3342550D1*
X2759661Y3346804D1*
X2762467Y3350668D1*
X2783774Y3372108D1*
X2787406Y3375209D1*
X2791476Y3377703D1*
X2795888Y3379530D1*
X2800531Y3380646D1*
X2805291Y3381020D1*
X3068789D1*
X3073308Y3388147D1*
X3079820Y3395770D1*
X3085274Y3400571D1*
X3079820Y3405411D1*
X3073308Y3413034D1*
X3072492Y3414257D1*
X3027710Y3414367D1*
X3022079Y3415260D1*
X3016656Y3417021D1*
X3011576Y3419610D1*
X3006963Y3422962D1*
X2972390Y3457377D1*
X2710302Y3719465D1*
X2709272Y3713570D1*
X2706774Y3705886D1*
X2703106Y3698686D1*
X2698357Y3692150D1*
X2692383Y3686230D1*
X2698357Y3680291D1*
X2703106Y3673755D1*
X2706774Y3666555D1*
X2709272Y3658871D1*
X2710535Y3650890D1*
Y3642811D1*
X2709272Y3634829D1*
X2706774Y3627146D1*
X2703106Y3619946D1*
X2698357Y3613409D1*
X2692383Y3607490D1*
X2698357Y3601551D1*
X2703106Y3595014D1*
X2706774Y3587815D1*
X2709272Y3580131D1*
X2710535Y3572150D1*
Y3564071D1*
X2709272Y3556089D1*
X2706774Y3548406D1*
X2703106Y3541206D1*
X2698357Y3534669D1*
X2692383Y3528749D1*
X2698357Y3522811D1*
X2703106Y3516274D1*
X2706774Y3509075D1*
X2709272Y3501391D1*
X2710535Y3493409D1*
Y3485331D1*
X2709272Y3477349D1*
X2706774Y3469665D1*
X2703106Y3462466D1*
X2698357Y3455929D1*
X2692383Y3450009D1*
X2698357Y3444071D1*
X2703106Y3437534D1*
X2706774Y3430335D1*
X2709272Y3422651D1*
X2710535Y3414669D1*
Y3406591D1*
X2709272Y3398609D1*
X2706774Y3390925D1*
X2703106Y3383726D1*
X2698357Y3377189D1*
X2692383Y3371269D1*
X2698357Y3365331D1*
X2703106Y3358794D1*
X2706774Y3351594D1*
X2709272Y3343911D1*
X2710535Y3335929D1*
Y3327850D1*
X2709272Y3319869D1*
X2706774Y3312185D1*
X2703106Y3304986D1*
X2698357Y3298449D1*
X2692383Y3292529D1*
X2698357Y3286591D1*
X2703106Y3280054D1*
X2706774Y3272854D1*
X2709272Y3265171D1*
X2710535Y3257189D1*
Y3249110D1*
X2709272Y3241129D1*
X2706774Y3233445D1*
X2703106Y3226245D1*
X2698357Y3219709D1*
X2692383Y3213789D1*
X2698357Y3207850D1*
X2703106Y3201314D1*
X2706774Y3194114D1*
X2709272Y3186430D1*
X2710535Y3178449D1*
Y3170370D1*
X2709272Y3162388D1*
X2706774Y3154705D1*
X2703106Y3147505D1*
X2698357Y3140969D1*
X2692383Y3135049D1*
X2698357Y3129110D1*
X2703106Y3122573D1*
X2706774Y3115374D1*
X2709272Y3107690D1*
X2710535Y3099709D1*
Y3091630D1*
X2709272Y3083648D1*
X2706774Y3075965D1*
X2703106Y3068765D1*
X2698357Y3062228D1*
X2692383Y3056308D1*
X2698357Y3050370D1*
X2703106Y3043833D1*
X2706774Y3036634D1*
X2709272Y3028950D1*
X2710535Y3020969D1*
Y3012890D1*
X1792534Y4016726D2*
Y4011056D1*
X1879816Y4011089D1*
X1875576Y4015409D1*
X1799091Y4015509D1*
X1794365Y4016260D1*
X2539352Y5072858D2*
X2547056Y5067238D1*
X2554146Y5060148D1*
X2560038Y5052037D1*
X2564591Y5043104D1*
X2567689Y5033568D1*
X2569257Y5023665D1*
X2569454Y5000280D1*
X2569257Y4990017D1*
X2567689Y4980114D1*
X2564591Y4970579D1*
X2560038Y4961646D1*
X2554146Y4953534D1*
X2553307Y4952627D1*
X2657765Y4952621D1*
X2653869Y4957474D1*
X2648631Y4966024D1*
X2644794Y4975286D1*
X2642453Y4985035D1*
X2641668Y4995050D1*
X2641864Y5023665D1*
X2643432Y5033568D1*
X2646530Y5043104D1*
X2651083Y5052037D1*
X2656975Y5060148D1*
X2664064Y5067238D1*
X2664388Y5067492D1*
X2659035Y5072846D1*
X2539391Y5072869D1*
X3125020Y3086698D2*
X3115005Y3087483D1*
X3105256Y3089824D1*
X3095993Y3093661D1*
X3087444Y3098899D1*
X3079820Y3105411D1*
X3073308Y3113034D1*
X3068071Y3121584D1*
X3064234Y3130846D1*
X3061892Y3140596D1*
X3061106Y3150591D1*
X3061892Y3160585D1*
X3064234Y3170335D1*
X3068071Y3179597D1*
X3073308Y3188147D1*
X3079820Y3195770D1*
X3087444Y3202282D1*
X3095993Y3207520D1*
X3105256Y3211357D1*
X3115005Y3213698D1*
X3125020Y3214483D1*
X3153635Y3214287D1*
X3163538Y3212719D1*
X3173073Y3209621D1*
X3182007Y3205068D1*
X3190118Y3199176D1*
X3197207Y3192087D1*
X3203100Y3183975D1*
X3207652Y3175042D1*
X3210751Y3165507D1*
X3212319Y3155604D1*
Y3145577D1*
X3210751Y3135675D1*
X3207652Y3126139D1*
X3203100Y3117206D1*
X3197207Y3109094D1*
X3190118Y3102005D1*
X3182007Y3096113D1*
X3173073Y3091560D1*
X3163538Y3088462D1*
X3153635Y3086894D1*
X3130249Y3086697D1*
X3125000Y3086732D1*
X2892898Y716041D2*
X2891873Y707382D1*
X2890172Y698829D1*
X2887804Y690436D1*
X2884786Y682255D1*
X2881135Y674336D1*
X2876875Y666728D1*
X2872030Y659478D1*
X2866631Y652629D1*
X2860713Y646226D1*
X2854310Y640307D1*
X2847461Y634908D1*
X2840210Y630063D1*
X2832602Y625803D1*
X2824684Y622152D1*
X2816503Y619134D1*
X2808109Y616766D1*
X2799556Y615066D1*
X2790898Y614041D1*
X2782184Y613698D1*
X2773470Y614041D1*
X2764811Y615066D1*
X2756259Y616766D1*
X2747865Y619134D1*
X2739684Y622152D1*
X2731765Y625803D1*
X2724157Y630063D1*
X2716907Y634908D1*
X2710058Y640307D1*
X2703655Y646226D1*
X2697736Y652629D1*
X2692337Y659478D1*
X2687492Y666728D1*
X2683232Y674336D1*
X2679581Y682255D1*
X2676563Y690436D1*
X2674196Y698829D1*
X2672495Y707382D1*
X2671470Y716041D1*
X2671127Y724755D1*
X2671470Y733469D1*
X2672495Y742127D1*
X2674196Y750680D1*
X2676563Y759073D1*
X2679581Y767255D1*
X2683232Y775173D1*
X2687492Y782781D1*
X2692337Y790031D1*
X2697736Y796881D1*
X2703655Y803283D1*
X2710058Y809202D1*
X2716907Y814601D1*
X2724157Y819446D1*
X2731765Y823706D1*
X2739684Y827357D1*
X2747865Y830375D1*
X2756259Y832743D1*
X2764811Y834444D1*
X2773470Y835469D1*
X2782184Y835811D1*
X2790898Y835469D1*
X2799556Y834444D1*
X2808109Y832743D1*
X2816503Y830375D1*
X2824684Y827357D1*
X2832602Y823706D1*
X2840210Y819446D1*
X2847461Y814601D1*
X2854310Y809202D1*
X2860713Y803283D1*
X2866631Y796881D1*
X2872030Y790031D1*
X2876875Y782781D1*
X2881135Y775173D1*
X2884786Y767255D1*
X2887804Y759073D1*
X2890172Y750680D1*
X2891873Y742127D1*
X2892898Y733469D1*
X2893240Y724755D1*
X2892898Y716041D1*
X1386992D2*
X1385967Y707382D1*
X1384266Y698829D1*
X1381899Y690436D1*
X1378881Y682255D1*
X1375230Y674336D1*
X1370970Y666728D1*
X1366125Y659478D1*
X1360726Y652629D1*
X1354807Y646226D1*
X1348404Y640307D1*
X1341555Y634908D1*
X1334304Y630063D1*
X1326697Y625803D1*
X1318778Y622152D1*
X1310597Y619134D1*
X1302203Y616766D1*
X1293651Y615066D1*
X1284992Y614041D1*
X1276278Y613698D1*
X1267564Y614041D1*
X1258906Y615066D1*
X1250353Y616766D1*
X1241959Y619134D1*
X1233778Y622152D1*
X1225860Y625803D1*
X1218252Y630063D1*
X1211001Y634908D1*
X1204152Y640307D1*
X1197749Y646226D1*
X1191831Y652629D1*
X1186432Y659478D1*
X1181587Y666728D1*
X1177327Y674336D1*
X1173676Y682255D1*
X1170657Y690436D1*
X1168290Y698829D1*
X1166589Y707382D1*
X1165564Y716041D1*
X1165222Y724755D1*
X1165564Y733469D1*
X1166589Y742127D1*
X1168290Y750680D1*
X1170657Y759073D1*
X1173676Y767255D1*
X1177327Y775173D1*
X1181587Y782781D1*
X1186432Y790031D1*
X1191831Y796881D1*
X1197749Y803283D1*
X1204152Y809202D1*
X1211001Y814601D1*
X1218252Y819446D1*
X1225860Y823706D1*
X1233778Y827357D1*
X1241959Y830375D1*
X1250353Y832743D1*
X1258906Y834444D1*
X1267564Y835469D1*
X1276278Y835811D1*
X1284992Y835469D1*
X1293651Y834444D1*
X1302203Y832743D1*
X1310597Y830375D1*
X1318778Y827357D1*
X1326697Y823706D1*
X1334304Y819446D1*
X1341555Y814601D1*
X1348404Y809202D1*
X1354807Y803283D1*
X1360726Y796881D1*
X1366125Y790031D1*
X1370970Y782781D1*
X1375230Y775173D1*
X1378881Y767255D1*
X1381899Y759073D1*
X1384266Y750680D1*
X1385967Y742127D1*
X1386992Y733469D1*
X1387335Y724755D1*
X1386992Y716041D1*
D18*
X1624310Y4200591D3*
X1734546D3*
X1861810Y4113092D3*
X1972046D3*
X855560Y1444341D3*
X965797D3*
X1249310Y3556841D3*
X1359546D3*
X1399310Y1356841D3*
X1509546D3*
X1399310Y1213092D3*
X1509546D3*
X1911810Y1450591D3*
X2022046D3*
X1399310Y1494341D3*
X1509546D3*
X1911810Y1313092D3*
X2022046D3*
D21*
X1174311Y4500591D3*
X1347539D3*
D18*
X1624310Y4031844D3*
X1734546D3*
D22*
X2305560Y5006841D3*
D23*
X2405560D3*
X2505560D3*
X2605560D3*
X2705560D3*
X2805560D3*
D25*
X768060Y1325591D3*
Y1300000D3*
Y1274409D3*
Y1248819D3*
Y1223228D3*
Y1197638D3*
Y1172047D3*
Y1146457D3*
Y1120866D3*
Y1095276D3*
Y1069685D3*
Y1044094D3*
Y1018504D3*
Y992913D3*
X1053493D3*
Y1018504D3*
Y1044094D3*
Y1069685D3*
Y1095276D3*
Y1120866D3*
Y1146457D3*
Y1172047D3*
Y1197638D3*
Y1223228D3*
Y1248819D3*
Y1274409D3*
Y1300000D3*
Y1325591D3*
D95*
X1205562Y3738091D3*
Y3838091D3*
X1305562Y3738091D3*
Y3838091D3*
X1405562Y3738091D3*
Y3838091D3*
D27*
X1874311Y4550592D3*
Y4467915D3*
D28*
X3136812Y4588092D3*
D29*
Y4488092D3*
Y4388092D3*
Y4288092D3*
Y4188092D3*
Y4088092D3*
D18*
X1405560Y1619341D3*
X1515797D3*
X936810Y4156841D3*
X1047046D3*
D28*
X3136811Y2781841D3*
D29*
Y2681841D3*
Y2581841D3*
Y2481841D3*
Y2381841D3*
Y2281841D3*
D31*
X1568062Y3025591D3*
Y3225591D3*
D32*
X774311Y3713091D3*
Y3823327D3*
X1011811Y3713091D3*
Y3823327D3*
D18*
X724310Y4156841D3*
X834546D3*
X849310Y1588092D3*
X959546D3*
X1918060Y1575591D3*
X2028297D3*
X1861810Y4294341D3*
X1972046D3*
D27*
X1011811Y4044341D3*
Y3961664D3*
D33*
X1518060Y4506841D3*
D34*
X1714911D3*
D28*
X3136811Y3750591D3*
D29*
Y3650591D3*
Y3550591D3*
Y3450591D3*
Y3350591D3*
Y3250591D3*
Y3150591D3*
D22*
X1218060Y5006841D3*
D23*
X1318060D3*
X1418060D3*
X1518060D3*
X1618060D3*
X1718060D3*
D27*
X774311Y4056841D3*
Y3974164D3*
D35*
X1218062Y4106841D3*
D36*
X1318062D3*
X1418062D3*
D37*
X899310Y4781841D3*
Y4495621D3*
D98*
X724310Y1638092D3*
Y1736517D3*
X645570D3*
Y1638092D3*
D39*
X538877Y1923525D3*
Y1451084D3*
D40*
X1793060Y3725591D3*
Y3646850D3*
Y3568110D3*
Y3489370D3*
Y3410630D3*
Y3331890D3*
Y3253150D3*
Y3174409D3*
Y3095669D3*
Y3016929D3*
X2659202D3*
Y3095669D3*
Y3174409D3*
Y3253150D3*
Y3331890D3*
Y3410630D3*
Y3489370D3*
Y3568110D3*
Y3646850D3*
Y3725591D3*
D41*
X736811Y3469341D3*
Y3369341D3*
Y3269341D3*
Y3169341D3*
Y3069341D3*
Y2969341D3*
Y2869341D3*
Y2769341D3*
Y2669341D3*
Y2569341D3*
Y2469341D3*
Y2369341D3*
Y2269341D3*
Y2169341D3*
X1036811D3*
Y2269341D3*
Y2369341D3*
Y2469341D3*
Y2569341D3*
Y2669341D3*
Y2769341D3*
Y2869341D3*
Y2969341D3*
Y3069341D3*
Y3169341D3*
Y3269341D3*
Y3369341D3*
Y3469341D3*
M02*
