G04 DipTrace 4.0.0.3*
G04 2 - Bottom.gbr*
%MOIN*%
G04 #@! TF.FileFunction,Copper,L2,Bot*
G04 #@! TF.Part,Single*
%AMOUTLINE0*
4,1,8,
0.03,0.012427,
0.012427,0.03,
-0.012427,0.03,
-0.03,0.012427,
-0.03,-0.012427,
-0.012427,-0.03,
0.012427,-0.03,
0.03,-0.012427,
0.03,0.012427,
0*%
%AMOUTLINE3*
4,1,8,
0.011888,-0.028701,
0.028701,-0.011888,
0.028701,0.011888,
0.011888,0.028701,
-0.011888,0.028701,
-0.028701,0.011888,
-0.028701,-0.011888,
-0.011888,-0.028701,
0.011888,-0.028701,
0*%
G04 #@! TA.AperFunction,Conductor*
%ADD15C,0.019685*%
%ADD16C,0.007874*%
G04 #@! TA.AperFunction,CopperBalancing*
%ADD17C,0.025*%
G04 #@! TA.AperFunction,ComponentPad*
%ADD22R,0.074803X0.098425*%
%ADD23O,0.074803X0.098425*%
%ADD28R,0.098425X0.074803*%
%ADD29O,0.098425X0.074803*%
%ADD31O,0.088X0.044*%
%ADD33R,0.062992X0.062992*%
%ADD34C,0.062992*%
%ADD35R,0.074803X0.074803*%
%ADD36C,0.074803*%
%ADD37C,0.244094*%
%ADD39C,0.126614*%
%ADD40C,0.05*%
%ADD41O,0.104X0.052*%
G04 #@! TA.AperFunction,ViaPad*
%ADD42C,0.04*%
G04 #@! TA.AperFunction,ComponentPad*
%ADD95OUTLINE0*%
%ADD98OUTLINE3*%
%FSLAX26Y26*%
G04*
G70*
G90*
G75*
G01*
G04 Bottom*
%LPD*%
X1837765Y1676428D2*
D15*
X1944505Y1569688D1*
X3105312D1*
X3136811Y1601186D1*
Y2281841D1*
X3207678D1*
Y3150591D1*
Y3450591D1*
X3136811D1*
X1218062Y4106841D2*
X1218060Y4267396D1*
X3207678Y3150591D2*
X3136811D1*
X2805560Y5006841D2*
D16*
Y4107777D1*
X2825245Y4088092D1*
X3136812D1*
X1718060Y5006841D2*
X1773371D1*
X1793060Y4987152D1*
Y3725591D1*
X2705560Y5006841D2*
D15*
Y4180849D1*
X2757371Y4129038D1*
X1618060Y5006841D2*
Y4727475D1*
X1418062Y4527476D1*
Y4106841D1*
X2757371Y4129038D2*
Y2413337D1*
X2788867Y2381841D1*
X3136811D1*
X1122411Y3823329D2*
Y3576845D1*
X1205562Y3838091D2*
Y3816877D1*
X1128864D1*
X1122411Y3823329D1*
X1418062Y4106841D2*
X1205562Y3894341D1*
Y3838091D1*
X1518060Y5006841D2*
D16*
Y5071802D1*
X1780336D1*
X1910261Y4941877D1*
X2029627D1*
X538877Y1451084D2*
Y1618404D1*
X558564Y1638092D1*
Y1795256D1*
X538877Y1814944D1*
Y1923525D1*
X3136811Y3550591D2*
X3071848D1*
Y3250591D1*
Y2481841D1*
X3136811D1*
X1467375Y3687601D2*
X1561001Y3781227D1*
Y4226971D1*
X558564Y1638092D2*
X645570D1*
X3071848Y3250591D2*
X3136811D1*
X3136812Y4288092D2*
X3201773D1*
Y3550591D1*
X3136811D1*
X2605560Y5006841D2*
Y5071802D1*
X2948592D1*
X2968281Y5052113D1*
Y4307778D1*
X2987967Y4288092D1*
X3136812D1*
X2029627Y4941877D2*
X2605560D1*
Y5006841D1*
X538877Y1923525D2*
Y2749654D1*
X558564Y2769341D1*
X736811D1*
X1714911Y4506841D2*
Y4669125D1*
X1561001Y4226971D2*
X1714911Y4380881D1*
Y4506841D1*
X829745Y4049282D2*
Y3389026D1*
X810060Y3369341D1*
X736811D1*
X884836Y1682542D2*
Y2991404D1*
X865151Y3011089D1*
X688745D1*
X669060Y3030774D1*
Y3091404D1*
X688745Y3111089D1*
X784875D1*
X804560Y3130774D1*
Y3269341D1*
X736811D1*
X1036811Y2469341D2*
X1229655D1*
X1249340Y2489026D1*
Y3624085D1*
X1305562Y3838091D2*
X1351312D1*
Y3666535D1*
X1370997Y3646850D1*
X1351312Y3627165D1*
Y2430774D1*
X1331627Y2411089D1*
X1036811D1*
Y2369341D1*
X1370997Y3646850D2*
X1793060D1*
X736811Y2169341D2*
X804560D1*
X824245Y2189026D1*
Y2891404D1*
X804560Y2911089D1*
X629690D1*
X610005Y2930774D1*
Y4919636D1*
X629690Y4939322D1*
X681686D1*
X853537Y5111172D1*
X2485875D1*
X2505560Y5091487D1*
Y5006841D1*
X3249332Y2878967D2*
Y4468408D1*
X3229648Y4488092D1*
X3136812D1*
X1120623Y3069341D2*
X1036811D1*
X1001186Y4267396D2*
Y4182113D1*
X969060Y4149987D1*
Y3469341D1*
X1036811D1*
X1925115Y4977625D2*
X2019293Y5071802D1*
X2405560D1*
Y5006841D1*
X1079056Y4267396D2*
Y3523841D1*
X1104560Y3498337D1*
Y3369341D1*
X1036811D1*
X2305560Y5006841D2*
Y4978514D1*
X1976927D1*
X2940175Y2423495D2*
Y3730906D1*
X2959860Y3750591D1*
X3136811D1*
X1910706Y4045845D2*
Y4448231D1*
X1930391Y4467916D1*
X2499959D1*
X2519644Y4448231D1*
Y3628928D1*
X2659202Y3489370D1*
X2028297Y1642837D2*
Y4412483D1*
X899310Y4495621D2*
X1253808D1*
X1036811Y2269341D2*
X1104560D1*
Y2344833D1*
X1124245Y2364518D1*
X1351312D1*
X1370997Y2384203D1*
Y3548423D1*
X1390685Y3568110D1*
X1793060D1*
X1036811Y2169341D2*
X1104560D1*
X1124245Y2189026D1*
Y2325148D1*
X1143930Y2344833D1*
X1412340D1*
X1432028Y2364521D1*
Y3243656D1*
X1451713Y3263341D1*
X1625388D1*
X1793060Y3095669D1*
X1418060Y5006841D2*
Y5071802D1*
X1088281D1*
X936115Y4919636D1*
X669060D1*
X649375Y4899951D1*
Y2989026D1*
X669060Y2969341D1*
X736811D1*
X1318060Y5006841D2*
Y4322829D1*
X1298375Y4303144D1*
X885178D1*
X865493Y4283459D1*
Y3089026D1*
X845808Y3069341D1*
X736811D1*
X1218060Y5006841D2*
Y4653101D1*
X1198375Y4633416D1*
X688745D1*
X669060Y4613731D1*
Y3169341D1*
X736811D1*
X946115Y4231648D2*
Y3189026D1*
X965801Y3169341D1*
X1036811D1*
X3285080Y2930778D2*
Y4568408D1*
X3265396Y4588092D1*
X3136812D1*
X1140308Y2930778D2*
Y2949341D1*
X1120308Y2969341D1*
X1036811D1*
X965797Y1511585D2*
Y3091404D1*
X985482Y3111089D1*
X1138474D1*
X1158159Y3130774D1*
Y3511089D1*
Y3783841D1*
X1251312D1*
Y3883841D1*
X1451312D1*
Y3864156D1*
X1471214Y3884058D1*
Y4294341D1*
X1523025D1*
X1518060Y4299306D1*
Y4506841D1*
X1451312Y3864156D2*
Y3738091D1*
X1405562D1*
X1036811Y2569341D2*
X1174222D1*
X1193907Y2589026D1*
Y3646853D1*
X1213592Y3666538D1*
X1285877D1*
X1305562Y3686223D1*
Y3738091D1*
X897533Y1028664D2*
X849088Y1077108D1*
Y1716832D1*
X829403Y1736517D1*
X724310D1*
X829403Y992916D2*
Y1669513D1*
X809718Y1689199D1*
X645570D1*
Y1736517D1*
X992155Y1120865D2*
X1061983D1*
X1154206Y1213089D1*
X706722Y1248822D2*
Y957168D1*
X726407Y937483D1*
X972470D1*
X992155Y957168D1*
Y1120865D1*
X724310Y1638092D2*
X742697D1*
Y1284797D1*
X706722Y1248822D1*
X1572856Y1524412D2*
X1488627Y1608640D1*
Y2646837D1*
Y3083396D1*
X1568062Y3162831D1*
Y3225591D1*
Y3025591D2*
X1627812D1*
X1647497Y3005906D1*
Y2511089D1*
Y1383349D1*
D42*
X1837765Y1676428D3*
X1218060Y4267396D3*
X2757371Y4129038D3*
X1122411Y3576845D3*
Y3823329D3*
X2029627Y4941877D3*
X1714911Y4669125D3*
X1467375Y3687601D3*
X1561001Y4226971D3*
X829745Y4049282D3*
X884836Y1682542D3*
X1249340Y3624085D3*
X3249332Y2878967D3*
X1120623Y3069341D3*
X1001186Y4267396D3*
X1925115Y4977625D3*
X1079056Y4267396D3*
X1976927Y4978514D3*
X2940175Y2423495D3*
X1910706Y4045845D3*
X2028297Y4412483D3*
Y1642837D3*
X1253808Y4495621D3*
X946115Y4231648D3*
X3285080Y2930778D3*
X1140308D3*
X1158159Y3511089D3*
X1523025Y4294341D3*
X965797Y1511585D3*
X897533Y1028664D3*
X829403Y992916D3*
X1154206Y1213089D3*
X992155Y1120865D3*
X706722Y1248822D3*
X1488627Y2646837D3*
X1572856Y1524412D3*
X1647497Y1383349D3*
Y2511089D3*
X644949Y5172867D2*
D17*
X3176350D1*
X658261Y5147999D2*
X3163037D1*
X665510Y5123130D2*
X819944D1*
X2519467D2*
X3155753D1*
X667770Y5098261D2*
X795076D1*
X2537731D2*
X3153528D1*
X665223Y5073392D2*
X770209D1*
X861294D2*
X1044327D1*
X1453526D2*
X1582591D1*
X1653509D2*
X1682600D1*
X1753518D2*
X1975343D1*
X2441024D2*
X2470114D1*
X2540997D2*
X2670096D1*
X2741016D2*
X2770105D1*
X2841025D2*
X3156076D1*
X657580Y5048524D2*
X745340D1*
X836427D2*
X1019459D1*
X1477031D2*
X1559087D1*
X1777059D2*
X1950475D1*
X2564537D2*
X2646592D1*
X2864529D2*
X3163684D1*
X643836Y5023655D2*
X720472D1*
X811559D2*
X994592D1*
X1085678D2*
X1151657D1*
X1484244D2*
X1551873D1*
X1802106D2*
X1916062D1*
X2016693D2*
X2239163D1*
X2571749D2*
X2639379D1*
X2871741D2*
X3177463D1*
X434703Y4998786D2*
X448112D1*
X620906D2*
X695605D1*
X786692D2*
X969724D1*
X1060810D2*
X1151657D1*
X1484459D2*
X1551657D1*
X1823672D2*
X1881218D1*
X2571965D2*
X2639164D1*
X2871957D2*
X3200357D1*
X3373151D2*
X3384227D1*
X434703Y4973917D2*
X494186D1*
X574866D2*
X670738D1*
X761823D2*
X944857D1*
X1035942D2*
X1151657D1*
X1480870D2*
X1555247D1*
X1826005D2*
X1876266D1*
X2568377D2*
X2642752D1*
X2868369D2*
X3246432D1*
X3327076D2*
X3384227D1*
X434703Y4949049D2*
X593873D1*
X1011075D2*
X1151657D1*
X1464938D2*
X1571215D1*
X1826005D2*
X1885955D1*
X2552408D2*
X2658685D1*
X2852436D2*
X3384227D1*
X434703Y4924180D2*
X577403D1*
X986207D2*
X1185136D1*
X1250996D2*
X1285146D1*
X1351005D2*
X1579217D1*
X1656882D2*
X1760146D1*
X1826005D2*
X2666723D1*
X2744388D2*
X2772617D1*
X2838476D2*
X3384227D1*
X434703Y4899311D2*
X577079D1*
X961340D2*
X1185136D1*
X1250996D2*
X1285146D1*
X1351005D2*
X1579217D1*
X1656882D2*
X1760146D1*
X1826005D2*
X2666723D1*
X2744388D2*
X2772617D1*
X2838476D2*
X3384227D1*
X434703Y4874442D2*
X577079D1*
X682304D2*
X1185136D1*
X1250996D2*
X1285146D1*
X1351005D2*
X1579217D1*
X1656882D2*
X1760146D1*
X1826005D2*
X2666723D1*
X2744388D2*
X2772617D1*
X2838476D2*
X3384227D1*
X434703Y4849573D2*
X577079D1*
X682304D2*
X1185136D1*
X1250996D2*
X1285146D1*
X1351005D2*
X1579217D1*
X1656882D2*
X1760146D1*
X1826005D2*
X2666723D1*
X2744388D2*
X2772617D1*
X2838476D2*
X3384227D1*
X434703Y4824705D2*
X577079D1*
X682304D2*
X1185136D1*
X1250996D2*
X1285146D1*
X1351005D2*
X1579217D1*
X1656882D2*
X1760146D1*
X1826005D2*
X2666723D1*
X2744388D2*
X2772617D1*
X2838476D2*
X3384227D1*
X434703Y4799836D2*
X577079D1*
X682304D2*
X1185136D1*
X1250996D2*
X1285146D1*
X1351005D2*
X1579217D1*
X1656882D2*
X1760146D1*
X1826005D2*
X2666723D1*
X2744388D2*
X2772617D1*
X2838476D2*
X3384227D1*
X434703Y4774967D2*
X577079D1*
X682304D2*
X1185136D1*
X1250996D2*
X1285146D1*
X1351005D2*
X1579217D1*
X1656882D2*
X1760146D1*
X1826005D2*
X2666723D1*
X2744388D2*
X2772617D1*
X2838476D2*
X3384227D1*
X434703Y4750098D2*
X577079D1*
X682304D2*
X1185136D1*
X1250996D2*
X1285146D1*
X1351005D2*
X1579217D1*
X1656882D2*
X1760146D1*
X1826005D2*
X2666723D1*
X2744388D2*
X2772617D1*
X2838476D2*
X3384227D1*
X434703Y4725230D2*
X577079D1*
X682304D2*
X1185136D1*
X1250996D2*
X1285146D1*
X1351005D2*
X1561921D1*
X1656811D2*
X1760146D1*
X1826005D2*
X2666723D1*
X2744388D2*
X2772617D1*
X2838476D2*
X3384227D1*
X434703Y4700361D2*
X577079D1*
X682304D2*
X1185136D1*
X1250996D2*
X1285146D1*
X1351005D2*
X1537052D1*
X1644825D2*
X1760146D1*
X1826005D2*
X2666723D1*
X2744388D2*
X2772617D1*
X2838476D2*
X3384227D1*
X434703Y4675492D2*
X577079D1*
X682304D2*
X1185136D1*
X1250996D2*
X1285146D1*
X1351005D2*
X1512185D1*
X1619958D2*
X1760146D1*
X1826005D2*
X2666723D1*
X2744388D2*
X2772617D1*
X2838476D2*
X3384227D1*
X434703Y4650623D2*
X577079D1*
X1250888D2*
X1285146D1*
X1351005D2*
X1487318D1*
X1595091D2*
X1760146D1*
X1826005D2*
X2666723D1*
X2744388D2*
X2772617D1*
X2838476D2*
X3058614D1*
X3215009D2*
X3384227D1*
X434703Y4625755D2*
X577079D1*
X1236248D2*
X1285146D1*
X1351005D2*
X1462450D1*
X1570222D2*
X1760146D1*
X1826005D2*
X2666723D1*
X2744388D2*
X2772617D1*
X2838476D2*
X3058614D1*
X3215009D2*
X3384227D1*
X434703Y4600886D2*
X577079D1*
X702004D2*
X792026D1*
X1006625D2*
X1285146D1*
X1351005D2*
X1437583D1*
X1545354D2*
X1760146D1*
X1826005D2*
X2666723D1*
X2744388D2*
X2772617D1*
X2838476D2*
X3058614D1*
X3298154D2*
X3384227D1*
X434703Y4576017D2*
X577079D1*
X702004D2*
X771895D1*
X1026720D2*
X1285146D1*
X1351005D2*
X1412714D1*
X1520487D2*
X1760146D1*
X1826005D2*
X2666723D1*
X2744388D2*
X2772617D1*
X2838476D2*
X3058614D1*
X3317029D2*
X3384227D1*
X434703Y4551148D2*
X577079D1*
X702004D2*
X759049D1*
X1039567D2*
X1285146D1*
X1351005D2*
X1387991D1*
X1578547D2*
X1760146D1*
X1826005D2*
X2666723D1*
X2744388D2*
X2772617D1*
X2838476D2*
X3058614D1*
X3215009D2*
X3252138D1*
X3317997D2*
X3384227D1*
X434703Y4526280D2*
X577079D1*
X702004D2*
X751476D1*
X1047138D2*
X1216356D1*
X1351005D2*
X1379235D1*
X1578547D2*
X1760146D1*
X1826005D2*
X2666723D1*
X2744388D2*
X2772617D1*
X2838476D2*
X3058614D1*
X3215009D2*
X3252138D1*
X3317997D2*
X3384227D1*
X434703Y4501411D2*
X577079D1*
X702004D2*
X748391D1*
X1351005D2*
X1379235D1*
X1578547D2*
X1760146D1*
X1826005D2*
X2666723D1*
X2744388D2*
X2772617D1*
X2838476D2*
X3060014D1*
X3317997D2*
X3384227D1*
X434703Y4476542D2*
X577079D1*
X702004D2*
X749503D1*
X1351005D2*
X1379235D1*
X1578547D2*
X1760146D1*
X1826005D2*
X1893491D1*
X2536870D2*
X2666723D1*
X2744388D2*
X2772617D1*
X2838476D2*
X3059655D1*
X3317997D2*
X3384227D1*
X434703Y4451673D2*
X577079D1*
X702004D2*
X754921D1*
X1043693D2*
X1236129D1*
X1271487D2*
X1285146D1*
X1351005D2*
X1379235D1*
X1578547D2*
X1760146D1*
X1826005D2*
X1877988D1*
X2552373D2*
X2666723D1*
X2744388D2*
X2772617D1*
X2838476D2*
X3069990D1*
X3203634D2*
X3216398D1*
X3317997D2*
X3384227D1*
X434703Y4426804D2*
X577079D1*
X702004D2*
X765184D1*
X1033430D2*
X1285146D1*
X1351005D2*
X1379235D1*
X1456900D2*
X1485129D1*
X1550988D2*
X1760146D1*
X1826005D2*
X1877773D1*
X1943633D2*
X1981550D1*
X2075041D2*
X2486728D1*
X2552588D2*
X2666723D1*
X2744388D2*
X2772617D1*
X2838476D2*
X3071676D1*
X3201948D2*
X3216398D1*
X3317997D2*
X3384227D1*
X434703Y4401936D2*
X577079D1*
X702004D2*
X781547D1*
X1017067D2*
X1285146D1*
X1351005D2*
X1379235D1*
X1456900D2*
X1485129D1*
X1550988D2*
X1760146D1*
X1826005D2*
X1877773D1*
X1943633D2*
X1980510D1*
X2076081D2*
X2486728D1*
X2552588D2*
X2666723D1*
X2744388D2*
X2772617D1*
X2838476D2*
X3060122D1*
X3317997D2*
X3384227D1*
X434703Y4377067D2*
X577079D1*
X702004D2*
X807312D1*
X991303D2*
X1285146D1*
X1351005D2*
X1379235D1*
X1456900D2*
X1485129D1*
X1550988D2*
X1760146D1*
X1826005D2*
X1877773D1*
X1943633D2*
X1995366D1*
X2061226D2*
X2486728D1*
X2552588D2*
X2666723D1*
X2744388D2*
X2772617D1*
X2838476D2*
X3059583D1*
X3317997D2*
X3384227D1*
X434703Y4352198D2*
X577079D1*
X702004D2*
X858160D1*
X940454D2*
X1285146D1*
X1351005D2*
X1379235D1*
X1456900D2*
X1485129D1*
X1550988D2*
X1760146D1*
X1826005D2*
X1877773D1*
X1943633D2*
X1995366D1*
X2061226D2*
X2486728D1*
X2552588D2*
X2666723D1*
X2744388D2*
X2772617D1*
X2838476D2*
X3069631D1*
X3203993D2*
X3216398D1*
X3317997D2*
X3384227D1*
X434703Y4327329D2*
X577079D1*
X702004D2*
X864224D1*
X1351005D2*
X1379235D1*
X1456900D2*
X1485129D1*
X1558273D2*
X1760146D1*
X1826005D2*
X1877773D1*
X1943633D2*
X1995366D1*
X2061226D2*
X2486728D1*
X2552588D2*
X2666723D1*
X2744388D2*
X2772617D1*
X2838476D2*
X3102752D1*
X3170873D2*
X3216398D1*
X3317997D2*
X3384227D1*
X434703Y4302461D2*
X577079D1*
X702004D2*
X839214D1*
X1343182D2*
X1379235D1*
X1571299D2*
X1760146D1*
X1826005D2*
X1877773D1*
X1943633D2*
X1995366D1*
X2061226D2*
X2486728D1*
X2552588D2*
X2666723D1*
X2744388D2*
X2772617D1*
X2838476D2*
X3216398D1*
X3317997D2*
X3384227D1*
X434703Y4277592D2*
X577079D1*
X702004D2*
X832575D1*
X1317382D2*
X1379235D1*
X1568895D2*
X1760146D1*
X1826005D2*
X1877773D1*
X1943633D2*
X1995366D1*
X2061226D2*
X2486728D1*
X2552588D2*
X2666723D1*
X2744388D2*
X2772617D1*
X2838476D2*
X3216398D1*
X3317997D2*
X3384227D1*
X434703Y4252723D2*
X577079D1*
X702004D2*
X832575D1*
X1125689D2*
X1171429D1*
X1264668D2*
X1379235D1*
X1546252D2*
X1760146D1*
X1826005D2*
X1877773D1*
X1943633D2*
X1995366D1*
X2061226D2*
X2486728D1*
X2552588D2*
X2666723D1*
X2744388D2*
X2772617D1*
X2838476D2*
X3216398D1*
X3317997D2*
X3384227D1*
X434703Y4227854D2*
X577079D1*
X702004D2*
X832575D1*
X1034113D2*
X1046122D1*
X1111982D2*
X1179217D1*
X1256882D2*
X1379235D1*
X1504159D2*
X1760146D1*
X1826005D2*
X1877773D1*
X1943633D2*
X1995366D1*
X2061226D2*
X2486728D1*
X2552588D2*
X2666723D1*
X2744388D2*
X2772617D1*
X2838476D2*
X3072501D1*
X3201122D2*
X3216398D1*
X3317997D2*
X3384227D1*
X434703Y4202986D2*
X577079D1*
X702004D2*
X832575D1*
X898434D2*
X907021D1*
X1034113D2*
X1046122D1*
X1111982D2*
X1179217D1*
X1256882D2*
X1379235D1*
X1504159D2*
X1760146D1*
X1826005D2*
X1877773D1*
X1943633D2*
X1995366D1*
X2061226D2*
X2486728D1*
X2552588D2*
X2666723D1*
X2744388D2*
X2772617D1*
X2838476D2*
X3060373D1*
X3317997D2*
X3384227D1*
X434703Y4178117D2*
X577079D1*
X702004D2*
X832575D1*
X898434D2*
X913171D1*
X1033861D2*
X1046122D1*
X1111982D2*
X1179217D1*
X1256882D2*
X1379235D1*
X1504159D2*
X1760146D1*
X1826005D2*
X1877773D1*
X1943633D2*
X1995366D1*
X2061226D2*
X2486728D1*
X2552588D2*
X2666831D1*
X2762188D2*
X2772617D1*
X2838476D2*
X3059404D1*
X3317997D2*
X3384227D1*
X434703Y4153248D2*
X577079D1*
X702004D2*
X832575D1*
X898434D2*
X913171D1*
X1017857D2*
X1046122D1*
X1111982D2*
X1151657D1*
X1284441D2*
X1371627D1*
X1504159D2*
X1760146D1*
X1826005D2*
X1877773D1*
X1943633D2*
X1995366D1*
X2061226D2*
X2486728D1*
X2552588D2*
X2679282D1*
X2838476D2*
X3068949D1*
X3204675D2*
X3216398D1*
X3317997D2*
X3384227D1*
X434703Y4128379D2*
X577079D1*
X702004D2*
X832575D1*
X898434D2*
X913171D1*
X1001996D2*
X1046122D1*
X1111982D2*
X1151657D1*
X1284441D2*
X1355407D1*
X1504159D2*
X1760146D1*
X1826005D2*
X1877773D1*
X1943633D2*
X1995366D1*
X2061226D2*
X2486728D1*
X2552588D2*
X2704151D1*
X2838476D2*
X3072896D1*
X3200728D2*
X3216398D1*
X3317997D2*
X3384227D1*
X434703Y4103510D2*
X577079D1*
X702004D2*
X832575D1*
X898434D2*
X913171D1*
X1001996D2*
X1046122D1*
X1111982D2*
X1151657D1*
X1284441D2*
X1351747D1*
X1504159D2*
X1760146D1*
X1826005D2*
X1877773D1*
X1943633D2*
X1995366D1*
X2061226D2*
X2486728D1*
X2552588D2*
X2716028D1*
X3317997D2*
X3384227D1*
X434703Y4078642D2*
X577079D1*
X702004D2*
X791201D1*
X898434D2*
X913171D1*
X1001996D2*
X1046122D1*
X1111982D2*
X1151657D1*
X1284441D2*
X1335993D1*
X1504159D2*
X1760146D1*
X1826005D2*
X1875261D1*
X1946144D2*
X1995366D1*
X2061226D2*
X2486728D1*
X2552588D2*
X2718539D1*
X3317997D2*
X3384227D1*
X434703Y4053773D2*
X577079D1*
X702004D2*
X780974D1*
X898434D2*
X913171D1*
X1001996D2*
X1046122D1*
X1111982D2*
X1151657D1*
X1284441D2*
X1311126D1*
X1504159D2*
X1760146D1*
X1826005D2*
X1862379D1*
X1959028D2*
X1995366D1*
X2061226D2*
X2486728D1*
X2552588D2*
X2718539D1*
X2796206D2*
X3068591D1*
X3205034D2*
X3216398D1*
X3317997D2*
X3384227D1*
X434703Y4028904D2*
X577079D1*
X702004D2*
X785459D1*
X898434D2*
X913171D1*
X1001996D2*
X1046122D1*
X1111982D2*
X1286223D1*
X1393995D2*
X1438299D1*
X1504159D2*
X1760146D1*
X1826005D2*
X1864927D1*
X1956516D2*
X1995366D1*
X2061226D2*
X2486728D1*
X2552588D2*
X2718539D1*
X2796206D2*
X3098446D1*
X3175178D2*
X3216398D1*
X3317997D2*
X3384227D1*
X434703Y4004035D2*
X577079D1*
X702004D2*
X796835D1*
X898434D2*
X913171D1*
X1001996D2*
X1046122D1*
X1111982D2*
X1261354D1*
X1369127D2*
X1438299D1*
X1504159D2*
X1760146D1*
X1826005D2*
X1887857D1*
X1933550D2*
X1995366D1*
X2061226D2*
X2486728D1*
X2552588D2*
X2718539D1*
X2796206D2*
X3216398D1*
X3317997D2*
X3384227D1*
X434703Y3979167D2*
X577079D1*
X702004D2*
X796835D1*
X898434D2*
X913171D1*
X1001996D2*
X1046122D1*
X1111982D2*
X1236487D1*
X1344260D2*
X1438299D1*
X1504159D2*
X1760146D1*
X1826005D2*
X1995366D1*
X2061226D2*
X2486728D1*
X2552588D2*
X2718539D1*
X2796206D2*
X3216398D1*
X3317997D2*
X3384227D1*
X434703Y3954298D2*
X577079D1*
X702004D2*
X796835D1*
X898434D2*
X913171D1*
X1001996D2*
X1046122D1*
X1111982D2*
X1211619D1*
X1319391D2*
X1438299D1*
X1504159D2*
X1760146D1*
X1826005D2*
X1995366D1*
X2061226D2*
X2486728D1*
X2552588D2*
X2718539D1*
X2796206D2*
X3216398D1*
X3317997D2*
X3384227D1*
X434703Y3929429D2*
X577079D1*
X702004D2*
X796835D1*
X898434D2*
X913171D1*
X1001996D2*
X1046122D1*
X1111982D2*
X1186752D1*
X1294524D2*
X1438299D1*
X1504159D2*
X1760146D1*
X1826005D2*
X1995366D1*
X2061226D2*
X2486728D1*
X2552588D2*
X2718539D1*
X2796206D2*
X3216398D1*
X3317997D2*
X3384227D1*
X434703Y3904560D2*
X577079D1*
X702004D2*
X796835D1*
X898434D2*
X913171D1*
X1001996D2*
X1046122D1*
X1111982D2*
X1168199D1*
X1504159D2*
X1760146D1*
X1826005D2*
X1995366D1*
X2061226D2*
X2486728D1*
X2552588D2*
X2718539D1*
X2796206D2*
X3216398D1*
X3317997D2*
X3384227D1*
X434703Y3879692D2*
X577079D1*
X702004D2*
X796835D1*
X898434D2*
X913171D1*
X1001996D2*
X1046122D1*
X1111982D2*
X1164755D1*
X1503836D2*
X1760146D1*
X1826005D2*
X1995366D1*
X2061226D2*
X2486728D1*
X2552588D2*
X2718539D1*
X2796206D2*
X3216398D1*
X3317997D2*
X3384227D1*
X434703Y3854823D2*
X577079D1*
X702004D2*
X796835D1*
X898434D2*
X913171D1*
X1001996D2*
X1046122D1*
X1487509D2*
X1760146D1*
X1826005D2*
X1995366D1*
X2061226D2*
X2486728D1*
X2552588D2*
X2718539D1*
X2796206D2*
X3216398D1*
X3317997D2*
X3384227D1*
X434703Y3829954D2*
X577079D1*
X702004D2*
X796835D1*
X898434D2*
X913171D1*
X1001996D2*
X1046122D1*
X1384235D2*
X1418385D1*
X1484244D2*
X1760146D1*
X1826005D2*
X1995366D1*
X2061226D2*
X2486728D1*
X2552588D2*
X2718539D1*
X2796206D2*
X3216398D1*
X3317997D2*
X3384227D1*
X434703Y3805085D2*
X577079D1*
X702004D2*
X796835D1*
X898434D2*
X913171D1*
X1001996D2*
X1046122D1*
X1384235D2*
X1418385D1*
X1484244D2*
X1760146D1*
X1826005D2*
X1995366D1*
X2061226D2*
X2486728D1*
X2552588D2*
X2718539D1*
X2796206D2*
X3058614D1*
X3317997D2*
X3384227D1*
X434703Y3780217D2*
X577079D1*
X702004D2*
X796835D1*
X898434D2*
X913171D1*
X1001996D2*
X1046122D1*
X1484244D2*
X1760146D1*
X1826005D2*
X1995366D1*
X2061226D2*
X2486728D1*
X2552588D2*
X2718539D1*
X2796206D2*
X2950424D1*
X3317997D2*
X3384227D1*
X434703Y3755348D2*
X577079D1*
X702004D2*
X796835D1*
X898434D2*
X913171D1*
X1001996D2*
X1046122D1*
X1484244D2*
X1748555D1*
X1837596D2*
X1995366D1*
X2061226D2*
X2486728D1*
X2552588D2*
X2614692D1*
X2703732D2*
X2718539D1*
X2796206D2*
X2919097D1*
X3317997D2*
X3384227D1*
X434703Y3730479D2*
X577079D1*
X702004D2*
X796835D1*
X898434D2*
X913171D1*
X1001996D2*
X1046122D1*
X1483274D2*
X1739297D1*
X1846818D2*
X1995366D1*
X2061226D2*
X2486728D1*
X2552588D2*
X2605433D1*
X2796206D2*
X2907255D1*
X3317997D2*
X3384227D1*
X434703Y3705610D2*
X577079D1*
X702004D2*
X796835D1*
X898434D2*
X913171D1*
X1001996D2*
X1046122D1*
X1455465D2*
X1743100D1*
X1843013D2*
X1995366D1*
X2061226D2*
X2486728D1*
X2552588D2*
X2609236D1*
X2709151D2*
X2718539D1*
X2796206D2*
X2907255D1*
X2973114D2*
X3058614D1*
X3317997D2*
X3384227D1*
X434703Y3680741D2*
X577079D1*
X702004D2*
X796835D1*
X898434D2*
X913171D1*
X1001996D2*
X1046122D1*
X1384235D2*
X1751783D1*
X1834329D2*
X1995366D1*
X2061226D2*
X2486728D1*
X2552588D2*
X2617921D1*
X2700466D2*
X2718539D1*
X2796206D2*
X2907255D1*
X2973114D2*
X3066150D1*
X3207438D2*
X3216398D1*
X3317997D2*
X3384227D1*
X434703Y3655873D2*
X577079D1*
X702004D2*
X796835D1*
X898434D2*
X913171D1*
X1001996D2*
X1046122D1*
X1846243D2*
X1995366D1*
X2061226D2*
X2486728D1*
X2552588D2*
X2606007D1*
X2796206D2*
X2907255D1*
X2973114D2*
X3058829D1*
X3317997D2*
X3384227D1*
X434703Y3631004D2*
X577079D1*
X702004D2*
X796835D1*
X898434D2*
X913171D1*
X1001996D2*
X1046122D1*
X1297825D2*
X1318626D1*
X1844556D2*
X1995366D1*
X2061226D2*
X2486728D1*
X2563102D2*
X2607694D1*
X2710693D2*
X2718539D1*
X2796206D2*
X2907255D1*
X2973114D2*
X3061701D1*
X3317997D2*
X3384227D1*
X434703Y3606135D2*
X577079D1*
X702004D2*
X796835D1*
X898434D2*
X913171D1*
X1001996D2*
X1046122D1*
X1294739D2*
X1318375D1*
X1384235D2*
X1755839D1*
X1830274D2*
X1995366D1*
X2061226D2*
X2496919D1*
X2587970D2*
X2621975D1*
X2696412D2*
X2718539D1*
X2796206D2*
X2907255D1*
X2973114D2*
X3076592D1*
X3197031D2*
X3216398D1*
X3317997D2*
X3384227D1*
X434703Y3581266D2*
X577079D1*
X702004D2*
X796835D1*
X898434D2*
X913171D1*
X1001996D2*
X1046122D1*
X1282252D2*
X1318375D1*
X1845346D2*
X1995366D1*
X2061226D2*
X2521787D1*
X2796206D2*
X2907255D1*
X2973114D2*
X3216398D1*
X3317997D2*
X3384227D1*
X434703Y3556398D2*
X577079D1*
X702004D2*
X796835D1*
X898434D2*
X913171D1*
X1001996D2*
X1046122D1*
X1282252D2*
X1318375D1*
X1845705D2*
X1995366D1*
X2061226D2*
X2546655D1*
X2796206D2*
X2907255D1*
X2973114D2*
X3216398D1*
X3317997D2*
X3384227D1*
X434703Y3531529D2*
X577079D1*
X702004D2*
X796835D1*
X898434D2*
X913171D1*
X1001996D2*
X1046122D1*
X1282252D2*
X1318375D1*
X1403934D2*
X1754332D1*
X1831782D2*
X1995366D1*
X2061226D2*
X2571522D1*
X2697954D2*
X2718539D1*
X2796206D2*
X2907255D1*
X2973114D2*
X3216398D1*
X3317997D2*
X3384227D1*
X434703Y3506660D2*
X577079D1*
X898434D2*
X913171D1*
X1282252D2*
X1318375D1*
X1403934D2*
X1742059D1*
X1844054D2*
X1995366D1*
X2061226D2*
X2596390D1*
X2710192D2*
X2718539D1*
X2796206D2*
X2907255D1*
X2973114D2*
X3091879D1*
X3181745D2*
X3216398D1*
X3317997D2*
X3384227D1*
X434703Y3481791D2*
X577079D1*
X898434D2*
X913171D1*
X1282252D2*
X1318375D1*
X1403934D2*
X1739619D1*
X1846495D2*
X1995366D1*
X2061226D2*
X2605756D1*
X2796206D2*
X2907255D1*
X2973114D2*
X3066760D1*
X3317997D2*
X3384227D1*
X434703Y3456923D2*
X577079D1*
X898434D2*
X913171D1*
X1282252D2*
X1318375D1*
X1403934D2*
X1750564D1*
X1835550D2*
X1995366D1*
X2061226D2*
X2616736D1*
X2701686D2*
X2718539D1*
X2796206D2*
X2907255D1*
X2973114D2*
X3058937D1*
X3317997D2*
X3384227D1*
X434703Y3432054D2*
X577079D1*
X898434D2*
X913171D1*
X1282252D2*
X1318375D1*
X1403934D2*
X1743745D1*
X1842367D2*
X1995366D1*
X2061226D2*
X2609883D1*
X2708541D2*
X2718539D1*
X2796206D2*
X2907255D1*
X2973114D2*
X3061341D1*
X3317997D2*
X3384227D1*
X434703Y3407185D2*
X577079D1*
X898434D2*
X913171D1*
X1282252D2*
X1318375D1*
X1403934D2*
X1739189D1*
X1846925D2*
X1995366D1*
X2061226D2*
X2605325D1*
X2796206D2*
X2907255D1*
X2973114D2*
X3075623D1*
X3317997D2*
X3384227D1*
X434703Y3382316D2*
X577079D1*
X898434D2*
X913171D1*
X1282252D2*
X1318375D1*
X1403934D2*
X1747550D1*
X1838564D2*
X1995366D1*
X2061226D2*
X2613686D1*
X2704701D2*
X2718539D1*
X2796206D2*
X2907255D1*
X2973114D2*
X3067047D1*
X3317997D2*
X3384227D1*
X434703Y3357448D2*
X577079D1*
X898434D2*
X913171D1*
X1282252D2*
X1318375D1*
X1403934D2*
X1745864D1*
X1840251D2*
X1995366D1*
X2061226D2*
X2612000D1*
X2706387D2*
X2718539D1*
X2796206D2*
X2907255D1*
X2973114D2*
X3058974D1*
X3317997D2*
X3384227D1*
X434703Y3332579D2*
X577079D1*
X802768D2*
X832575D1*
X898434D2*
X913171D1*
X1102795D2*
X1125247D1*
X1282252D2*
X1318375D1*
X1403934D2*
X1739081D1*
X1847033D2*
X1995366D1*
X2061226D2*
X2605218D1*
X2796206D2*
X2907255D1*
X2973114D2*
X3061198D1*
X3317997D2*
X3384227D1*
X434703Y3307710D2*
X577079D1*
X801117D2*
X832575D1*
X898434D2*
X913171D1*
X1101144D2*
X1125247D1*
X1282252D2*
X1318375D1*
X1403934D2*
X1745110D1*
X1841041D2*
X1995366D1*
X2061226D2*
X2611247D1*
X2707177D2*
X2718539D1*
X2796206D2*
X2907255D1*
X2973114D2*
X3075121D1*
X3317997D2*
X3384227D1*
X434703Y3282841D2*
X577079D1*
X898434D2*
X913171D1*
X1116035D2*
X1125253D1*
X1282252D2*
X1318375D1*
X1403934D2*
X1425668D1*
X1651428D2*
X1748483D1*
X1837631D2*
X1995366D1*
X2061226D2*
X2614619D1*
X2703768D2*
X2718539D1*
X2796206D2*
X2907255D1*
X2973114D2*
X3168850D1*
X3317997D2*
X3384227D1*
X434703Y3257972D2*
X577079D1*
X898434D2*
X913171D1*
X1116575D2*
X1125210D1*
X1282252D2*
X1318375D1*
X1676295D2*
X1739297D1*
X1846818D2*
X1995366D1*
X2061226D2*
X2605433D1*
X2796206D2*
X2907255D1*
X2973114D2*
X3168850D1*
X3317997D2*
X3384227D1*
X434703Y3233104D2*
X577079D1*
X898434D2*
X913171D1*
X1103297D2*
X1125247D1*
X1282252D2*
X1318375D1*
X1701164D2*
X1743136D1*
X1842978D2*
X1995366D1*
X2061226D2*
X2609273D1*
X2709114D2*
X2718539D1*
X2796206D2*
X2907255D1*
X2973114D2*
X3168850D1*
X3317997D2*
X3384227D1*
X434703Y3208235D2*
X577079D1*
X898434D2*
X913171D1*
X1100570D2*
X1125247D1*
X1282252D2*
X1318375D1*
X1464974D2*
X1498298D1*
X1726031D2*
X1751748D1*
X1834402D2*
X1995366D1*
X2061226D2*
X2617885D1*
X2700538D2*
X2718539D1*
X2796206D2*
X2907255D1*
X2973114D2*
X3094929D1*
X3317997D2*
X3384227D1*
X434703Y3183366D2*
X577079D1*
X898434D2*
X913709D1*
X1115892D2*
X1125231D1*
X1282252D2*
X1318375D1*
X1464974D2*
X1519720D1*
X1616406D2*
X1659812D1*
X1846280D2*
X1995366D1*
X2061226D2*
X2606007D1*
X2796206D2*
X2907255D1*
X2973114D2*
X3067657D1*
X3317997D2*
X3384227D1*
X434703Y3158497D2*
X577079D1*
X898434D2*
X931113D1*
X1116682D2*
X1125227D1*
X1282252D2*
X1318375D1*
X1464974D2*
X1518178D1*
X1600688D2*
X1684717D1*
X1844521D2*
X1995366D1*
X2061226D2*
X2607730D1*
X2710657D2*
X2718539D1*
X2796206D2*
X2907255D1*
X2973114D2*
X3059081D1*
X3317997D2*
X3384227D1*
X434703Y3133629D2*
X577079D1*
X898434D2*
X962547D1*
X1282252D2*
X1318375D1*
X1464974D2*
X1493310D1*
X1584396D2*
X1709584D1*
X1830346D2*
X1995366D1*
X2061226D2*
X2621904D1*
X2696483D2*
X2718539D1*
X2796206D2*
X2907255D1*
X2973114D2*
X3060911D1*
X3317997D2*
X3384227D1*
X434703Y3108760D2*
X577079D1*
X898434D2*
X938290D1*
X1282252D2*
X1318375D1*
X1559529D2*
X1734451D1*
X1845346D2*
X1995366D1*
X2061226D2*
X2606904D1*
X2796206D2*
X2907255D1*
X2973114D2*
X3074188D1*
X3317997D2*
X3384227D1*
X434703Y3083891D2*
X577079D1*
X898004D2*
X932871D1*
X1282252D2*
X1318375D1*
X1534661D2*
X1740445D1*
X1845705D2*
X1995366D1*
X2061226D2*
X2606581D1*
X2796206D2*
X2907255D1*
X2973114D2*
X3168850D1*
X3317997D2*
X3384227D1*
X434703Y3059022D2*
X577079D1*
X881030D2*
X932871D1*
X1282252D2*
X1318375D1*
X1627673D2*
X1754404D1*
X1831747D2*
X1995366D1*
X2061226D2*
X2620541D1*
X2697883D2*
X2718539D1*
X2796206D2*
X2907255D1*
X2973114D2*
X3168850D1*
X3317997D2*
X3384227D1*
X434703Y3034154D2*
X577079D1*
X887490D2*
X932871D1*
X1282252D2*
X1318375D1*
X1664777D2*
X1995366D1*
X2061226D2*
X2608160D1*
X2710227D2*
X2718539D1*
X2796206D2*
X2907255D1*
X2973114D2*
X3168850D1*
X3317997D2*
X3384227D1*
X434703Y3009285D2*
X577079D1*
X911963D2*
X932871D1*
X1099386D2*
X1160987D1*
X1282252D2*
X1318375D1*
X1680243D2*
X1995366D1*
X2061226D2*
X2605791D1*
X2796206D2*
X2907255D1*
X2973114D2*
X3168850D1*
X3317997D2*
X3384227D1*
X434703Y2984416D2*
X577079D1*
X917776D2*
X932871D1*
X1150772D2*
X1160987D1*
X1282252D2*
X1318375D1*
X1680423D2*
X1995366D1*
X2061226D2*
X2616773D1*
X2701614D2*
X2718539D1*
X2796206D2*
X2907255D1*
X2973114D2*
X3168850D1*
X3317997D2*
X3384227D1*
X434703Y2959547D2*
X577079D1*
X816870D2*
X851916D1*
X917776D2*
X932871D1*
X1282252D2*
X1318375D1*
X1521563D2*
X1614563D1*
X1680423D2*
X1995366D1*
X2061226D2*
X2718539D1*
X2796206D2*
X2907255D1*
X2973114D2*
X3168850D1*
X3324097D2*
X3384227D1*
X434703Y2934678D2*
X577079D1*
X826272D2*
X851916D1*
X917776D2*
X932871D1*
X1282252D2*
X1318375D1*
X1521563D2*
X1614563D1*
X1680423D2*
X1995366D1*
X2061226D2*
X2718539D1*
X2796206D2*
X2907255D1*
X2973114D2*
X3168850D1*
X3333894D2*
X3384227D1*
X434703Y2909810D2*
X585441D1*
X917776D2*
X932871D1*
X998731D2*
X1096324D1*
X1282252D2*
X1318375D1*
X1521563D2*
X1614563D1*
X1680423D2*
X1995366D1*
X2061226D2*
X2718539D1*
X2796206D2*
X2907255D1*
X2973114D2*
X3168850D1*
X3329085D2*
X3384227D1*
X434703Y2884941D2*
X611635D1*
X917776D2*
X932871D1*
X998731D2*
X1130018D1*
X1150556D2*
X1160987D1*
X1282252D2*
X1318375D1*
X1521563D2*
X1614563D1*
X1680423D2*
X1995366D1*
X2061226D2*
X2718539D1*
X2796206D2*
X2907255D1*
X2973114D2*
X3168850D1*
X3297938D2*
X3384227D1*
X434703Y2860072D2*
X656635D1*
X917776D2*
X932871D1*
X998731D2*
X1160987D1*
X1282252D2*
X1318375D1*
X1521563D2*
X1614563D1*
X1680423D2*
X1995366D1*
X2061226D2*
X2718539D1*
X2796206D2*
X2907255D1*
X2973114D2*
X3168850D1*
X3294314D2*
X3384227D1*
X434703Y2835203D2*
X668441D1*
X917776D2*
X932871D1*
X998731D2*
X1160987D1*
X1282252D2*
X1318375D1*
X1521563D2*
X1614563D1*
X1680423D2*
X1995366D1*
X2061226D2*
X2718539D1*
X2796206D2*
X2907255D1*
X2973114D2*
X3058614D1*
X3267508D2*
X3384227D1*
X434703Y2810335D2*
X791308D1*
X917776D2*
X932871D1*
X1098094D2*
X1160987D1*
X1282252D2*
X1318375D1*
X1521563D2*
X1614563D1*
X1680423D2*
X1995366D1*
X2061226D2*
X2718539D1*
X2796206D2*
X2907255D1*
X2973114D2*
X3058614D1*
X3246516D2*
X3384227D1*
X434703Y2785466D2*
X791308D1*
X917776D2*
X932871D1*
X1115282D2*
X1160987D1*
X1282252D2*
X1318375D1*
X1521563D2*
X1614563D1*
X1680423D2*
X1995366D1*
X2061226D2*
X2718539D1*
X2796206D2*
X2907255D1*
X2973114D2*
X3058614D1*
X3246516D2*
X3384227D1*
X434703Y2760597D2*
X791308D1*
X917776D2*
X932871D1*
X1117076D2*
X1160987D1*
X1282252D2*
X1318375D1*
X1521563D2*
X1614563D1*
X1680423D2*
X1995366D1*
X2061226D2*
X2718539D1*
X2796206D2*
X2907255D1*
X2973114D2*
X3058614D1*
X3246516D2*
X3384227D1*
X434703Y2735728D2*
X791308D1*
X917776D2*
X932871D1*
X1105630D2*
X1160987D1*
X1282252D2*
X1318375D1*
X1521563D2*
X1614563D1*
X1680423D2*
X1995366D1*
X2061226D2*
X2718539D1*
X2796206D2*
X2907255D1*
X2973114D2*
X3058614D1*
X3246516D2*
X3384227D1*
X434703Y2710860D2*
X676192D1*
X917776D2*
X932871D1*
X1097448D2*
X1160987D1*
X1282252D2*
X1318375D1*
X1521563D2*
X1614563D1*
X1680423D2*
X1995366D1*
X2061226D2*
X2718539D1*
X2796206D2*
X2907255D1*
X2973114D2*
X3065576D1*
X3246516D2*
X3384227D1*
X434703Y2685991D2*
X658537D1*
X917776D2*
X932871D1*
X1115104D2*
X1160987D1*
X1282252D2*
X1318375D1*
X1521563D2*
X1614563D1*
X1680423D2*
X1995366D1*
X2061226D2*
X2718539D1*
X2796206D2*
X2907255D1*
X2973114D2*
X3058759D1*
X3246516D2*
X3384227D1*
X434703Y2661122D2*
X656455D1*
X917776D2*
X932871D1*
X1117148D2*
X1160987D1*
X1282252D2*
X1318375D1*
X1535379D2*
X1614563D1*
X1680423D2*
X1995366D1*
X2061226D2*
X2718539D1*
X2796206D2*
X2907255D1*
X2973114D2*
X3062059D1*
X3246516D2*
X3384227D1*
X434703Y2636253D2*
X667543D1*
X917776D2*
X932871D1*
X1106060D2*
X1160987D1*
X1282252D2*
X1318375D1*
X1536383D2*
X1614563D1*
X1680423D2*
X1995366D1*
X2061226D2*
X2718539D1*
X2796206D2*
X2907255D1*
X2973114D2*
X3077740D1*
X3246516D2*
X3384227D1*
X434703Y2611385D2*
X676873D1*
X917776D2*
X932871D1*
X1096731D2*
X1160987D1*
X1282252D2*
X1318375D1*
X1521563D2*
X1614563D1*
X1680423D2*
X1995366D1*
X2061226D2*
X2718539D1*
X2796206D2*
X2907255D1*
X2973114D2*
X3065864D1*
X3246516D2*
X3384227D1*
X434703Y2586516D2*
X658715D1*
X917776D2*
X932871D1*
X1282252D2*
X1318375D1*
X1521563D2*
X1614563D1*
X1680423D2*
X1995366D1*
X2061226D2*
X2718539D1*
X2796206D2*
X2907255D1*
X2973114D2*
X3058794D1*
X3246516D2*
X3384227D1*
X434703Y2561647D2*
X656383D1*
X917776D2*
X932871D1*
X1282252D2*
X1318375D1*
X1521563D2*
X1614563D1*
X1680423D2*
X1995366D1*
X2061226D2*
X2718539D1*
X2796206D2*
X2907255D1*
X2973114D2*
X3061879D1*
X3246516D2*
X3384227D1*
X434703Y2536778D2*
X667148D1*
X917776D2*
X932871D1*
X1106491D2*
X1216428D1*
X1282252D2*
X1318375D1*
X1521563D2*
X1606238D1*
X1688748D2*
X1995366D1*
X2061226D2*
X2718539D1*
X2796206D2*
X2907255D1*
X2973114D2*
X3077202D1*
X3246516D2*
X3384227D1*
X434703Y2511909D2*
X677591D1*
X917776D2*
X932871D1*
X1096013D2*
X1216428D1*
X1282252D2*
X1318375D1*
X1521563D2*
X1598522D1*
X1696499D2*
X1995366D1*
X2061226D2*
X2718539D1*
X2796206D2*
X2907255D1*
X2973114D2*
X3168850D1*
X3246516D2*
X3384227D1*
X434703Y2487041D2*
X658895D1*
X917776D2*
X932871D1*
X1282215D2*
X1318375D1*
X1521563D2*
X1605197D1*
X1689789D2*
X1995366D1*
X2061226D2*
X2718539D1*
X2796206D2*
X2907255D1*
X2973114D2*
X3168850D1*
X3246516D2*
X3384227D1*
X434703Y2462172D2*
X656311D1*
X917776D2*
X932871D1*
X1268005D2*
X1318375D1*
X1521563D2*
X1614563D1*
X1680423D2*
X1995366D1*
X2061226D2*
X2718539D1*
X2796206D2*
X2907255D1*
X2973114D2*
X3168850D1*
X3246516D2*
X3384227D1*
X434703Y2437303D2*
X666718D1*
X917776D2*
X932871D1*
X1521563D2*
X1614563D1*
X1680423D2*
X1995366D1*
X2061226D2*
X2718539D1*
X2796206D2*
X2893295D1*
X2987073D2*
X3090766D1*
X3246516D2*
X3384227D1*
X434703Y2412434D2*
X678345D1*
X917776D2*
X932871D1*
X1521563D2*
X1614563D1*
X1680423D2*
X1995366D1*
X2061226D2*
X2718539D1*
X3246516D2*
X3384227D1*
X434703Y2387566D2*
X659075D1*
X917776D2*
X932871D1*
X1521563D2*
X1614563D1*
X1680423D2*
X1995366D1*
X2061226D2*
X2729269D1*
X3246516D2*
X3384227D1*
X434703Y2362697D2*
X656240D1*
X917776D2*
X932871D1*
X1521563D2*
X1614563D1*
X1680423D2*
X1995366D1*
X2061226D2*
X2754136D1*
X3246516D2*
X3384227D1*
X434703Y2337828D2*
X666323D1*
X917776D2*
X932871D1*
X1521563D2*
X1614563D1*
X1680423D2*
X1995366D1*
X2061226D2*
X2750549D1*
X2813824D2*
X3076198D1*
X3246516D2*
X3384227D1*
X434703Y2312959D2*
X679098D1*
X917776D2*
X932871D1*
X1157591D2*
X1199203D1*
X1353339D2*
X1455703D1*
X1521563D2*
X1614563D1*
X1680423D2*
X1995366D1*
X2061226D2*
X2705119D1*
X2859253D2*
X3066688D1*
X3246516D2*
X3384227D1*
X434703Y2288091D2*
X659290D1*
X917776D2*
X932871D1*
X1157159D2*
X1178714D1*
X1373828D2*
X1455703D1*
X1521563D2*
X1614563D1*
X1680423D2*
X1995366D1*
X2061226D2*
X2684630D1*
X2879744D2*
X3058902D1*
X3246516D2*
X3384227D1*
X434703Y2263222D2*
X656168D1*
X917776D2*
X932871D1*
X1157159D2*
X1167589D1*
X1384953D2*
X1455703D1*
X1521563D2*
X1614563D1*
X1680423D2*
X1995366D1*
X2061226D2*
X2673505D1*
X2890867D2*
X3061378D1*
X3241385D2*
X3384227D1*
X434703Y2238353D2*
X665929D1*
X917776D2*
X932871D1*
X1389581D2*
X1455703D1*
X1521563D2*
X1614563D1*
X1680423D2*
X1995366D1*
X2061226D2*
X2668877D1*
X2895461D2*
X3075696D1*
X3197929D2*
X3384227D1*
X434703Y2213484D2*
X679924D1*
X917776D2*
X932871D1*
X1388505D2*
X1455703D1*
X1521563D2*
X1614563D1*
X1680423D2*
X1995366D1*
X2061226D2*
X2669953D1*
X2894420D2*
X3097979D1*
X3175644D2*
X3384227D1*
X434703Y2188615D2*
X659470D1*
X917776D2*
X932871D1*
X1157159D2*
X1170999D1*
X1381579D2*
X1455703D1*
X1521563D2*
X1614563D1*
X1680423D2*
X1995366D1*
X2061226D2*
X2676878D1*
X2887459D2*
X3097979D1*
X3175644D2*
X3384227D1*
X434703Y2163747D2*
X656133D1*
X917776D2*
X932871D1*
X1144492D2*
X1185136D1*
X1367404D2*
X1455703D1*
X1521563D2*
X1614563D1*
X1680423D2*
X1995366D1*
X2061226D2*
X2691052D1*
X2873320D2*
X3097979D1*
X3175644D2*
X3384227D1*
X434703Y2138878D2*
X665570D1*
X808042D2*
X851916D1*
X917776D2*
X932871D1*
X1108070D2*
X1211261D1*
X1341318D2*
X1455703D1*
X1521563D2*
X1614563D1*
X1680423D2*
X1995366D1*
X2061226D2*
X2717140D1*
X2847197D2*
X3097979D1*
X3175644D2*
X3384227D1*
X434703Y2114009D2*
X851916D1*
X917776D2*
X932871D1*
X998731D2*
X1455703D1*
X1521563D2*
X1614563D1*
X1680423D2*
X1995366D1*
X2061226D2*
X3097979D1*
X3175644D2*
X3384227D1*
X434703Y2089140D2*
X851916D1*
X917776D2*
X932871D1*
X998731D2*
X1455703D1*
X1521563D2*
X1614563D1*
X1680423D2*
X1995366D1*
X2061226D2*
X3097979D1*
X3175644D2*
X3384227D1*
X434703Y2064272D2*
X851916D1*
X917776D2*
X932871D1*
X998731D2*
X1455703D1*
X1521563D2*
X1614563D1*
X1680423D2*
X1995366D1*
X2061226D2*
X3097979D1*
X3175644D2*
X3384227D1*
X434703Y2039403D2*
X851916D1*
X917776D2*
X932871D1*
X998731D2*
X1455703D1*
X1521563D2*
X1614563D1*
X1680423D2*
X1995366D1*
X2061226D2*
X3097979D1*
X3175644D2*
X3384227D1*
X434703Y2014534D2*
X851916D1*
X917776D2*
X932871D1*
X998731D2*
X1455703D1*
X1521563D2*
X1614563D1*
X1680423D2*
X1995366D1*
X2061226D2*
X3097979D1*
X3175644D2*
X3384227D1*
X434703Y1989665D2*
X851916D1*
X917776D2*
X932871D1*
X998731D2*
X1455703D1*
X1521563D2*
X1614563D1*
X1680423D2*
X1995366D1*
X2061226D2*
X3097979D1*
X3175644D2*
X3384227D1*
X434703Y1964797D2*
X851916D1*
X917776D2*
X932871D1*
X998731D2*
X1455703D1*
X1521563D2*
X1614563D1*
X1680423D2*
X1995366D1*
X2061226D2*
X3097979D1*
X3175644D2*
X3384227D1*
X434703Y1939928D2*
X851916D1*
X917776D2*
X932871D1*
X998731D2*
X1455703D1*
X1521563D2*
X1614563D1*
X1680423D2*
X1995366D1*
X2061226D2*
X3097979D1*
X3175644D2*
X3384227D1*
X434703Y1915059D2*
X851916D1*
X917776D2*
X932871D1*
X998731D2*
X1455703D1*
X1521563D2*
X1614563D1*
X1680423D2*
X1995366D1*
X2061226D2*
X3097979D1*
X3175644D2*
X3384227D1*
X434703Y1890190D2*
X851916D1*
X917776D2*
X932871D1*
X998731D2*
X1455703D1*
X1521563D2*
X1614563D1*
X1680423D2*
X1995366D1*
X2061226D2*
X3097979D1*
X3175644D2*
X3384227D1*
X434703Y1865322D2*
X851916D1*
X917776D2*
X932871D1*
X998731D2*
X1455703D1*
X1521563D2*
X1614563D1*
X1680423D2*
X1995366D1*
X2061226D2*
X3097979D1*
X3175644D2*
X3384227D1*
X434703Y1840453D2*
X851916D1*
X917776D2*
X932871D1*
X998731D2*
X1455703D1*
X1521563D2*
X1614563D1*
X1680423D2*
X1995366D1*
X2061226D2*
X3097979D1*
X3175644D2*
X3384227D1*
X434703Y1815584D2*
X851916D1*
X917776D2*
X932871D1*
X998731D2*
X1455703D1*
X1521563D2*
X1614563D1*
X1680423D2*
X1995366D1*
X2061226D2*
X3097979D1*
X3175644D2*
X3384227D1*
X434703Y1790715D2*
X623980D1*
X667160D2*
X702745D1*
X745891D2*
X851916D1*
X917776D2*
X932871D1*
X998731D2*
X1455703D1*
X1521563D2*
X1614563D1*
X1680423D2*
X1995366D1*
X2061226D2*
X3097979D1*
X3175644D2*
X3384227D1*
X434703Y1765846D2*
X594411D1*
X840014D2*
X851887D1*
X917776D2*
X932871D1*
X998731D2*
X1455703D1*
X1521563D2*
X1614563D1*
X1680423D2*
X1995366D1*
X2061226D2*
X3097979D1*
X3175644D2*
X3384227D1*
X434703Y1740978D2*
X587881D1*
X917776D2*
X932871D1*
X998731D2*
X1455703D1*
X1521563D2*
X1614563D1*
X1680423D2*
X1995366D1*
X2061226D2*
X3097979D1*
X3175644D2*
X3384227D1*
X434703Y1716109D2*
X589280D1*
X919499D2*
X932871D1*
X998731D2*
X1455703D1*
X1521563D2*
X1614563D1*
X1680423D2*
X1811029D1*
X1864508D2*
X1995366D1*
X2061226D2*
X3097979D1*
X3175644D2*
X3384227D1*
X434703Y1691240D2*
X610308D1*
X998731D2*
X1455703D1*
X1521563D2*
X1614563D1*
X1680423D2*
X1791185D1*
X1884352D2*
X1995366D1*
X2061226D2*
X3097979D1*
X3175644D2*
X3384227D1*
X434703Y1666371D2*
X622940D1*
X998731D2*
X1455703D1*
X1521563D2*
X1614563D1*
X1680423D2*
X1789857D1*
X1901720D2*
X1985713D1*
X2070878D2*
X3097979D1*
X3175644D2*
X3384227D1*
X434703Y1641503D2*
X666610D1*
X781990D2*
X796475D1*
X909199D2*
X932871D1*
X998731D2*
X1455703D1*
X1521563D2*
X1614563D1*
X1680423D2*
X1804570D1*
X1926588D2*
X1979325D1*
X2077265D2*
X3097979D1*
X3175644D2*
X3384227D1*
X434703Y1616634D2*
X668404D1*
X780232D2*
X796475D1*
X882000D2*
X932871D1*
X998731D2*
X1455703D1*
X1526156D2*
X1614563D1*
X1680423D2*
X1843684D1*
X1951455D2*
X1987400D1*
X2069192D2*
X3097979D1*
X3175644D2*
X3384227D1*
X434703Y1591765D2*
X690079D1*
X775639D2*
X796475D1*
X882000D2*
X932871D1*
X998731D2*
X1460799D1*
X1551024D2*
X1614563D1*
X1680423D2*
X1868551D1*
X3174388D2*
X3384227D1*
X434703Y1566896D2*
X709780D1*
X775639D2*
X796475D1*
X882000D2*
X932871D1*
X998731D2*
X1484841D1*
X1594228D2*
X1614563D1*
X1680423D2*
X1893419D1*
X3156411D2*
X3384227D1*
X434703Y1542028D2*
X709780D1*
X775639D2*
X796475D1*
X882000D2*
X928171D1*
X1003432D2*
X1509710D1*
X1680423D2*
X1918430D1*
X3131364D2*
X3384227D1*
X434703Y1517159D2*
X709780D1*
X775639D2*
X796475D1*
X882000D2*
X917154D1*
X1014448D2*
X1524421D1*
X1680423D2*
X3384227D1*
X434703Y1492290D2*
X709780D1*
X775639D2*
X796475D1*
X882000D2*
X920993D1*
X1010609D2*
X1536730D1*
X1680423D2*
X3384227D1*
X434703Y1467421D2*
X709780D1*
X775639D2*
X796475D1*
X882000D2*
X948768D1*
X982833D2*
X1614563D1*
X1680423D2*
X3384227D1*
X434703Y1442552D2*
X709780D1*
X775639D2*
X796475D1*
X882000D2*
X1614563D1*
X1680423D2*
X3384227D1*
X434703Y1417684D2*
X709780D1*
X775639D2*
X796475D1*
X882000D2*
X1613665D1*
X1681356D2*
X3384227D1*
X434703Y1392815D2*
X709780D1*
X775639D2*
X796475D1*
X882000D2*
X1599492D1*
X1695530D2*
X3384227D1*
X434703Y1367946D2*
X709780D1*
X775639D2*
X796475D1*
X882000D2*
X1601142D1*
X1693879D2*
X3384227D1*
X434703Y1343077D2*
X709780D1*
X775639D2*
X796475D1*
X882000D2*
X1621776D1*
X1673245D2*
X3384227D1*
X434703Y1318209D2*
X709780D1*
X775639D2*
X796475D1*
X882000D2*
X3384227D1*
X434703Y1293340D2*
X690832D1*
X775639D2*
X796475D1*
X882000D2*
X3384227D1*
X434703Y1268471D2*
X662089D1*
X770866D2*
X796475D1*
X882000D2*
X3384227D1*
X434703Y1243602D2*
X658034D1*
X755436D2*
X796475D1*
X882000D2*
X1116634D1*
X1191787D2*
X3384227D1*
X434703Y1218734D2*
X668764D1*
X744671D2*
X796475D1*
X882000D2*
X1105546D1*
X1202840D2*
X3384227D1*
X434703Y1193865D2*
X673787D1*
X739647D2*
X796475D1*
X882000D2*
X1089434D1*
X1199037D2*
X3384227D1*
X434703Y1168996D2*
X673787D1*
X739647D2*
X796475D1*
X882000D2*
X1064566D1*
X1171441D2*
X3384227D1*
X434703Y1144127D2*
X673787D1*
X739647D2*
X796475D1*
X882000D2*
X949413D1*
X1130785D2*
X3384227D1*
X434703Y1119259D2*
X673787D1*
X739647D2*
X796475D1*
X882000D2*
X943206D1*
X1105917D2*
X3384227D1*
X434703Y1094390D2*
X673787D1*
X739647D2*
X796475D1*
X882000D2*
X951423D1*
X1079470D2*
X3384227D1*
X434703Y1069521D2*
X673787D1*
X739647D2*
X796475D1*
X922226D2*
X959210D1*
X1025070D2*
X3384227D1*
X434703Y1044652D2*
X673787D1*
X739647D2*
X796475D1*
X943684D2*
X959210D1*
X1025070D2*
X3384227D1*
X434703Y1019783D2*
X673787D1*
X739647D2*
X788975D1*
X945657D2*
X959210D1*
X1025070D2*
X3384227D1*
X434703Y994915D2*
X673787D1*
X739647D2*
X780471D1*
X932022D2*
X959210D1*
X1025070D2*
X3384227D1*
X434703Y970046D2*
X673787D1*
X739647D2*
X786428D1*
X872382D2*
X959210D1*
X1025070D2*
X3384227D1*
X434703Y945177D2*
X676264D1*
X1022630D2*
X3384227D1*
X434703Y920308D2*
X698045D1*
X1000812D2*
X3384227D1*
X434703Y895440D2*
X3384227D1*
X434703Y870571D2*
X3384227D1*
X434703Y845702D2*
X3384227D1*
X434703Y820833D2*
X1218079D1*
X1334463D2*
X2723995D1*
X2840379D2*
X3384227D1*
X434703Y795965D2*
X1188546D1*
X1363996D2*
X2694462D1*
X2869912D2*
X3384227D1*
X434703Y771096D2*
X1172865D1*
X1379713D2*
X2678744D1*
X2885593D2*
X3384227D1*
X434703Y746227D2*
X1164827D1*
X1387751D2*
X2670706D1*
X2893631D2*
X3384227D1*
X434703Y721358D2*
X1162781D1*
X1389797D2*
X2668697D1*
X2895676D2*
X3384227D1*
X434703Y696490D2*
X1166370D1*
X1386172D2*
X2672285D1*
X2892088D2*
X3384227D1*
X434703Y671621D2*
X1176273D1*
X1376304D2*
X2682154D1*
X2882219D2*
X3384227D1*
X434703Y646752D2*
X465444D1*
X596253D2*
X1194718D1*
X1357824D2*
X2700634D1*
X2863739D2*
X3221349D1*
X3352159D2*
X3384227D1*
X628442Y621883D2*
X1231930D1*
X1320612D2*
X2737845D1*
X2826528D2*
X3189197D1*
X646850Y597014D2*
X3170752D1*
X657831Y572146D2*
X3159808D1*
X663214Y547277D2*
X3154390D1*
X663752Y522408D2*
X3153887D1*
X659446Y497539D2*
X3158193D1*
X649793Y472671D2*
X3167810D1*
X633251Y447802D2*
X3184353D1*
X2369454Y4942346D2*
Y4931136D1*
X2241667D1*
Y4948110D1*
X2012063Y4948085D1*
X2007121Y4943161D1*
X2001219Y4938874D1*
X1994718Y4935562D1*
X1987780Y4933307D1*
X1980575Y4932165D1*
X1973278D1*
X1966073Y4933307D1*
X1959135Y4935562D1*
X1952634Y4938874D1*
X1951722Y4939483D1*
X1946223Y4936199D1*
X1939483Y4933408D1*
X1932388Y4931705D1*
X1925115Y4931133D1*
X1917843Y4931705D1*
X1910748Y4933408D1*
X1904008Y4936199D1*
X1897789Y4940012D1*
X1892240Y4944749D1*
X1887503Y4950298D1*
X1883690Y4956517D1*
X1880899Y4963257D1*
X1879196Y4970352D1*
X1878623Y4977625D1*
X1879196Y4984898D1*
X1880899Y4991992D1*
X1883690Y4998732D1*
X1887503Y5004951D1*
X1892240Y5010500D1*
X1897789Y5015238D1*
X1904008Y5019050D1*
X1910748Y5021841D1*
X1917843Y5023545D1*
X1925115Y5024117D1*
X1928436Y5023987D1*
X1985176Y5080719D1*
X1733133Y5080743D1*
X1742512Y5077682D1*
X1751445Y5073130D1*
X1759556Y5067238D1*
X1766646Y5060148D1*
X1772538Y5052037D1*
X1777091Y5043104D1*
X1779311Y5036680D1*
X1785016Y5034954D1*
X1789270Y5032786D1*
X1793134Y5029980D1*
X1814577Y5008669D1*
X1817678Y5005038D1*
X1820173Y5000967D1*
X1822000Y4996555D1*
X1823115Y4991912D1*
X1823490Y4987152D1*
Y3767126D1*
X1829471Y3762001D1*
X1834718Y3755857D1*
X1838940Y3748967D1*
X1842033Y3741503D1*
X1843919Y3733646D1*
X1844552Y3725591D1*
X1843919Y3717535D1*
X1842033Y3709678D1*
X1838940Y3702214D1*
X1834718Y3695324D1*
X1829471Y3689180D1*
X1826241Y3686230D1*
X1832215Y3680291D1*
X1836965Y3673755D1*
X1840633Y3666555D1*
X1843130Y3658871D1*
X1844394Y3650890D1*
Y3642811D1*
X1843130Y3634829D1*
X1840633Y3627146D1*
X1836965Y3619946D1*
X1832215Y3613409D1*
X1826241Y3607490D1*
X1832215Y3601551D1*
X1836965Y3595014D1*
X1840633Y3587815D1*
X1843130Y3580131D1*
X1844394Y3572150D1*
Y3564071D1*
X1843130Y3556089D1*
X1840633Y3548406D1*
X1836965Y3541206D1*
X1832215Y3534669D1*
X1826241Y3528749D1*
X1832215Y3522811D1*
X1836965Y3516274D1*
X1840633Y3509075D1*
X1843130Y3501391D1*
X1844394Y3493409D1*
Y3485331D1*
X1843130Y3477349D1*
X1840633Y3469665D1*
X1836965Y3462466D1*
X1832215Y3455929D1*
X1826241Y3450009D1*
X1832215Y3444071D1*
X1836965Y3437534D1*
X1840633Y3430335D1*
X1843130Y3422651D1*
X1844394Y3414669D1*
Y3406591D1*
X1843130Y3398609D1*
X1840633Y3390925D1*
X1836965Y3383726D1*
X1832215Y3377189D1*
X1826241Y3371269D1*
X1832215Y3365331D1*
X1836965Y3358794D1*
X1840633Y3351594D1*
X1843130Y3343911D1*
X1844394Y3335929D1*
Y3327850D1*
X1843130Y3319869D1*
X1840633Y3312185D1*
X1836965Y3304986D1*
X1832215Y3298449D1*
X1826241Y3292529D1*
X1832215Y3286591D1*
X1836965Y3280054D1*
X1840633Y3272854D1*
X1843130Y3265171D1*
X1844394Y3257189D1*
Y3249110D1*
X1843130Y3241129D1*
X1840633Y3233445D1*
X1836965Y3226245D1*
X1832215Y3219709D1*
X1826241Y3213789D1*
X1832215Y3207850D1*
X1836965Y3201314D1*
X1840633Y3194114D1*
X1843130Y3186430D1*
X1844394Y3178449D1*
Y3170370D1*
X1843130Y3162388D1*
X1840633Y3154705D1*
X1836965Y3147505D1*
X1832215Y3140969D1*
X1826241Y3135049D1*
X1832215Y3129110D1*
X1836965Y3122573D1*
X1840633Y3115374D1*
X1843130Y3107690D1*
X1844394Y3099709D1*
Y3091630D1*
X1843130Y3083648D1*
X1840633Y3075965D1*
X1836965Y3068765D1*
X1832215Y3062228D1*
X1826501Y3056514D1*
X1819965Y3051765D1*
X1812765Y3048097D1*
X1805081Y3045600D1*
X1797100Y3044336D1*
X1789021D1*
X1781039Y3045600D1*
X1773356Y3048097D1*
X1766156Y3051765D1*
X1759619Y3056514D1*
X1753906Y3062228D1*
X1749156Y3068765D1*
X1745488Y3075965D1*
X1742991Y3083648D1*
X1741727Y3091630D1*
Y3099709D1*
X1742178Y3103521D1*
X1635920Y3209777D1*
X1633269Y3203576D1*
X1629293Y3197088D1*
X1624350Y3191302D1*
X1618564Y3186360D1*
X1612076Y3182383D1*
X1605046Y3179472D1*
X1598479Y3177861D1*
X1598398Y3160444D1*
X1597650Y3155727D1*
X1596175Y3151186D1*
X1594007Y3146932D1*
X1591201Y3143068D1*
X1537613Y3089348D1*
X1519064Y3070799D1*
X1520724Y3066937D1*
X1527504Y3070391D1*
X1534741Y3072743D1*
X1542257Y3073933D1*
X1573621Y3074083D1*
X1593866Y3073933D1*
X1601382Y3072743D1*
X1608619Y3070391D1*
X1615399Y3066937D1*
X1621555Y3062465D1*
X1626936Y3057084D1*
X1627773Y3056021D1*
X1632572Y3055646D1*
X1637215Y3054530D1*
X1641627Y3052703D1*
X1645698Y3050209D1*
X1649336Y3047101D1*
X1670636Y3025668D1*
X1673442Y3021804D1*
X1675610Y3017550D1*
X1677085Y3013009D1*
X1677833Y3008293D1*
X1677927Y2932415D1*
Y2546265D1*
X1682850Y2541283D1*
X1687138Y2535382D1*
X1690450Y2528881D1*
X1692705Y2521942D1*
X1693846Y2514738D1*
Y2507441D1*
X1692705Y2500236D1*
X1690450Y2493298D1*
X1687138Y2486797D1*
X1682850Y2480895D1*
X1677933Y2475959D1*
X1677927Y1418524D1*
X1682850Y1413543D1*
X1687138Y1407642D1*
X1690450Y1401140D1*
X1692705Y1394202D1*
X1693846Y1386997D1*
Y1379701D1*
X1692705Y1372496D1*
X1690450Y1365558D1*
X1687138Y1359056D1*
X1682850Y1353155D1*
X1677692Y1347996D1*
X1671790Y1343709D1*
X1665289Y1340396D1*
X1658350Y1338142D1*
X1651146Y1337000D1*
X1643849D1*
X1636644Y1338142D1*
X1629706Y1340396D1*
X1623205Y1343709D1*
X1617303Y1347996D1*
X1612144Y1353155D1*
X1607857Y1359056D1*
X1604545Y1365558D1*
X1602290Y1372496D1*
X1601148Y1379701D1*
Y1386997D1*
X1602290Y1394202D1*
X1604545Y1401140D1*
X1607857Y1407642D1*
X1612144Y1413543D1*
X1617062Y1418479D1*
X1617068Y1510056D1*
X1614281Y1503304D1*
X1610469Y1497085D1*
X1605731Y1491537D1*
X1600182Y1486799D1*
X1593963Y1482987D1*
X1587223Y1480196D1*
X1580129Y1478492D1*
X1572856Y1477920D1*
X1565583Y1478492D1*
X1558488Y1480196D1*
X1551748Y1482987D1*
X1545529Y1486799D1*
X1539980Y1491537D1*
X1535243Y1497085D1*
X1531430Y1503304D1*
X1528639Y1510045D1*
X1526936Y1517139D1*
X1526364Y1524412D1*
X1526493Y1527732D1*
X1465488Y1588878D1*
X1462682Y1592741D1*
X1460514Y1596996D1*
X1459039Y1601537D1*
X1458291Y1606253D1*
X1458198Y1682131D1*
X1457972Y2348622D1*
X1455167Y2344759D1*
X1433857Y2323316D1*
X1430226Y2320215D1*
X1426155Y2317720D1*
X1421743Y2315894D1*
X1417100Y2314778D1*
X1412331Y2314404D1*
X1349219D1*
X1354807Y2309189D1*
X1360726Y2302786D1*
X1366125Y2295937D1*
X1370970Y2288686D1*
X1375230Y2281079D1*
X1378881Y2273160D1*
X1381899Y2264979D1*
X1384266Y2256585D1*
X1385967Y2248033D1*
X1386992Y2239374D1*
X1387335Y2230660D1*
X1386992Y2221946D1*
X1385967Y2213287D1*
X1384266Y2204735D1*
X1381899Y2196341D1*
X1378881Y2188160D1*
X1375230Y2180241D1*
X1370970Y2172634D1*
X1366125Y2165383D1*
X1360726Y2158534D1*
X1354807Y2152131D1*
X1348404Y2146213D1*
X1341555Y2140814D1*
X1334304Y2135969D1*
X1326697Y2131709D1*
X1318778Y2128058D1*
X1310597Y2125039D1*
X1302203Y2122672D1*
X1293651Y2120971D1*
X1284992Y2119946D1*
X1276278Y2119604D1*
X1267564Y2119946D1*
X1258906Y2120971D1*
X1250353Y2122672D1*
X1241959Y2125039D1*
X1233778Y2128058D1*
X1225860Y2131709D1*
X1218252Y2135969D1*
X1211001Y2140814D1*
X1204152Y2146213D1*
X1197749Y2152131D1*
X1191831Y2158534D1*
X1186432Y2165383D1*
X1181587Y2172634D1*
X1177327Y2180241D1*
X1173676Y2188160D1*
X1170657Y2196341D1*
X1168290Y2204735D1*
X1166589Y2213287D1*
X1165564Y2221946D1*
X1165222Y2230660D1*
X1165564Y2239374D1*
X1166589Y2248033D1*
X1168290Y2256585D1*
X1170657Y2264979D1*
X1173676Y2273160D1*
X1177327Y2281079D1*
X1181587Y2288686D1*
X1186432Y2295937D1*
X1191831Y2302786D1*
X1197749Y2309189D1*
X1203378Y2314391D1*
X1156521Y2314404D1*
X1154675Y2306776D1*
X1154581Y2186639D1*
X1153833Y2181923D1*
X1152358Y2177382D1*
X1150190Y2173127D1*
X1147385Y2169264D1*
X1126077Y2147824D1*
X1122446Y2144723D1*
X1118375Y2142228D1*
X1113963Y2140402D1*
X1109320Y2139286D1*
X1105278Y2138487D1*
X1099929Y2132223D1*
X1093665Y2126874D1*
X1086642Y2122571D1*
X1079031Y2119419D1*
X1071022Y2117495D1*
X1062811Y2116849D1*
X1006693Y2117010D1*
X998556Y2118299D1*
X996217Y2118959D1*
X996226Y1546769D1*
X1001150Y1541780D1*
X1005437Y1535878D1*
X1008749Y1529377D1*
X1011004Y1522438D1*
X1012146Y1515234D1*
Y1507937D1*
X1011004Y1500732D1*
X1008749Y1493794D1*
X1005437Y1487293D1*
X1001150Y1481391D1*
X995991Y1476232D1*
X990089Y1471945D1*
X983588Y1468633D1*
X976650Y1466378D1*
X969445Y1465236D1*
X962148D1*
X954944Y1466378D1*
X948005Y1468633D1*
X941504Y1471945D1*
X935602Y1476232D1*
X930444Y1481391D1*
X926156Y1487293D1*
X922844Y1493794D1*
X920589Y1500732D1*
X919448Y1507937D1*
Y1515234D1*
X920589Y1522438D1*
X922844Y1529377D1*
X926156Y1535878D1*
X930444Y1541780D1*
X935361Y1546715D1*
X935461Y3093791D1*
X936209Y3098508D1*
X937684Y3103049D1*
X939852Y3107303D1*
X942657Y3111167D1*
X963965Y3132606D1*
X967604Y3135713D1*
X968344Y3138487D1*
X968067Y3138902D1*
X961041Y3139286D1*
X956398Y3140402D1*
X951986Y3142228D1*
X947915Y3144723D1*
X944277Y3147832D1*
X922976Y3169264D1*
X920171Y3173127D1*
X918003Y3177382D1*
X916528Y3181923D1*
X915780Y3186639D1*
X915686Y3262517D1*
Y4196475D1*
X910762Y4201454D1*
X906475Y4207356D1*
X903163Y4213857D1*
X900908Y4220795D1*
X899766Y4228000D1*
Y4235297D1*
X900908Y4242501D1*
X903163Y4249440D1*
X906475Y4255941D1*
X910762Y4261843D1*
X915921Y4267001D1*
X921823Y4271289D1*
X924374Y4272718D1*
X897801Y4272715D1*
X895923Y4265087D1*
X895829Y3086639D1*
X895081Y3081923D1*
X893606Y3077382D1*
X891438Y3073127D1*
X888633Y3069264D1*
X867325Y3047824D1*
X863694Y3044723D1*
X859614Y3042224D1*
X863286Y3041518D1*
X869911Y3041144D1*
X874554Y3040029D1*
X878966Y3038202D1*
X883037Y3035707D1*
X886675Y3032600D1*
X907975Y3011167D1*
X910781Y3007303D1*
X912949Y3003049D1*
X914424Y2998508D1*
X915172Y2993791D1*
X915265Y2917913D1*
Y1717696D1*
X920189Y1712736D1*
X924476Y1706835D1*
X927789Y1700333D1*
X930043Y1693395D1*
X931185Y1686190D1*
Y1678894D1*
X930043Y1671689D1*
X927789Y1664751D1*
X924476Y1658249D1*
X920189Y1652348D1*
X915030Y1647189D1*
X909129Y1642902D1*
X902627Y1639589D1*
X895689Y1637335D1*
X888484Y1636193D1*
X881188D1*
X879503Y1636392D1*
X879517Y1089684D1*
X894177Y1075052D1*
X901181Y1075013D1*
X908386Y1073871D1*
X915324Y1071617D1*
X921825Y1068304D1*
X927727Y1064017D1*
X932886Y1058858D1*
X937173Y1052957D1*
X940486Y1046455D1*
X942740Y1039517D1*
X943882Y1032312D1*
Y1025016D1*
X942740Y1017811D1*
X940486Y1010873D1*
X937173Y1004371D1*
X932886Y998470D1*
X927727Y993311D1*
X921825Y989024D1*
X915324Y985711D1*
X908386Y983457D1*
X901181Y982315D1*
X893885D1*
X886680Y983457D1*
X879741Y985711D1*
X875592Y987706D1*
X874610Y982063D1*
X872356Y975125D1*
X869043Y968623D1*
X868560Y967900D1*
X959833Y967912D1*
X961726Y975541D1*
Y1085741D1*
X956802Y1090671D1*
X952514Y1096572D1*
X949202Y1103073D1*
X946948Y1110012D1*
X945806Y1117217D1*
Y1124513D1*
X946948Y1131718D1*
X949202Y1138656D1*
X952514Y1145157D1*
X956802Y1151059D1*
X961961Y1156218D1*
X967862Y1160505D1*
X974364Y1163818D1*
X981302Y1166072D1*
X988507Y1167214D1*
X995803D1*
X1003008Y1166072D1*
X1009946Y1163818D1*
X1016448Y1160505D1*
X1022349Y1156218D1*
X1027285Y1151301D1*
X1049390Y1151294D1*
X1107833Y1209749D1*
X1107857Y1216738D1*
X1108999Y1223942D1*
X1111253Y1230881D1*
X1114566Y1237382D1*
X1118853Y1243283D1*
X1124012Y1248442D1*
X1129913Y1252730D1*
X1136415Y1256042D1*
X1143353Y1258297D1*
X1150558Y1259438D1*
X1157854D1*
X1165059Y1258297D1*
X1171997Y1256042D1*
X1178499Y1252730D1*
X1184400Y1248442D1*
X1189559Y1243283D1*
X1193846Y1237382D1*
X1197159Y1230881D1*
X1199413Y1223942D1*
X1200555Y1216738D1*
Y1209441D1*
X1199413Y1202236D1*
X1197159Y1195298D1*
X1193846Y1188797D1*
X1189559Y1182895D1*
X1184400Y1177736D1*
X1178499Y1173449D1*
X1171997Y1170136D1*
X1165059Y1167882D1*
X1157854Y1166740D1*
X1150886Y1166727D1*
X1081745Y1097727D1*
X1077882Y1094920D1*
X1073627Y1092752D1*
X1069087Y1091277D1*
X1064370Y1090529D1*
X1027283Y1090436D1*
X1022591Y1085735D1*
X1022491Y954781D1*
X1021743Y950064D1*
X1020268Y945524D1*
X1018100Y941269D1*
X1015294Y937406D1*
X993987Y915966D1*
X990356Y912865D1*
X986285Y910370D1*
X981873Y908543D1*
X977230Y907428D1*
X972461Y907054D1*
X724020Y907147D1*
X719303Y907895D1*
X714762Y909370D1*
X710508Y911538D1*
X706644Y914344D1*
X685205Y935651D1*
X682104Y939282D1*
X679609Y943353D1*
X677782Y947765D1*
X676667Y952408D1*
X676293Y957177D1*
Y1213703D1*
X671369Y1218627D1*
X667081Y1224529D1*
X663769Y1231030D1*
X661514Y1237969D1*
X660373Y1245173D1*
Y1252470D1*
X661514Y1259675D1*
X663769Y1266613D1*
X667081Y1273114D1*
X671369Y1279016D1*
X676528Y1284175D1*
X682429Y1288462D1*
X688930Y1291774D1*
X695869Y1294029D1*
X703073Y1295171D1*
X710042Y1295184D1*
X712280Y1297412D1*
X712268Y1582887D1*
X706236Y1583631D1*
X702283Y1584916D1*
X698579Y1586803D1*
X695217Y1589247D1*
X675465Y1608999D1*
X673021Y1612361D1*
X671134Y1616066D1*
X669849Y1620018D1*
X669198Y1624125D1*
Y1652059D1*
X669849Y1656165D1*
X670416Y1658175D1*
X662736Y1658770D1*
X643182Y1658864D1*
X638466Y1659612D1*
X633925Y1661087D1*
X629671Y1663255D1*
X625807Y1666060D1*
X622430Y1669437D1*
X619625Y1673301D1*
X617457Y1677555D1*
X615982Y1682096D1*
X614942Y1689089D1*
X596724Y1707424D1*
X594281Y1710786D1*
X592394Y1714491D1*
X591109Y1718444D1*
X590458Y1722550D1*
Y1750484D1*
X591109Y1754591D1*
X592394Y1758543D1*
X594281Y1762248D1*
X596724Y1765610D1*
X616476Y1785362D1*
X619839Y1787806D1*
X623543Y1789693D1*
X627496Y1790978D1*
X631602Y1791629D1*
X659537D1*
X663643Y1790978D1*
X667596Y1789693D1*
X671301Y1787806D1*
X674663Y1785362D1*
X684945Y1775197D1*
X695217Y1785362D1*
X698579Y1787806D1*
X702283Y1789693D1*
X706236Y1790978D1*
X710343Y1791629D1*
X738277D1*
X742383Y1790978D1*
X746336Y1789693D1*
X750041Y1787806D1*
X753403Y1785362D1*
X771749Y1767133D1*
X806987Y1766946D1*
X831790Y1766853D1*
X836507Y1766105D1*
X841047Y1764630D1*
X845302Y1762462D1*
X849165Y1759656D1*
X854396Y1754558D1*
X854301Y2184266D1*
X853185Y2179623D1*
X851358Y2175211D1*
X848864Y2171140D1*
X845756Y2167503D1*
X824323Y2146202D1*
X820459Y2143396D1*
X816205Y2141228D1*
X811664Y2139753D1*
X806938Y2139005D1*
X805278Y2138487D1*
X799929Y2132223D1*
X793665Y2126874D1*
X786642Y2122571D1*
X779031Y2119419D1*
X771022Y2117495D1*
X762811Y2116849D1*
X706693Y2117010D1*
X698556Y2118299D1*
X690723Y2120845D1*
X683385Y2124584D1*
X676720Y2129427D1*
X670896Y2135251D1*
X666054Y2141915D1*
X662315Y2149253D1*
X659769Y2157087D1*
X658480Y2165223D1*
Y2173459D1*
X659769Y2181596D1*
X662315Y2189429D1*
X666054Y2196768D1*
X670896Y2203432D1*
X676720Y2209256D1*
X683385Y2214098D1*
X690723Y2217837D1*
X694591Y2219419D1*
X686980Y2222571D1*
X679957Y2226874D1*
X673693Y2232223D1*
X668344Y2238487D1*
X664041Y2245510D1*
X660888Y2253121D1*
X658965Y2261130D1*
X658319Y2269341D1*
X658965Y2277552D1*
X660888Y2285562D1*
X664041Y2293172D1*
X668344Y2300196D1*
X673693Y2306459D1*
X679957Y2311808D1*
X686980Y2316112D1*
X694853Y2319339D1*
X686980Y2322571D1*
X679957Y2326874D1*
X673693Y2332223D1*
X668344Y2338487D1*
X664041Y2345510D1*
X660888Y2353121D1*
X658965Y2361130D1*
X658319Y2369341D1*
X658965Y2377552D1*
X660888Y2385562D1*
X664041Y2393172D1*
X668344Y2400196D1*
X673693Y2406459D1*
X679957Y2411808D1*
X686980Y2416112D1*
X694853Y2419339D1*
X686980Y2422571D1*
X679957Y2426874D1*
X673693Y2432223D1*
X668344Y2438487D1*
X664041Y2445510D1*
X660888Y2453121D1*
X658965Y2461130D1*
X658319Y2469341D1*
X658965Y2477552D1*
X660888Y2485562D1*
X664041Y2493172D1*
X668344Y2500196D1*
X673693Y2506459D1*
X679957Y2511808D1*
X686980Y2516112D1*
X694853Y2519339D1*
X686980Y2522571D1*
X679957Y2526874D1*
X673693Y2532223D1*
X668344Y2538487D1*
X664041Y2545510D1*
X660888Y2553121D1*
X658965Y2561130D1*
X658319Y2569341D1*
X658965Y2577552D1*
X660888Y2585562D1*
X664041Y2593172D1*
X668344Y2600196D1*
X673693Y2606459D1*
X679957Y2611808D1*
X686980Y2616112D1*
X694853Y2619339D1*
X686980Y2622571D1*
X679957Y2626874D1*
X673693Y2632223D1*
X668344Y2638487D1*
X664041Y2645510D1*
X660888Y2653121D1*
X658965Y2661130D1*
X658319Y2669341D1*
X658965Y2677552D1*
X660888Y2685562D1*
X664041Y2693172D1*
X668344Y2700196D1*
X673693Y2706459D1*
X679957Y2711808D1*
X686980Y2716112D1*
X694591Y2719264D1*
X702600Y2721188D1*
X710827Y2721833D1*
X766929Y2721672D1*
X775066Y2720383D1*
X782899Y2717837D1*
X790238Y2714098D1*
X793804Y2711698D1*
X793665Y2826874D1*
X786642Y2822571D1*
X779031Y2819419D1*
X771022Y2817495D1*
X762811Y2816849D1*
X706693Y2817010D1*
X698556Y2818299D1*
X690723Y2820845D1*
X683385Y2824584D1*
X676720Y2829427D1*
X670896Y2835251D1*
X666054Y2841915D1*
X662315Y2849253D1*
X659769Y2857087D1*
X658480Y2865223D1*
Y2873459D1*
X659584Y2880664D1*
X627303Y2880753D1*
X622587Y2881501D1*
X618046Y2882976D1*
X613791Y2885144D1*
X609928Y2887950D1*
X588488Y2909257D1*
X585387Y2912888D1*
X582892Y2916959D1*
X581066Y2921371D1*
X579950Y2926014D1*
X579576Y2930774D1*
X579669Y4922024D1*
X580417Y4926740D1*
X581892Y4931281D1*
X584060Y4935535D1*
X586866Y4939399D1*
X608173Y4960839D1*
X611804Y4963940D1*
X615875Y4966434D1*
X620287Y4968261D1*
X624930Y4969377D1*
X629690Y4969751D1*
X669055D1*
X833774Y5134311D1*
X837638Y5137117D1*
X841892Y5139285D1*
X846433Y5140760D1*
X851150Y5141508D1*
X927028Y5141601D1*
X2488262Y5141508D1*
X2492979Y5140760D1*
X2497520Y5139285D1*
X2501774Y5137117D1*
X2505638Y5134311D1*
X2527077Y5113004D1*
X2530178Y5109373D1*
X2532673Y5105302D1*
X2534500Y5100890D1*
X2535615Y5096247D1*
X2535990Y5091487D1*
Y5074801D1*
X2543117Y5070344D1*
X2550740Y5063832D1*
X2557252Y5056209D1*
X2562490Y5047659D1*
X2566327Y5038396D1*
X2568668Y5028647D1*
X2569454Y5018652D1*
X2569257Y4990017D1*
X2567689Y4980114D1*
X2564591Y4970579D1*
X2560038Y4961646D1*
X2554146Y4953534D1*
X2547056Y4946445D1*
X2538945Y4940552D1*
X2530012Y4936000D1*
X2520476Y4932902D1*
X2510573Y4931333D1*
X2500547D1*
X2490644Y4932902D1*
X2481109Y4936000D1*
X2472176Y4940552D1*
X2464064Y4946445D1*
X2456975Y4953534D1*
X2455580Y4955304D1*
X2450740Y4949850D1*
X2443117Y4943339D1*
X2434567Y4938101D1*
X2425304Y4934264D1*
X2415555Y4931923D1*
X2405560Y4931136D1*
X2395566Y4931923D1*
X2385816Y4934264D1*
X2376554Y4938101D1*
X2369455Y4942370D1*
X2241667Y5008970D2*
Y5041337D1*
X2031899Y5041373D1*
X2005615Y5015092D1*
X2009802Y5011390D1*
X2012056Y5008950D1*
X2241644Y5008944D1*
X2435850Y5074864D2*
X2443117Y5070344D1*
X2450740Y5063832D1*
X2455541Y5058378D1*
X2460381Y5063832D1*
X2468004Y5070344D1*
X2475134Y5074787D1*
X2467503Y5080743D1*
X2434668D1*
X2435615Y5076552D1*
X2641668Y5018633D2*
X2642453Y5028647D1*
X2644794Y5038396D1*
X2648631Y5047659D1*
X2653869Y5056209D1*
X2660381Y5063832D1*
X2668004Y5070344D1*
X2676554Y5075581D1*
X2685816Y5079419D1*
X2695566Y5081760D1*
X2705560Y5082546D1*
X2715555Y5081760D1*
X2725304Y5079419D1*
X2734567Y5075581D1*
X2743117Y5070344D1*
X2750740Y5063832D1*
X2755541Y5058378D1*
X2760381Y5063832D1*
X2768004Y5070344D1*
X2776554Y5075581D1*
X2785816Y5079419D1*
X2795566Y5081760D1*
X2805560Y5082546D1*
X2815555Y5081760D1*
X2825304Y5079419D1*
X2834567Y5075581D1*
X2843117Y5070344D1*
X2850740Y5063832D1*
X2857252Y5056209D1*
X2862490Y5047659D1*
X2866327Y5038396D1*
X2868668Y5028647D1*
X2869454Y5018652D1*
X2869257Y4990017D1*
X2867689Y4980114D1*
X2864591Y4970579D1*
X2860038Y4961646D1*
X2854146Y4953534D1*
X2847056Y4946445D1*
X2838945Y4940552D1*
X2835987Y4938895D1*
X2835990Y4120394D1*
X2843618Y4118521D1*
X3068791D1*
X3073310Y4125648D1*
X3079822Y4133272D1*
X3085276Y4138072D1*
X3079822Y4142912D1*
X3073310Y4150535D1*
X3068072Y4159085D1*
X3064235Y4168348D1*
X3061894Y4178097D1*
X3061108Y4188092D1*
X3061894Y4198087D1*
X3064235Y4207836D1*
X3068072Y4217098D1*
X3073310Y4225648D1*
X3079822Y4233272D1*
X3087445Y4239783D1*
X3095995Y4245021D1*
X3105257Y4248858D1*
X3115007Y4251199D1*
X3125021Y4251984D1*
X3153636Y4251789D1*
X3163539Y4250220D1*
X3173075Y4247122D1*
X3182008Y4242570D1*
X3190119Y4236677D1*
X3197209Y4229588D1*
X3203101Y4221476D1*
X3207654Y4212543D1*
X3210752Y4203008D1*
X3212320Y4193105D1*
Y4183079D1*
X3210752Y4173176D1*
X3207654Y4163640D1*
X3203101Y4154707D1*
X3197209Y4146596D1*
X3190119Y4139507D1*
X3188349Y4138112D1*
X3193803Y4133272D1*
X3200315Y4125648D1*
X3205552Y4117098D1*
X3209390Y4107836D1*
X3211731Y4098087D1*
X3212517Y4088092D1*
X3211731Y4078097D1*
X3209390Y4068348D1*
X3205552Y4059085D1*
X3200315Y4050535D1*
X3193803Y4042912D1*
X3186180Y4036400D1*
X3177630Y4031163D1*
X3168367Y4027325D1*
X3158618Y4024984D1*
X3148623Y4024198D1*
X3125001D1*
X3115007Y4024984D1*
X3105257Y4027325D1*
X3095995Y4031163D1*
X3087445Y4036400D1*
X3079822Y4042912D1*
X3073310Y4050535D1*
X3068866Y4057665D1*
X2822858Y4057756D1*
X2818142Y4058504D1*
X2813601Y4059979D1*
X2809346Y4062147D1*
X2805483Y4064953D1*
X2793706Y4076598D1*
Y2428379D1*
X2803896Y2418198D1*
X2893972Y2418176D1*
X2893682Y2423495D1*
X2894255Y2430768D1*
X2895958Y2437862D1*
X2898749Y2444602D1*
X2902562Y2450822D1*
X2907299Y2456370D1*
X2909739Y2458625D1*
X2909839Y3733293D1*
X2910587Y3738009D1*
X2912062Y3742550D1*
X2914230Y3746804D1*
X2917035Y3750668D1*
X2938343Y3772108D1*
X2941974Y3775209D1*
X2946045Y3777703D1*
X2950457Y3779530D1*
X2955100Y3780646D1*
X2959869Y3781020D1*
X3061089D1*
X3061106Y3814484D1*
X3212516D1*
Y3686697D1*
X3201356D1*
X3205551Y3679597D1*
X3209388Y3670335D1*
X3211730Y3660585D1*
X3212516Y3650591D1*
X3211730Y3640596D1*
X3209388Y3630846D1*
X3205551Y3621584D1*
X3200314Y3613034D1*
X3193802Y3605411D1*
X3186178Y3598899D1*
X3177629Y3593661D1*
X3168366Y3589824D1*
X3158617Y3587483D1*
X3148622Y3586697D1*
X3125000D1*
X3115005Y3587483D1*
X3105256Y3589824D1*
X3095993Y3593661D1*
X3087444Y3598899D1*
X3079820Y3605411D1*
X3073308Y3613034D1*
X3068071Y3621584D1*
X3064234Y3630846D1*
X3061892Y3640596D1*
X3061106Y3650591D1*
X3061892Y3660585D1*
X3064234Y3670335D1*
X3068071Y3679597D1*
X3072340Y3686696D1*
X3061106Y3686697D1*
Y3720177D1*
X2972497Y3720161D1*
X2970604Y3712533D1*
Y2458631D1*
X2975528Y2453689D1*
X2979815Y2447787D1*
X2983127Y2441286D1*
X2985382Y2434348D1*
X2986524Y2427143D1*
Y2419846D1*
X2986324Y2418161D1*
X3072461Y2418176D1*
X3076415Y2423337D1*
X3083504Y2430427D1*
X3091615Y2436319D1*
X3100549Y2440871D1*
X3110084Y2443970D1*
X3119987Y2445538D1*
X3143373Y2445735D1*
X3153635Y2445538D1*
X3163538Y2443970D1*
X3171327Y2441516D1*
X3171344Y2522157D1*
X3163538Y2519713D1*
X3153635Y2518144D1*
X3130249Y2517948D1*
X3119987Y2518144D1*
X3110084Y2519713D1*
X3100549Y2522811D1*
X3091615Y2527364D1*
X3083504Y2533256D1*
X3076415Y2540345D1*
X3070522Y2548457D1*
X3065970Y2557390D1*
X3062871Y2566925D1*
X3061303Y2576828D1*
Y2586854D1*
X3062871Y2596757D1*
X3065970Y2606293D1*
X3070522Y2615226D1*
X3076415Y2623337D1*
X3083504Y2630427D1*
X3085274Y2631822D1*
X3079820Y2636661D1*
X3073308Y2644285D1*
X3068071Y2652835D1*
X3064234Y2662097D1*
X3061892Y2671846D1*
X3061106Y2681841D1*
X3061892Y2691836D1*
X3064234Y2701585D1*
X3068071Y2710848D1*
X3072340Y2717946D1*
X3061106Y2717948D1*
Y2845735D1*
X3171378D1*
X3171344Y3090850D1*
X3163538Y3088462D1*
X3153635Y3086894D1*
X3130249Y3086697D1*
X3119987Y3086894D1*
X3110084Y3088462D1*
X3100549Y3091560D1*
X3091615Y3096113D1*
X3083504Y3102005D1*
X3076415Y3109094D1*
X3070522Y3117206D1*
X3065970Y3126139D1*
X3062871Y3135675D1*
X3061303Y3145577D1*
Y3155604D1*
X3062871Y3165507D1*
X3065970Y3175042D1*
X3070522Y3183975D1*
X3076415Y3192087D1*
X3083504Y3199176D1*
X3091615Y3205068D1*
X3100549Y3209621D1*
X3110084Y3212719D1*
X3119987Y3214287D1*
X3143373Y3214484D1*
X3153635Y3214287D1*
X3163538Y3212719D1*
X3171327Y3210265D1*
X3171344Y3290862D1*
X3163538Y3288462D1*
X3153635Y3286894D1*
X3130249Y3286697D1*
X3119987Y3286894D1*
X3110084Y3288462D1*
X3100549Y3291560D1*
X3091615Y3296113D1*
X3083504Y3302005D1*
X3076415Y3309094D1*
X3070522Y3317206D1*
X3065970Y3326139D1*
X3062871Y3335675D1*
X3061303Y3345577D1*
Y3355604D1*
X3062871Y3365507D1*
X3065970Y3375042D1*
X3070522Y3383975D1*
X3076415Y3392087D1*
X3083504Y3399176D1*
X3085274Y3400571D1*
X3079820Y3405411D1*
X3073308Y3413034D1*
X3068071Y3421584D1*
X3064234Y3430846D1*
X3061892Y3440596D1*
X3061106Y3450591D1*
X3061892Y3460585D1*
X3064234Y3470335D1*
X3068071Y3479597D1*
X3073308Y3488147D1*
X3079820Y3495770D1*
X3087444Y3502282D1*
X3095993Y3507520D1*
X3105256Y3511357D1*
X3115005Y3513698D1*
X3125020Y3514483D1*
X3153635Y3514287D1*
X3163538Y3512719D1*
X3173073Y3509621D1*
X3182007Y3505068D1*
X3190118Y3499176D1*
X3197207Y3492087D1*
X3201130Y3486924D1*
X3210529Y3486814D1*
X3216172Y3485919D1*
X3218903Y3485266D1*
Y4455825D1*
X3211276Y4457663D1*
X3204781D1*
X3200315Y4450535D1*
X3193803Y4442912D1*
X3188349Y4438112D1*
X3193803Y4433272D1*
X3200315Y4425648D1*
X3205552Y4417098D1*
X3209390Y4407836D1*
X3211731Y4398087D1*
X3212517Y4388092D1*
X3211731Y4378097D1*
X3209390Y4368348D1*
X3205552Y4359085D1*
X3200315Y4350535D1*
X3193803Y4342912D1*
X3186180Y4336400D1*
X3177630Y4331163D1*
X3168367Y4327325D1*
X3158618Y4324984D1*
X3148623Y4324198D1*
X3125001D1*
X3115007Y4324984D1*
X3105257Y4327325D1*
X3095995Y4331163D1*
X3087445Y4336400D1*
X3079822Y4342912D1*
X3073310Y4350535D1*
X3068072Y4359085D1*
X3064235Y4368348D1*
X3061894Y4378097D1*
X3061108Y4388092D1*
X3061894Y4398087D1*
X3064235Y4407836D1*
X3068072Y4417098D1*
X3073310Y4425648D1*
X3079822Y4433272D1*
X3085276Y4438072D1*
X3079822Y4442912D1*
X3073310Y4450535D1*
X3068072Y4459085D1*
X3064235Y4468348D1*
X3061894Y4478097D1*
X3061108Y4488092D1*
X3061894Y4498087D1*
X3064235Y4507836D1*
X3068072Y4517098D1*
X3072341Y4524197D1*
X3061108Y4524198D1*
Y4651986D1*
X3212517D1*
Y4618505D1*
X3267783Y4618428D1*
X3272500Y4617680D1*
X3277041Y4616205D1*
X3281295Y4614037D1*
X3285159Y4611231D1*
X3306597Y4589925D1*
X3309698Y4586294D1*
X3312193Y4582223D1*
X3314020Y4577811D1*
X3315135Y4573168D1*
X3315509Y4568399D1*
Y2965928D1*
X3320433Y2960972D1*
X3324720Y2955071D1*
X3328033Y2948570D1*
X3330287Y2941631D1*
X3331429Y2934427D1*
Y2927130D1*
X3330287Y2919925D1*
X3328033Y2912987D1*
X3324720Y2906486D1*
X3320433Y2900584D1*
X3315274Y2895425D1*
X3309373Y2891138D1*
X3302871Y2887825D1*
X3295360Y2885457D1*
X3295824Y2878967D1*
X3295252Y2871694D1*
X3293549Y2864600D1*
X3290757Y2857860D1*
X3286945Y2851640D1*
X3282207Y2846092D1*
X3276659Y2841354D1*
X3270440Y2837542D1*
X3263699Y2834751D1*
X3256605Y2833047D1*
X3249332Y2832475D1*
X3243999Y2832818D1*
X3243902Y2278991D1*
X3243009Y2273360D1*
X3241247Y2267937D1*
X3238659Y2262857D1*
X3235307Y2258244D1*
X3231276Y2254213D1*
X3226663Y2250861D1*
X3221583Y2248273D1*
X3216160Y2246510D1*
X3210529Y2245618D1*
X3207668Y2245507D1*
X3200314Y2244285D1*
X3193802Y2236661D1*
X3186178Y2230150D1*
X3177629Y2224912D1*
X3173163Y2222852D1*
X3173034Y1598336D1*
X3172142Y1592705D1*
X3170381Y1587282D1*
X3167791Y1582202D1*
X3164440Y1577589D1*
X3131005Y1543995D1*
X3126669Y1540293D1*
X3121808Y1537314D1*
X3116541Y1535131D1*
X3110996Y1533801D1*
X3105302Y1533353D1*
X1941655Y1533465D1*
X1936024Y1534357D1*
X1930601Y1536118D1*
X1925521Y1538707D1*
X1920908Y1542059D1*
X1886335Y1576474D1*
X1832567Y1630241D1*
X1826912Y1631220D1*
X1819974Y1633475D1*
X1813472Y1636787D1*
X1807571Y1641075D1*
X1802412Y1646234D1*
X1798125Y1652135D1*
X1794812Y1658636D1*
X1792558Y1665575D1*
X1791416Y1672780D1*
Y1680076D1*
X1792558Y1687281D1*
X1794812Y1694219D1*
X1798125Y1700720D1*
X1802412Y1706622D1*
X1807571Y1711781D1*
X1813472Y1716068D1*
X1819974Y1719381D1*
X1826912Y1721635D1*
X1834117Y1722777D1*
X1841413D1*
X1848618Y1721635D1*
X1855556Y1719381D1*
X1862058Y1716068D1*
X1867959Y1711781D1*
X1873118Y1706622D1*
X1877406Y1700720D1*
X1880718Y1694219D1*
X1882972Y1687281D1*
X1883928Y1681647D1*
X1959549Y1606029D1*
X1999874Y1606022D1*
X1995421Y1609962D1*
X1990684Y1615510D1*
X1986871Y1621730D1*
X1984080Y1628470D1*
X1982377Y1635564D1*
X1981804Y1642837D1*
X1982377Y1650110D1*
X1984080Y1657205D1*
X1986871Y1663945D1*
X1990684Y1670164D1*
X1995421Y1675713D1*
X1997861Y1677967D1*
X1997867Y4377320D1*
X1992944Y4382289D1*
X1988656Y4388190D1*
X1985344Y4394692D1*
X1983089Y4401630D1*
X1981948Y4408835D1*
Y4416131D1*
X1983089Y4423336D1*
X1985344Y4430274D1*
X1988656Y4436776D1*
X1989139Y4437499D1*
X1943001Y4437487D1*
X1941135Y4429858D1*
Y4081028D1*
X1946059Y4076039D1*
X1950346Y4070138D1*
X1953659Y4063636D1*
X1955913Y4056698D1*
X1957055Y4049493D1*
Y4042197D1*
X1955913Y4034992D1*
X1953659Y4028054D1*
X1950346Y4021552D1*
X1946059Y4015651D1*
X1940900Y4010492D1*
X1934999Y4006205D1*
X1928497Y4002892D1*
X1921559Y4000638D1*
X1914354Y3999496D1*
X1907058D1*
X1899853Y4000638D1*
X1892915Y4002892D1*
X1886413Y4006205D1*
X1880512Y4010492D1*
X1875353Y4015651D1*
X1871066Y4021552D1*
X1867753Y4028054D1*
X1865499Y4034992D1*
X1864357Y4042197D1*
Y4049493D1*
X1865499Y4056698D1*
X1867753Y4063636D1*
X1871066Y4070138D1*
X1875353Y4076039D1*
X1880270Y4080975D1*
X1880370Y4450618D1*
X1881118Y4455335D1*
X1882593Y4459875D1*
X1884761Y4464130D1*
X1887567Y4467993D1*
X1908874Y4489433D1*
X1912505Y4492534D1*
X1916576Y4495029D1*
X1920988Y4496856D1*
X1925631Y4497971D1*
X1930391Y4498345D1*
X2502346Y4498252D1*
X2507063Y4497504D1*
X2511604Y4496029D1*
X2515858Y4493861D1*
X2519722Y4491055D1*
X2541161Y4469748D1*
X2544262Y4466117D1*
X2546757Y4462046D1*
X2548584Y4457634D1*
X2549699Y4452991D1*
X2550073Y4448231D1*
Y3641518D1*
X2609594Y3582010D1*
X2611630Y3587815D1*
X2615298Y3595014D1*
X2620047Y3601551D1*
X2626021Y3607471D1*
X2620047Y3613409D1*
X2615298Y3619946D1*
X2611630Y3627146D1*
X2609133Y3634829D1*
X2607869Y3642811D1*
Y3650890D1*
X2609133Y3658871D1*
X2611630Y3666555D1*
X2615298Y3673755D1*
X2620047Y3680291D1*
X2626021Y3686211D1*
X2620047Y3692150D1*
X2615298Y3698686D1*
X2611630Y3705886D1*
X2609133Y3713570D1*
X2607869Y3721551D1*
Y3729630D1*
X2609133Y3737612D1*
X2611630Y3745295D1*
X2615298Y3752495D1*
X2620047Y3759031D1*
X2625761Y3764745D1*
X2632298Y3769495D1*
X2639497Y3773163D1*
X2647181Y3775660D1*
X2655163Y3776924D1*
X2663241D1*
X2671223Y3775660D1*
X2678907Y3773163D1*
X2686106Y3769495D1*
X2692643Y3764745D1*
X2698357Y3759031D1*
X2703106Y3752495D1*
X2706774Y3745295D1*
X2709272Y3737612D1*
X2710535Y3729630D1*
Y3721551D1*
X2709272Y3713570D1*
X2706774Y3705886D1*
X2703106Y3698686D1*
X2698357Y3692150D1*
X2692383Y3686230D1*
X2698357Y3680291D1*
X2703106Y3673755D1*
X2706774Y3666555D1*
X2709272Y3658871D1*
X2710535Y3650890D1*
Y3642811D1*
X2709272Y3634829D1*
X2706774Y3627146D1*
X2703106Y3619946D1*
X2698357Y3613409D1*
X2692383Y3607490D1*
X2698357Y3601551D1*
X2703106Y3595014D1*
X2706774Y3587815D1*
X2709272Y3580131D1*
X2710535Y3572150D1*
Y3564071D1*
X2709272Y3556089D1*
X2706774Y3548406D1*
X2703106Y3541206D1*
X2698357Y3534669D1*
X2692383Y3528749D1*
X2698357Y3522811D1*
X2703106Y3516274D1*
X2706774Y3509075D1*
X2709272Y3501391D1*
X2710535Y3493409D1*
Y3485331D1*
X2709272Y3477349D1*
X2706774Y3469665D1*
X2703106Y3462466D1*
X2698357Y3455929D1*
X2692383Y3450009D1*
X2698357Y3444071D1*
X2703106Y3437534D1*
X2706774Y3430335D1*
X2709272Y3422651D1*
X2710535Y3414669D1*
Y3406591D1*
X2709272Y3398609D1*
X2706774Y3390925D1*
X2703106Y3383726D1*
X2698357Y3377189D1*
X2692383Y3371269D1*
X2698357Y3365331D1*
X2703106Y3358794D1*
X2706774Y3351594D1*
X2709272Y3343911D1*
X2710535Y3335929D1*
Y3327850D1*
X2709272Y3319869D1*
X2706774Y3312185D1*
X2703106Y3304986D1*
X2698357Y3298449D1*
X2692383Y3292529D1*
X2698357Y3286591D1*
X2703106Y3280054D1*
X2706774Y3272854D1*
X2709272Y3265171D1*
X2710535Y3257189D1*
Y3249110D1*
X2709272Y3241129D1*
X2706774Y3233445D1*
X2703106Y3226245D1*
X2698357Y3219709D1*
X2692383Y3213789D1*
X2698357Y3207850D1*
X2703106Y3201314D1*
X2706774Y3194114D1*
X2709272Y3186430D1*
X2710535Y3178449D1*
Y3170370D1*
X2709272Y3162388D1*
X2706774Y3154705D1*
X2703106Y3147505D1*
X2698357Y3140969D1*
X2692383Y3135049D1*
X2698357Y3129110D1*
X2703106Y3122573D1*
X2706774Y3115374D1*
X2709272Y3107690D1*
X2710535Y3099709D1*
Y3091630D1*
X2709272Y3083648D1*
X2706774Y3075965D1*
X2703106Y3068765D1*
X2698357Y3062228D1*
X2692383Y3056308D1*
X2698357Y3050370D1*
X2703106Y3043833D1*
X2706774Y3036634D1*
X2709272Y3028950D1*
X2710535Y3020969D1*
Y3012890D1*
X2709272Y3004908D1*
X2706774Y2997224D1*
X2703106Y2990025D1*
X2698357Y2983488D1*
X2692643Y2977774D1*
X2686106Y2973025D1*
X2678907Y2969357D1*
X2671223Y2966860D1*
X2663241Y2965596D1*
X2655163D1*
X2647181Y2966860D1*
X2639497Y2969357D1*
X2632298Y2973025D1*
X2625761Y2977774D1*
X2620047Y2983488D1*
X2615298Y2990025D1*
X2611630Y2997224D1*
X2609133Y3004908D1*
X2607869Y3012890D1*
Y3020969D1*
X2609133Y3028950D1*
X2611630Y3036634D1*
X2615298Y3043833D1*
X2620047Y3050370D1*
X2626021Y3056290D1*
X2620047Y3062228D1*
X2615298Y3068765D1*
X2611630Y3075965D1*
X2609133Y3083648D1*
X2607869Y3091630D1*
Y3099709D1*
X2609133Y3107690D1*
X2611630Y3115374D1*
X2615298Y3122573D1*
X2620047Y3129110D1*
X2626021Y3135030D1*
X2620047Y3140969D1*
X2615298Y3147505D1*
X2611630Y3154705D1*
X2609133Y3162388D1*
X2607869Y3170370D1*
Y3178449D1*
X2609133Y3186430D1*
X2611630Y3194114D1*
X2615298Y3201314D1*
X2620047Y3207850D1*
X2626021Y3213770D1*
X2620047Y3219709D1*
X2615298Y3226245D1*
X2611630Y3233445D1*
X2609133Y3241129D1*
X2607869Y3249110D1*
Y3257189D1*
X2609133Y3265171D1*
X2611630Y3272854D1*
X2615298Y3280054D1*
X2620047Y3286591D1*
X2626021Y3292510D1*
X2620047Y3298449D1*
X2615298Y3304986D1*
X2611630Y3312185D1*
X2609133Y3319869D1*
X2607869Y3327850D1*
Y3335929D1*
X2609133Y3343911D1*
X2611630Y3351594D1*
X2615298Y3358794D1*
X2620047Y3365331D1*
X2626021Y3371251D1*
X2620047Y3377189D1*
X2615298Y3383726D1*
X2611630Y3390925D1*
X2609133Y3398609D1*
X2607869Y3406591D1*
Y3414669D1*
X2609133Y3422651D1*
X2611630Y3430335D1*
X2615298Y3437534D1*
X2620047Y3444071D1*
X2626021Y3449991D1*
X2620047Y3455929D1*
X2615298Y3462466D1*
X2611630Y3469665D1*
X2609133Y3477349D1*
X2607869Y3485331D1*
Y3493409D1*
X2608320Y3497222D1*
X2496505Y3609165D1*
X2493699Y3613029D1*
X2491531Y3617283D1*
X2490056Y3621824D1*
X2489308Y3626541D1*
X2489215Y3702419D1*
Y4435640D1*
X2481587Y4437487D1*
X2067518D1*
X2071249Y4430274D1*
X2073504Y4423336D1*
X2074646Y4416131D1*
Y4408835D1*
X2073504Y4401630D1*
X2071249Y4394692D1*
X2067937Y4388190D1*
X2063650Y4382289D1*
X2058732Y4377353D1*
X2058726Y1678000D1*
X2063650Y1673031D1*
X2067937Y1667130D1*
X2071249Y1660629D1*
X2073504Y1653690D1*
X2074646Y1646486D1*
Y1639189D1*
X2073504Y1631984D1*
X2071249Y1625046D1*
X2067937Y1618545D1*
X2063650Y1612643D1*
X2058491Y1607484D1*
X2056643Y1606028D1*
X3090252Y1606022D1*
X3100451Y1616213D1*
X3100476Y2222808D1*
X3091615Y2227364D1*
X3083504Y2233256D1*
X3076415Y2240345D1*
X3070522Y2248457D1*
X3065970Y2257390D1*
X3062871Y2266925D1*
X3061303Y2276828D1*
Y2286854D1*
X3062871Y2296757D1*
X3065970Y2306293D1*
X3070522Y2315226D1*
X3076415Y2323337D1*
X3083504Y2330427D1*
X3085274Y2331822D1*
X3079820Y2336661D1*
X3073308Y2344285D1*
X3072492Y2345508D1*
X2786017Y2345618D1*
X2780386Y2346510D1*
X2774963Y2348272D1*
X2769883Y2350861D1*
X2765270Y2354213D1*
X2731678Y2387644D1*
X2727976Y2391980D1*
X2724997Y2396841D1*
X2722815Y2402109D1*
X2721484Y2407654D1*
X2721037Y2413348D1*
Y4100001D1*
X2717731Y4104745D1*
X2714419Y4111247D1*
X2712164Y4118185D1*
X2711209Y4123819D1*
X2677932Y4157252D1*
X2674580Y4161865D1*
X2671991Y4166945D1*
X2670230Y4172367D1*
X2669337Y4177999D1*
X2669226Y4226781D1*
Y4942491D1*
X2664064Y4946445D1*
X2656975Y4953534D1*
X2651083Y4961646D1*
X2646530Y4970579D1*
X2643432Y4980114D1*
X2641864Y4990017D1*
X2641667Y5013403D1*
Y5018550D1*
X2755541Y4955304D2*
X2750740Y4949850D1*
X2743117Y4943339D1*
X2741894Y4942522D1*
X2741895Y4195895D1*
X2762539Y4175256D1*
X2768224Y4174245D1*
X2775131Y4172081D1*
Y4938819D1*
X2768004Y4943339D1*
X2760381Y4949850D1*
X2755580Y4955304D1*
X664936Y5089887D2*
X663970Y5080753D1*
X662365Y5071710D1*
X660129Y5062802D1*
X657273Y5054073D1*
X653811Y5045566D1*
X649761Y5037323D1*
X645142Y5029385D1*
X639976Y5021790D1*
X634291Y5014576D1*
X628114Y5007781D1*
X621474Y5001434D1*
X614406Y4995571D1*
X606942Y4990218D1*
X599122Y4985402D1*
X590982Y4981146D1*
X582564Y4977472D1*
X573909Y4974400D1*
X565060Y4971942D1*
X556059Y4970112D1*
X546953Y4968917D1*
X537785Y4968365D1*
X528601Y4968458D1*
X519446Y4969196D1*
X510366Y4970573D1*
X501404Y4972587D1*
X492606Y4975223D1*
X484016Y4978471D1*
X475675Y4982315D1*
X467623Y4986734D1*
X459902Y4991707D1*
X452549Y4997210D1*
X445600Y5003217D1*
X439091Y5009696D1*
X432207Y5017732D1*
X432185Y617929D1*
X439129Y625299D1*
X445895Y631509D1*
X453081Y637230D1*
X460651Y642430D1*
X468568Y647087D1*
X476791Y651176D1*
X485282Y654678D1*
X493997Y657575D1*
X502895Y659853D1*
X511930Y661501D1*
X521059Y662510D1*
X530236Y662877D1*
X539417Y662597D1*
X548555Y661675D1*
X557605Y660112D1*
X566524Y657919D1*
X575266Y655104D1*
X583790Y651682D1*
X592052Y647672D1*
X600012Y643091D1*
X607631Y637961D1*
X614871Y632310D1*
X621697Y626164D1*
X628073Y619555D1*
X633971Y612513D1*
X639360Y605076D1*
X644213Y597278D1*
X648507Y589159D1*
X652219Y580759D1*
X655333Y572118D1*
X657833Y563281D1*
X659706Y554290D1*
X660944Y545189D1*
X661597Y532136D1*
X661274Y522958D1*
X660308Y513824D1*
X658703Y504781D1*
X656467Y495873D1*
X653612Y487144D1*
X650150Y478636D1*
X646100Y470394D1*
X641480Y462455D1*
X636315Y454861D1*
X630630Y447647D1*
X624453Y440852D1*
X615024Y432192D1*
X3202495Y432185D1*
X3191335Y442766D1*
X3185295Y449686D1*
X3179757Y457013D1*
X3174747Y464711D1*
X3170290Y472741D1*
X3166407Y481064D1*
X3163119Y489640D1*
X3160441Y498425D1*
X3158386Y507377D1*
X3156965Y516451D1*
X3156184Y525602D1*
X3156046Y534786D1*
X3156555Y543957D1*
X3157706Y553068D1*
X3159493Y562077D1*
X3161909Y570938D1*
X3164942Y579608D1*
X3168576Y588042D1*
X3172793Y596202D1*
X3177571Y604045D1*
X3182888Y611534D1*
X3188719Y618630D1*
X3195034Y625299D1*
X3201801Y631509D1*
X3208987Y637230D1*
X3216556Y642430D1*
X3224474Y647087D1*
X3232697Y651176D1*
X3241188Y654678D1*
X3249903Y657575D1*
X3258801Y659853D1*
X3267836Y661501D1*
X3276965Y662510D1*
X3286142Y662877D1*
X3295323Y662597D1*
X3304461Y661675D1*
X3313510Y660112D1*
X3322429Y657919D1*
X3331172Y655104D1*
X3339696Y651682D1*
X3347958Y647672D1*
X3355917Y643091D1*
X3363537Y637961D1*
X3370777Y632310D1*
X3377602Y626164D1*
X3386720Y616282D1*
X3386535Y5014576D1*
X3380358Y5007781D1*
X3373718Y5001434D1*
X3366650Y4995571D1*
X3359186Y4990218D1*
X3351366Y4985402D1*
X3343226Y4981146D1*
X3334808Y4977472D1*
X3326154Y4974400D1*
X3317304Y4971942D1*
X3308303Y4970112D1*
X3299197Y4968917D1*
X3290029Y4968365D1*
X3280845Y4968458D1*
X3271690Y4969196D1*
X3262610Y4970573D1*
X3253648Y4972587D1*
X3244850Y4975223D1*
X3236260Y4978471D1*
X3227919Y4982315D1*
X3219867Y4986734D1*
X3212146Y4991707D1*
X3204793Y4997210D1*
X3197844Y5003217D1*
X3191335Y5009696D1*
X3185295Y5016615D1*
X3179757Y5023942D1*
X3174747Y5031640D1*
X3170290Y5039671D1*
X3166407Y5047993D1*
X3163119Y5056570D1*
X3160441Y5065354D1*
X3158386Y5074306D1*
X3156965Y5083381D1*
X3156184Y5092531D1*
X3156046Y5101715D1*
X3156555Y5110886D1*
X3157706Y5119997D1*
X3159493Y5129007D1*
X3161909Y5137867D1*
X3164942Y5146537D1*
X3168576Y5154971D1*
X3172793Y5163131D1*
X3177571Y5170974D1*
X3182888Y5178463D1*
X3188719Y5185559D1*
X3195034Y5192228D1*
X3201034Y5197735D1*
X620280Y5197736D1*
X625358Y5193093D1*
X631735Y5186484D1*
X637633Y5179442D1*
X643021Y5172005D1*
X647874Y5164207D1*
X652168Y5156088D1*
X655881Y5147688D1*
X658995Y5139047D1*
X661495Y5130210D1*
X663367Y5121219D1*
X664605Y5112118D1*
X665259Y5099066D1*
X664936Y5089887D1*
X1156854Y3869276D2*
X1169236Y3881657D1*
X1169339Y3897192D1*
X1170231Y3902823D1*
X1171993Y3908245D1*
X1174581Y3913325D1*
X1177933Y3917938D1*
X1212348Y3952512D1*
X1355228Y4095394D1*
X1354365Y4101828D1*
Y4111854D1*
X1355933Y4121757D1*
X1359031Y4131293D1*
X1363584Y4140226D1*
X1369476Y4148337D1*
X1376566Y4155427D1*
X1381728Y4159349D1*
X1381839Y4530327D1*
X1382731Y4535958D1*
X1384492Y4541381D1*
X1387081Y4546461D1*
X1390433Y4551073D1*
X1424848Y4585647D1*
X1581735Y4742534D1*
X1581726Y4942457D1*
X1576564Y4946445D1*
X1569475Y4953534D1*
X1563583Y4961646D1*
X1559030Y4970579D1*
X1555932Y4980114D1*
X1554364Y4990017D1*
X1554167Y5013403D1*
X1554364Y5023665D1*
X1555932Y5033568D1*
X1559030Y5043104D1*
X1563583Y5052037D1*
X1569475Y5060148D1*
X1576564Y5067238D1*
X1584676Y5073130D1*
X1593609Y5077682D1*
X1603013Y5080743D1*
X1447135D1*
X1448115Y5076552D1*
X1451445Y5073130D1*
X1459556Y5067238D1*
X1466646Y5060148D1*
X1472538Y5052037D1*
X1477091Y5043104D1*
X1480189Y5033568D1*
X1481757Y5023665D1*
X1481954Y5000280D1*
X1481757Y4990017D1*
X1480189Y4980114D1*
X1477091Y4970579D1*
X1472538Y4961646D1*
X1466646Y4953534D1*
X1459556Y4946445D1*
X1451445Y4940552D1*
X1442512Y4936000D1*
X1432976Y4932902D1*
X1423073Y4931333D1*
X1413047D1*
X1403144Y4932902D1*
X1393609Y4936000D1*
X1384676Y4940552D1*
X1376564Y4946445D1*
X1369475Y4953534D1*
X1368080Y4955304D1*
X1363240Y4949850D1*
X1355617Y4943339D1*
X1348487Y4938895D1*
X1348396Y4320442D1*
X1347648Y4315726D1*
X1346173Y4311185D1*
X1344005Y4306930D1*
X1341199Y4303067D1*
X1319892Y4281627D1*
X1316261Y4278526D1*
X1312190Y4276031D1*
X1307778Y4274205D1*
X1303135Y4273089D1*
X1298375Y4272715D1*
X1264249D1*
X1264552Y4267396D1*
X1263980Y4260123D1*
X1262277Y4253029D1*
X1259486Y4246289D1*
X1255673Y4240070D1*
X1254394Y4238445D1*
X1254396Y4170761D1*
X1281955Y4170735D1*
Y4042948D1*
X1154168D1*
Y4170735D1*
X1181692D1*
X1181726Y4238357D1*
X1178420Y4243104D1*
X1175108Y4249605D1*
X1172853Y4256543D1*
X1171711Y4263748D1*
Y4271045D1*
X1171911Y4272730D1*
X1125234Y4272715D1*
X1125549Y4267396D1*
X1124976Y4260123D1*
X1123273Y4253029D1*
X1120482Y4246289D1*
X1116669Y4240070D1*
X1111932Y4234521D1*
X1109492Y4232266D1*
X1109486Y3867970D1*
X1115138Y3869249D1*
X1122411Y3869822D1*
X1129684Y3869249D1*
X1136778Y3867546D1*
X1143518Y3864755D1*
X1149738Y3860942D1*
X1150846Y3860068D1*
X1152974Y3864360D1*
X1155417Y3867722D1*
X1156835Y3869256D1*
X1393171Y3794583D2*
X1420075Y3794500D1*
X1420883Y3802395D1*
Y3853386D1*
X1377571Y3853412D1*
X1379425Y3849735D1*
X1380900Y3845194D1*
X1381648Y3840478D1*
X1381741Y3791979D1*
X1386950Y3793850D1*
X1391056Y3794501D1*
X1393143Y3794583D1*
X1417953Y3681598D2*
X1391056Y3681680D1*
X1386950Y3682331D1*
X1382990Y3683618D1*
X1381741Y3681923D1*
Y3679160D1*
X1389370Y3677280D1*
X1751549D1*
X1756650Y3683261D1*
X1759879Y3686211D1*
X1753906Y3692150D1*
X1749156Y3698686D1*
X1745488Y3705886D1*
X1742991Y3713570D1*
X1741727Y3721551D1*
Y3729630D1*
X1742991Y3737612D1*
X1745488Y3745295D1*
X1749156Y3752495D1*
X1753906Y3759031D1*
X1759619Y3764745D1*
X1762633Y3767122D1*
X1762631Y4949277D1*
X1755617Y4943339D1*
X1747067Y4938101D1*
X1737804Y4934264D1*
X1728055Y4931923D1*
X1718060Y4931136D1*
X1708066Y4931923D1*
X1698316Y4934264D1*
X1689054Y4938101D1*
X1680504Y4943339D1*
X1672881Y4949850D1*
X1668080Y4955304D1*
X1663240Y4949850D1*
X1655617Y4943339D1*
X1654394Y4942522D1*
X1654283Y4724625D1*
X1653391Y4718993D1*
X1651630Y4713571D1*
X1649041Y4708491D1*
X1645689Y4703878D1*
X1611274Y4669304D1*
X1506810Y4564840D1*
X1576049Y4564829D1*
Y4448853D1*
X1548454D1*
X1548490Y4333269D1*
X1553219Y4329694D1*
X1558378Y4324535D1*
X1562665Y4318634D1*
X1565978Y4312133D1*
X1568232Y4305194D1*
X1569374Y4297990D1*
Y4290693D1*
X1568232Y4283488D1*
X1565978Y4276550D1*
X1562665Y4270049D1*
X1558378Y4264147D1*
X1553219Y4258988D1*
X1547318Y4254701D1*
X1540816Y4251388D1*
X1533878Y4249134D1*
X1526673Y4247992D1*
X1519377D1*
X1512172Y4249134D1*
X1505234Y4251388D1*
X1501631Y4253076D1*
X1501550Y3881671D1*
X1500802Y3876954D1*
X1499327Y3872413D1*
X1497159Y3868159D1*
X1494353Y3864295D1*
X1481744Y3851554D1*
X1481648Y3735703D1*
X1480900Y3730987D1*
X1479425Y3726446D1*
X1477257Y3722192D1*
X1474451Y3718328D1*
X1471075Y3714951D1*
X1467211Y3712146D1*
X1462957Y3709978D1*
X1458416Y3708503D1*
X1456063Y3708035D1*
X1454289Y3706925D1*
X1435193Y3687946D1*
X1431831Y3685503D1*
X1428126Y3683615D1*
X1424173Y3682331D1*
X1420067Y3681680D1*
X1417980Y3681598D1*
X3212517Y4557646D2*
Y4524198D1*
X3201357D1*
X3204759Y4518518D1*
X3232035Y4518428D1*
X3236752Y4517680D1*
X3241293Y4516205D1*
X3245547Y4514037D1*
X3249411Y4511231D1*
X3251172Y4509601D1*
X3254651Y4510831D1*
Y4555794D1*
X3247024Y4557663D1*
X3212539D1*
X1546076Y2977098D2*
X1538476Y2977696D1*
X1531077Y2979472D1*
X1524047Y2982383D1*
X1519055Y2985360D1*
X1519056Y2681959D1*
X1523980Y2677031D1*
X1528268Y2671130D1*
X1531580Y2664629D1*
X1533835Y2657690D1*
X1534976Y2650486D1*
Y2643189D1*
X1533835Y2635984D1*
X1531580Y2629046D1*
X1528268Y2622545D1*
X1523980Y2616643D1*
X1519063Y2611707D1*
X1519056Y1621231D1*
X1569493Y1570807D1*
X1576504Y1570761D1*
X1583709Y1569619D1*
X1590647Y1567365D1*
X1597148Y1564052D1*
X1603050Y1559765D1*
X1608209Y1554606D1*
X1612496Y1548705D1*
X1615808Y1542203D1*
X1617067Y1538793D1*
X1617068Y2475915D1*
X1612144Y2480895D1*
X1607857Y2486797D1*
X1604545Y2493298D1*
X1602290Y2500236D1*
X1601148Y2507441D1*
Y2514738D1*
X1602290Y2521942D1*
X1604545Y2528881D1*
X1607857Y2535382D1*
X1612144Y2541283D1*
X1617062Y2546219D1*
X1617068Y2985299D1*
X1612076Y2982383D1*
X1605046Y2979472D1*
X1597647Y2977696D1*
X1590062Y2977098D1*
X1546062Y2977134D1*
X1537644Y3177861D2*
X1531077Y3179472D1*
X1524047Y3182383D1*
X1517559Y3186360D1*
X1511773Y3191302D1*
X1506831Y3197088D1*
X1502854Y3203576D1*
X1499944Y3210606D1*
X1498167Y3218005D1*
X1497570Y3225591D1*
X1498136Y3232925D1*
X1464304Y3232912D1*
X1462457Y3225283D1*
X1462682Y3099295D1*
X1465488Y3103159D1*
X1519076Y3156879D1*
X1537625Y3175428D1*
X1487665Y4448853D2*
X1460072D1*
Y4518073D1*
X1454387Y4512417D1*
X1454396Y4319671D1*
X1459570Y4322454D1*
X1464110Y4323929D1*
X1468827Y4324677D1*
X1487613Y4324770D1*
X1487631Y4448835D1*
X1281954Y4942346D2*
Y4931136D1*
X1248474D1*
X1248396Y4650714D1*
X1247648Y4645997D1*
X1246173Y4641457D1*
X1244005Y4637202D1*
X1241199Y4633339D1*
X1219892Y4611899D1*
X1216261Y4608798D1*
X1212190Y4606303D1*
X1207778Y4604476D1*
X1203135Y4603361D1*
X1198375Y4602987D1*
X1001982D1*
X1011259Y4593249D1*
X1017079Y4586144D1*
X1022449Y4578692D1*
X1027346Y4570923D1*
X1031756Y4562865D1*
X1035659Y4554551D1*
X1039041Y4546010D1*
X1041888Y4537278D1*
X1044647Y4526028D1*
X1218643Y4526050D1*
X1223614Y4530974D1*
X1229516Y4535261D1*
X1236017Y4538573D1*
X1242955Y4540828D1*
X1250160Y4541970D1*
X1257457D1*
X1264661Y4540828D1*
X1271600Y4538573D1*
X1278101Y4535261D1*
X1284003Y4530974D1*
X1287622Y4527480D1*
X1287631Y4938853D1*
X1281955Y4942370D1*
X1187614Y4931136D2*
X1154167D1*
Y5041408D1*
X1100881Y5041373D1*
X955878Y4896497D1*
X952014Y4893692D1*
X947760Y4891524D1*
X943219Y4890049D1*
X938503Y4889301D1*
X862625Y4889207D1*
X681660D1*
X679804Y4881579D1*
Y4662505D1*
X683986Y4663471D1*
X688755Y4663845D1*
X1185777D1*
X1187631Y4671474D1*
Y4931168D1*
X1633108Y5080743D2*
X1642512Y5077682D1*
X1651445Y5073130D1*
X1659556Y5067238D1*
X1666646Y5060148D1*
X1668041Y5058378D1*
X1672881Y5063832D1*
X1680504Y5070344D1*
X1689054Y5075581D1*
X1698316Y5079419D1*
X1703013Y5080743D1*
X1633159D1*
X2892898Y2221946D2*
X2891873Y2213287D1*
X2890172Y2204735D1*
X2887804Y2196341D1*
X2884786Y2188160D1*
X2881135Y2180241D1*
X2876875Y2172634D1*
X2872030Y2165383D1*
X2866631Y2158534D1*
X2860713Y2152131D1*
X2854310Y2146213D1*
X2847461Y2140814D1*
X2840210Y2135969D1*
X2832602Y2131709D1*
X2824684Y2128058D1*
X2816503Y2125039D1*
X2808109Y2122672D1*
X2799556Y2120971D1*
X2790898Y2119946D1*
X2782184Y2119604D1*
X2773470Y2119946D1*
X2764811Y2120971D1*
X2756259Y2122672D1*
X2747865Y2125039D1*
X2739684Y2128058D1*
X2731765Y2131709D1*
X2724157Y2135969D1*
X2716907Y2140814D1*
X2710058Y2146213D1*
X2703655Y2152131D1*
X2697736Y2158534D1*
X2692337Y2165383D1*
X2687492Y2172634D1*
X2683232Y2180241D1*
X2679581Y2188160D1*
X2676563Y2196341D1*
X2674196Y2204735D1*
X2672495Y2213287D1*
X2671470Y2221946D1*
X2671127Y2230660D1*
X2671470Y2239374D1*
X2672495Y2248033D1*
X2674196Y2256585D1*
X2676563Y2264979D1*
X2679581Y2273160D1*
X2683232Y2281079D1*
X2687492Y2288686D1*
X2692337Y2295937D1*
X2697736Y2302786D1*
X2703655Y2309189D1*
X2710058Y2315108D1*
X2716907Y2320507D1*
X2724157Y2325352D1*
X2731765Y2329612D1*
X2739684Y2333262D1*
X2747865Y2336281D1*
X2756259Y2338648D1*
X2764811Y2340349D1*
X2773470Y2341374D1*
X2782184Y2341717D1*
X2790898Y2341374D1*
X2799556Y2340349D1*
X2808109Y2338648D1*
X2816503Y2336281D1*
X2824684Y2333262D1*
X2832602Y2329612D1*
X2840210Y2325352D1*
X2847461Y2320507D1*
X2854310Y2315108D1*
X2860713Y2309189D1*
X2866631Y2302786D1*
X2872030Y2295937D1*
X2876875Y2288686D1*
X2881135Y2281079D1*
X2884786Y2273160D1*
X2887804Y2264979D1*
X2890172Y2256585D1*
X2891873Y2248033D1*
X2892898Y2239374D1*
X2893240Y2230660D1*
X2892898Y2221946D1*
Y716041D2*
X2891873Y707382D1*
X2890172Y698829D1*
X2887804Y690436D1*
X2884786Y682255D1*
X2881135Y674336D1*
X2876875Y666728D1*
X2872030Y659478D1*
X2866631Y652629D1*
X2860713Y646226D1*
X2854310Y640307D1*
X2847461Y634908D1*
X2840210Y630063D1*
X2832602Y625803D1*
X2824684Y622152D1*
X2816503Y619134D1*
X2808109Y616766D1*
X2799556Y615066D1*
X2790898Y614041D1*
X2782184Y613698D1*
X2773470Y614041D1*
X2764811Y615066D1*
X2756259Y616766D1*
X2747865Y619134D1*
X2739684Y622152D1*
X2731765Y625803D1*
X2724157Y630063D1*
X2716907Y634908D1*
X2710058Y640307D1*
X2703655Y646226D1*
X2697736Y652629D1*
X2692337Y659478D1*
X2687492Y666728D1*
X2683232Y674336D1*
X2679581Y682255D1*
X2676563Y690436D1*
X2674196Y698829D1*
X2672495Y707382D1*
X2671470Y716041D1*
X2671127Y724755D1*
X2671470Y733469D1*
X2672495Y742127D1*
X2674196Y750680D1*
X2676563Y759073D1*
X2679581Y767255D1*
X2683232Y775173D1*
X2687492Y782781D1*
X2692337Y790031D1*
X2697736Y796881D1*
X2703655Y803283D1*
X2710058Y809202D1*
X2716907Y814601D1*
X2724157Y819446D1*
X2731765Y823706D1*
X2739684Y827357D1*
X2747865Y830375D1*
X2756259Y832743D1*
X2764811Y834444D1*
X2773470Y835469D1*
X2782184Y835811D1*
X2790898Y835469D1*
X2799556Y834444D1*
X2808109Y832743D1*
X2816503Y830375D1*
X2824684Y827357D1*
X2832602Y823706D1*
X2840210Y819446D1*
X2847461Y814601D1*
X2854310Y809202D1*
X2860713Y803283D1*
X2866631Y796881D1*
X2872030Y790031D1*
X2876875Y782781D1*
X2881135Y775173D1*
X2884786Y767255D1*
X2887804Y759073D1*
X2890172Y750680D1*
X2891873Y742127D1*
X2892898Y733469D1*
X2893240Y724755D1*
X2892898Y716041D1*
X1386992D2*
X1385967Y707382D1*
X1384266Y698829D1*
X1381899Y690436D1*
X1378881Y682255D1*
X1375230Y674336D1*
X1370970Y666728D1*
X1366125Y659478D1*
X1360726Y652629D1*
X1354807Y646226D1*
X1348404Y640307D1*
X1341555Y634908D1*
X1334304Y630063D1*
X1326697Y625803D1*
X1318778Y622152D1*
X1310597Y619134D1*
X1302203Y616766D1*
X1293651Y615066D1*
X1284992Y614041D1*
X1276278Y613698D1*
X1267564Y614041D1*
X1258906Y615066D1*
X1250353Y616766D1*
X1241959Y619134D1*
X1233778Y622152D1*
X1225860Y625803D1*
X1218252Y630063D1*
X1211001Y634908D1*
X1204152Y640307D1*
X1197749Y646226D1*
X1191831Y652629D1*
X1186432Y659478D1*
X1181587Y666728D1*
X1177327Y674336D1*
X1173676Y682255D1*
X1170657Y690436D1*
X1168290Y698829D1*
X1166589Y707382D1*
X1165564Y716041D1*
X1165222Y724755D1*
X1165564Y733469D1*
X1166589Y742127D1*
X1168290Y750680D1*
X1170657Y759073D1*
X1173676Y767255D1*
X1177327Y775173D1*
X1181587Y782781D1*
X1186432Y790031D1*
X1191831Y796881D1*
X1197749Y803283D1*
X1204152Y809202D1*
X1211001Y814601D1*
X1218252Y819446D1*
X1225860Y823706D1*
X1233778Y827357D1*
X1241959Y830375D1*
X1250353Y832743D1*
X1258906Y834444D1*
X1267564Y835469D1*
X1276278Y835811D1*
X1284992Y835469D1*
X1293651Y834444D1*
X1302203Y832743D1*
X1310597Y830375D1*
X1318778Y827357D1*
X1326697Y823706D1*
X1334304Y819446D1*
X1341555Y814601D1*
X1348404Y809202D1*
X1354807Y803283D1*
X1360726Y796881D1*
X1366125Y790031D1*
X1370970Y782781D1*
X1375230Y775173D1*
X1378881Y767255D1*
X1381899Y759073D1*
X1384266Y750680D1*
X1385967Y742127D1*
X1386992Y733469D1*
X1387335Y724755D1*
X1386992Y716041D1*
X1440803Y4047180D2*
X1432978Y4044713D1*
X1423075Y4043144D1*
X1413049D1*
X1406625Y4044021D1*
X1276870Y3914264D1*
X1440816Y3914270D1*
X1440785Y4047151D1*
X1044630Y4465171D2*
X1040804Y4450417D1*
X1037740Y4441759D1*
X1034146Y4433306D1*
X1030037Y4425092D1*
X1025428Y4417147D1*
X1020337Y4409503D1*
X1014782Y4402186D1*
X1008787Y4395228D1*
X1002373Y4388654D1*
X995566Y4382488D1*
X988388Y4376756D1*
X980873Y4371478D1*
X973043Y4366675D1*
X964933Y4362364D1*
X956572Y4358562D1*
X947991Y4355285D1*
X939224Y4352545D1*
X930306Y4350352D1*
X921268Y4348714D1*
X912147Y4347636D1*
X902975Y4347126D1*
X893791Y4347184D1*
X884627Y4347808D1*
X875520Y4348999D1*
X866504Y4350749D1*
X857613Y4353054D1*
X848881Y4355904D1*
X840341Y4359287D1*
X832029Y4363193D1*
X823972Y4367604D1*
X816205Y4372505D1*
X808755Y4377877D1*
X801650Y4383698D1*
X794920Y4389949D1*
X788588Y4396602D1*
X782680Y4403635D1*
X777218Y4411020D1*
X772222Y4418727D1*
X767713Y4426728D1*
X763706Y4434993D1*
X760218Y4443491D1*
X757262Y4452186D1*
X754849Y4461049D1*
X752990Y4470043D1*
X751688Y4479135D1*
X750951Y4488291D1*
X750782Y4497475D1*
X751180Y4506651D1*
X752146Y4515785D1*
X753673Y4524841D1*
X755757Y4533787D1*
X758391Y4542587D1*
X761563Y4551206D1*
X765261Y4559613D1*
X769472Y4567776D1*
X774181Y4575663D1*
X779367Y4583243D1*
X785012Y4590488D1*
X791093Y4597371D1*
X796701Y4602978D1*
X701344Y4602987D1*
X699490Y4595358D1*
Y3520591D1*
X706693Y3521672D1*
X738370Y3521833D1*
X766929Y3521672D1*
X775066Y3520383D1*
X782899Y3517837D1*
X790238Y3514098D1*
X796902Y3509256D1*
X799325Y3507016D1*
X799316Y4014164D1*
X794392Y4019088D1*
X790105Y4024990D1*
X786793Y4031491D1*
X784538Y4038429D1*
X783396Y4045634D1*
Y4052930D1*
X784538Y4060135D1*
X786793Y4067073D1*
X790105Y4073575D1*
X794392Y4079476D1*
X799551Y4084635D1*
X805453Y4088923D1*
X811954Y4092235D1*
X818892Y4094490D1*
X826097Y4095631D1*
X833394D1*
X835079Y4095432D1*
X835157Y4285846D1*
X835906Y4290563D1*
X837381Y4295104D1*
X839549Y4299358D1*
X842354Y4303222D1*
X863661Y4324661D1*
X867293Y4327762D1*
X871364Y4330257D1*
X875776Y4332084D1*
X880419Y4333199D1*
X885188Y4333573D1*
X1285753D1*
X1287631Y4341202D1*
Y4463747D1*
X1284003Y4460268D1*
X1278101Y4455980D1*
X1271600Y4452668D1*
X1264661Y4450413D1*
X1257457Y4449272D1*
X1250160D1*
X1242955Y4450413D1*
X1236017Y4452668D1*
X1229516Y4455980D1*
X1223614Y4460268D1*
X1218678Y4465185D1*
X1044711Y4465192D1*
X1295689Y3620437D2*
X1294547Y3613232D1*
X1292293Y3606294D1*
X1288980Y3599793D1*
X1284693Y3593891D1*
X1279776Y3588955D1*
X1279676Y2486639D1*
X1278928Y2481923D1*
X1277453Y2477382D1*
X1275285Y2473127D1*
X1272479Y2469264D1*
X1251172Y2447824D1*
X1247541Y2444723D1*
X1243461Y2442224D1*
X1248097Y2441518D1*
X1319041D1*
X1320883Y2449147D1*
X1320976Y3629552D1*
X1321724Y3634269D1*
X1323199Y3638810D1*
X1325367Y3643064D1*
X1326701Y3645059D1*
X1326694Y3648650D1*
X1324199Y3652720D1*
X1322370Y3657142D1*
X1320583Y3658210D1*
X1305639Y3643399D1*
X1301776Y3640593D1*
X1297521Y3638425D1*
X1295270Y3637596D1*
X1294547Y3634938D1*
X1295689Y3627734D1*
Y3620437D1*
X1163475Y3051329D2*
X1160264Y3045049D1*
X1155976Y3039147D1*
X1150818Y3033988D1*
X1144916Y3029701D1*
X1138415Y3026388D1*
X1131476Y3024134D1*
X1124272Y3022992D1*
X1116975D1*
X1109770Y3024134D1*
X1102832Y3026388D1*
X1096866Y3029400D1*
X1090238Y3024584D1*
X1082899Y3020845D1*
X1079031Y3019264D1*
X1086642Y3016112D1*
X1093665Y3011808D1*
X1099929Y3006459D1*
X1105555Y2999781D1*
X1122696Y2999677D1*
X1127412Y2998929D1*
X1131953Y2997454D1*
X1136207Y2995286D1*
X1140071Y2992480D1*
X1159613Y2973071D1*
X1163469Y2971054D1*
X1163478Y3051323D1*
X1040106Y4242025D2*
X1036539Y4237202D1*
X1031622Y4232266D1*
X1031522Y4179726D1*
X1030774Y4175009D1*
X1029299Y4170469D1*
X1027131Y4166214D1*
X1024325Y4162350D1*
X999486Y4137379D1*
X999490Y3520614D1*
X1006693Y3521672D1*
X1038370Y3521833D1*
X1048669D1*
X1048627Y4232231D1*
X1043703Y4237202D1*
X1040136Y4242025D1*
X1163469Y2890503D2*
X1158100Y2887825D1*
X1151161Y2885571D1*
X1143957Y2884429D1*
X1136660D1*
X1129455Y2885571D1*
X1122517Y2887825D1*
X1116016Y2891138D1*
X1110114Y2895425D1*
X1104955Y2900584D1*
X1100668Y2906486D1*
X1097356Y2912987D1*
X1095101Y2919925D1*
X1093965Y2927088D1*
X1086642Y2922571D1*
X1079031Y2919419D1*
X1071022Y2917495D1*
X1062811Y2916849D1*
X1006693Y2917010D1*
X998556Y2918299D1*
X996217Y2918959D1*
X996226Y2819797D1*
X1002600Y2821188D1*
X1010827Y2821833D1*
X1066929Y2821672D1*
X1075066Y2820383D1*
X1082899Y2817837D1*
X1090238Y2814098D1*
X1096902Y2809256D1*
X1102726Y2803432D1*
X1107568Y2796768D1*
X1111307Y2789429D1*
X1113853Y2781596D1*
X1115142Y2773459D1*
Y2765223D1*
X1113853Y2757087D1*
X1111307Y2749253D1*
X1107568Y2741915D1*
X1102726Y2735251D1*
X1096902Y2729427D1*
X1090238Y2724584D1*
X1082899Y2720845D1*
X1079031Y2719264D1*
X1086642Y2716112D1*
X1093665Y2711808D1*
X1099929Y2706459D1*
X1105278Y2700196D1*
X1109581Y2693172D1*
X1112734Y2685562D1*
X1114657Y2677552D1*
X1115303Y2669341D1*
X1114657Y2661130D1*
X1112734Y2653121D1*
X1109581Y2645510D1*
X1105278Y2638487D1*
X1099929Y2632223D1*
X1093665Y2626874D1*
X1086642Y2622571D1*
X1078769Y2619344D1*
X1086642Y2616112D1*
X1093665Y2611808D1*
X1099929Y2606459D1*
X1105555Y2599781D1*
X1161652Y2599770D1*
X1163478Y2607399D1*
Y2890490D1*
X790245Y967900D2*
X787978Y971808D1*
X785186Y978549D1*
X783483Y985643D1*
X782911Y992916D1*
X783483Y1000189D1*
X785186Y1007283D1*
X787978Y1014024D1*
X791790Y1020243D1*
X796528Y1025791D1*
X798967Y1028046D1*
X798974Y1656881D1*
X791345Y1658770D1*
X778031D1*
X779176Y1654125D1*
X779503Y1649972D1*
X779421Y1624125D1*
X778770Y1620018D1*
X777486Y1616066D1*
X775598Y1612361D1*
X773150Y1608992D1*
X773033Y1282409D1*
X772285Y1277693D1*
X770810Y1273152D1*
X768642Y1268898D1*
X765836Y1265034D1*
X753075Y1252140D1*
X753071Y1245173D1*
X751929Y1237969D1*
X749675Y1231030D1*
X746362Y1224529D1*
X742075Y1218627D1*
X737157Y1213692D1*
X737151Y969751D1*
X744780Y967912D1*
X790173D1*
X1759879Y3607490D2*
X1753906Y3613409D1*
X1751529Y3616423D1*
X1383585Y3616421D1*
X1381741Y3608793D1*
Y3597202D1*
X1385925Y3598165D1*
X1390685Y3598539D1*
X1751500D1*
X1756650Y3604521D1*
X1759879Y3607471D1*
Y3528749D2*
X1753906Y3534669D1*
X1751529Y3537682D1*
X1403323Y3537681D1*
X1401427Y3530050D1*
X1401333Y2381816D1*
X1400583Y2377091D1*
X1401598Y2382894D1*
X1401692Y3246043D1*
X1402440Y3250760D1*
X1403915Y3255301D1*
X1406083Y3259555D1*
X1408888Y3263419D1*
X1430196Y3284858D1*
X1433827Y3287959D1*
X1437898Y3290454D1*
X1442310Y3292281D1*
X1446953Y3293396D1*
X1451713Y3293770D1*
X1627776Y3293677D1*
X1632492Y3292929D1*
X1637033Y3291454D1*
X1641287Y3289286D1*
X1645151Y3286480D1*
X1698871Y3232892D1*
X1743453Y3188310D1*
X1745488Y3194114D1*
X1749156Y3201314D1*
X1753906Y3207850D1*
X1759879Y3213770D1*
X1753906Y3219709D1*
X1749156Y3226245D1*
X1745488Y3233445D1*
X1742991Y3241129D1*
X1741727Y3249110D1*
Y3257189D1*
X1742991Y3265171D1*
X1745488Y3272854D1*
X1749156Y3280054D1*
X1753906Y3286591D1*
X1759879Y3292510D1*
X1753906Y3298449D1*
X1749156Y3304986D1*
X1745488Y3312185D1*
X1742991Y3319869D1*
X1741727Y3327850D1*
Y3335929D1*
X1742991Y3343911D1*
X1745488Y3351594D1*
X1749156Y3358794D1*
X1753906Y3365331D1*
X1759879Y3371251D1*
X1753906Y3377189D1*
X1749156Y3383726D1*
X1745488Y3390925D1*
X1742991Y3398609D1*
X1741727Y3406591D1*
Y3414669D1*
X1742991Y3422651D1*
X1745488Y3430335D1*
X1749156Y3437534D1*
X1753906Y3444071D1*
X1759879Y3449991D1*
X1753906Y3455929D1*
X1749156Y3462466D1*
X1745488Y3469665D1*
X1742991Y3477349D1*
X1741727Y3485331D1*
Y3493409D1*
X1742991Y3501391D1*
X1745488Y3509075D1*
X1749156Y3516274D1*
X1753906Y3522811D1*
X1759879Y3528731D1*
X805555Y3338902D2*
X799929Y3332223D1*
X793665Y3326874D1*
X786642Y3322571D1*
X778769Y3319344D1*
X786642Y3316112D1*
X793665Y3311808D1*
X799929Y3306459D1*
X805573Y3299753D1*
X811664Y3298929D1*
X816205Y3297454D1*
X820459Y3295286D1*
X824323Y3292480D1*
X827699Y3289104D1*
X830505Y3285240D1*
X832673Y3280986D1*
X834148Y3276445D1*
X834896Y3271728D1*
X834990Y3195850D1*
X834896Y3128387D1*
X834148Y3123671D1*
X832673Y3119130D1*
X830505Y3114875D1*
X827699Y3111012D1*
X816613Y3099793D1*
X833232Y3099770D1*
X835064Y3107399D1*
Y3351303D1*
X829823Y3346202D1*
X825959Y3343396D1*
X821705Y3341228D1*
X817164Y3339753D1*
X812448Y3339005D1*
X805575Y3338912D1*
X815142Y2965223D2*
X813853Y2957087D1*
X811307Y2949253D1*
X807568Y2941915D1*
X807219Y2941392D1*
X811664Y2940677D1*
X816205Y2939202D1*
X820459Y2937034D1*
X824323Y2934228D1*
X845762Y2912921D1*
X848864Y2909290D1*
X851358Y2905219D1*
X853185Y2900807D1*
X854301Y2896155D1*
X854407Y2978786D1*
X846778Y2980660D1*
X814088D1*
X815142Y2973459D1*
Y2965223D1*
X1078769Y2519339D2*
X1086642Y2516112D1*
X1093665Y2511808D1*
X1099929Y2506459D1*
X1105555Y2499781D1*
X1217058Y2499770D1*
X1218911Y2507399D1*
Y2571668D1*
X1215417Y2567503D1*
X1193984Y2546202D1*
X1190121Y2543396D1*
X1185866Y2541228D1*
X1181325Y2539753D1*
X1176609Y2539005D1*
X1105575Y2538912D1*
X1099929Y2532223D1*
X1093665Y2526874D1*
X1086642Y2522571D1*
X1078769Y2519344D1*
X1115142Y3165223D2*
X1113853Y3157087D1*
X1111307Y3149253D1*
X1107308Y3141526D1*
X1125896Y3141518D1*
X1127730Y3149147D1*
X1127699Y3349579D1*
X1124323Y3346202D1*
X1120459Y3343396D1*
X1116205Y3341228D1*
X1111664Y3339753D1*
X1106938Y3339005D1*
X1105278Y3338487D1*
X1099929Y3332223D1*
X1093665Y3326874D1*
X1086642Y3322571D1*
X1078769Y3319344D1*
X1086642Y3316112D1*
X1093665Y3311808D1*
X1099929Y3306459D1*
X1105278Y3300196D1*
X1109581Y3293172D1*
X1112734Y3285562D1*
X1114657Y3277552D1*
X1115303Y3269341D1*
X1114657Y3261130D1*
X1112734Y3253121D1*
X1109581Y3245510D1*
X1105278Y3238487D1*
X1099929Y3232223D1*
X1093665Y3226874D1*
X1086642Y3222571D1*
X1078769Y3219344D1*
X1086642Y3216112D1*
X1093665Y3211808D1*
X1099929Y3206459D1*
X1105278Y3200196D1*
X1109581Y3193172D1*
X1112734Y3185562D1*
X1114657Y3177552D1*
X1115303Y3169341D1*
X1115142Y3165223D1*
X866147Y5080749D2*
X735471Y4950073D1*
X923516Y4950066D1*
X1054181Y5080735D1*
X866171Y5080743D1*
D22*
X2305560Y5006841D3*
D23*
X2405560D3*
X2505560D3*
X2605560D3*
X2705560D3*
X2805560D3*
D95*
X1205562Y3738091D3*
Y3838091D3*
X1305562Y3738091D3*
Y3838091D3*
X1405562Y3738091D3*
Y3838091D3*
D28*
X3136812Y4588092D3*
D29*
Y4488092D3*
Y4388092D3*
Y4288092D3*
Y4188092D3*
Y4088092D3*
D28*
X3136811Y2781841D3*
D29*
Y2681841D3*
Y2581841D3*
Y2481841D3*
Y2381841D3*
Y2281841D3*
D31*
X1568062Y3025591D3*
Y3225591D3*
D33*
X1518060Y4506841D3*
D34*
X1714911D3*
D28*
X3136811Y3750591D3*
D29*
Y3650591D3*
Y3550591D3*
Y3450591D3*
Y3350591D3*
Y3250591D3*
Y3150591D3*
D22*
X1218060Y5006841D3*
D23*
X1318060D3*
X1418060D3*
X1518060D3*
X1618060D3*
X1718060D3*
D35*
X1218062Y4106841D3*
D36*
X1318062D3*
X1418062D3*
D37*
X899310Y4781841D3*
Y4495621D3*
D98*
X724310Y1638092D3*
Y1736517D3*
X645570D3*
Y1638092D3*
D39*
X538877Y1923525D3*
Y1451084D3*
D40*
X1793060Y3725591D3*
Y3646850D3*
Y3568110D3*
Y3489370D3*
Y3410630D3*
Y3331890D3*
Y3253150D3*
Y3174409D3*
Y3095669D3*
Y3016929D3*
X2659202D3*
Y3095669D3*
Y3174409D3*
Y3253150D3*
Y3331890D3*
Y3410630D3*
Y3489370D3*
Y3568110D3*
Y3646850D3*
Y3725591D3*
D41*
X736811Y3469341D3*
Y3369341D3*
Y3269341D3*
Y3169341D3*
Y3069341D3*
Y2969341D3*
Y2869341D3*
Y2769341D3*
Y2669341D3*
Y2569341D3*
Y2469341D3*
Y2369341D3*
Y2269341D3*
Y2169341D3*
X1036811D3*
Y2269341D3*
Y2369341D3*
Y2469341D3*
Y2569341D3*
Y2669341D3*
Y2769341D3*
Y2869341D3*
Y2969341D3*
Y3069341D3*
Y3169341D3*
Y3269341D3*
Y3369341D3*
Y3469341D3*
M02*
