G04 DipTrace 4.0.0.3*
G04 TopPaste.gbr*
%MOIN*%
G04 #@! TF.FileFunction,Paste,Top*
G04 #@! TF.Part,Single*
%ADD74R,0.062992X0.055118*%
%ADD81R,0.03937X0.03937*%
%ADD83R,0.051181X0.007874*%
%ADD89R,0.086614X0.086614*%
%ADD91R,0.055118X0.062992*%
%FSLAX26Y26*%
G04*
G70*
G90*
G75*
G01*
G04 TopPaste*
%LPD*%
D91*
X1624310Y4200591D3*
X1734546D3*
X1861810Y4113092D3*
X1972046D3*
X855560Y1444341D3*
X965797D3*
X1249310Y3556841D3*
X1359546D3*
X1399310Y1356841D3*
X1509546D3*
X1399310Y1213092D3*
X1509546D3*
X1911810Y1450591D3*
X2022046D3*
X1399310Y1494341D3*
X1509546D3*
X1911810Y1313092D3*
X2022046D3*
D89*
X1174311Y4500591D3*
X1347539D3*
D91*
X1624310Y4031844D3*
X1734546D3*
D83*
X768060Y1325591D3*
Y1300000D3*
Y1274409D3*
Y1248819D3*
Y1223228D3*
Y1197638D3*
Y1172047D3*
Y1146457D3*
Y1120866D3*
Y1095276D3*
Y1069685D3*
Y1044094D3*
Y1018504D3*
Y992913D3*
X1053493D3*
Y1018504D3*
Y1044094D3*
Y1069685D3*
Y1095276D3*
Y1120866D3*
Y1146457D3*
Y1172047D3*
Y1197638D3*
Y1223228D3*
Y1248819D3*
Y1274409D3*
Y1300000D3*
Y1325591D3*
D81*
X1874311Y4550592D3*
Y4467915D3*
D91*
X1405560Y1619341D3*
X1515797D3*
X936810Y4156841D3*
X1047046D3*
D74*
X774311Y3713091D3*
Y3823327D3*
X1011811Y3713091D3*
Y3823327D3*
D91*
X724310Y4156841D3*
X834546D3*
X849310Y1588092D3*
X959546D3*
X1918060Y1575591D3*
X2028297D3*
X1861810Y4294341D3*
X1972046D3*
D81*
X1011811Y4044341D3*
Y3961664D3*
X774311Y4056841D3*
Y3974164D3*
M02*
