G04 DipTrace 4.0.0.3*
G04 TopSilk.gbr*
%MOIN*%
G04 #@! TF.FileFunction,Legend,Top*
G04 #@! TF.Part,Single*
%ADD10C,0.009843*%
%ADD19C,0.004*%
%ADD20C,0.008*%
%ADD26C,0.006*%
%ADD30C,0.002*%
%ADD38C,0.01*%
%ADD92C,0.004632*%
%ADD93C,0.003088*%
%ADD94C,0.018527*%
%FSLAX26Y26*%
G04*
G70*
G90*
G75*
G01*
G04 TopSilk*
%LPD*%
X1667648Y4169126D2*
D10*
X1691207D1*
X1667648Y4232055D2*
X1691207D1*
X1912597Y4081627D2*
Y4144556D1*
X1905148Y4081627D2*
Y4144556D1*
Y4081627D2*
X1928707D1*
X1905148Y4144556D2*
X1928707D1*
X906348Y1412877D2*
Y1475806D1*
X898899Y1412877D2*
Y1475806D1*
Y1412877D2*
X922458D1*
X898899Y1475806D2*
X922458D1*
X1300097Y3525377D2*
Y3588306D1*
X1292648Y3525377D2*
Y3588306D1*
Y3525377D2*
X1316207D1*
X1292648Y3588306D2*
X1316207D1*
X1450097Y1325377D2*
Y1388306D1*
X1442648Y1325377D2*
Y1388306D1*
Y1325377D2*
X1466207D1*
X1442648Y1388306D2*
X1466207D1*
X1450097Y1181627D2*
Y1244556D1*
X1442648Y1181627D2*
Y1244556D1*
Y1181627D2*
X1466207D1*
X1442648Y1244556D2*
X1466207D1*
X1962597Y1419126D2*
Y1482055D1*
X1955148Y1419126D2*
Y1482055D1*
Y1419126D2*
X1978707D1*
X1955148Y1482055D2*
X1978707D1*
X1450097Y1462877D2*
Y1525806D1*
X1442648Y1462877D2*
Y1525806D1*
Y1462877D2*
X1466207D1*
X1442648Y1525806D2*
X1466207D1*
X1962597Y1281627D2*
Y1344556D1*
X1955148Y1281627D2*
Y1344556D1*
Y1281627D2*
X1978707D1*
X1955148Y1344556D2*
X1978707D1*
X1171936Y4575591D2*
D19*
X1349915D1*
X1171936Y4425591D2*
X1349915D1*
X1268529Y4539966D2*
D20*
X1228238Y4500591D1*
X1268529Y4461215D1*
Y4539966D1*
X1667648Y4063308D2*
D10*
X1691207D1*
X1667648Y4000379D2*
X1691207D1*
X1675063D2*
Y4063308D1*
X1667614Y4000379D2*
Y4063308D1*
X2246505Y4880849D2*
X2864615D1*
Y5136764D1*
X2246505D1*
Y4880849D1*
G36*
X2289896Y4909356D2*
Y4877845D1*
X2321235D1*
Y4909356D1*
X2289896D1*
G37*
G36*
X2389783D2*
Y4877845D1*
X2421307D1*
Y4909356D1*
X2389783D1*
G37*
G36*
X2489856D2*
Y4877845D1*
X2521318D1*
Y4909356D1*
X2489856D1*
G37*
G36*
X2589866D2*
Y4877845D1*
X2621388D1*
Y4909356D1*
X2589866D1*
G37*
G36*
X2689814D2*
Y4877845D1*
X2721276D1*
Y4909356D1*
X2689814D1*
G37*
G36*
X2789824D2*
Y4877845D1*
X2821348D1*
Y4909356D1*
X2789824D1*
G37*
X808429Y1360039D2*
D20*
Y958465D1*
X1013125D1*
Y1360039D1*
X808429D1*
G36*
X846793Y1342009D2*
X849066Y1341860D1*
X851299Y1341416D1*
X853455Y1340684D1*
X855498Y1339677D1*
X857391Y1338412D1*
X859103Y1336910D1*
X860605Y1335198D1*
X861870Y1333305D1*
X862877Y1331262D1*
X863609Y1329106D1*
X864053Y1326873D1*
X864202Y1324600D1*
X864053Y1322328D1*
X863609Y1320095D1*
X862877Y1317938D1*
X861870Y1315896D1*
X860605Y1314003D1*
X859103Y1312291D1*
X857391Y1310789D1*
X855498Y1309524D1*
X853455Y1308517D1*
X851299Y1307785D1*
X849066Y1307341D1*
X846793Y1307192D1*
X846783D1*
X844511Y1307341D1*
X842277Y1307785D1*
X840121Y1308517D1*
X838078Y1309524D1*
X836185Y1310789D1*
X834473Y1312291D1*
X832971Y1314003D1*
X831706Y1315896D1*
X830699Y1317938D1*
X829967Y1320095D1*
X829523Y1322328D1*
X829374Y1324600D1*
X829523Y1326873D1*
X829967Y1329106D1*
X830699Y1331262D1*
X831706Y1333305D1*
X832971Y1335198D1*
X834473Y1336910D1*
X836185Y1338412D1*
X838078Y1339677D1*
X840121Y1340684D1*
X842277Y1341416D1*
X844511Y1341860D1*
X846783Y1342009D1*
X846793D1*
G37*
X1155562Y3713091D2*
D26*
X1180551Y3688091D1*
X1230562D2*
X1255551Y3713091D1*
X1280572Y3688091D1*
X1330551D2*
X1355572Y3713091D1*
X1155562D2*
Y3863091D1*
X1180551Y3888091D1*
X1230562D1*
X1255551Y3863091D1*
X1280572Y3888091D1*
X1330551D1*
X1355572Y3863091D1*
X1255551D2*
Y3713091D1*
X1355572Y3863091D2*
Y3713091D1*
X1280572Y3688091D2*
X1330551D1*
X1180551D2*
X1230562D1*
X1355572Y3713091D2*
X1380562Y3688091D1*
X1430572D2*
X1455562Y3713091D1*
X1355572Y3863091D2*
X1380562Y3888091D1*
X1430572D1*
X1455562Y3863091D1*
Y3713091D1*
X1380562Y3688091D2*
X1430572D1*
G36*
X1847736Y4521063D2*
Y4509253D1*
X1853642D1*
Y4521063D1*
X1847736D1*
G37*
G36*
X1894980D2*
Y4509253D1*
X1900886D1*
Y4521063D1*
X1894980D1*
G37*
G36*
X1868406D2*
Y4509253D1*
X1880217D1*
Y4521063D1*
X1868406D1*
G37*
X3010820Y4647147D2*
D10*
Y4029037D1*
X3266735D1*
Y4647147D1*
X3010820D1*
G36*
X3039327Y4603756D2*
X3007816D1*
Y4572417D1*
X3039327D1*
Y4603756D1*
G37*
G36*
Y4503869D2*
X3007816D1*
Y4472345D1*
X3039327D1*
Y4503869D1*
G37*
G36*
Y4403797D2*
X3007816D1*
Y4372335D1*
X3039327D1*
Y4403797D1*
G37*
G36*
Y4303786D2*
X3007816D1*
Y4272264D1*
X3039327D1*
Y4303786D1*
G37*
G36*
Y4203839D2*
X3007816D1*
Y4172377D1*
X3039327D1*
Y4203839D1*
G37*
G36*
Y4103828D2*
X3007816D1*
Y4072304D1*
X3039327D1*
Y4103828D1*
G37*
X1456348Y1587877D2*
D10*
Y1650806D1*
X1448899Y1587877D2*
Y1650806D1*
Y1587877D2*
X1472458D1*
X1448899Y1650806D2*
X1472458D1*
X987597Y4125377D2*
Y4188306D1*
X980148Y4125377D2*
Y4188306D1*
Y4125377D2*
X1003707D1*
X980148Y4188306D2*
X1003707D1*
X3010819Y2840896D2*
Y2222786D1*
X3266734D1*
Y2840896D1*
X3010819D1*
G36*
X3039325Y2797505D2*
X3007815D1*
Y2766167D1*
X3039325D1*
Y2797505D1*
G37*
G36*
Y2697618D2*
X3007815D1*
Y2666094D1*
X3039325D1*
Y2697618D1*
G37*
G36*
Y2597546D2*
X3007815D1*
Y2566084D1*
X3039325D1*
Y2597546D1*
G37*
G36*
Y2497535D2*
X3007815D1*
Y2466013D1*
X3039325D1*
Y2497535D1*
G37*
G36*
Y2397588D2*
X3007815D1*
Y2366126D1*
X3039325D1*
Y2397588D1*
G37*
G36*
Y2297577D2*
X3007815D1*
Y2266054D1*
X3039325D1*
Y2297577D1*
G37*
X1658062Y2990591D2*
D26*
Y3260591D1*
X1478062D2*
Y2990591D1*
X1638064D2*
D30*
Y3260591D1*
X1498059D2*
Y2990591D1*
Y3260591D2*
G02X1638064Y3260591I70003J17D01*
G01*
X1478062D2*
D26*
G02X1658062Y3260591I90000J0D01*
G01*
X1478062Y2990591D2*
G03X1658062Y2990591I90000J0D01*
G01*
X1498059D2*
D30*
G03X1638064Y2990591I70003J-17D01*
G01*
X805776Y3756429D2*
D10*
Y3779988D1*
X742846Y3756429D2*
Y3779988D1*
X1043276Y3756429D2*
Y3779988D1*
X980346Y3756429D2*
Y3779988D1*
X767648Y4125377D2*
X791207D1*
X767648Y4188306D2*
X791207D1*
X892648Y1556627D2*
X916207D1*
X892648Y1619556D2*
X916207D1*
X1961399Y1544126D2*
X1984958D1*
X1961399Y1607055D2*
X1984958D1*
X1905148Y4262877D2*
X1928707D1*
X1905148Y4325806D2*
X1928707D1*
G36*
X985236Y4014812D2*
Y4003003D1*
X991142D1*
Y4014812D1*
X985236D1*
G37*
G36*
X1032480D2*
Y4003003D1*
X1038386D1*
Y4014812D1*
X1032480D1*
G37*
G36*
X1005906D2*
Y4003003D1*
X1017717D1*
Y4014812D1*
X1005906D1*
G37*
X1557424Y4506841D2*
D10*
G02X1557424Y4506841I59062J0D01*
G01*
X1494437Y4554073D2*
Y4628888D1*
X1738534D1*
Y4542283D1*
Y4471399D2*
Y4384794D1*
X1494437D1*
Y4455655D1*
G36*
X1606638Y4556051D2*
Y4457631D1*
X1626333D1*
Y4556051D1*
X1606638D1*
G37*
X1573169Y4617075D2*
D10*
X1659802D1*
X1724762Y4552121D2*
Y4546214D1*
X1726711Y4471399D2*
Y4463539D1*
X1659802Y4396608D2*
X1571220D1*
X1506260Y4552121D2*
G03X1573169Y4617075I-13241J80579D01*
G01*
X1659802D2*
G03X1724762Y4552121I74993J10040D01*
G01*
X1726711Y4463539D2*
G03X1659802Y4396608I33469J-100367D01*
G01*
X1571220D2*
G03X1506260Y4461562I-75639J-10686D01*
G01*
X3010819Y3809646D2*
Y3091535D1*
X3266734D1*
Y3809646D1*
X3010819D1*
G36*
X3039325Y3766272D2*
X3007815D1*
Y3734890D1*
X3039325D1*
Y3766272D1*
G37*
G36*
Y3666383D2*
X3007815D1*
Y3634858D1*
X3039325D1*
Y3666383D1*
G37*
G36*
Y3566350D2*
X3007815D1*
Y3534825D1*
X3039325D1*
Y3566350D1*
G37*
G36*
Y3466245D2*
X3007815D1*
Y3434793D1*
X3039325D1*
Y3466245D1*
G37*
G36*
Y3366356D2*
X3007815D1*
Y3334831D1*
X3039325D1*
Y3366356D1*
G37*
G36*
Y3266323D2*
X3007815D1*
Y3234798D1*
X3039325D1*
Y3266323D1*
G37*
G36*
Y3166291D2*
X3007815D1*
Y3134909D1*
X3039325D1*
Y3166291D1*
G37*
X1159005Y4880849D2*
D10*
X1777115D1*
Y5136764D1*
X1159005D1*
Y4880849D1*
G36*
X1202396Y4909356D2*
Y4877845D1*
X1233735D1*
Y4909356D1*
X1202396D1*
G37*
G36*
X1302283D2*
Y4877845D1*
X1333807D1*
Y4909356D1*
X1302283D1*
G37*
G36*
X1402356D2*
Y4877845D1*
X1433818D1*
Y4909356D1*
X1402356D1*
G37*
G36*
X1502366D2*
Y4877845D1*
X1533888D1*
Y4909356D1*
X1502366D1*
G37*
G36*
X1602314D2*
Y4877845D1*
X1633776D1*
Y4909356D1*
X1602314D1*
G37*
G36*
X1702324D2*
Y4877845D1*
X1733848D1*
Y4909356D1*
X1702324D1*
G37*
G36*
X747736Y4027312D2*
Y4015503D1*
X753642D1*
Y4027312D1*
X747736D1*
G37*
G36*
X794980D2*
Y4015503D1*
X800886D1*
Y4027312D1*
X794980D1*
G37*
G36*
X768406D2*
Y4015503D1*
X780217D1*
Y4027312D1*
X768406D1*
G37*
X1158168Y2457038D2*
D10*
Y606644D1*
X2890451D1*
Y2457038D1*
X1158168D1*
X1121211Y4213140D2*
Y4035975D1*
X1514912D1*
Y4213140D1*
X1121211D1*
Y4177707D2*
X1514912D1*
X739861Y4330266D2*
Y4814488D1*
Y4330266D2*
X1058759D1*
Y4814488D1*
X838273Y4940503D2*
X960346D1*
X739861Y4814488D2*
X838273Y4940503D1*
X1058759Y4814488D2*
X960346Y4940503D1*
X759349Y1919558D2*
D38*
X139270D1*
Y1455051D1*
X759349D1*
Y1919558D1*
X1749753Y2689961D2*
D20*
Y3729589D1*
X1998803Y3978543D1*
X2453459D1*
X2702509Y3729589D1*
Y2689961D1*
X1749753D1*
X1896097Y3484243D2*
D26*
X2518913D1*
X1896097Y3275364D2*
X2518913D1*
X1934492Y3456797D2*
D19*
X1994802D1*
Y3453446D1*
X1993087Y3450224D1*
X1994802Y3447518D1*
Y3444684D1*
X2008522Y3410150D1*
X2047394Y3448550D1*
X2049585Y3451256D1*
X2051205Y3454605D1*
X2051777Y3456797D1*
X2086362D1*
X2079217Y3451899D1*
X2073690Y3448034D1*
X2066068Y3441462D1*
X2014524Y3393140D1*
X2045203Y3317500D1*
X2053969Y3305517D1*
X2055588D1*
X2058923Y3308738D1*
X2063306Y3321882D1*
X2069879Y3346622D1*
X2077597Y3377806D1*
X2091793Y3435921D1*
X2093984Y3445844D1*
Y3456797D1*
X2218413D1*
X2224988Y3455121D1*
X2229466Y3452415D1*
X2232705Y3446358D1*
X2234896Y3440818D1*
Y3431539D1*
X2233277Y3427159D1*
X2226703Y3399713D1*
X2224512Y3394301D1*
X2216223Y3386052D1*
X2209648Y3383346D1*
X2200883Y3381156D1*
X2189927D1*
X2205837Y3378966D1*
X2217366Y3373425D1*
X2217937Y3372394D1*
Y3357575D1*
X2211840Y3333479D1*
X2208029Y3327423D1*
X2206980Y3320850D1*
X2198692Y3311444D1*
X2192118Y3308223D1*
X2181732Y3304873D1*
X1991467D1*
X1994802Y3310929D1*
Y3314794D1*
X1977272Y3358091D1*
X1931730Y3313635D1*
X1926776Y3304873D1*
X1894476D1*
X1908197Y3314794D1*
X1971745Y3374584D1*
X1940495Y3450740D1*
X1934492Y3456797D1*
X2135715Y3438112D2*
X2186115D1*
X2191070Y3435406D1*
X2191546Y3426643D1*
X2183924Y3397521D1*
X2182304Y3393785D1*
X2178970Y3391594D1*
X2124186D1*
X2135715Y3438112D1*
X2120280Y3371749D2*
X2170205D1*
X2174587Y3370203D1*
X2177350Y3366337D1*
Y3364663D1*
X2169156Y3332319D1*
X2166965Y3329097D1*
X2163059Y3324717D1*
X2160867Y3323556D1*
X2107703D1*
X2120280Y3371749D1*
X2279866Y3367369D2*
X2283677Y3389919D1*
X2285298Y3394301D1*
X2287488Y3398165D1*
X2290823Y3399713D1*
X2329696D1*
X2331887Y3399197D1*
X2333602Y3397521D1*
Y3390434D1*
X2327504Y3366853D1*
X2280438D1*
X2279866Y3367369D1*
X2350562Y3304873D2*
X2242042D1*
X2237660Y3306031D1*
X2233277Y3309253D1*
X2230514Y3313119D1*
X2228894Y3319176D1*
Y3324717D1*
X2229942Y3333479D1*
X2240899Y3382188D1*
X2242614Y3388244D1*
X2249188Y3401387D1*
X2254047Y3408604D1*
X2262812Y3414016D1*
X2269482Y3416206D1*
X2272720Y3416722D1*
X2358755D1*
X2364853Y3414530D1*
X2371999Y3409118D1*
X2374189Y3406928D1*
Y3387728D1*
X2364853Y3349844D1*
X2274912D1*
X2270530Y3331289D1*
X2269482Y3327938D1*
X2269958Y3324072D1*
X2272150Y3322526D1*
X2351133D1*
X2358278Y3323556D1*
X2350562Y3304873D1*
X2425638Y3367369D2*
X2429545Y3389919D1*
X2431164Y3394301D1*
X2433356Y3398165D1*
X2436690Y3399713D1*
X2475563D1*
X2477755Y3399197D1*
X2479374Y3397521D1*
Y3390434D1*
X2473371Y3366853D1*
X2426210D1*
X2425638Y3367369D1*
X2496428Y3304873D2*
X2387814D1*
X2383432Y3306031D1*
X2379049Y3309253D1*
X2376381Y3313119D1*
X2374665Y3319176D1*
Y3324717D1*
X2375810Y3333479D1*
X2386766Y3382188D1*
X2388386Y3388244D1*
X2394959Y3401387D1*
X2399913Y3408604D1*
X2408680Y3414016D1*
X2415253Y3416206D1*
X2418588Y3416722D1*
X2504622D1*
X2510625Y3414530D1*
X2517770Y3409118D1*
X2519961Y3406928D1*
Y3387728D1*
X2510625Y3349844D1*
X2420780D1*
X2416396Y3331289D1*
X2415253Y3327938D1*
X2415825Y3324072D1*
X2418016Y3322526D1*
X2496904D1*
X2504050Y3323556D1*
X2496428Y3304873D1*
X2237660Y3236965D2*
X2242614D1*
X2246996Y3240185D1*
X2251379Y3244567D1*
X2256239Y3241861D1*
X2276055D1*
X2291871Y3240185D1*
X2302924Y3233614D1*
X2305591Y3228717D1*
Y3226526D1*
X2303400Y3221630D1*
X2300160Y3217764D1*
X2293587Y3213383D1*
X2269482Y3201270D1*
X2256810Y3196374D1*
X2246996Y3194182D1*
X2243661Y3193668D1*
X2239850D1*
X2238231Y3188642D1*
X2234896Y3178849D1*
X2232134Y3170087D1*
X2229942Y3166220D1*
X2228894Y3164030D1*
X2226703Y3162870D1*
X2223940Y3164546D1*
X2221748Y3167896D1*
Y3171761D1*
X2222797Y3176143D1*
X2227751Y3186451D1*
X2231085Y3194182D1*
X2232134Y3201270D1*
X2233849Y3207843D1*
X2236516Y3216605D1*
X2239280Y3223176D1*
X2242042Y3227686D1*
X2237660D1*
Y3236965D1*
X2256810Y3230908D2*
X2284822D1*
X2291395Y3228202D1*
X2293014Y3227042D1*
X2292444Y3225366D1*
X2289680Y3223176D1*
X2280915Y3218795D1*
X2273865Y3213899D1*
X2263955Y3211193D1*
X2256810Y3208487D1*
X2252428Y3207843D1*
X2245853D1*
X2255762Y3228202D1*
X2256810Y3230908D1*
X2330839Y3228202D2*
X2329219Y3230392D1*
X2326457Y3232067D1*
X2325314Y3234259D1*
X2325885Y3237479D1*
X2329219Y3240829D1*
X2335222Y3243020D1*
X2342367Y3245726D1*
X2374189D1*
X2380764Y3244051D1*
X2388386Y3241345D1*
X2392768Y3238639D1*
X2396675Y3234259D1*
X2397723Y3231423D1*
X2394959Y3226526D1*
Y3222146D1*
X2390577Y3217764D1*
X2384575Y3213899D1*
X2372475Y3208487D1*
X2360946Y3201270D1*
X2355516Y3198049D1*
X2363709Y3189802D1*
X2374189Y3182715D1*
X2381811Y3176659D1*
X2386194Y3171117D1*
X2388386Y3165705D1*
X2388957Y3162356D1*
X2387337Y3159134D1*
X2385622Y3158490D1*
X2381240Y3161840D1*
X2359898Y3178849D1*
X2339605Y3192508D1*
X2335794D1*
X2334650Y3188642D1*
X2330839Y3177689D1*
X2327504Y3167896D1*
X2325314Y3162356D1*
Y3159134D1*
X2319311Y3164546D1*
X2318739Y3172793D1*
X2319882Y3178333D1*
X2324837Y3195858D1*
X2327504Y3205651D1*
X2333602Y3219440D1*
X2337413Y3226526D1*
X2339033Y3230392D1*
X2335222Y3230908D1*
X2330839Y3227686D1*
Y3228202D1*
X2354373Y3232583D2*
X2374189D1*
X2380764Y3231423D1*
X2382383Y3228202D1*
X2378572Y3227042D1*
X2373046Y3221630D1*
X2365424Y3217248D1*
X2358278Y3213383D1*
X2349990Y3211707D1*
X2343416Y3208487D1*
X2353896Y3227042D1*
X2354373Y3232583D1*
X2456412Y3227042D2*
X2470133D1*
X2476706Y3224852D1*
X2488711Y3212223D1*
Y3199080D1*
X2477755Y3191476D1*
X2466226Y3184906D1*
X2452507Y3180524D1*
X2439358Y3175499D1*
X2426210Y3174983D1*
X2421256Y3177689D1*
X2421827Y3183230D1*
X2426782Y3199080D1*
X2436118Y3211707D1*
X2450315Y3222660D1*
X2456412Y3227042D1*
X2462415Y3245726D2*
X2467941Y3243535D1*
X2471752Y3239155D1*
X2472323Y3236449D1*
X2479945Y3234259D1*
X2490902Y3226526D1*
X2500239Y3218795D1*
X2503003Y3208487D1*
X2501858Y3201270D1*
X2495857Y3190318D1*
X2485471Y3182071D1*
X2477755Y3174467D1*
X2463463Y3171117D1*
X2453077Y3164546D1*
X2437167Y3162356D1*
X2424591D1*
X2415253Y3168411D1*
X2409823Y3178849D1*
X2410299Y3189802D1*
X2413062Y3202945D1*
X2414681Y3207327D1*
X2429545Y3222146D1*
X2450315Y3239671D1*
X2461843Y3245726D1*
X861803Y3549341D2*
D26*
X776802D1*
X911819D2*
G02X861803Y3549341I-25008J42D01*
G01*
X776802D2*
Y2089341D1*
X996820Y3549341D2*
X911819D1*
X996820D2*
Y2089341D1*
X776802D1*
X3280215Y2366650D2*
D93*
Y2357100D1*
X3288815Y2356149D1*
X3287864Y2357100D1*
X3286892Y2359974D1*
Y2362826D1*
X3287864Y2365700D1*
X3289766Y2367623D1*
X3292640Y2368574D1*
X3294541D1*
X3297415Y2367623D1*
X3299338Y2365700D1*
X3300289Y2362826D1*
Y2359974D1*
X3299338Y2357100D1*
X3298366Y2356149D1*
X3296464Y2355176D1*
X3280193Y2374750D2*
X3300289Y2382399D1*
X3280193Y2390048D1*
X3286020Y2246947D2*
X3285047Y2248870D1*
X3282195Y2251744D1*
X3302269D1*
X3286971Y2258893D2*
X3286020D1*
X3284097Y2259843D1*
X3283146Y2260794D1*
X3282195Y2262717D1*
Y2266542D1*
X3283146Y2268443D1*
X3284097Y2269394D1*
X3286020Y2270367D1*
X3287921D1*
X3289845Y2269394D1*
X3292697Y2267493D1*
X3302269Y2257920D1*
Y2271317D1*
X3282173Y2277493D2*
X3302269Y2285142D1*
X3282173Y2292792D1*
X3286435Y2455559D2*
X3284534Y2454608D1*
X3282611Y2452685D1*
X3281660Y2450783D1*
Y2446959D1*
X3282611Y2445035D1*
X3284534Y2443134D1*
X3286435Y2442161D1*
X3289309Y2441211D1*
X3294107D1*
X3296959Y2442161D1*
X3298882Y2443134D1*
X3300783Y2445035D1*
X3301756Y2446959D1*
Y2450783D1*
X3300783Y2452685D1*
X3298882Y2454608D1*
X3296959Y2455559D1*
X3294107D1*
Y2450783D1*
X3281660Y2475132D2*
X3301756D1*
X3281660Y2461734D1*
X3301756D1*
X3281660Y2481307D2*
X3301756D1*
Y2488006D1*
X3300783Y2490880D1*
X3298882Y2492803D1*
X3296959Y2493754D1*
X3294107Y2494705D1*
X3289309D1*
X3286435Y2493754D1*
X3284534Y2492803D1*
X3282611Y2490880D1*
X3281660Y2488006D1*
Y2481307D1*
X3284534Y2654608D2*
X3282611Y2652707D1*
X3281660Y2649833D1*
Y2646008D1*
X3282611Y2643134D1*
X3284534Y2641211D1*
X3286435D1*
X3288359Y2642183D1*
X3289309Y2643134D1*
X3290260Y2645035D1*
X3292183Y2650783D1*
X3293134Y2652707D1*
X3294107Y2653657D1*
X3296008Y2654608D1*
X3298882D1*
X3300783Y2652707D1*
X3301756Y2649833D1*
Y2646008D1*
X3300783Y2643134D1*
X3298882Y2641211D1*
X3286435Y2675132D2*
X3284534Y2674181D1*
X3282611Y2672258D1*
X3281660Y2670356D1*
Y2666532D1*
X3282611Y2664608D1*
X3284534Y2662707D1*
X3286435Y2661734D1*
X3289309Y2660784D1*
X3294107D1*
X3296959Y2661734D1*
X3298882Y2662707D1*
X3300783Y2664608D1*
X3301756Y2666532D1*
Y2670356D1*
X3300783Y2672258D1*
X3298882Y2674181D1*
X3296959Y2675132D1*
X3281660Y2681307D2*
X3301756D1*
X3281660Y2694705D2*
X3295057Y2681307D1*
X3290260Y2686083D2*
X3301756Y2694705D1*
X3301142Y2562659D2*
X3281046D1*
X3301142Y2555010D1*
X3281046Y2547360D1*
X3301142D1*
X3281046Y2568835D2*
X3301142D1*
X3283920Y2588408D2*
X3281997Y2586506D1*
X3281046Y2583632D1*
Y2579808D1*
X3281997Y2576934D1*
X3283920Y2575010D1*
X3285821D1*
X3287745Y2575983D1*
X3288695Y2576934D1*
X3289646Y2578835D1*
X3291569Y2584583D1*
X3292520Y2586506D1*
X3293493Y2587457D1*
X3295394Y2588408D1*
X3298268D1*
X3300169Y2586506D1*
X3301142Y2583632D1*
Y2579808D1*
X3300169Y2576934D1*
X3298268Y2575010D1*
X3281046Y2600331D2*
X3281997Y2598408D1*
X3283920Y2596507D1*
X3285821Y2595534D1*
X3288695Y2594583D1*
X3293493D1*
X3296345Y2595534D1*
X3298268Y2596507D1*
X3300169Y2598408D1*
X3301142Y2600331D1*
Y2604156D1*
X3300169Y2606057D1*
X3298268Y2607981D1*
X3296345Y2608931D1*
X3293493Y2609882D1*
X3288695D1*
X3285821Y2608931D1*
X3283920Y2607981D1*
X3281997Y2606057D1*
X3281046Y2604156D1*
Y2600331D1*
X3292015Y2765663D2*
Y2774285D1*
X3291065Y2777137D1*
X3290092Y2778110D1*
X3288191Y2779061D1*
X3285317D1*
X3283416Y2778110D1*
X3282443Y2777137D1*
X3281492Y2774285D1*
Y2765663D1*
X3301588D1*
X3285339Y2785236D2*
X3284366Y2787160D1*
X3281514Y2790034D1*
X3301588D1*
X3289827Y3123676D2*
X3288854Y3125600D1*
X3286002Y3128474D1*
X3306076D1*
X3290778Y3135622D2*
X3289827D1*
X3287904Y3136573D1*
X3286953Y3137524D1*
X3286002Y3139447D1*
Y3143272D1*
X3286953Y3145173D1*
X3287904Y3146124D1*
X3289827Y3147096D1*
X3291728D1*
X3293652Y3146124D1*
X3296504Y3144222D1*
X3306076Y3134650D1*
Y3148047D1*
X3285980Y3154223D2*
X3306076Y3161872D1*
X3285980Y3169521D1*
X3289827Y3436176D2*
X3288854Y3438100D1*
X3286002Y3440974D1*
X3306076D1*
X3290778Y3448122D2*
X3289827D1*
X3287904Y3449073D1*
X3286953Y3450024D1*
X3286002Y3451947D1*
Y3455772D1*
X3286953Y3457673D1*
X3287904Y3458624D1*
X3289827Y3459596D1*
X3291728D1*
X3293652Y3458624D1*
X3296504Y3456722D1*
X3306076Y3447150D1*
Y3460547D1*
X3285980Y3466723D2*
X3306076Y3474372D1*
X3285980Y3482021D1*
Y3323676D2*
X3306076D1*
Y3330375D1*
X3305104Y3333249D1*
X3303202Y3335173D1*
X3301279Y3336123D1*
X3298427Y3337074D1*
X3293630D1*
X3290756Y3336123D1*
X3288854Y3335173D1*
X3286931Y3333249D1*
X3285980Y3330375D1*
Y3323676D1*
X3296039Y3343250D2*
Y3354303D1*
X3288854Y3373876D2*
X3286931Y3371975D1*
X3285980Y3369101D1*
Y3365277D1*
X3286931Y3362402D1*
X3288854Y3360479D1*
X3290756D1*
X3292679Y3361452D1*
X3293630Y3362402D1*
X3294580Y3364304D1*
X3296504Y3370052D1*
X3297454Y3371975D1*
X3298427Y3372926D1*
X3300328Y3373876D1*
X3303202D1*
X3305104Y3371975D1*
X3306076Y3369101D1*
Y3365277D1*
X3305104Y3362402D1*
X3303202Y3360479D1*
X3289827Y3380052D2*
X3288854Y3381976D1*
X3286002Y3384850D1*
X3306076D1*
X3290756Y3231774D2*
X3288854Y3230823D1*
X3286931Y3228900D1*
X3285980Y3226998D1*
Y3223174D1*
X3286931Y3221250D1*
X3288854Y3219349D1*
X3290756Y3218376D1*
X3293630Y3217426D1*
X3298427D1*
X3301279Y3218376D1*
X3303202Y3219349D1*
X3305104Y3221250D1*
X3306076Y3223174D1*
Y3226998D1*
X3305104Y3228900D1*
X3303202Y3230823D1*
X3301279Y3231774D1*
X3298427D1*
Y3226998D1*
X3285980Y3251347D2*
X3306076D1*
X3285980Y3237949D1*
X3306076D1*
X3285980Y3257523D2*
X3306076D1*
Y3264221D1*
X3305104Y3267095D1*
X3303202Y3269019D1*
X3301279Y3269969D1*
X3298427Y3270920D1*
X3293630D1*
X3290756Y3269969D1*
X3288854Y3269019D1*
X3286931Y3267095D1*
X3285980Y3264221D1*
Y3257523D1*
Y3623676D2*
X3306076D1*
Y3630375D1*
X3305104Y3633249D1*
X3303202Y3635173D1*
X3301279Y3636123D1*
X3298427Y3637074D1*
X3293630D1*
X3290756Y3636123D1*
X3288854Y3635173D1*
X3286931Y3633249D1*
X3285980Y3630375D1*
Y3623676D1*
X3296039Y3643250D2*
Y3654303D1*
X3288854Y3673876D2*
X3286931Y3671975D1*
X3285980Y3669101D1*
Y3665277D1*
X3286931Y3662402D1*
X3288854Y3660479D1*
X3290756D1*
X3292679Y3661452D1*
X3293630Y3662402D1*
X3294580Y3664304D1*
X3296504Y3670052D1*
X3297454Y3671975D1*
X3298427Y3672926D1*
X3300328Y3673876D1*
X3303202D1*
X3305104Y3671975D1*
X3306076Y3669101D1*
Y3665277D1*
X3305104Y3662402D1*
X3303202Y3660479D1*
X3290778Y3681025D2*
X3289827D1*
X3287904Y3681976D1*
X3286953Y3682926D1*
X3286002Y3684850D1*
Y3688674D1*
X3286953Y3690575D1*
X3287904Y3691526D1*
X3289827Y3692499D1*
X3291728D1*
X3293652Y3691526D1*
X3296504Y3689625D1*
X3306076Y3680052D1*
Y3693449D1*
X3290756Y3538024D2*
X3288854Y3537074D1*
X3286931Y3535150D1*
X3285980Y3533249D1*
Y3529425D1*
X3286931Y3527501D1*
X3288854Y3525600D1*
X3290756Y3524627D1*
X3293630Y3523676D1*
X3298427D1*
X3301279Y3524627D1*
X3303202Y3525600D1*
X3305104Y3527501D1*
X3306076Y3529425D1*
Y3533249D1*
X3305104Y3535150D1*
X3303202Y3537074D1*
X3301279Y3538024D1*
X3298427D1*
Y3533249D1*
X3285980Y3557597D2*
X3306076D1*
X3285980Y3544200D1*
X3306076D1*
X3285980Y3563773D2*
X3306076D1*
Y3570472D1*
X3305104Y3573346D1*
X3303202Y3575269D1*
X3301279Y3576220D1*
X3298427Y3577171D1*
X3293630D1*
X3290756Y3576220D1*
X3288854Y3575269D1*
X3286931Y3573346D1*
X3285980Y3570472D1*
Y3563773D1*
X3298480Y4361176D2*
X3318576D1*
Y4367875D1*
X3317604Y4370749D1*
X3315702Y4372673D1*
X3313779Y4373623D1*
X3310927Y4374574D1*
X3306130D1*
X3303256Y4373623D1*
X3301354Y4372673D1*
X3299431Y4370749D1*
X3298480Y4367875D1*
Y4361176D1*
X3301354Y4394147D2*
X3299431Y4392246D1*
X3298480Y4389372D1*
Y4385547D1*
X3299431Y4382673D1*
X3301354Y4380750D1*
X3303256D1*
X3305179Y4381722D1*
X3306130Y4382673D1*
X3307080Y4384574D1*
X3309004Y4390322D1*
X3309954Y4392246D1*
X3310927Y4393196D1*
X3312828Y4394147D1*
X3315702D1*
X3317604Y4392246D1*
X3318576Y4389372D1*
Y4385547D1*
X3317604Y4382673D1*
X3315702Y4380750D1*
X3303256Y4275524D2*
X3301354Y4274574D1*
X3299431Y4272650D1*
X3298480Y4270749D1*
Y4266925D1*
X3299431Y4265001D1*
X3301354Y4263100D1*
X3303256Y4262127D1*
X3306130Y4261176D1*
X3310927D1*
X3313779Y4262127D1*
X3315702Y4263100D1*
X3317604Y4265001D1*
X3318576Y4266925D1*
Y4270749D1*
X3317604Y4272650D1*
X3315702Y4274574D1*
X3313779Y4275524D1*
X3310927D1*
Y4270749D1*
X3298480Y4295097D2*
X3318576D1*
X3298480Y4281700D1*
X3318576D1*
X3298480Y4301273D2*
X3318576D1*
Y4307972D1*
X3317604Y4310846D1*
X3315702Y4312769D1*
X3313779Y4313720D1*
X3310927Y4314671D1*
X3306130D1*
X3303256Y4313720D1*
X3301354Y4312769D1*
X3299431Y4310846D1*
X3298480Y4307972D1*
Y4301273D1*
X3298502Y4178901D2*
Y4169351D1*
X3307102Y4168400D1*
X3306152Y4169351D1*
X3305179Y4172225D1*
Y4175076D1*
X3306152Y4177950D1*
X3308053Y4179874D1*
X3310927Y4180824D1*
X3312828D1*
X3315702Y4179874D1*
X3317626Y4177950D1*
X3318576Y4175076D1*
Y4172225D1*
X3317626Y4169351D1*
X3316653Y4168400D1*
X3314752Y4167427D1*
X3298480Y4187000D2*
X3318576Y4194649D1*
X3298480Y4202299D1*
X3298502Y4063100D2*
Y4073601D1*
X3306152Y4067875D1*
Y4070749D1*
X3307102Y4072650D1*
X3308053Y4073601D1*
X3310927Y4074574D1*
X3312828D1*
X3315702Y4073601D1*
X3317626Y4071700D1*
X3318576Y4068826D1*
Y4065952D1*
X3317626Y4063100D1*
X3316653Y4062149D1*
X3314752Y4061176D1*
X3316653Y4081700D2*
X3317626Y4080750D1*
X3318576Y4081700D1*
X3317626Y4082673D1*
X3316653Y4081700D1*
X3298502Y4090772D2*
Y4101273D1*
X3306152Y4095547D1*
Y4098421D1*
X3307102Y4100323D1*
X3308053Y4101273D1*
X3310927Y4102246D1*
X3312828D1*
X3315702Y4101273D1*
X3317626Y4099372D1*
X3318576Y4096498D1*
Y4093624D1*
X3317626Y4090772D1*
X3316653Y4089821D1*
X3314752Y4088849D1*
X3298480Y4108422D2*
X3318576Y4116071D1*
X3298480Y4123720D1*
X2693398Y4857830D2*
X2683848D1*
X2682897Y4849230D1*
X2683848Y4850180D1*
X2686722Y4851153D1*
X2689574D1*
X2692448Y4850180D1*
X2694371Y4848279D1*
X2695322Y4845405D1*
Y4843504D1*
X2694371Y4840630D1*
X2692448Y4838706D1*
X2689574Y4837756D1*
X2686722D1*
X2683848Y4838706D1*
X2682897Y4839679D1*
X2681925Y4841580D1*
X2701498Y4857852D2*
X2709147Y4837756D1*
X2716796Y4857852D1*
X2782483Y4857831D2*
X2792984D1*
X2787258Y4850182D1*
X2790132D1*
X2792034Y4849231D1*
X2792984Y4848280D1*
X2793957Y4845406D1*
Y4843505D1*
X2792984Y4840631D1*
X2791083Y4838708D1*
X2788209Y4837757D1*
X2785335D1*
X2782483Y4838708D1*
X2781532Y4839680D1*
X2780560Y4841582D1*
X2802056Y4838708D2*
X2801083Y4837757D1*
X2800133Y4838708D1*
X2801083Y4839680D1*
X2802056Y4838708D1*
Y4836806D1*
X2801083Y4834883D1*
X2800133Y4833932D1*
X2810155Y4857831D2*
X2820656D1*
X2814930Y4850182D1*
X2817804D1*
X2819706Y4849231D1*
X2820656Y4848280D1*
X2821629Y4845406D1*
Y4843505D1*
X2820656Y4840631D1*
X2818755Y4838708D1*
X2815881Y4837757D1*
X2813007D1*
X2810155Y4838708D1*
X2809205Y4839680D1*
X2808232Y4841582D1*
X2827805Y4857853D2*
X2835454Y4837757D1*
X2843103Y4857853D1*
X3298479Y4454926D2*
X3318575D1*
Y4461624D1*
X3317602Y4464498D1*
X3315701Y4466422D1*
X3313778Y4467373D1*
X3310926Y4468323D1*
X3306128D1*
X3303254Y4467373D1*
X3301353Y4466422D1*
X3299430Y4464498D1*
X3298479Y4461624D1*
Y4454926D1*
X3301353Y4487896D2*
X3299430Y4485995D1*
X3298479Y4483121D1*
Y4479296D1*
X3299430Y4476422D1*
X3301353Y4474499D1*
X3303254D1*
X3305178Y4475472D1*
X3306128Y4476422D1*
X3307079Y4478323D1*
X3309002Y4484072D1*
X3309953Y4485995D1*
X3310926Y4486946D1*
X3312827Y4487896D1*
X3315701D1*
X3317602Y4485995D1*
X3318575Y4483121D1*
Y4479296D1*
X3317602Y4476422D1*
X3315701Y4474499D1*
X3303276Y4495045D2*
X3302326D1*
X3300402Y4495995D1*
X3299452Y4496946D1*
X3298501Y4498869D1*
Y4502694D1*
X3299452Y4504595D1*
X3300402Y4505546D1*
X3302326Y4506519D1*
X3304227D1*
X3306150Y4505546D1*
X3309002Y4503645D1*
X3318575Y4494072D1*
Y4507469D1*
X2281925Y4857852D2*
Y4837756D1*
X2288623D1*
X2291497Y4838728D1*
X2293421Y4840630D1*
X2294371Y4842553D1*
X2295322Y4845405D1*
Y4850202D1*
X2294371Y4853076D1*
X2293421Y4854978D1*
X2291497Y4856901D1*
X2288623Y4857852D1*
X2281925D1*
X2303421Y4857830D2*
X2313922D1*
X2308196Y4850180D1*
X2311070D1*
X2312971Y4849230D1*
X2313922Y4848279D1*
X2314895Y4845405D1*
Y4843504D1*
X2313922Y4840630D1*
X2312021Y4838706D1*
X2309147Y4837756D1*
X2306273D1*
X2303421Y4838706D1*
X2302470Y4839679D1*
X2301498Y4841580D1*
X2386809Y4857853D2*
Y4837757D1*
X2393508D1*
X2396382Y4838730D1*
X2398305Y4840631D1*
X2399256Y4842554D1*
X2400206Y4845406D1*
Y4850204D1*
X2399256Y4853078D1*
X2398305Y4854979D1*
X2396382Y4856902D1*
X2393508Y4857853D1*
X2386809D1*
X2407355Y4853056D2*
Y4854006D1*
X2408305Y4855930D1*
X2409256Y4856880D1*
X2411179Y4857831D1*
X2415004D1*
X2416905Y4856880D1*
X2417856Y4855930D1*
X2418829Y4854006D1*
Y4852105D1*
X2417856Y4850182D1*
X2415955Y4847330D1*
X2406382Y4837757D1*
X2419779D1*
X2488174Y4857852D2*
Y4837756D1*
X2494873D1*
X2497747Y4838728D1*
X2499670Y4840630D1*
X2500621Y4842553D1*
X2501571Y4845405D1*
Y4850202D1*
X2500621Y4853076D1*
X2499670Y4854978D1*
X2497747Y4856901D1*
X2494873Y4857852D1*
X2488174D1*
X2507747Y4854005D2*
X2509670Y4854978D1*
X2512544Y4857830D1*
Y4837756D1*
X2601157Y4853078D2*
X2600206Y4854979D1*
X2598283Y4856902D1*
X2596382Y4857853D1*
X2592557D1*
X2590634Y4856902D1*
X2588732Y4854979D1*
X2587760Y4853078D1*
X2586809Y4850204D1*
Y4845406D1*
X2587760Y4842554D1*
X2588732Y4840631D1*
X2590634Y4838730D1*
X2592557Y4837757D1*
X2596382D1*
X2598283Y4838730D1*
X2600206Y4840631D1*
X2601157Y4842554D1*
Y4845406D1*
X2596382D1*
X2620730Y4857853D2*
Y4837757D1*
X2607333Y4857853D1*
Y4837757D1*
X2626906Y4857853D2*
Y4837757D1*
X2633604D1*
X2636478Y4838730D1*
X2638402Y4840631D1*
X2639352Y4842554D1*
X2640303Y4845406D1*
Y4850204D1*
X2639352Y4853078D1*
X2638402Y4854979D1*
X2636478Y4856902D1*
X2633604Y4857853D1*
X2626906D1*
X1605898Y4864080D2*
X1596348D1*
X1595397Y4855480D1*
X1596348Y4856431D1*
X1599222Y4857404D1*
X1602074D1*
X1604948Y4856431D1*
X1606871Y4854530D1*
X1607822Y4851656D1*
Y4849754D1*
X1606871Y4846880D1*
X1604948Y4844957D1*
X1602074Y4844006D1*
X1599222D1*
X1596348Y4844957D1*
X1595397Y4845930D1*
X1594425Y4847831D1*
X1613998Y4864102D2*
X1621647Y4844006D1*
X1629296Y4864102D1*
X1694983Y4864080D2*
X1705484D1*
X1699758Y4856431D1*
X1702632D1*
X1704534Y4855480D1*
X1705484Y4854530D1*
X1706457Y4851656D1*
Y4849754D1*
X1705484Y4846880D1*
X1703583Y4844957D1*
X1700709Y4844006D1*
X1697835D1*
X1694983Y4844957D1*
X1694032Y4845930D1*
X1693060Y4847831D1*
X1714556Y4844957D2*
X1713583Y4844006D1*
X1712633Y4844957D1*
X1713583Y4845930D1*
X1714556Y4844957D1*
Y4843056D1*
X1713583Y4841132D1*
X1712633Y4840182D1*
X1722655Y4864080D2*
X1733156D1*
X1727430Y4856431D1*
X1730304D1*
X1732206Y4855480D1*
X1733156Y4854530D1*
X1734129Y4851656D1*
Y4849754D1*
X1733156Y4846880D1*
X1731255Y4844957D1*
X1728381Y4844006D1*
X1725507D1*
X1722655Y4844957D1*
X1721705Y4845930D1*
X1720732Y4847831D1*
X1740305Y4864102D2*
X1747954Y4844006D1*
X1755603Y4864102D1*
X1194425D2*
Y4844006D1*
X1201123D1*
X1203997Y4844979D1*
X1205921Y4846880D1*
X1206871Y4848804D1*
X1207822Y4851656D1*
Y4856453D1*
X1206871Y4859327D1*
X1205921Y4861228D1*
X1203997Y4863152D1*
X1201123Y4864102D1*
X1194425D1*
X1215921Y4864080D2*
X1226422D1*
X1220696Y4856431D1*
X1223570D1*
X1225471Y4855480D1*
X1226422Y4854530D1*
X1227395Y4851656D1*
Y4849754D1*
X1226422Y4846880D1*
X1224521Y4844957D1*
X1221647Y4844006D1*
X1218773D1*
X1215921Y4844957D1*
X1214970Y4845930D1*
X1213998Y4847831D1*
X1299309Y4864102D2*
Y4844006D1*
X1306008D1*
X1308882Y4844979D1*
X1310805Y4846880D1*
X1311756Y4848804D1*
X1312706Y4851656D1*
Y4856453D1*
X1311756Y4859327D1*
X1310805Y4861228D1*
X1308882Y4863152D1*
X1306008Y4864102D1*
X1299309D1*
X1319855Y4859305D2*
Y4860256D1*
X1320805Y4862179D1*
X1321756Y4863130D1*
X1323679Y4864080D1*
X1327504D1*
X1329405Y4863130D1*
X1330356Y4862179D1*
X1331329Y4860256D1*
Y4858354D1*
X1330356Y4856431D1*
X1328455Y4853579D1*
X1318882Y4844006D1*
X1332279D1*
X1400674Y4864102D2*
Y4844006D1*
X1407373D1*
X1410247Y4844979D1*
X1412170Y4846880D1*
X1413121Y4848804D1*
X1414071Y4851656D1*
Y4856453D1*
X1413121Y4859327D1*
X1412170Y4861228D1*
X1410247Y4863152D1*
X1407373Y4864102D1*
X1400674D1*
X1420247Y4860256D2*
X1422170Y4861228D1*
X1425044Y4864080D1*
Y4844006D1*
X1513657Y4859327D2*
X1512706Y4861228D1*
X1510783Y4863152D1*
X1508882Y4864102D1*
X1505057D1*
X1503134Y4863152D1*
X1501232Y4861228D1*
X1500260Y4859327D1*
X1499309Y4856453D1*
Y4851656D1*
X1500260Y4848804D1*
X1501232Y4846880D1*
X1503134Y4844979D1*
X1505057Y4844006D1*
X1508882D1*
X1510783Y4844979D1*
X1512706Y4846880D1*
X1513657Y4848804D1*
Y4851656D1*
X1508882D1*
X1533230Y4864102D2*
Y4844006D1*
X1519833Y4864102D1*
Y4844006D1*
X1539406Y4864102D2*
Y4844006D1*
X1546104D1*
X1548978Y4844979D1*
X1550902Y4846880D1*
X1551852Y4848804D1*
X1552803Y4851656D1*
Y4856453D1*
X1551852Y4859327D1*
X1550902Y4861228D1*
X1548978Y4863152D1*
X1546104Y4864102D1*
X1539406D1*
X3131025Y897355D2*
D94*
X3211409D1*
X3153973D2*
X3136729Y914600D1*
X3131025Y926140D1*
Y943251D1*
X3136729Y954792D1*
X3153973Y960495D1*
X3211409D1*
X3153973D2*
X3136729Y977739D1*
X3131025Y989280D1*
Y1006391D1*
X3136729Y1017931D1*
X3153973Y1023768D1*
X3211409D1*
X3131025Y1129666D2*
X3211409D1*
X3148270D2*
X3136729Y1118258D1*
X3131025Y1106718D1*
Y1089606D1*
X3136729Y1078066D1*
X3148270Y1066659D1*
X3165514Y1060822D1*
X3176921D1*
X3194165Y1066659D1*
X3205573Y1078066D1*
X3211409Y1089606D1*
Y1106718D1*
X3205573Y1118258D1*
X3194165Y1129666D1*
X3131025Y1235564D2*
X3251601D1*
X3148270D2*
X3136862Y1224156D1*
X3131025Y1212616D1*
Y1195372D1*
X3136862Y1183964D1*
X3148270Y1172424D1*
X3165514Y1166720D1*
X3177054D1*
X3194165Y1172424D1*
X3205706Y1183964D1*
X3211409Y1195372D1*
Y1212616D1*
X3205706Y1224156D1*
X3194165Y1235564D1*
X3131025Y1272618D2*
X3188462D1*
X3205573Y1278322D1*
X3211409Y1289862D1*
Y1307106D1*
X3205573Y1318514D1*
X3188462Y1335758D1*
X3131025D2*
X3211409D1*
X3090833Y1372812D2*
X3096537Y1378516D1*
X3090833Y1384352D1*
X3084997Y1378516D1*
X3090833Y1372812D1*
X3131025Y1378516D2*
X3211409D1*
X3131025Y1421407D2*
X3211409D1*
X3153973D2*
X3136729Y1438651D1*
X3131025Y1450191D1*
Y1467302D1*
X3136729Y1478843D1*
X3153973Y1484546D1*
X3211409D1*
X3131025Y1550252D2*
X3136729Y1538845D1*
X3148270Y1527304D1*
X3165514Y1521601D1*
X3176921D1*
X3194165Y1527304D1*
X3205573Y1538845D1*
X3211409Y1550252D1*
Y1567496D1*
X3205573Y1579037D1*
X3194165Y1590444D1*
X3176921Y1596281D1*
X3165514D1*
X3148270Y1590444D1*
X3136729Y1579037D1*
X3131025Y1567496D1*
Y1550252D1*
X3090833Y1633335D2*
X3211409D1*
X3131025Y1739233D2*
X3211409D1*
X3148270D2*
X3136729Y1727825D1*
X3131025Y1716285D1*
Y1699174D1*
X3136729Y1687633D1*
X3148270Y1676226D1*
X3165514Y1670389D1*
X3176921D1*
X3194165Y1676226D1*
X3205573Y1687633D1*
X3211409Y1699174D1*
Y1716285D1*
X3205573Y1727825D1*
X3194165Y1739233D1*
X3113914Y1776287D2*
X3108077Y1787827D1*
X3090966Y1805071D1*
X3211409D1*
X3119618Y1847962D2*
X3113914D1*
X3102374Y1853666D1*
X3096670Y1859370D1*
X3090966Y1870910D1*
Y1893858D1*
X3096670Y1905266D1*
X3102374Y1910969D1*
X3113914Y1916806D1*
X3125322D1*
X3136862Y1910969D1*
X3153973Y1899562D1*
X3211409Y1842126D1*
Y1922510D1*
X1642905Y4279924D2*
D92*
X1658657D1*
X1650068Y4268450D1*
X1654379D1*
X1657231Y4267024D1*
X1658657Y4265598D1*
X1660116Y4261287D1*
Y4258436D1*
X1658657Y4254124D1*
X1655805Y4251239D1*
X1651494Y4249813D1*
X1647183D1*
X1642905Y4251239D1*
X1641479Y4252699D1*
X1640020Y4255550D1*
X1672265Y4279924D2*
X1688017D1*
X1679428Y4268450D1*
X1683739D1*
X1686591Y4267024D1*
X1688017Y4265598D1*
X1689476Y4261287D1*
Y4258436D1*
X1688017Y4254124D1*
X1685165Y4251239D1*
X1680854Y4249813D1*
X1676543D1*
X1672265Y4251239D1*
X1670839Y4252699D1*
X1669380Y4255550D1*
X1707361Y4279924D2*
X1703050Y4278498D1*
X1700165Y4274187D1*
X1698739Y4267024D1*
Y4262713D1*
X1700165Y4255550D1*
X1703050Y4251239D1*
X1707361Y4249813D1*
X1710213D1*
X1714524Y4251239D1*
X1717376Y4255550D1*
X1718835Y4262713D1*
Y4267024D1*
X1717376Y4274187D1*
X1714524Y4278498D1*
X1710213Y4279924D1*
X1707361D1*
X1717376Y4274187D2*
X1700165Y4255550D1*
X1871446Y4186689D2*
X1874331Y4188148D1*
X1878642Y4192426D1*
Y4162315D1*
X1896528Y4192426D2*
X1892217Y4191000D1*
X1889332Y4186689D1*
X1887906Y4179526D1*
Y4175215D1*
X1889332Y4168052D1*
X1892217Y4163741D1*
X1896528Y4162315D1*
X1899380D1*
X1903691Y4163741D1*
X1906542Y4168052D1*
X1908002Y4175215D1*
Y4179526D1*
X1906542Y4186689D1*
X1903691Y4191000D1*
X1899380Y4192426D1*
X1896528D1*
X1906542Y4186689D2*
X1889332Y4168052D1*
X1925887Y4192426D2*
X1921576Y4191000D1*
X1918691Y4186689D1*
X1917265Y4179526D1*
Y4175215D1*
X1918691Y4168052D1*
X1921576Y4163741D1*
X1925887Y4162315D1*
X1928739D1*
X1933050Y4163741D1*
X1935902Y4168052D1*
X1937361Y4175215D1*
Y4179526D1*
X1935902Y4186689D1*
X1933050Y4191000D1*
X1928739Y4192426D1*
X1925887D1*
X1935902Y4186689D2*
X1918691Y4168052D1*
X1946625Y4182411D2*
Y4162315D1*
Y4176674D2*
X1950936Y4180985D1*
X1953821Y4182411D1*
X1958099D1*
X1960984Y4180985D1*
X1962410Y4176674D1*
Y4162315D1*
X865197Y1517938D2*
X868082Y1519397D1*
X872393Y1523675D1*
Y1493564D1*
X890278Y1523675D2*
X885967Y1522249D1*
X883082Y1517938D1*
X881656Y1510775D1*
Y1506464D1*
X883082Y1499301D1*
X885967Y1494990D1*
X890278Y1493564D1*
X893130D1*
X897441Y1494990D1*
X900293Y1499301D1*
X901752Y1506464D1*
Y1510775D1*
X900293Y1517938D1*
X897441Y1522249D1*
X893130Y1523675D1*
X890278D1*
X900293Y1517938D2*
X883082Y1499301D1*
X919638Y1523675D2*
X915327Y1522249D1*
X912442Y1517938D1*
X911016Y1510775D1*
Y1506464D1*
X912442Y1499301D1*
X915327Y1494990D1*
X919638Y1493564D1*
X922490D1*
X926801Y1494990D1*
X929653Y1499301D1*
X931112Y1506464D1*
Y1510775D1*
X929653Y1517938D1*
X926801Y1522249D1*
X922490Y1523675D1*
X919638D1*
X929653Y1517938D2*
X912442Y1499301D1*
X940375Y1513660D2*
Y1493564D1*
Y1507923D2*
X944686Y1512234D1*
X947571Y1513660D1*
X951849D1*
X954734Y1512234D1*
X956160Y1507923D1*
Y1493564D1*
X1258946Y3630438D2*
X1261831Y3631897D1*
X1266142Y3636175D1*
Y3606064D1*
X1284028Y3636175D2*
X1279717Y3634749D1*
X1276832Y3630438D1*
X1275406Y3623275D1*
Y3618964D1*
X1276832Y3611801D1*
X1279717Y3607490D1*
X1284028Y3606064D1*
X1286880D1*
X1291191Y3607490D1*
X1294042Y3611801D1*
X1295502Y3618964D1*
Y3623275D1*
X1294042Y3630438D1*
X1291191Y3634749D1*
X1286880Y3636175D1*
X1284028D1*
X1294042Y3630438D2*
X1276832Y3611801D1*
X1313387Y3636175D2*
X1309076Y3634749D1*
X1306191Y3630438D1*
X1304765Y3623275D1*
Y3618964D1*
X1306191Y3611801D1*
X1309076Y3607490D1*
X1313387Y3606064D1*
X1316239D1*
X1320550Y3607490D1*
X1323402Y3611801D1*
X1324861Y3618964D1*
Y3623275D1*
X1323402Y3630438D1*
X1320550Y3634749D1*
X1316239Y3636175D1*
X1313387D1*
X1323402Y3630438D2*
X1306191Y3611801D1*
X1334125Y3626160D2*
Y3606064D1*
Y3620423D2*
X1338436Y3624734D1*
X1341321Y3626160D1*
X1345599D1*
X1348484Y3624734D1*
X1349910Y3620423D1*
Y3606064D1*
X1394979Y1430438D2*
X1397864Y1431897D1*
X1402175Y1436175D1*
Y1406064D1*
X1420061Y1436175D2*
X1415750Y1434749D1*
X1412865Y1430438D1*
X1411439Y1423275D1*
Y1418964D1*
X1412865Y1411801D1*
X1415750Y1407490D1*
X1420061Y1406064D1*
X1422913D1*
X1427224Y1407490D1*
X1430076Y1411801D1*
X1431535Y1418964D1*
Y1423275D1*
X1430076Y1430438D1*
X1427224Y1434749D1*
X1422913Y1436175D1*
X1420061D1*
X1430076Y1430438D2*
X1412865Y1411801D1*
X1449420Y1436175D2*
X1445109Y1434749D1*
X1442224Y1430438D1*
X1440798Y1423275D1*
Y1418964D1*
X1442224Y1411801D1*
X1445109Y1407490D1*
X1449420Y1406064D1*
X1452272D1*
X1456583Y1407490D1*
X1459435Y1411801D1*
X1460894Y1418964D1*
Y1423275D1*
X1459435Y1430438D1*
X1456583Y1434749D1*
X1452272Y1436175D1*
X1449420D1*
X1459435Y1430438D2*
X1442224Y1411801D1*
X1470158Y1426160D2*
Y1406064D1*
Y1420423D2*
X1474469Y1424734D1*
X1477354Y1426160D1*
X1481632D1*
X1484517Y1424734D1*
X1485943Y1420423D1*
Y1406064D1*
X1513876Y1436208D2*
X1495206D1*
Y1406064D1*
Y1421849D2*
X1506680D1*
X1410781Y1262315D2*
Y1292426D1*
X1396422Y1272363D1*
X1417944D1*
X1428633Y1265200D2*
X1427207Y1263741D1*
X1428633Y1262315D1*
X1430092Y1263741D1*
X1428633Y1265200D1*
X1445093Y1262315D2*
X1459452Y1292426D1*
X1439356D1*
X1468715Y1282411D2*
Y1268052D1*
X1470141Y1263774D1*
X1473026Y1262315D1*
X1477337D1*
X1480189Y1263774D1*
X1484500Y1268052D1*
Y1282411D2*
Y1262315D1*
X1512434Y1292459D2*
X1493764D1*
Y1262315D1*
Y1278100D2*
X1505238D1*
X1930405Y1522761D2*
Y1524187D1*
X1931831Y1527072D1*
X1933257Y1528498D1*
X1936142Y1529924D1*
X1941879D1*
X1944731Y1528498D1*
X1946157Y1527072D1*
X1947616Y1524187D1*
Y1521335D1*
X1946157Y1518450D1*
X1943305Y1514172D1*
X1928946Y1499813D1*
X1949042D1*
X1959765Y1522761D2*
Y1524187D1*
X1961191Y1527072D1*
X1962617Y1528498D1*
X1965502Y1529924D1*
X1971239D1*
X1974091Y1528498D1*
X1975517Y1527072D1*
X1976976Y1524187D1*
Y1521335D1*
X1975517Y1518450D1*
X1972665Y1514172D1*
X1958306Y1499813D1*
X1978402D1*
X1987665Y1519909D2*
Y1489765D1*
Y1515598D2*
X1990550Y1518450D1*
X1993402Y1519909D1*
X1997713D1*
X2000598Y1518450D1*
X2003450Y1515598D1*
X2004909Y1511287D1*
Y1508402D1*
X2003450Y1504124D1*
X2000598Y1501239D1*
X1997713Y1499813D1*
X1993402D1*
X1990550Y1501239D1*
X1987665Y1504124D1*
X1409659Y1567938D2*
X1412544Y1569397D1*
X1416855Y1573675D1*
Y1543564D1*
X1434741Y1573675D2*
X1430430Y1572249D1*
X1427545Y1567938D1*
X1426119Y1560775D1*
Y1556464D1*
X1427545Y1549301D1*
X1430430Y1544990D1*
X1434741Y1543564D1*
X1437593D1*
X1441904Y1544990D1*
X1444755Y1549301D1*
X1446215Y1556464D1*
Y1560775D1*
X1444755Y1567938D1*
X1441904Y1572249D1*
X1437593Y1573675D1*
X1434741D1*
X1444755Y1567938D2*
X1427545Y1549301D1*
X1455478Y1563660D2*
Y1543564D1*
Y1557923D2*
X1459789Y1562234D1*
X1462674Y1563660D1*
X1466952D1*
X1469837Y1562234D1*
X1471263Y1557923D1*
Y1543564D1*
X1499197Y1573708D2*
X1480527D1*
Y1543564D1*
Y1559349D2*
X1492001D1*
X1930405Y1385263D2*
Y1386689D1*
X1931831Y1389574D1*
X1933257Y1391000D1*
X1936142Y1392426D1*
X1941879D1*
X1944731Y1391000D1*
X1946157Y1389574D1*
X1947616Y1386689D1*
Y1383837D1*
X1946157Y1380952D1*
X1943305Y1376674D1*
X1928946Y1362315D1*
X1949042D1*
X1959765Y1385263D2*
Y1386689D1*
X1961191Y1389574D1*
X1962617Y1391000D1*
X1965502Y1392426D1*
X1971239D1*
X1974091Y1391000D1*
X1975517Y1389574D1*
X1976976Y1386689D1*
Y1383837D1*
X1975517Y1380952D1*
X1972665Y1376674D1*
X1958306Y1362315D1*
X1978402D1*
X1987665Y1382411D2*
Y1352267D1*
Y1378100D2*
X1990550Y1380952D1*
X1993402Y1382411D1*
X1997713D1*
X2000598Y1380952D1*
X2003450Y1378100D1*
X2004909Y1373789D1*
Y1370904D1*
X2003450Y1366626D1*
X2000598Y1363741D1*
X1997713Y1362315D1*
X1993402D1*
X1990550Y1363741D1*
X1987665Y1366626D1*
X1242647Y4619524D2*
Y4589380D1*
X1252695D1*
X1257006Y4590840D1*
X1259891Y4593691D1*
X1261317Y4596576D1*
X1262743Y4600854D1*
Y4608050D1*
X1261317Y4612361D1*
X1259891Y4615213D1*
X1257006Y4618098D1*
X1252695Y4619524D1*
X1242647D1*
X1272007Y4613754D2*
X1274892Y4615213D1*
X1279203Y4619491D1*
Y4589380D1*
X1654700Y4111211D2*
Y4081067D1*
X1664748D1*
X1669059Y4082526D1*
X1671944Y4085378D1*
X1673370Y4088263D1*
X1674796Y4092541D1*
Y4099737D1*
X1673370Y4104048D1*
X1671944Y4106900D1*
X1669059Y4109785D1*
X1664748Y4111211D1*
X1654700D1*
X1685519Y4104015D2*
Y4105441D1*
X1686945Y4108326D1*
X1688371Y4109752D1*
X1691256Y4111178D1*
X1696993D1*
X1699845Y4109752D1*
X1701271Y4108326D1*
X1702730Y4105441D1*
Y4102589D1*
X1701271Y4099704D1*
X1698419Y4095426D1*
X1684060Y4081067D1*
X1704156D1*
X2444572Y5180698D2*
Y5150554D1*
X2454620D1*
X2458931Y5152013D1*
X2461816Y5154865D1*
X2463242Y5157750D1*
X2464668Y5162028D1*
Y5169224D1*
X2463242Y5173535D1*
X2461816Y5176387D1*
X2458931Y5179272D1*
X2454620Y5180698D1*
X2444572D1*
X2473932D2*
Y5150554D1*
X2503291Y5176387D2*
X2500439Y5179272D1*
X2496128Y5180698D1*
X2490391D1*
X2486080Y5179272D1*
X2483195Y5176387D1*
Y5173535D1*
X2484654Y5170650D1*
X2486080Y5169224D1*
X2488932Y5167798D1*
X2497554Y5164913D1*
X2500439Y5163487D1*
X2501865Y5162028D1*
X2503291Y5159176D1*
Y5154865D1*
X2500439Y5152013D1*
X2496128Y5150554D1*
X2490391D1*
X2486080Y5152013D1*
X2483195Y5154865D1*
X2522603Y5180698D2*
Y5150554D1*
X2512555Y5180698D2*
X2532651D1*
X2564895Y5150554D2*
X2553388Y5180698D1*
X2541914Y5150554D1*
X2546225Y5160602D2*
X2560584D1*
X2594255Y5180698D2*
Y5150554D1*
X2574159Y5180698D1*
Y5150554D1*
X2625040Y5173535D2*
X2623614Y5176387D1*
X2620729Y5179272D1*
X2617878Y5180698D1*
X2612141D1*
X2609255Y5179272D1*
X2606404Y5176387D1*
X2604944Y5173535D1*
X2603518Y5169224D1*
Y5162028D1*
X2604944Y5157750D1*
X2606404Y5154865D1*
X2609255Y5152013D1*
X2612141Y5150554D1*
X2617878D1*
X2620729Y5152013D1*
X2623614Y5154865D1*
X2625040Y5157750D1*
X2634304Y5180698D2*
Y5150554D1*
X2666549D2*
X2655041Y5180698D1*
X2643568Y5150554D1*
X2647879Y5160602D2*
X2662238D1*
X893898Y1081951D2*
Y1063281D1*
X924042D1*
X908257D2*
Y1074755D1*
X893898Y1101262D2*
X924042D1*
X893898Y1091214D2*
Y1111310D1*
X901094Y1122033D2*
X899668D1*
X896783Y1123459D1*
X895357Y1124885D1*
X893931Y1127770D1*
Y1133507D1*
X895357Y1136359D1*
X896783Y1137785D1*
X899668Y1139244D1*
X902520D1*
X905405Y1137785D1*
X909683Y1134933D1*
X924042Y1120574D1*
Y1140670D1*
X893931Y1152819D2*
Y1168570D1*
X905405Y1159982D1*
Y1164293D1*
X906831Y1167144D1*
X908257Y1168570D1*
X912568Y1170030D1*
X915420D1*
X919731Y1168570D1*
X922616Y1165719D1*
X924042Y1161407D1*
Y1157096D1*
X922616Y1152819D1*
X921157Y1151393D1*
X918305Y1149934D1*
X901094Y1180752D2*
X899668D1*
X896783Y1182178D1*
X895357Y1183604D1*
X893931Y1186489D1*
Y1192226D1*
X895357Y1195078D1*
X896783Y1196504D1*
X899668Y1197963D1*
X902520D1*
X905405Y1196504D1*
X909683Y1193652D1*
X924042Y1179293D1*
Y1199389D1*
X908257Y1208653D2*
Y1221553D1*
X906797Y1225864D1*
X905372Y1227323D1*
X902520Y1228749D1*
X899635D1*
X896783Y1227323D1*
X895324Y1225864D1*
X893898Y1221553D1*
Y1208653D1*
X924042D1*
X908257Y1218701D2*
X924042Y1228749D1*
X893898Y1238012D2*
X924042D1*
Y1255223D1*
X1260809Y3932024D2*
Y3901880D1*
X1291595Y3924861D2*
X1290169Y3927713D1*
X1287284Y3930598D1*
X1284432Y3932024D1*
X1278695D1*
X1275810Y3930598D1*
X1272958Y3927713D1*
X1271499Y3924861D1*
X1270073Y3920550D1*
Y3913354D1*
X1271499Y3909076D1*
X1272958Y3906191D1*
X1275810Y3903340D1*
X1278695Y3901880D1*
X1284432D1*
X1287284Y3903340D1*
X1290169Y3906191D1*
X1291595Y3909076D1*
X1320954Y3927713D2*
X1318103Y3930598D1*
X1313792Y3932024D1*
X1308055D1*
X1303743Y3930598D1*
X1300858Y3927713D1*
Y3924861D1*
X1302318Y3921976D1*
X1303743Y3920550D1*
X1306595Y3919124D1*
X1315217Y3916239D1*
X1318103Y3914813D1*
X1319528Y3913354D1*
X1320954Y3910502D1*
Y3906191D1*
X1318103Y3903340D1*
X1313792Y3901880D1*
X1308055D1*
X1303743Y3903340D1*
X1300858Y3906191D1*
X1330218Y3916239D2*
X1343151D1*
X1347429Y3917665D1*
X1348888Y3919124D1*
X1350314Y3921976D1*
Y3926287D1*
X1348888Y3929139D1*
X1347429Y3930598D1*
X1343151Y3932024D1*
X1330218D1*
Y3901880D1*
X1803802Y4491722D2*
X1805228Y4488837D1*
X1808113Y4485985D1*
X1810965Y4484526D1*
X1815276Y4483100D1*
X1822472D1*
X1826750Y4484526D1*
X1829635Y4485985D1*
X1832487Y4488837D1*
X1833946Y4491722D1*
Y4497459D1*
X1832487Y4500310D1*
X1829635Y4503196D1*
X1826750Y4504622D1*
X1822472Y4506047D1*
X1815276D1*
X1810965Y4504622D1*
X1808113Y4503196D1*
X1805228Y4500310D1*
X1803802Y4497459D1*
Y4491722D1*
Y4535407D2*
X1833946D1*
X1803802Y4515311D1*
X1833946D1*
X2973930Y4213115D2*
X2975356Y4210263D1*
X2978241Y4207378D1*
X2982552Y4205952D1*
X2985404D1*
X2989715Y4207378D1*
X2992567Y4210263D1*
X2994026Y4213115D1*
Y4217426D1*
X2992567Y4220311D1*
X2989715Y4223163D1*
X2985404Y4224622D1*
X2982552D1*
X2978241Y4223163D1*
X2975356Y4220311D1*
X2973930Y4217426D1*
Y4213115D1*
X2963882Y4238196D2*
X2988289D1*
X2992567Y4239622D1*
X2994026Y4242507D1*
Y4245359D1*
X2973930Y4233885D2*
Y4243933D1*
Y4254623D2*
X2994026D1*
X2982552D2*
X2978241Y4256082D1*
X2975356Y4258934D1*
X2973930Y4261819D1*
Y4266130D1*
Y4282556D2*
X2975356Y4279704D1*
X2978241Y4276819D1*
X2982552Y4275393D1*
X2985404D1*
X2989715Y4276819D1*
X2992567Y4279704D1*
X2994026Y4282556D1*
Y4286867D1*
X2992567Y4289752D1*
X2989715Y4292604D1*
X2985404Y4294063D1*
X2982552D1*
X2978241Y4292604D1*
X2975356Y4289752D1*
X2973930Y4286867D1*
Y4282556D1*
X2978971Y4303327D2*
Y4319908D1*
X2978241Y4344956D2*
X2975356Y4343530D1*
X2973930Y4339219D1*
Y4334908D1*
X2975356Y4330597D1*
X2978241Y4329171D1*
X2981093Y4330597D1*
X2982552Y4333482D1*
X2983978Y4340645D1*
X2985404Y4343530D1*
X2988289Y4344956D1*
X2989715D1*
X2992567Y4343530D1*
X2994026Y4339219D1*
Y4334908D1*
X2992567Y4330597D1*
X2989715Y4329171D1*
X2982552Y4354220D2*
Y4371431D1*
X2979667D1*
X2976782Y4370005D1*
X2975356Y4368579D1*
X2973930Y4365694D1*
Y4361383D1*
X2975356Y4358531D1*
X2978241Y4355646D1*
X2982552Y4354220D1*
X2985404D1*
X2989715Y4355646D1*
X2992567Y4358531D1*
X2994026Y4361383D1*
Y4365694D1*
X2992567Y4368579D1*
X2989715Y4371431D1*
X2973930Y4380694D2*
X2994026D1*
X2979667D2*
X2975356Y4385005D1*
X2973930Y4387890D1*
Y4392168D1*
X2975356Y4395053D1*
X2979667Y4396479D1*
X2994026D1*
X2978241Y4421528D2*
X2975356Y4420102D1*
X2973930Y4415791D1*
Y4411480D1*
X2975356Y4407169D1*
X2978241Y4405743D1*
X2981093Y4407169D1*
X2982552Y4410054D1*
X2983978Y4417217D1*
X2985404Y4420102D1*
X2988289Y4421528D1*
X2989715D1*
X2992567Y4420102D1*
X2994026Y4415791D1*
Y4411480D1*
X2992567Y4407169D1*
X2989715Y4405743D1*
X2973930Y4437954D2*
X2975356Y4435102D1*
X2978241Y4432217D1*
X2982552Y4430791D1*
X2985404D1*
X2989715Y4432217D1*
X2992567Y4435102D1*
X2994026Y4437954D1*
Y4442265D1*
X2992567Y4445150D1*
X2989715Y4448002D1*
X2985404Y4449461D1*
X2982552D1*
X2978241Y4448002D1*
X2975356Y4445150D1*
X2973930Y4442265D1*
Y4437954D1*
Y4458725D2*
X2994026D1*
X2982552D2*
X2978241Y4460184D1*
X2975356Y4463036D1*
X2973930Y4465921D1*
Y4470232D1*
X1437072Y1668564D2*
Y1698675D1*
X1422713Y1678612D1*
X1444235D1*
X1459236Y1668564D2*
X1473595Y1698675D1*
X1453499D1*
X1482859Y1688660D2*
Y1674301D1*
X1484284Y1670023D1*
X1487170Y1668564D1*
X1491481D1*
X1494332Y1670023D1*
X1498643Y1674301D1*
Y1688660D2*
Y1668564D1*
X968322Y4206064D2*
Y4236175D1*
X953963Y4216112D1*
X975485D1*
X990485Y4206064D2*
X1004844Y4236175D1*
X984748D1*
X1014108Y4226160D2*
Y4211801D1*
X1015534Y4207523D1*
X1018419Y4206064D1*
X1022730D1*
X1025582Y4207523D1*
X1029893Y4211801D1*
Y4226160D2*
Y4206064D1*
X3050655Y2869045D2*
X3063588D1*
X3067866Y2870471D1*
X3069325Y2871930D1*
X3070751Y2874782D1*
Y2879093D1*
X3069325Y2881945D1*
X3067866Y2883404D1*
X3063588Y2884830D1*
X3050655D1*
Y2854686D1*
X3080014Y2874782D2*
Y2860423D1*
X3081440Y2856145D1*
X3084325Y2854686D1*
X3088636D1*
X3091488Y2856145D1*
X3095799Y2860423D1*
Y2874782D2*
Y2854686D1*
X3105063Y2866160D2*
X3122274D1*
Y2869045D1*
X3120848Y2871930D1*
X3119422Y2873356D1*
X3116537Y2874782D1*
X3112226D1*
X3109374Y2873356D1*
X3106489Y2870471D1*
X3105063Y2866160D1*
Y2863308D1*
X3106489Y2858997D1*
X3109374Y2856145D1*
X3112226Y2854686D1*
X3116537D1*
X3119422Y2856145D1*
X3122274Y2858997D1*
X3131537Y2874782D2*
Y2854686D1*
Y2869045D2*
X3135848Y2873356D1*
X3138733Y2874782D1*
X3143011D1*
X3145896Y2873356D1*
X3147322Y2869045D1*
Y2854686D1*
X3160897Y2884830D2*
Y2860423D1*
X3162323Y2856145D1*
X3165208Y2854686D1*
X3168060D1*
X3156586Y2874782D2*
X3166634D1*
X3177323Y2866160D2*
X3194534D1*
Y2869045D1*
X3193108Y2871930D1*
X3191682Y2873356D1*
X3188797Y2874782D1*
X3184486D1*
X3181634Y2873356D1*
X3178749Y2870471D1*
X3177323Y2866160D1*
Y2863308D1*
X3178749Y2858997D1*
X3181634Y2856145D1*
X3184486Y2854686D1*
X3188797D1*
X3191682Y2856145D1*
X3194534Y2858997D1*
X3203798Y2884830D2*
Y2854686D1*
X3223894Y2884830D2*
Y2854686D1*
X3203798Y2870471D2*
X3223894D1*
X1550513Y3394524D2*
X1547662Y3393132D1*
X1544776Y3390247D1*
X1543350Y3387361D1*
X1541891Y3383050D1*
Y3375888D1*
X1543350Y3371576D1*
X1544776Y3368725D1*
X1547662Y3365840D1*
X1550513Y3364414D1*
X1556250D1*
X1559135Y3365840D1*
X1561987Y3368725D1*
X1563413Y3371576D1*
X1564872Y3375888D1*
Y3383050D1*
X1563413Y3387361D1*
X1561987Y3390247D1*
X1559135Y3393132D1*
X1556250Y3394524D1*
X1550513D1*
X1554824Y3370151D2*
X1563413Y3361528D1*
X1575595Y3387328D2*
Y3388754D1*
X1577021Y3391639D1*
X1578447Y3393065D1*
X1581332Y3394491D1*
X1587069D1*
X1589921Y3393065D1*
X1591347Y3391639D1*
X1592806Y3388754D1*
Y3385902D1*
X1591347Y3383017D1*
X1588495Y3378739D1*
X1574136Y3364380D1*
X1594232D1*
X709303Y3749931D2*
Y3762831D1*
X707844Y3767142D1*
X706418Y3768601D1*
X703566Y3770027D1*
X700681D1*
X697829Y3768601D1*
X696370Y3767142D1*
X694944Y3762831D1*
Y3749931D1*
X725088D1*
X709303Y3759979D2*
X725088Y3770027D1*
X700714Y3779290D2*
X699255Y3782175D1*
X694977Y3786486D1*
X725088D1*
X946803Y3743481D2*
Y3756381D1*
X945344Y3760692D1*
X943918Y3762151D1*
X941066Y3763577D1*
X938181D1*
X935329Y3762151D1*
X933870Y3760692D1*
X932444Y3756381D1*
Y3743481D1*
X962588D1*
X946803Y3753529D2*
X962588Y3763577D1*
X939640Y3774300D2*
X938214D1*
X935329Y3775726D1*
X933903Y3777151D1*
X932477Y3780037D1*
Y3785774D1*
X933903Y3788625D1*
X935329Y3790051D1*
X938214Y3791510D1*
X941066D1*
X943951Y3790051D1*
X948229Y3787199D1*
X962588Y3772840D1*
Y3792936D1*
X761150Y4230438D2*
X764035Y4231897D1*
X768346Y4236175D1*
Y4206064D1*
X777610Y4236208D2*
Y4206064D1*
X797706Y4236208D2*
X777610Y4216112D1*
X784773Y4223308D2*
X797706Y4206064D1*
X886150Y1661689D2*
X889035Y1663148D1*
X893346Y1667426D1*
Y1637315D1*
X902610Y1667459D2*
Y1637315D1*
X922706Y1667459D2*
X902610Y1647363D1*
X909773Y1654559D2*
X922706Y1637315D1*
X1950982Y1654924D2*
X1936656D1*
X1935230Y1642024D1*
X1936656Y1643450D1*
X1940967Y1644909D1*
X1945245D1*
X1949556Y1643450D1*
X1952441Y1640598D1*
X1953867Y1636287D1*
Y1633436D1*
X1952441Y1629124D1*
X1949556Y1626239D1*
X1945245Y1624813D1*
X1940967D1*
X1936656Y1626239D1*
X1935230Y1627699D1*
X1933771Y1630550D1*
X1971753Y1654924D2*
X1967442Y1653498D1*
X1964556Y1649187D1*
X1963130Y1642024D1*
Y1637713D1*
X1964556Y1630550D1*
X1967442Y1626239D1*
X1971753Y1624813D1*
X1974604D1*
X1978915Y1626239D1*
X1981767Y1630550D1*
X1983226Y1637713D1*
Y1642024D1*
X1981767Y1649187D1*
X1978915Y1653498D1*
X1974604Y1654924D1*
X1971753D1*
X1981767Y1649187D2*
X1964556Y1630550D1*
X2001112Y1654924D2*
X1996801Y1653498D1*
X1993916Y1649187D1*
X1992490Y1642024D1*
Y1637713D1*
X1993916Y1630550D1*
X1996801Y1626239D1*
X2001112Y1624813D1*
X2003964D1*
X2008275Y1626239D1*
X2011127Y1630550D1*
X2012586Y1637713D1*
Y1642024D1*
X2011127Y1649187D1*
X2008275Y1653498D1*
X2003964Y1654924D1*
X2001112D1*
X2011127Y1649187D2*
X1993916Y1630550D1*
X1883970Y4367938D2*
X1886855Y4369397D1*
X1891166Y4373675D1*
Y4343564D1*
X1909052Y4373675D2*
X1904741Y4372249D1*
X1901856Y4367938D1*
X1900430Y4360775D1*
Y4356464D1*
X1901856Y4349301D1*
X1904741Y4344990D1*
X1909052Y4343564D1*
X1911904D1*
X1916215Y4344990D1*
X1919067Y4349301D1*
X1920526Y4356464D1*
Y4360775D1*
X1919067Y4367938D1*
X1916215Y4372249D1*
X1911904Y4373675D1*
X1909052D1*
X1919067Y4367938D2*
X1901856Y4349301D1*
X1929789Y4373708D2*
Y4343564D1*
X1949885Y4373708D2*
X1929789Y4353612D1*
X1936952Y4360808D2*
X1949885Y4343564D1*
X955661Y3978275D2*
Y3991175D1*
X954202Y3995486D1*
X952776Y3996945D1*
X949924Y3998371D1*
X947039D1*
X944187Y3996945D1*
X942728Y3995486D1*
X941302Y3991175D1*
Y3978275D1*
X971446D1*
X955661Y3988323D2*
X971446Y3998371D1*
X941302Y4007634D2*
X971446Y4027730D1*
X941302D2*
X971446Y4007634D1*
X1618304Y4668511D2*
X1615452Y4671396D1*
X1611141Y4672822D1*
X1605404D1*
X1601093Y4671396D1*
X1598208Y4668511D1*
Y4665659D1*
X1599667Y4662774D1*
X1601093Y4661348D1*
X1603945Y4659922D1*
X1612567Y4657037D1*
X1615452Y4655611D1*
X1616878Y4654152D1*
X1618304Y4651300D1*
Y4646989D1*
X1615452Y4644137D1*
X1611141Y4642678D1*
X1605404D1*
X1601093Y4644137D1*
X1598208Y4646989D1*
X1627567Y4667052D2*
X1630452Y4668511D1*
X1634763Y4672789D1*
Y4642678D1*
X2968192Y3363213D2*
X2965307Y3360362D1*
X2963881Y3356051D1*
Y3350314D1*
X2965307Y3346003D1*
X2968192Y3343117D1*
X2971044D1*
X2973929Y3344577D1*
X2975355Y3346003D1*
X2976781Y3348854D1*
X2979666Y3357476D1*
X2981092Y3360362D1*
X2982551Y3361787D1*
X2985403Y3363213D1*
X2989714D1*
X2992566Y3360362D1*
X2994025Y3356051D1*
Y3350314D1*
X2992566Y3346003D1*
X2989714Y3343117D1*
X2978970Y3372477D2*
Y3389058D1*
X2963881Y3398321D2*
X2965307Y3399747D1*
X2963881Y3401206D1*
X2962422Y3399747D1*
X2963881Y3398321D1*
X2973929Y3399747D2*
X2994025D1*
X2973929Y3410470D2*
X2994025D1*
X2979666D2*
X2975355Y3414781D1*
X2973929Y3417666D1*
Y3421944D1*
X2975355Y3424829D1*
X2979666Y3426255D1*
X2994025D1*
X2963881Y3452729D2*
X2994025D1*
X2978240D2*
X2975355Y3449878D1*
X2973929Y3446993D1*
Y3442681D1*
X2975355Y3439830D1*
X2978240Y3436945D1*
X2982551Y3435519D1*
X2985403D1*
X2989714Y3436945D1*
X2992566Y3439830D1*
X2994025Y3442681D1*
Y3446993D1*
X2992566Y3449878D1*
X2989714Y3452729D1*
X2978970Y3461993D2*
Y3478574D1*
X2978240Y3505082D2*
X2975355Y3502196D1*
X2973929Y3499311D1*
Y3495034D1*
X2975355Y3492148D1*
X2978240Y3489297D1*
X2982551Y3487837D1*
X2985403D1*
X2989714Y3489297D1*
X2992566Y3492148D1*
X2994025Y3495034D1*
Y3499311D1*
X2992566Y3502196D1*
X2989714Y3505082D1*
X2973929Y3531556D2*
X2994025D1*
X2978240D2*
X2975355Y3528704D1*
X2973929Y3525819D1*
Y3521541D1*
X2975355Y3518656D1*
X2978240Y3515804D1*
X2982551Y3514345D1*
X2985403D1*
X2989714Y3515804D1*
X2992566Y3518656D1*
X2994025Y3521541D1*
Y3525819D1*
X2992566Y3528704D1*
X2989714Y3531556D1*
X2973929Y3540820D2*
X3004073D1*
X2978240D2*
X2975388Y3543705D1*
X2973929Y3546557D1*
Y3550868D1*
X2975388Y3553753D1*
X2978240Y3556605D1*
X2982551Y3558064D1*
X2985436D1*
X2989714Y3556605D1*
X2992599Y3553753D1*
X2994025Y3550868D1*
Y3546557D1*
X2992599Y3543705D1*
X2989714Y3540820D1*
X1308445Y5176387D2*
X1305593Y5179272D1*
X1301282Y5180698D1*
X1295545D1*
X1291234Y5179272D1*
X1288349Y5176387D1*
Y5173535D1*
X1289808Y5170650D1*
X1291234Y5169224D1*
X1294086Y5167798D1*
X1302708Y5164913D1*
X1305593Y5163487D1*
X1307019Y5162028D1*
X1308445Y5159176D1*
Y5154865D1*
X1305593Y5152013D1*
X1301282Y5150554D1*
X1295545D1*
X1291234Y5152013D1*
X1288349Y5154865D1*
X1336345Y5180698D2*
X1317709D1*
Y5150554D1*
X1336345D1*
X1317709Y5166339D2*
X1329183D1*
X1367131Y5173535D2*
X1365705Y5176387D1*
X1362820Y5179272D1*
X1359968Y5180698D1*
X1354231D1*
X1351346Y5179272D1*
X1348494Y5176387D1*
X1347035Y5173535D1*
X1345609Y5169224D1*
Y5162028D1*
X1347035Y5157750D1*
X1348494Y5154865D1*
X1351346Y5152013D1*
X1354231Y5150554D1*
X1359968D1*
X1362820Y5152013D1*
X1365705Y5154865D1*
X1367131Y5157750D1*
Y5162028D1*
X1359968D1*
X1376395Y5180698D2*
Y5159176D1*
X1377820Y5154865D1*
X1380706Y5152013D1*
X1385017Y5150554D1*
X1387868D1*
X1392180Y5152013D1*
X1395065Y5154865D1*
X1396491Y5159176D1*
Y5180698D1*
X1405754D2*
Y5150554D1*
X1415018Y5180698D2*
Y5150554D1*
X1425066D1*
X1429377Y5152013D1*
X1432262Y5154865D1*
X1433688Y5157750D1*
X1435114Y5162028D1*
Y5169224D1*
X1433688Y5173535D1*
X1432262Y5176387D1*
X1429377Y5179272D1*
X1425066Y5180698D1*
X1415018D1*
X1452999D2*
X1450114Y5179272D1*
X1447262Y5176387D1*
X1445803Y5173535D1*
X1444377Y5169224D1*
Y5162028D1*
X1445803Y5157750D1*
X1447262Y5154865D1*
X1450114Y5152013D1*
X1452999Y5150554D1*
X1458736D1*
X1461588Y5152013D1*
X1464473Y5154865D1*
X1465899Y5157750D1*
X1467325Y5162028D1*
Y5169224D1*
X1465899Y5173535D1*
X1464473Y5176387D1*
X1461588Y5179272D1*
X1458736Y5180698D1*
X1452999D1*
X1476589Y5166339D2*
X1489489D1*
X1493800Y5167798D1*
X1495259Y5169224D1*
X1496685Y5172076D1*
Y5174961D1*
X1495259Y5177813D1*
X1493800Y5179272D1*
X1489489Y5180698D1*
X1476589D1*
Y5150554D1*
X1486637Y5166339D2*
X1496685Y5150554D1*
X1505948Y5165609D2*
X1522529D1*
X1531793Y5180698D2*
Y5150554D1*
X1549004D1*
X1558267Y5180698D2*
Y5150554D1*
X1587627Y5180698D2*
Y5150554D1*
X1567531Y5180698D1*
Y5150554D1*
X1615527Y5180698D2*
X1596890D1*
Y5150554D1*
X1615527D1*
X1596890Y5166339D2*
X1608364D1*
X1647772Y5150554D2*
X1636265Y5180698D1*
X1624791Y5150554D1*
X1629102Y5160602D2*
X1643461D1*
X703802Y4000823D2*
X733946D1*
X703802Y3990775D2*
Y4010871D1*
Y4020134D2*
X733946Y4040230D1*
X703802D2*
X733946Y4020134D1*
X2006032Y2500972D2*
Y2479450D1*
X2007458Y2475139D1*
X2010343Y2472287D1*
X2014654Y2470828D1*
X2017506D1*
X2021817Y2472287D1*
X2024702Y2475139D1*
X2026128Y2479450D1*
Y2500972D1*
X2035391Y2495202D2*
X2038277Y2496661D1*
X2042588Y2500939D1*
Y2470828D1*
X1293334Y4257074D2*
Y4235552D1*
X1294760Y4231241D1*
X1297645Y4228389D1*
X1301956Y4226930D1*
X1304808D1*
X1309119Y4228389D1*
X1312004Y4231241D1*
X1313430Y4235552D1*
Y4257074D1*
X1324153Y4249878D2*
Y4251304D1*
X1325579Y4254189D1*
X1327004Y4255615D1*
X1329890Y4257041D1*
X1335627D1*
X1338478Y4255615D1*
X1339904Y4254189D1*
X1341364Y4251304D1*
Y4248452D1*
X1339904Y4245567D1*
X1337052Y4241289D1*
X1322693Y4226930D1*
X1342789D1*
X874582Y4984436D2*
Y4962915D1*
X876008Y4958603D1*
X878893Y4955752D1*
X883204Y4954292D1*
X886056D1*
X890367Y4955752D1*
X893252Y4958603D1*
X894678Y4962915D1*
Y4984436D1*
X906827Y4984403D2*
X922578D1*
X913989Y4972929D1*
X918301D1*
X921152Y4971503D1*
X922578Y4970077D1*
X924037Y4965766D1*
Y4962915D1*
X922578Y4958603D1*
X919726Y4955718D1*
X915415Y4954292D1*
X911104D1*
X906827Y4955718D1*
X905401Y4957178D1*
X903941Y4960029D1*
X424582Y2030766D2*
X444678Y2000622D1*
Y2030766D2*
X424582Y2000622D1*
X455401Y2023570D2*
Y2024996D1*
X456827Y2027881D1*
X458253Y2029307D1*
X461138Y2030733D1*
X466875D1*
X469726Y2029307D1*
X471152Y2027881D1*
X472612Y2024996D1*
Y2022144D1*
X471152Y2019259D1*
X468301Y2014981D1*
X453941Y2000622D1*
X474037D1*
X2173503Y4022477D2*
X2193599Y3992333D1*
Y4022477D2*
X2173503Y3992333D1*
X2202863Y4022477D2*
Y3992333D1*
X2215796D1*
X2220107Y3993792D1*
X2221533Y3995218D1*
X2222959Y3998070D1*
Y4002381D1*
X2221533Y4005266D1*
X2220107Y4006692D1*
X2215796Y4008118D1*
X2220107Y4009577D1*
X2221533Y4011003D1*
X2222959Y4013855D1*
Y4016740D1*
X2221533Y4019592D1*
X2220107Y4021051D1*
X2215796Y4022477D1*
X2202863D1*
Y4008118D2*
X2215796D1*
X2250859Y4022477D2*
X2232222D1*
Y3992333D1*
X2250859D1*
X2232222Y4008118D2*
X2243696D1*
X2278759Y4022477D2*
X2260123D1*
Y3992333D1*
X2278759D1*
X2260123Y4008118D2*
X2271597D1*
X848509Y3593275D2*
X868605D1*
X848509Y3563131D1*
X868605D1*
X877868Y3593275D2*
Y3563131D1*
X908654Y3586112D2*
X907228Y3588964D1*
X904343Y3591849D1*
X901491Y3593275D1*
X895754D1*
X892869Y3591849D1*
X890017Y3588964D1*
X888558Y3586112D1*
X887132Y3581801D1*
Y3574605D1*
X888558Y3570327D1*
X890017Y3567442D1*
X892869Y3564590D1*
X895754Y3563131D1*
X901491D1*
X904343Y3564590D1*
X907228Y3567442D1*
X908654Y3570327D1*
X917917Y3587505D2*
X920802Y3588964D1*
X925113Y3593242D1*
Y3563131D1*
M02*
